<svg width="51" height="56" viewBox="0 0 51 56" fill="none" xmlns="http://www.w3.org/2000/svg">
<path d="M1.56976 17.4401H47.151M47.151 36.8072V11.0791C47.151 9.27938 45.6884 7.82042 43.8843 7.82042H4.83643C3.0323 7.82042 1.56976 9.27938 1.56976 11.0791V46.4695M1 46.4695H29.4882M40.8835 39.0808C36.8944 37.9441 32.0158 42.4733 32.3365 47.038C32.6673 51.7454 36.7246 55.1466 41.4527 54.9951C46.0159 54.849 48.8605 49.8797 48.8605 47.038C48.8605 44.1962 46.9637 40.7341 44.3021 39.5975M44.3021 39.5975L43.7326 39.6491L45.4411 46.4695M44.3021 39.5975L50 39.0807M9.71741 14.6408H10.5151C11.8682 14.6408 12.9651 13.5466 12.9651 12.1969V3.444C12.9651 2.09421 11.8682 1 10.5151 1H9.71741C8.36432 1 7.26741 2.09421 7.26741 3.444V12.1969C7.26741 13.5466 8.36431 14.6408 9.71741 14.6408ZM17.6941 14.6408H18.4918C19.8449 14.6408 20.9418 13.5466 20.9418 12.1969V3.444C20.9418 2.09421 19.8449 1 18.4918 1H17.6941C16.341 1 15.2441 2.09421 15.2441 3.444V12.1969C15.2441 13.5466 16.341 14.6408 17.6941 14.6408ZM30.2289 14.6408H31.0266C32.3797 14.6408 33.4766 13.5466 33.4766 12.1969V3.444C33.4766 2.09421 32.3797 1 31.0266 1H30.2289C28.8758 1 27.7789 2.09421 27.7789 3.444V12.1969C27.7789 13.5466 28.8758 14.6408 30.2289 14.6408ZM38.2057 14.6408H39.0033C40.3564 14.6408 41.4533 13.5466 41.4533 12.1969V3.444C41.4533 2.09421 40.3564 1 39.0033 1H38.2057C36.8526 1 35.7557 2.09421 35.7557 3.444V12.1969C35.7557 13.5466 36.8526 14.6408 38.2057 14.6408ZM7.26741 21.4613H15.2441V29.4184H7.26741V21.4613ZM19.8022 21.4613H27.7789V29.4184H19.8022V21.4613ZM32.3371 21.4613H40.3138V29.4184H32.3371V21.4613ZM7.26741 32.8286H15.2441V40.7858H7.26741V32.8286ZM19.8022 32.8286H27.7789V40.7858H19.8022V32.8286Z" stroke="#DCB05A" stroke-width="1.5"/>
</svg>
