<svg width="50" height="46" viewBox="0 0 50 46" fill="none" xmlns="http://www.w3.org/2000/svg">
<path d="M39.9349 28.5V3.42C39.9349 2.08347 38.8546 1 37.522 1H10.0322C8.37532 1 7.03217 2.34315 7.03217 4V40.6H21.8384M12.516 17.995H25.6771M12.516 23.495H25.6771M12.516 28.995H25.6771M28.9673 17.995H36.6446M28.9673 23.495H36.6446M28.9673 28.995H36.6446M6.48379 9.8H1V45H25.1287M26.128 33.9668L29.0445 37.3099C29.3132 37.6178 29.7692 37.6752 30.1054 37.4434L46.3436 26.2467C46.7313 25.9793 47.2641 26.1014 47.4975 26.5112L48.894 28.9622C49.0999 29.3237 48.9977 29.783 48.6581 30.0224L29.5205 43.5102C29.2007 43.7355 28.7657 43.6977 28.4893 43.4206L22.0049 36.917C21.6392 36.5502 21.7088 35.9375 22.1474 35.6626L25.0964 33.814C25.4311 33.6042 25.8681 33.6689 26.128 33.9668ZM11.4192 6.5H35.5479V13.1H11.4192V6.5Z" stroke="#DCB05A" stroke-width="1.5"/>
</svg>
