<svg width="2602" height="1735" viewBox="0 0 2602 1735" fill="none" xmlns="http://www.w3.org/2000/svg">
<path d="M1306.16 1313.42C1801.1 1313.42 2202.33 1074.69 2202.33 780.209C2202.33 485.726 1801.1 247 1306.16 247C811.226 247 410 485.726 410 780.209C410 1074.69 811.226 1313.42 1306.16 1313.42Z" fill="#E0F0F2" stroke="#E0F0F2" stroke-miterlimit="10"/>
<path d="M1264.29 1534.81C1665.06 1534.81 1989.94 1458.68 1989.94 1364.77C1989.94 1270.86 1665.06 1194.74 1264.29 1194.74C863.525 1194.74 538.641 1270.86 538.641 1364.77C538.641 1458.68 863.525 1534.81 1264.29 1534.81Z" fill="#E0F0F2" stroke="#A4CFFA" stroke-miterlimit="10"/>
<path d="M1298.51 1458.07C1644.49 1458.07 1924.97 1409.01 1924.97 1348.48C1924.97 1287.96 1644.49 1238.89 1298.51 1238.89C952.522 1238.89 672.047 1287.96 672.047 1348.48C672.047 1409.01 952.522 1458.07 1298.51 1458.07Z" fill="#BCE1E5" stroke="#7CB6FA" stroke-miterlimit="10"/>
<path d="M757.15 1432.58C842.417 1432.58 911.539 1410.1 911.539 1382.37C911.539 1354.63 842.417 1332.15 757.15 1332.15C671.884 1332.15 602.762 1354.63 602.762 1382.37C602.762 1410.1 671.884 1432.58 757.15 1432.58Z" fill="#088B8C" stroke="#5A8EFA" stroke-miterlimit="10"/>
<path d="M1536.22 1328.43C1625.26 1328.43 1697.44 1305.95 1697.44 1278.22C1697.44 1250.48 1625.26 1228 1536.22 1228C1447.18 1228 1375 1250.48 1375 1278.22C1375 1305.95 1447.18 1328.43 1536.22 1328.43Z" fill="#088B8C" stroke="#5A8EFA" stroke-miterlimit="10"/>
<path d="M1681.84 681.82L1678.44 667.759C1678.93 536.362 1663.74 467.188 1654.69 453.289C1646.15 440.177 1613.05 415.778 1609.33 413.057C1609.15 412.733 1608.95 412.402 1608.75 412.065C1608.65 411.8 1608.56 411.552 1608.48 411.337C1605.6 404.327 1593.96 391.154 1589.63 386.393C1588.9 384.368 1587.75 382.519 1586.26 380.962C1585.25 378.771 1584.31 376.62 1583.52 374.591C1583.13 373.577 1582.79 372.546 1582.45 371.512C1581.59 368.866 1576.82 359.116 1553.94 364.361C1552.7 358.365 1551.5 349.362 1550.6 341.309L1550.95 340.802C1585.21 313.649 1572.6 275.184 1572.6 275.184C1586.18 239.304 1557.09 227.021 1557.09 227.021C1567.11 237.365 1560.97 246.092 1560.97 246.092C1546.43 212.799 1514.75 216.354 1514.75 216.354C1539.96 217.647 1546.32 237.445 1546.32 237.445C1533.41 215.437 1504.17 225.277 1485.67 218.294C1468.54 211.829 1475 200.192 1475 200.192C1451.09 212.152 1455.61 240.597 1455.61 240.597C1451.41 233.809 1454 221.203 1454 221.203C1449.8 229.284 1452.06 240.274 1452.06 240.274C1448.18 228.314 1443.66 230.9 1443.66 230.9C1447.86 232.193 1449.8 241.89 1449.8 241.89C1443.66 230.9 1427.82 235.264 1427.82 235.264C1427.82 235.264 1440.75 249.971 1433.4 255.143C1423.57 262.068 1415.22 241.082 1415.22 241.082C1411.02 278.062 1436.2 286.563 1447.15 288.509C1447.22 289.452 1447.3 290.419 1447.38 291.408C1445.15 291.16 1443.5 291.095 1443.5 291.095L1445.12 296.132C1445.98 296.089 1446.88 296.094 1447.8 296.133C1448.55 303.916 1449.66 312.647 1451.31 321.343C1449.31 321.519 1447.38 322.131 1445.64 323.136C1443.91 324.141 1442.42 325.514 1441.27 327.159C1440.13 328.804 1439.35 330.68 1439.01 332.655C1438.67 334.631 1438.77 336.657 1439.3 338.591C1439.82 340.524 1440.77 342.319 1442.07 343.847C1443.36 345.376 1444.98 346.601 1446.8 347.436C1448.62 348.271 1450.61 348.697 1452.61 348.682C1454.61 348.667 1456.59 348.212 1458.4 347.35C1463.91 361.467 1471.92 371.841 1483.57 371.994C1483.57 371.994 1486.71 372.48 1492.13 371.716C1492.22 371.857 1492.31 372.001 1492.4 372.148L1497.11 382.044C1488.9 385.326 1472.72 393.937 1457.87 414.5C1457.87 414.5 1454.2 418.697 1460.49 429.533C1454.94 437.366 1442.27 462.134 1435.58 530.543L1432.18 558.18C1432.18 558.18 1414.88 547.326 1399.01 540.654C1408.9 508.07 1419.7 487.714 1419.7 487.714C1401.88 496.28 1357.04 482.057 1357.04 482.057C1350.73 479.57 1345.07 477.199 1339.98 474.94C1332.5 456.892 1345.89 446.663 1345.89 446.663C1314.38 431.632 1300.81 437.45 1300.81 437.45C1284.33 441.329 1279.97 509.694 1278.51 524.725C1277.06 539.756 1274.15 559.15 1274.15 559.15C1261.06 615.394 1254.76 655.637 1254.76 655.637C1257.18 702.669 1389.52 706.547 1389.52 706.547C1384.01 681.5 1382.36 656.937 1383.14 633.84C1383.29 632.759 1383.61 631.735 1384.24 631.355C1386.04 631.625 1387.71 631.847 1389.22 632.01C1393.06 632.581 1396.96 632.745 1400.84 632.498C1402.31 632.475 1403.91 632.419 1405.61 632.316C1412.52 632.245 1419.43 632.534 1426.31 633.18C1427.63 633.33 1428.96 633.495 1430.31 633.676C1432.94 656.075 1438.97 661.94 1438.97 661.94C1438.97 661.94 1446.14 662.571 1457.88 663.473C1457.88 663.473 1457 667.798 1455.51 675.516C1446.82 720.504 1417.36 880.967 1419.85 974.701C1416.17 984.052 1447.61 988.247 1482.69 990.05L1483.92 1008.79L1483.92 1008.81L1483.93 1008.95C1483.94 1009.05 1483.95 1009.19 1483.96 1009.37L1483.98 1009.69C1484.01 1010.06 1484.04 1010.56 1484.08 1011.18L1484.13 1012.01C1484.16 1012.47 1484.2 1012.97 1484.23 1013.52L1485.59 1034.16C1485.66 1035.33 1485.74 1036.53 1485.82 1037.78L1486.06 1041.39C1486.11 1042.13 1486.16 1042.89 1486.21 1043.65L1486.74 1051.79C1486.74 1051.79 1487.96 1072.45 1487.05 1098.78L1487.05 1098.78V1098.79C1485.51 1099.28 1484.15 1100.22 1483.16 1101.51C1482.18 1102.79 1481.61 1104.35 1481.54 1105.97C1481.33 1111.39 1481.41 1116.83 1481.78 1122.25C1481.92 1124.4 1482.72 1126.45 1484.08 1128.13C1485.43 1129.8 1487.28 1131.01 1489.35 1131.6C1492.83 1132.59 1496.35 1133.39 1499.88 1134.05L1504.12 1192.76C1502.92 1193.57 1501.63 1194.5 1500.25 1195.58C1488.89 1204.43 1463.75 1222.97 1448.72 1229.86C1447.32 1230.51 1445.89 1231.09 1444.44 1231.59C1443.54 1231.9 1442.63 1232.15 1441.7 1232.33C1440.84 1232.5 1439.99 1232.71 1439.15 1232.97C1427.28 1236.67 1414.61 1250.45 1419.09 1264.25C1419.09 1264.25 1422.72 1272.91 1439.08 1272.09C1455.43 1271.27 1532.73 1267.82 1532.73 1267.82C1532.73 1267.82 1549.28 1267.8 1553.66 1250.69C1554.2 1248.52 1554.52 1246.3 1554.64 1244.07C1554.65 1243.89 1554.66 1243.71 1554.67 1243.53C1555.48 1224.6 1556.11 1212.9 1556.35 1208.67C1556.48 1206.65 1556.09 1204.63 1555.2 1202.81C1554.57 1201.44 1553.57 1200.29 1552.31 1199.47L1550.92 1141.91L1550.76 1135.09C1555.09 1134.59 1558.8 1134.02 1561.67 1133.53C1563.92 1133.14 1565.99 1132.01 1567.54 1130.33C1569.09 1128.64 1570.04 1126.5 1570.24 1124.22C1570.8 1118.06 1570.13 1110.48 1569.41 1104.87C1569.24 1103.55 1568.74 1102.29 1567.96 1101.22C1567.18 1100.15 1566.14 1099.29 1564.94 1098.72C1564.42 1086.14 1563.49 1059.44 1563.38 1029.95L1563.42 1013.66L1563.41 1013.66C1563.47 1006.13 1563.6 998.555 1563.81 991.11C1567.97 991.04 1570.36 990.979 1570.36 990.979L1574 979.064L1576.9 988.519C1581.02 988.372 1584.97 988.297 1588.75 988.294C1590.04 997.023 1591.43 1006.51 1592.8 1016.22L1601.78 1087.6C1602.13 1091.27 1602.42 1094.66 1602.64 1097.72C1601.06 1097.62 1599.51 1098.13 1598.29 1099.14C1597.07 1100.15 1596.27 1101.58 1596.07 1103.15C1595.23 1109.5 1595.35 1115.94 1596.42 1122.25C1596.62 1123.36 1597.12 1124.39 1597.88 1125.22C1598.64 1126.04 1599.61 1126.64 1600.7 1126.93C1606.8 1128.61 1612.55 1129.87 1617.97 1130.8L1625.92 1218.88C1624.69 1219.86 1623.36 1220.99 1621.93 1222.32C1611.29 1232.19 1587.64 1252.97 1573.19 1261.11C1571.84 1261.88 1570.46 1262.58 1569.04 1263.2C1568.18 1263.58 1567.29 1263.9 1566.38 1264.16C1565.53 1264.39 1564.7 1264.67 1563.88 1265C1552.33 1269.64 1540.75 1284.65 1546.28 1298.41C1546.28 1298.41 1550.57 1306.99 1566.82 1304.95C1583.07 1302.92 1659.89 1293.71 1659.89 1293.71C1659.89 1293.71 1676.4 1292.47 1679.44 1274.67C1679.82 1272.41 1679.97 1270.13 1679.91 1267.84C1679.91 1267.65 1679.91 1267.47 1679.9 1267.29C1679.25 1247.89 1678.98 1235.9 1678.9 1231.57C1678.88 1229.49 1678.33 1227.46 1677.3 1225.66C1676.47 1224.09 1675.12 1222.85 1673.48 1222.16L1671.61 1140.32L1671.36 1129.39V1129.38C1673.68 1128.71 1675.57 1128.04 1677 1127.48C1678.33 1126.95 1679.53 1126.12 1680.49 1125.06C1681.46 1123.99 1682.17 1122.72 1682.56 1121.34C1684.33 1115.17 1683.57 1106.72 1682.48 1100.23C1682.2 1098.58 1681.45 1097.04 1680.31 1095.81C1679.18 1094.58 1677.7 1093.71 1676.08 1093.31C1675.55 1081.77 1674.61 1060.84 1673.7 1037.66L1673.85 1025.79L1673.24 1025.72C1672.9 1016.54 1672.57 1007.21 1672.28 998.133C1762.14 1011.25 1774.91 993.1 1774.91 993.1C1759.4 835.035 1681.84 681.82 1681.84 681.82ZM1511.54 415.896C1511.16 416.334 1510.78 416.78 1510.41 417.234L1510.4 417.24C1510.04 417.684 1509.69 418.136 1509.34 418.597C1509.32 418.612 1509.31 418.625 1509.3 418.64C1510.02 417.691 1510.77 416.776 1511.54 415.896ZM1506.24 423.167C1506 423.556 1505.78 423.954 1505.55 424.354C1505.83 423.861 1506.11 423.375 1506.4 422.896C1506.35 422.987 1506.29 423.075 1506.24 423.167ZM1503.42 422.896C1503.41 422.787 1503.41 422.676 1503.41 422.565L1503.42 422.896ZM1503.38 421.483L1503.38 421.409C1503.38 421.433 1503.38 421.459 1503.38 421.483Z" fill="#ECECEC"/>
<path d="M1511.54 415.896C1511.16 416.334 1510.78 416.78 1510.41 417.234L1510.4 417.24C1510.04 417.684 1509.69 418.136 1509.34 418.597C1509.32 418.612 1509.31 418.625 1509.3 418.64C1510.02 417.691 1510.77 416.776 1511.54 415.896ZM1511.54 415.896C1513.17 414.029 1514.92 412.268 1516.78 410.623M1507.21 421.604C1507.25 421.542 1507.3 421.483 1507.34 421.421M1508.24 420.095C1508.26 420.06 1508.29 420.026 1508.31 419.992M1504.43 426.448C1504.5 426.313 1504.57 426.184 1504.64 426.05M1505.31 424.781C1505.37 424.66 1505.44 424.543 1505.51 424.422M1503.61 428.168C1503.59 427.947 1503.58 427.715 1503.56 427.478M1503.55 427.271C1503.54 427.078 1503.53 426.88 1503.52 426.676M1503.52 426.516C1503.51 426.266 1503.5 426.007 1503.49 425.741M1503.48 425.49C1503.47 425.282 1503.47 425.069 1503.46 424.852M1503.46 424.601C1503.45 424.317 1503.44 424.027 1503.43 423.727M1503.35 420.374C1503.35 420.304 1503.35 420.234 1503.35 420.164M1503.31 418.992L1503.3 418.842M1503.26 417.702C1503.26 417.638 1503.25 417.575 1503.25 417.511M1503.19 416.214C1503.19 416.138 1503.18 416.061 1503.18 415.984M1503.11 414.742C1503.11 414.68 1503.1 414.619 1503.1 414.556M1503.01 413.141C1503 413.037 1503 412.931 1502.99 412.826M1502.89 411.442C1502.88 411.391 1502.88 411.342 1502.88 411.291M1502.74 409.739C1502.73 409.616 1502.72 409.492 1502.71 409.368M1681.84 681.82L1678.44 667.759C1678.93 536.362 1663.74 467.188 1654.69 453.289C1646.15 440.177 1613.05 415.778 1609.33 413.057C1609.15 412.733 1608.95 412.402 1608.75 412.065C1608.65 411.8 1608.56 411.552 1608.48 411.337C1605.6 404.327 1593.96 391.154 1589.63 386.393C1588.9 384.368 1587.75 382.519 1586.26 380.962C1585.25 378.771 1584.31 376.62 1583.52 374.591C1583.13 373.577 1582.79 372.546 1582.45 371.512C1581.59 368.866 1576.82 359.116 1553.94 364.361C1552.7 358.365 1551.5 349.362 1550.6 341.309L1550.95 340.802C1585.21 313.649 1572.6 275.184 1572.6 275.184C1586.18 239.304 1557.09 227.021 1557.09 227.021C1567.11 237.365 1560.97 246.092 1560.97 246.092C1546.43 212.799 1514.75 216.354 1514.75 216.354C1539.96 217.647 1546.32 237.445 1546.32 237.445C1533.41 215.437 1504.17 225.277 1485.67 218.294C1468.54 211.829 1475 200.192 1475 200.192C1451.09 212.152 1455.61 240.597 1455.61 240.597C1451.41 233.809 1454 221.203 1454 221.203C1449.8 229.284 1452.06 240.274 1452.06 240.274C1448.18 228.314 1443.66 230.9 1443.66 230.9C1447.86 232.193 1449.8 241.89 1449.8 241.89C1443.66 230.9 1427.82 235.264 1427.82 235.264C1427.82 235.264 1440.75 249.971 1433.4 255.143C1423.57 262.068 1415.22 241.082 1415.22 241.082C1411.02 278.062 1436.2 286.563 1447.15 288.509C1447.22 289.452 1447.3 290.419 1447.38 291.408C1445.15 291.16 1443.5 291.095 1443.5 291.095L1445.12 296.132C1445.98 296.089 1446.88 296.094 1447.8 296.133C1448.55 303.916 1449.66 312.647 1451.31 321.343C1449.31 321.519 1447.38 322.131 1445.64 323.136C1443.91 324.141 1442.42 325.514 1441.27 327.159C1440.13 328.804 1439.35 330.68 1439.01 332.655C1438.67 334.631 1438.77 336.657 1439.3 338.591C1439.82 340.524 1440.77 342.319 1442.07 343.847C1443.36 345.376 1444.98 346.601 1446.8 347.436C1448.62 348.271 1450.61 348.697 1452.61 348.682C1454.61 348.667 1456.59 348.212 1458.4 347.35C1463.91 361.467 1471.92 371.841 1483.57 371.994C1483.57 371.994 1486.71 372.48 1492.13 371.716C1492.22 371.857 1492.31 372.001 1492.4 372.148L1497.11 382.044C1488.9 385.326 1472.72 393.937 1457.87 414.5C1457.87 414.5 1454.2 418.697 1460.49 429.533C1454.94 437.366 1442.27 462.134 1435.58 530.543L1432.18 558.18C1432.18 558.18 1414.88 547.326 1399.01 540.654C1408.9 508.07 1419.7 487.714 1419.7 487.714C1401.88 496.28 1357.04 482.057 1357.04 482.057C1350.73 479.57 1345.07 477.199 1339.98 474.94C1332.5 456.892 1345.89 446.663 1345.89 446.663C1314.38 431.632 1300.81 437.45 1300.81 437.45C1284.33 441.329 1279.97 509.694 1278.51 524.725C1277.06 539.756 1274.15 559.15 1274.15 559.15C1261.06 615.394 1254.76 655.637 1254.76 655.637C1257.18 702.669 1389.52 706.547 1389.52 706.547C1384.01 681.5 1382.36 656.937 1383.14 633.84C1383.29 632.759 1383.61 631.735 1384.24 631.355C1386.04 631.625 1387.71 631.847 1389.22 632.01C1393.06 632.581 1396.96 632.745 1400.84 632.498C1402.31 632.475 1403.91 632.419 1405.61 632.316C1412.52 632.245 1419.43 632.534 1426.31 633.18C1427.63 633.33 1428.96 633.495 1430.31 633.676C1432.94 656.075 1438.97 661.94 1438.97 661.94C1438.97 661.94 1446.14 662.571 1457.88 663.473C1457.88 663.473 1457 667.798 1455.51 675.516C1446.82 720.504 1417.36 880.967 1419.85 974.701C1416.17 984.052 1447.61 988.247 1482.69 990.05L1483.92 1008.79L1483.92 1008.81L1483.93 1008.95C1483.94 1009.05 1483.95 1009.19 1483.96 1009.37L1483.98 1009.69C1484.01 1010.06 1484.04 1010.56 1484.08 1011.18L1484.13 1012.01C1484.16 1012.47 1484.2 1012.97 1484.23 1013.52L1485.59 1034.16C1485.66 1035.33 1485.74 1036.53 1485.82 1037.78L1486.06 1041.39C1486.11 1042.13 1486.16 1042.89 1486.21 1043.65L1486.74 1051.79C1486.74 1051.79 1487.96 1072.45 1487.05 1098.78L1487.05 1098.78V1098.79C1485.51 1099.27 1484.15 1100.22 1483.16 1101.51C1482.18 1102.79 1481.61 1104.35 1481.54 1105.97C1481.33 1111.39 1481.41 1116.83 1481.78 1122.25C1481.92 1124.4 1482.72 1126.45 1484.08 1128.13C1485.43 1129.8 1487.28 1131.01 1489.35 1131.6C1492.83 1132.58 1496.35 1133.39 1499.88 1134.05L1504.12 1192.76C1502.92 1193.57 1501.63 1194.5 1500.25 1195.58C1488.89 1204.43 1463.75 1222.97 1448.72 1229.86C1447.32 1230.51 1445.89 1231.09 1444.44 1231.59C1443.54 1231.9 1442.63 1232.15 1441.7 1232.33C1440.84 1232.5 1439.99 1232.71 1439.15 1232.97C1427.28 1236.67 1414.61 1250.45 1419.09 1264.25C1419.09 1264.25 1422.72 1272.91 1439.08 1272.09C1455.43 1271.27 1532.73 1267.82 1532.73 1267.82C1532.73 1267.82 1549.28 1267.8 1553.66 1250.69C1554.2 1248.52 1554.52 1246.3 1554.64 1244.07C1554.65 1243.89 1554.66 1243.71 1554.67 1243.53C1555.48 1224.6 1556.11 1212.9 1556.35 1208.67C1556.48 1206.65 1556.09 1204.63 1555.2 1202.81C1554.57 1201.44 1553.57 1200.29 1552.31 1199.47L1550.92 1141.91L1550.76 1135.09C1555.09 1134.59 1558.8 1134.02 1561.67 1133.53C1563.92 1133.14 1565.99 1132.01 1567.54 1130.33C1569.09 1128.64 1570.04 1126.5 1570.24 1124.22C1570.8 1118.06 1570.13 1110.48 1569.41 1104.87C1569.24 1103.55 1568.74 1102.29 1567.96 1101.22C1567.18 1100.15 1566.14 1099.29 1564.94 1098.72C1564.42 1086.14 1563.49 1059.44 1563.38 1029.95L1563.42 1013.66L1563.41 1013.66C1563.47 1006.13 1563.6 998.555 1563.81 991.11C1567.97 991.04 1570.36 990.979 1570.36 990.979L1574 979.064L1576.9 988.519C1581.02 988.372 1584.97 988.297 1588.75 988.294C1590.04 997.023 1591.43 1006.51 1592.8 1016.22L1601.78 1087.6C1602.13 1091.27 1602.42 1094.66 1602.64 1097.72C1601.06 1097.62 1599.51 1098.13 1598.29 1099.14C1597.07 1100.15 1596.27 1101.58 1596.07 1103.15C1595.23 1109.5 1595.35 1115.94 1596.42 1122.25C1596.62 1123.36 1597.12 1124.39 1597.88 1125.22C1598.64 1126.04 1599.61 1126.64 1600.7 1126.93C1606.8 1128.61 1612.55 1129.87 1617.97 1130.8L1625.92 1218.88C1624.69 1219.86 1623.36 1220.99 1621.93 1222.32C1611.29 1232.19 1587.64 1252.97 1573.19 1261.11C1571.84 1261.88 1570.46 1262.58 1569.04 1263.2C1568.18 1263.58 1567.29 1263.9 1566.38 1264.16C1565.53 1264.39 1564.7 1264.67 1563.88 1265C1552.33 1269.64 1540.75 1284.65 1546.28 1298.41C1546.28 1298.41 1550.57 1306.99 1566.82 1304.95C1583.07 1302.92 1659.89 1293.71 1659.89 1293.71C1659.89 1293.71 1676.4 1292.47 1679.44 1274.67C1679.82 1272.41 1679.97 1270.13 1679.91 1267.84C1679.91 1267.65 1679.91 1267.47 1679.9 1267.29C1679.25 1247.89 1678.98 1235.9 1678.9 1231.57C1678.88 1229.49 1678.33 1227.46 1677.3 1225.66C1676.47 1224.09 1675.12 1222.85 1673.48 1222.16L1671.61 1140.32L1671.36 1129.39V1129.38C1673.68 1128.71 1675.57 1128.04 1677 1127.48C1678.33 1126.95 1679.53 1126.12 1680.49 1125.06C1681.46 1123.99 1682.17 1122.72 1682.56 1121.34C1684.33 1115.17 1683.56 1106.72 1682.48 1100.23C1682.2 1098.58 1681.45 1097.04 1680.31 1095.81C1679.18 1094.58 1677.7 1093.71 1676.08 1093.31C1675.55 1081.77 1674.61 1060.84 1673.7 1037.66L1673.85 1025.79L1673.24 1025.72C1672.9 1016.54 1672.57 1007.21 1672.28 998.133C1762.14 1011.25 1774.91 993.1 1774.91 993.1C1759.4 835.035 1681.84 681.82 1681.84 681.82ZM1506.24 423.167C1506 423.556 1505.78 423.954 1505.55 424.354C1505.83 423.861 1506.11 423.375 1506.4 422.896C1506.35 422.987 1506.29 423.075 1506.24 423.167ZM1503.42 422.896C1503.41 422.787 1503.41 422.676 1503.41 422.565L1503.42 422.896ZM1503.38 421.483L1503.38 421.409C1503.38 421.433 1503.38 421.459 1503.38 421.483Z" stroke="#BCE1E5" stroke-miterlimit="10"/>
<path d="M1439.83 289.083C1439.83 289.083 1397.65 288.114 1402.99 241.082C1402.99 241.082 1411.34 262.068 1421.17 255.143C1428.52 249.971 1415.59 235.264 1415.59 235.264C1415.59 235.264 1431.43 230.9 1437.57 241.89C1437.57 241.89 1435.63 232.193 1431.43 230.9C1431.43 230.9 1435.95 228.314 1439.83 240.274C1439.83 240.274 1437.57 229.284 1441.77 221.203C1441.77 221.203 1439.18 233.809 1443.38 240.597C1443.38 240.597 1438.86 212.152 1462.77 200.192C1462.77 200.192 1456.31 211.829 1473.44 218.294C1491.94 225.277 1521.18 215.437 1534.09 237.445C1534.09 237.445 1527.73 217.647 1502.52 216.354C1502.52 216.354 1534.2 212.799 1548.74 246.092C1548.74 246.092 1554.88 237.365 1544.86 227.021C1544.86 227.021 1573.95 239.304 1560.37 275.184C1560.37 275.184 1572.98 313.649 1538.72 340.802L1529.02 355.024L1439.83 289.083Z" fill="#150F42" stroke="#088B8C" stroke-miterlimit="10"/>
<path d="M1557.46 368.6C1555.26 365.168 1546.55 366.941 1542.46 367.998C1543.68 373.735 1544.91 379.057 1545.9 383.242C1553.77 377.147 1559.22 371.337 1557.46 368.6Z" fill="#08112F" stroke="#08112F" stroke-miterlimit="10"/>
<path d="M1542.47 367.999C1542.21 366.801 1541.96 365.589 1541.71 364.361C1539.59 354.061 1537.55 334.882 1537.02 326.902L1527.41 334.7L1475.61 366.589C1475.61 366.589 1480.56 370.204 1484.88 382.044C1487.12 388.178 1489.19 396.519 1490.32 407.712C1491.34 417.799 1491.07 424.201 1491.38 428.168C1493.41 423.711 1496.08 419.576 1499.31 415.896C1508.15 405.746 1519.86 399.975 1528.7 394.783C1534.67 391.293 1540.41 387.439 1545.9 383.242C1544.91 379.057 1543.68 373.735 1542.47 367.999Z" fill="#FAB2B2" stroke="#FAB2B2" stroke-miterlimit="10"/>
<path d="M1434 271.949C1434 271.949 1434.48 374.74 1471.33 375.224C1471.33 375.224 1496.64 379.153 1527.38 347.255C1530.61 343.895 1533.14 339.935 1534.85 335.601L1537.01 330.132C1537.01 330.132 1557.86 323.344 1554.46 303.223C1551.07 283.101 1531.2 295.465 1529.74 308.314C1529.74 308.314 1527.8 312.193 1525.62 308.799C1523.44 305.405 1524.89 297.647 1514.47 295.707C1514.47 295.707 1502.59 295.707 1502.59 287.465C1502.59 287.465 1502.35 256.919 1480.05 262.737C1480.05 262.737 1471.81 265.161 1460.18 273.404C1448.54 281.646 1434 271.949 1434 271.949Z" fill="#FAB2B2" stroke="#FAB2B2" stroke-miterlimit="10"/>
<path d="M1469.61 290.463C1469.61 290.463 1482.94 282.099 1492.03 284.281L1496.88 288.644C1496.88 288.644 1482.46 287.911 1469.61 295.554V290.463Z" fill="#2F248A" stroke="#088B8C" stroke-miterlimit="10"/>
<path d="M1431.27 291.095C1431.27 291.095 1438.9 291.397 1443.44 293.155L1445.57 297.485C1445.57 297.485 1438.24 295.859 1432.89 296.132L1431.27 291.095Z" fill="#2F248A" stroke="#088B8C" stroke-miterlimit="10"/>
<path d="M1477.83 310.702C1479.78 310.702 1481.37 308.542 1481.37 305.878C1481.37 303.214 1479.78 301.054 1477.83 301.054C1475.88 301.054 1474.29 303.214 1474.29 305.878C1474.29 308.542 1475.88 310.702 1477.83 310.702Z" fill="black" stroke="black" stroke-width="3" stroke-miterlimit="10"/>
<path d="M1475.32 302.75C1475.32 302.75 1480.63 297.378 1492.2 302.75" stroke="black" stroke-width="3" stroke-miterlimit="10"/>
<path d="M1446.76 306.983C1446.76 309.602 1445.2 311.726 1443.28 311.726C1441.36 311.726 1439.8 309.602 1439.8 306.983C1439.8 304.364 1441.36 302.241 1443.28 302.241C1445.2 302.241 1446.76 304.364 1446.76 306.983Z" fill="black" stroke="black" stroke-width="3" stroke-miterlimit="10"/>
<path d="M1442.02 302.716C1442.02 302.716 1446.29 301.041 1452.77 304.677" stroke="black" stroke-width="3" stroke-miterlimit="10"/>
<path d="M1461.15 307.265C1461.15 307.265 1456.91 332.236 1461.15 334.054C1461.15 334.054 1463.41 335.509 1469.61 334.054" stroke="black" stroke-width="3" stroke-miterlimit="10"/>
<path d="M1551 297.485C1551 297.485 1540.81 293.24 1534.73 306.872C1533.66 309.211 1533.11 311.76 1533.13 314.335C1533.21 318.037 1534.56 322.502 1540.98 320.983" stroke="#FA707F" stroke-width="3" stroke-miterlimit="10"/>
<path d="M1544.71 315.486C1544.1 319.223 1541.63 321.927 1539.21 321.525C1536.79 321.124 1535.33 317.769 1535.95 314.032C1536.57 310.295 1539.03 307.591 1541.45 307.992C1543.87 308.394 1545.33 311.749 1544.71 315.486Z" fill="#FA707F" stroke="#FA707F" stroke-miterlimit="10"/>
<path d="M1525.67 332.303C1527.4 324.941 1522.85 317.563 1515.48 315.825C1508.12 314.087 1500.75 318.647 1499.01 326.009C1497.27 333.371 1501.83 340.749 1509.19 342.487C1516.55 344.225 1523.93 339.665 1525.67 332.303Z" fill="#FA90A1" stroke="#FA90A1" stroke-miterlimit="10"/>
<path d="M1472.56 344.597C1475.75 344.687 1482.4 344.028 1489.69 338.283C1489.87 338.142 1490.08 338.05 1490.31 338.015C1490.53 337.981 1490.76 338.005 1490.97 338.086C1491.18 338.167 1491.37 338.302 1491.52 338.477C1491.66 338.653 1491.76 338.862 1491.8 339.086C1492.23 341.72 1492.24 346.325 1488.27 350.031C1486.87 351.374 1485.15 352.337 1483.27 352.828C1481.4 353.318 1479.42 353.319 1477.55 352.832C1476.01 352.445 1474.6 351.659 1473.46 350.553C1472.32 349.448 1471.5 348.062 1471.06 346.535C1470.99 346.306 1470.98 346.063 1471.03 345.827C1471.07 345.591 1471.17 345.369 1471.32 345.18C1471.46 344.99 1471.65 344.838 1471.87 344.737C1472.09 344.636 1472.33 344.588 1472.56 344.597Z" fill="#FA6D86" stroke="#FA6D86" stroke-miterlimit="10"/>
<path d="M1450.98 426.334C1450.98 426.334 1432.07 441.329 1423.35 530.543L1419.95 558.18C1419.95 558.18 1395.23 542.665 1377.78 537.331L1372.45 566.908L1411.71 594.545L1460.03 606.181L1451.46 461.693L1462.4 426.334H1450.98Z" fill="#042E2F" stroke="#042E2F" stroke-miterlimit="10"/>
<path d="M1445.64 468.966C1445.64 468.966 1440.12 465.087 1444.58 606.181L1445.64 663.473C1445.64 663.473 1404.71 864.886 1407.62 974.701C1407.62 974.701 1429.43 942.702 1526.86 959.429L1518.54 474.36L1462.4 426.334L1445.64 468.966Z" fill="white"/>
<path d="M1445.64 468.966C1445.64 468.966 1440.12 465.087 1444.58 606.181L1445.64 663.473C1445.64 663.473 1404.71 864.886 1407.62 974.701C1407.62 974.701 1429.43 942.702 1526.86 959.429L1518.54 474.36L1462.4 426.334L1445.64 468.966Z" fill="url(#paint0_linear)"/>
<path d="M1445.64 468.966C1445.64 468.966 1440.12 465.087 1444.58 606.181L1445.64 663.473C1445.64 663.473 1404.71 864.886 1407.62 974.701C1407.62 974.701 1429.43 942.702 1526.86 959.429L1518.54 474.36L1462.4 426.334L1445.64 468.966Z" stroke="#C4D8F9" stroke-miterlimit="10"/>
<path d="M1454.83 438.677L1490.81 434.531L1485.4 554.98L1468.51 532.689L1454.83 438.677Z" fill="#088B8C" stroke="#2C5CD6" stroke-miterlimit="10"/>
<path d="M1596.75 412.804C1596.75 412.804 1633.41 439.39 1642.46 453.289C1651.51 467.188 1666.7 536.362 1666.21 667.759L1669.61 681.82C1669.61 681.82 1747.17 835.035 1762.68 993.099C1762.68 993.099 1736.5 955.28 1627.92 960.129L1519.33 964.978C1519.33 964.978 1485.14 854.154 1490.81 651.758L1479.58 593.575V574.504C1479.58 574.504 1473.76 541.695 1520.78 499.512C1567.8 457.33 1596.75 412.804 1596.75 412.804Z" fill="white"/>
<path d="M1596.75 412.804C1596.75 412.804 1633.41 439.39 1642.46 453.289C1651.51 467.188 1666.7 536.362 1666.21 667.759L1669.61 681.82C1669.61 681.82 1747.17 835.035 1762.68 993.099C1762.68 993.099 1736.5 955.28 1627.92 960.129L1519.33 964.978C1519.33 964.978 1485.14 854.154 1490.81 651.758L1479.58 593.575V574.504C1479.58 574.504 1473.76 541.695 1520.78 499.512C1567.8 457.33 1596.75 412.804 1596.75 412.804Z" fill="url(#paint1_linear)"/>
<path d="M1596.75 412.804C1596.75 412.804 1633.41 439.39 1642.46 453.289C1651.51 467.188 1666.7 536.362 1666.21 667.759L1669.61 681.82C1669.61 681.82 1747.17 835.035 1762.68 993.099C1762.68 993.099 1736.5 955.28 1627.92 960.129L1519.33 964.978C1519.33 964.978 1485.14 854.154 1490.81 651.758L1479.58 593.575V574.504C1479.58 574.504 1473.76 541.695 1520.78 499.512C1567.8 457.33 1596.75 412.804 1596.75 412.804Z" stroke="#D9E9F9" stroke-miterlimit="10"/>
<path opacity="0.33" d="M1445.64 663.473C1445.64 663.473 1614.7 679.033 1643.91 661.94C1643.91 661.94 1653.53 655.216 1652.64 618.303C1652.64 618.303 1654.69 512.085 1634.72 461.693C1634.72 461.693 1666.69 516.781 1656.74 646.956C1656.39 651.941 1655.13 656.819 1653.02 661.347C1649.56 668.641 1642.86 677.066 1630.34 677.478C1608.08 678.211 1443.27 675.516 1443.27 675.516L1445.64 663.473Z" fill="#18336A" stroke="#18336A" stroke-miterlimit="10"/>
<path opacity="0.33" d="M1562.18 505.554L1566.35 585.333C1566.35 585.333 1493.09 582.442 1468.51 583.288C1491.86 578.236 1515.61 575.296 1539.49 574.505C1542.72 574.411 1545.82 573.19 1548.24 571.052C1550.67 568.915 1552.27 565.996 1552.76 562.802C1554.43 552.146 1557.4 533.684 1562.18 505.554Z" fill="#18336A" stroke="#18336A" stroke-miterlimit="10"/>
<path opacity="0.33" d="M1455.09 444.471C1455.09 444.471 1471.72 525.695 1480.44 553.493C1480.44 553.493 1465.11 531.099 1455.09 526.251L1459.29 506.533L1458.81 502.816C1458.81 502.816 1444.75 482.29 1436.02 474.209C1438.61 459.482 1443.07 445.144 1449.27 431.542L1455.09 444.471Z" fill="#18336A" stroke="#18336A" stroke-miterlimit="10"/>
<path d="M1459.54 443.915C1459.54 443.915 1470.85 520.523 1479.58 548.322C1479.58 548.322 1469.56 530.543 1459.54 525.695L1463.74 505.977L1463.26 502.26C1463.26 502.26 1449.2 481.734 1440.47 473.653C1443.06 458.926 1447.51 444.588 1453.72 430.986L1459.54 443.915Z" fill="#D9E9F9" stroke="#D9E9F9" stroke-miterlimit="10"/>
<path d="M1472.8 538.264C1474.29 531.923 1470.37 525.568 1464.03 524.071C1457.69 522.574 1451.33 526.501 1449.84 532.843C1448.34 539.185 1452.26 545.539 1458.61 547.036C1464.95 548.533 1471.3 544.606 1472.8 538.264Z" fill="#088B8C" stroke="#088B8C" stroke-miterlimit="10"/>
<path d="M1461.32 545.341C1466.72 545.341 1471.1 540.959 1471.1 535.554C1471.1 530.148 1466.72 525.766 1461.32 525.766C1455.91 525.766 1451.53 530.148 1451.53 535.554C1451.53 540.959 1455.91 545.341 1461.32 545.341Z" fill="#BCE1E5" stroke="#D9E9F9" stroke-miterlimit="10"/>
<path d="M1459.42 523.902C1459.2 521.021 1454.14 453.109 1469.61 433.36L1472.6 435.702C1458.04 454.295 1463.16 522.918 1463.21 523.609L1459.42 523.902Z" fill="#08112F" stroke="#08112F" stroke-miterlimit="10"/>
<path d="M1445.64 414.5C1445.64 414.5 1438.86 422.258 1459.54 443.915C1459.54 443.915 1466.97 436.157 1480.22 443.915L1475.05 414.5C1475.05 414.5 1458.25 401.571 1445.64 414.5Z" fill="#003232" stroke="#181A51" stroke-miterlimit="10"/>
<path d="M1532.26 426.334L1494.21 422.83C1494.2 422.851 1494.19 422.871 1494.17 422.892C1494.12 422.984 1494.06 423.074 1494 423.167C1493.76 423.577 1491.65 427.585 1491.38 428.168C1489.15 433.17 1487.67 438.477 1487.01 443.915C1487.01 443.915 1490.37 436.62 1495.21 432.149C1496.06 431.355 1496.99 430.654 1497.98 430.058C1500.59 428.532 1503.47 428.122 1506.4 430.016C1510.68 432.778 1513.81 437.43 1516.45 442.355C1497.88 442.392 1483.25 461.693 1483.25 461.693C1483.25 461.693 1479.58 519.553 1479.58 548.322L1483.25 553.493C1483.25 553.493 1500.91 509.21 1536.13 475.916L1532.26 426.334Z" fill="#12B2B4" stroke="#088B8C" stroke-miterlimit="10"/>
<path d="M1506.4 430.016C1503.47 428.122 1500.59 428.533 1497.98 430.058C1496.99 430.654 1496.06 431.355 1495.21 432.149C1490.37 436.62 1487.01 443.915 1487.01 443.915L1483.25 461.693C1483.25 461.693 1497.88 442.392 1516.45 442.355C1513.81 437.43 1510.68 432.778 1506.4 430.016Z" fill="#003232" stroke="#18336A" stroke-miterlimit="10"/>
<path d="M1491.19 423.029C1491.1 419.245 1490.98 414.259 1490.32 407.712C1489.19 396.519 1487.12 388.178 1484.88 382.044C1476.67 385.326 1460.49 393.937 1445.64 414.5C1445.64 414.5 1466.89 403.51 1483.25 461.693L1487.01 443.915C1487.67 438.477 1489.15 433.17 1491.38 428.168C1491.27 426.776 1491.23 425.075 1491.19 423.029Z" fill="#088B8C" stroke="#088B8C" stroke-miterlimit="10"/>
<path d="M1571.29 374.591C1570.9 373.577 1570.56 372.546 1570.22 371.512C1569.36 368.866 1564.59 359.116 1541.71 364.361C1541.96 365.587 1542.21 366.8 1542.47 367.999C1546.55 366.941 1555.26 365.168 1557.46 368.6C1559.22 371.337 1553.77 377.147 1545.9 383.242C1540.41 387.439 1534.67 391.293 1528.7 394.783C1519.86 399.975 1508.15 405.746 1499.31 415.896L1499.31 415.897C1498.93 416.334 1498.55 416.78 1498.18 417.234L1498.17 417.24C1497.81 417.684 1497.46 418.136 1497.11 418.597C1497.09 418.612 1497.08 418.626 1497.07 418.64C1496.74 419.081 1496.41 419.531 1496.08 419.988C1496.06 420.024 1496.03 420.059 1496.01 420.096C1495.7 420.529 1495.4 420.971 1495.11 421.419C1495.07 421.481 1495.02 421.542 1494.98 421.605C1494.72 422.006 1494.47 422.417 1494.21 422.83C1494.2 422.851 1494.19 422.871 1494.18 422.892C1494.12 422.985 1494.06 423.074 1494.01 423.167C1493.76 423.577 1493.52 423.998 1493.28 424.421C1493.22 424.542 1493.14 424.659 1493.08 424.781C1492.85 425.196 1492.63 425.622 1492.41 426.048C1492.34 426.183 1492.27 426.313 1492.2 426.449C1491.92 427.012 1491.65 427.585 1491.38 428.168C1489.15 433.17 1487.67 438.477 1487.01 443.915C1487.01 443.915 1490.37 436.62 1495.21 432.149C1496.06 431.355 1496.99 430.654 1497.98 430.058C1500.59 428.533 1503.47 428.122 1506.4 430.016C1510.68 432.778 1513.81 437.43 1516.45 442.355C1519.99 448.957 1522.66 456.051 1526.04 459.754C1526.04 459.754 1528.06 461.37 1533.87 450.703C1539.69 440.036 1567.81 408.359 1588.49 407.712C1588.49 407.712 1576.66 388.374 1571.29 374.591Z" fill="#12B2B4" stroke="#088B8C" stroke-miterlimit="10"/>
<path opacity="0.33" d="M1577.99 389.065C1577.99 389.065 1594.91 407.127 1598.47 415.786C1602.02 424.444 1608.16 475.516 1608.16 475.516L1536.09 496.85L1533.51 502.022L1538.36 519.8L1496.99 545.336C1496.99 545.336 1485.36 553.094 1481.8 578.953V552.77C1481.8 552.77 1488.48 531.163 1529.9 463.743C1529.9 463.743 1550.15 424.21 1575.11 414.158C1576.02 413.798 1576.82 413.218 1577.45 412.47C1578.08 411.723 1578.51 410.831 1578.71 409.876C1579.49 406.011 1580.19 398.885 1577.99 389.065Z" fill="#18336A" stroke="#18336A" stroke-miterlimit="10"/>
<path d="M1575.77 384.616C1575.77 384.616 1592.69 402.679 1596.25 411.337C1599.8 419.995 1605.94 471.067 1605.94 471.067L1533.87 492.401L1531.29 497.573L1536.13 515.351L1494.77 540.887C1494.77 540.887 1483.13 548.645 1479.58 574.504V548.322C1479.58 548.322 1486.26 526.715 1527.68 459.294C1527.68 459.294 1547.92 419.761 1572.89 409.709C1573.79 409.349 1574.6 408.769 1575.23 408.022C1575.85 407.274 1576.29 406.383 1576.48 405.427C1577.27 401.562 1577.97 394.436 1575.77 384.616Z" fill="white" stroke="white" stroke-width="3" stroke-miterlimit="10"/>
<path d="M1576.1 569.39C1573.23 557.468 1568.95 547.323 1563.37 539.237C1556.1 528.687 1548.56 524.401 1545.12 522.882C1549.15 504.121 1554.29 494.473 1568.59 451.781C1589 390.808 1574.44 381.961 1574.03 380.957C1575.62 384.286 1576.66 387.854 1577.09 391.519C1578.26 401.475 1576.91 420.871 1566 450.003C1549.72 493.492 1547 504.505 1541.84 522.314C1538.41 523.027 1527.75 525.935 1517.44 536.601C1510.23 544.056 1504.45 553.792 1500.26 565.539C1495.06 580.114 1492.3 597.86 1492.06 618.283C1491.5 664.887 1495.31 690.175 1503.36 693.443C1503.96 693.69 1504.6 693.818 1505.24 693.82C1506.68 693.793 1508.05 693.203 1509.06 692.176L1506.67 689.872C1506.4 690.144 1506.06 690.333 1505.69 690.419C1505.32 690.504 1504.94 690.481 1504.58 690.353C1502.23 689.36 1494.63 681.234 1495.38 618.323C1495.65 595.802 1499.01 578.824 1503.65 566.068C1510.18 563.39 1517.07 561.662 1524.09 560.936C1535.85 559.633 1553.82 560.35 1573.03 570.98C1576.03 583.8 1577.81 600.359 1576.94 621.629C1574.34 685.6 1566.96 691.199 1565.51 691.671C1564.88 691.877 1564.34 691.222 1564.29 691.166L1561.62 693.146C1562.05 693.713 1562.59 694.177 1563.22 694.505C1563.85 694.833 1564.54 695.016 1565.25 695.041C1565.66 695.04 1566.08 694.977 1566.47 694.852C1569.71 693.854 1572.32 688.857 1574.45 679.576C1577.24 667.395 1579.2 647.944 1580.26 621.764C1581.07 601.814 1579.67 584.193 1576.1 569.39ZM1523.78 558.105C1517.38 558.787 1511.1 560.241 1505.05 562.436C1509.46 551.637 1514.77 544.184 1519.64 539.105C1530.12 528.166 1540.62 525.82 1542.62 525.461C1544.33 526.08 1552.79 529.608 1560.83 541.407C1564.75 547.159 1568.94 555.474 1572.09 567.249C1557.25 559.481 1540.43 556.299 1523.78 558.105Z" fill="#08112F" stroke="#08112F" stroke-miterlimit="10"/>
<path d="M1426.74 661.94C1426.74 661.94 1419.5 654.91 1417.42 626.788C1417.42 626.788 1423.83 592.363 1429.65 585.333C1429.65 585.333 1445.4 593.333 1450.73 606.181L1449.52 642.304C1449.52 642.304 1437.4 657.334 1426.74 661.94Z" fill="#042E2F" stroke="#042E2F" stroke-miterlimit="10"/>
<path d="M1333.66 446.663C1302.15 431.632 1288.58 437.45 1288.58 437.45C1275 442.299 1279.37 484.967 1279.37 484.967H1333.66C1315.24 460.724 1333.66 446.663 1333.66 446.663Z" fill="#E0F0F2" stroke="#D9E9F9" stroke-miterlimit="10"/>
<path d="M1344.81 482.057C1264.42 450.369 1288.58 437.45 1288.58 437.45C1272.1 441.329 1267.74 509.694 1266.28 524.725C1264.83 539.756 1261.92 559.15 1261.92 559.15C1248.83 615.394 1242.53 655.637 1242.53 655.637C1244.95 702.669 1377.29 706.547 1377.29 706.547C1371.56 680.545 1370 655.06 1371 631.199C1371.75 613.973 1373.78 596.827 1377.06 579.9C1377.42 578.043 1377.79 576.206 1378.16 574.389C1379.17 569.538 1380.24 564.84 1381.37 560.294C1392.23 516.451 1407.47 487.714 1407.47 487.714C1389.65 496.28 1344.81 482.057 1344.81 482.057Z" fill="white" stroke="white" stroke-width="3" stroke-miterlimit="10"/>
<path d="M1426.78 592.69C1426.78 592.69 1419.67 595.438 1412.56 589.296C1405.45 583.155 1388.68 571.114 1379.27 567.222C1378.15 571.763 1383.39 575.979 1382.38 580.829C1383.68 582.12 1373.58 581.583 1374.86 583.176C1375.03 583.386 1375.13 583.643 1375.15 583.911C1375.16 584.179 1375.1 584.446 1374.95 584.673C1374.81 584.901 1374.6 585.078 1374.35 585.179C1374.1 585.281 1373.83 585.302 1373.56 585.24L1369.83 584.349L1361.67 582.398C1357.51 581.406 1353.62 579.529 1350.25 576.897L1339.04 568.124C1339.04 568.124 1331.77 562.144 1326.44 566.993C1326.44 566.993 1322.92 571.357 1329.71 577.054C1334.37 580.965 1341.6 586.247 1345.67 589.174C1347.67 590.611 1349.87 591.751 1352.2 592.558L1362.94 596.285C1363.31 596.404 1363.64 596.622 1363.89 596.914C1364.14 597.207 1364.31 597.563 1364.37 597.944C1364.42 598.158 1364.4 598.38 1364.33 598.586C1364.26 598.791 1364.13 598.973 1363.96 599.111C1363.79 599.249 1363.59 599.338 1363.37 599.367C1363.16 599.397 1362.94 599.367 1362.74 599.28L1347.12 593.556C1344.9 592.743 1342.84 591.555 1341.02 590.044L1329.85 580.77C1327.63 578.935 1325.51 576.973 1323.51 574.895C1320.7 571.953 1315.48 567.407 1311.53 569.175C1305.83 571.72 1310.8 580.205 1315.89 585.296C1319.41 588.817 1329.19 596.86 1334.89 601.487C1337.69 603.756 1340.89 605.472 1344.33 606.542L1357.46 610.63C1357.46 610.63 1359.28 613.176 1355.88 613.297L1339.87 608.151C1337.24 607.306 1334.79 605.981 1332.64 604.243L1314.97 589.945C1313.73 588.913 1312.16 588.363 1310.55 588.394C1308.57 588.46 1306.35 589.482 1305.83 593.539C1305.83 593.539 1304.86 596.084 1310.07 601.782C1312.34 604.292 1314.2 607.147 1315.57 610.239C1316.26 611.786 1317.04 613.544 1317.77 615.236C1319.77 619.843 1320.74 624.206 1327.53 627.115C1332.91 629.424 1358.01 635.067 1370.81 637.073C1370.81 637.073 1370.37 631.049 1372.67 631.199C1377.89 632.392 1383.26 632.83 1388.6 632.498C1397.09 631.892 1421.2 632.466 1435.74 637.073L1442.29 625.418L1426.78 592.69Z" fill="#E0F0F2" stroke="#E0F0F2" stroke-miterlimit="10"/>
<path d="M1434.01 588.242C1434.01 588.242 1426.9 590.989 1419.79 584.848C1412.68 578.706 1390.78 564.187 1381.37 560.295C1380.25 564.836 1379.18 569.534 1378.16 574.389C1379.55 575.763 1380.86 577.212 1382.09 578.728C1382.26 578.937 1382.36 579.194 1382.38 579.462C1382.39 579.731 1382.32 579.997 1382.18 580.225C1382.04 580.452 1381.82 580.629 1381.58 580.731C1381.33 580.832 1381.05 580.854 1380.79 580.792L1377.06 579.901L1368.89 577.95C1364.74 576.957 1360.84 575.081 1357.48 572.448L1346.27 563.675C1346.27 563.675 1338.99 557.696 1333.66 562.544C1333.66 562.544 1330.15 566.908 1336.93 572.605C1341.59 576.516 1348.82 581.798 1352.9 584.725C1354.9 586.163 1357.1 587.302 1359.42 588.109L1370.17 591.836C1370.54 591.955 1370.87 592.173 1371.12 592.465C1371.37 592.758 1371.54 593.114 1371.6 593.496C1371.65 593.709 1371.63 593.931 1371.56 594.137C1371.49 594.343 1371.36 594.524 1371.19 594.662C1371.02 594.8 1370.82 594.889 1370.6 594.919C1370.38 594.948 1370.16 594.918 1369.96 594.831L1354.35 589.108C1352.13 588.294 1350.06 587.106 1348.24 585.595L1337.08 576.322C1334.86 574.486 1332.74 572.524 1330.74 570.447C1327.92 567.504 1322.71 562.958 1318.76 564.726C1313.06 567.272 1318.03 575.757 1323.12 580.848C1326.64 584.368 1336.42 592.412 1342.12 597.038C1344.91 599.308 1348.12 601.024 1351.56 602.093L1364.69 606.182C1364.69 606.182 1366.51 608.727 1363.11 608.848L1347.09 603.702C1344.46 602.857 1342.01 601.532 1339.87 599.794L1322.2 585.496C1320.96 584.465 1319.39 583.914 1317.77 583.945C1315.8 584.011 1313.57 585.033 1313.06 589.09C1313.06 589.09 1312.09 591.636 1317.3 597.333C1319.57 599.844 1321.42 602.698 1322.8 605.79C1323.49 607.337 1324.26 609.095 1325 610.788C1327 615.394 1327.97 619.758 1334.75 622.667C1340.14 624.976 1358.2 629.194 1371 631.199C1374.32 631.72 1377.29 632.093 1379.59 632.243C1384.56 632.613 1389.54 632.613 1394.5 632.243C1402.98 631.637 1425.04 633.576 1439.58 638.182L1449.52 620.97L1434.01 588.242Z" fill="#FAB2B2" stroke="#FAB2B2" stroke-miterlimit="10"/>
<path d="M1613.86 434.531C1613.86 434.531 1587.77 422.941 1570.99 447.377C1566.3 454.298 1563.54 462.34 1562.98 470.679C1561.9 485.333 1560.93 519.575 1566.35 585.333C1566.35 585.333 1471.34 580.484 1429.65 585.333C1429.65 585.333 1448.55 622.182 1426.74 661.94C1426.74 661.94 1625.01 679.395 1643.91 661.94C1643.91 661.94 1653.61 651.274 1652.64 618.303C1651.67 585.333 1652.64 451.007 1613.86 434.531Z" fill="white"/>
<path d="M1613.86 434.531C1613.86 434.531 1587.77 422.941 1570.99 447.377C1566.3 454.298 1563.54 462.34 1562.98 470.679C1561.9 485.333 1560.93 519.575 1566.35 585.333C1566.35 585.333 1471.34 580.484 1429.65 585.333C1429.65 585.333 1448.55 622.182 1426.74 661.94C1426.74 661.94 1625.01 679.395 1643.91 661.94C1643.91 661.94 1653.61 651.274 1652.64 618.303C1651.67 585.333 1652.64 451.007 1613.86 434.531Z" fill="url(#paint2_linear)"/>
<path d="M1613.86 434.531C1613.86 434.531 1587.77 422.941 1570.99 447.377C1566.3 454.298 1563.54 462.34 1562.98 470.679C1561.9 485.333 1560.93 519.575 1566.35 585.333C1566.35 585.333 1471.34 580.484 1429.65 585.333C1429.65 585.333 1448.55 622.182 1426.74 661.94C1426.74 661.94 1625.01 679.395 1643.91 661.94C1643.91 661.94 1653.61 651.274 1652.64 618.303C1651.67 585.333 1652.64 451.007 1613.86 434.531Z" stroke="#D9E9F9" stroke-miterlimit="10"/>
<path d="M1762.68 993.1C1762.68 993.1 1747.18 1015.13 1630.11 993.1C1630.11 993.1 1605.39 987.064 1564.67 988.519L1561.77 979.064L1558.13 990.979C1558.13 990.979 1399.62 995.064 1407.62 974.701L1425.07 925.975L1594.49 909.975C1594.49 909.975 1754.19 956.954 1762.68 993.1Z" fill="#080020" stroke="#080020" stroke-miterlimit="10"/>
<path d="M1467 949.091L1474.35 1061.09C1474.35 1061.09 1475.8 1085.81 1474.35 1115.63H1552.87C1552.87 1115.63 1547.06 997.089 1555.78 944L1467 949.091Z" fill="#088B8C" stroke="#080057" stroke-miterlimit="10"/>
<path d="M1569.76 944.156C1569.76 944.156 1590.12 1072.15 1590.85 1106.33L1664.29 1102.7C1664.29 1102.7 1657.74 966.701 1659.2 934.702L1569.76 944.156Z" fill="#088B8C" stroke="#088B8C" stroke-miterlimit="10"/>
<path d="M1604.95 1122.07L1615.39 1237.71L1661.62 1238.68L1658.94 1121.1L1604.95 1122.07Z" fill="#FAB2B2" stroke="#FAB2B2" stroke-miterlimit="10"/>
<path d="M1665.07 1225.66C1663.74 1223.37 1661.38 1221.12 1657.42 1221.95C1649.95 1223.5 1641.17 1223.98 1636.29 1223.05C1636.29 1223.05 1641.22 1219.65 1639.37 1217.36C1639.09 1217.02 1638.68 1216.81 1638.24 1216.76C1636.4 1216.52 1630.41 1215.65 1627.7 1213.96C1626.97 1213.49 1626.12 1213.23 1625.26 1213.23C1622.83 1213.29 1617.92 1214.7 1609.7 1222.32C1599.06 1232.19 1575.41 1252.97 1560.96 1261.11C1559.61 1261.88 1558.23 1262.58 1556.81 1263.2C1555.95 1263.58 1555.06 1263.9 1554.15 1264.16C1553.3 1264.39 1552.47 1264.67 1551.65 1265C1540.1 1269.64 1528.52 1284.65 1534.05 1298.41C1534.05 1298.41 1538.34 1306.99 1554.59 1304.95C1570.84 1302.92 1647.66 1293.71 1647.66 1293.71C1647.66 1293.71 1664.17 1292.47 1667.21 1274.67C1667.58 1272.41 1667.74 1270.13 1667.68 1267.84C1667.68 1267.65 1667.67 1267.47 1667.67 1267.29C1667.02 1247.89 1666.75 1235.9 1666.67 1231.57C1666.64 1229.49 1666.1 1227.46 1665.07 1225.66Z" fill="#BCE1E5" stroke="#A8D1FB" stroke-miterlimit="10"/>
<path d="M1590.91 1283.58C1579.38 1285.1 1574.33 1276.12 1574.33 1276.12C1573.72 1274.51 1572.98 1272.95 1572.1 1271.47C1570.78 1272.05 1569.61 1272.53 1568.63 1272.91C1569.95 1274.79 1571.16 1276.76 1572.23 1278.79C1572.23 1278.79 1579.04 1288.56 1589.76 1288.35C1600.49 1288.15 1652.08 1285.39 1667.21 1274.67C1667.58 1272.41 1667.74 1270.13 1667.68 1267.84C1664.77 1270.4 1661.47 1272.47 1657.9 1273.99C1640.56 1281.28 1602.44 1282.06 1590.91 1283.58Z" fill="#00BEBF" stroke="#00BEBF" stroke-miterlimit="10"/>
<path d="M1639.37 1217.36C1639.08 1217.02 1638.68 1216.81 1638.23 1216.76C1636.39 1216.52 1630.41 1215.65 1627.7 1213.96C1626.97 1213.49 1626.12 1213.23 1625.26 1213.23C1622.83 1213.29 1617.92 1214.7 1609.7 1222.32C1599.06 1232.19 1575.41 1252.97 1560.96 1261.11C1559.61 1261.88 1558.23 1262.58 1556.81 1263.2C1559.28 1263.81 1563.7 1265.92 1568.63 1272.91C1569.61 1272.52 1570.78 1272.05 1572.1 1271.47C1583 1266.74 1604.92 1255.2 1626.29 1231.98C1626.29 1231.98 1632.02 1225.48 1636.29 1223.05C1636.29 1223.05 1641.22 1219.65 1639.37 1217.36Z" fill="#D9F1FF" stroke="#D9F1FF" stroke-miterlimit="10"/>
<path d="M1589.77 1288.35C1579.04 1288.56 1572.24 1278.79 1572.24 1278.79C1571.16 1276.76 1569.95 1274.79 1568.63 1272.91C1563.7 1265.92 1559.29 1263.81 1556.81 1263.2C1555.95 1263.58 1555.06 1263.9 1554.15 1264.16C1553.3 1264.39 1552.47 1264.67 1551.65 1265C1540.1 1269.64 1528.52 1284.65 1534.05 1298.41C1534.05 1298.41 1538.34 1306.99 1554.59 1304.95C1570.84 1302.92 1647.66 1293.71 1647.66 1293.71C1647.66 1293.71 1664.17 1292.47 1667.21 1274.67C1652.08 1285.39 1600.49 1288.15 1589.77 1288.35Z" fill="white" stroke="white" stroke-width="3" stroke-miterlimit="10"/>
<path d="M1587.71 1271.95C1587.75 1272.37 1587.66 1272.79 1587.46 1273.16C1587.26 1273.53 1586.95 1273.83 1586.58 1274.02C1586.21 1274.22 1585.79 1274.3 1585.37 1274.26C1584.95 1274.21 1584.55 1274.05 1584.23 1273.78C1583.91 1273.52 1583.67 1273.16 1583.54 1272.76C1583.42 1272.36 1583.42 1271.93 1583.54 1271.52C1583.66 1271.12 1583.89 1270.76 1584.22 1270.49C1584.54 1270.22 1584.93 1270.05 1585.35 1270.01C1585.92 1269.95 1586.49 1270.12 1586.93 1270.49C1587.38 1270.85 1587.66 1271.38 1587.71 1271.95Z" fill="#1D3EC7" stroke="#1D3EC7" stroke-miterlimit="10"/>
<path d="M1602 1263.52C1602.04 1263.94 1601.95 1264.36 1601.75 1264.73C1601.55 1265.1 1601.24 1265.4 1600.87 1265.6C1600.5 1265.79 1600.08 1265.88 1599.66 1265.83C1599.24 1265.79 1598.84 1265.63 1598.52 1265.36C1598.19 1265.09 1597.96 1264.73 1597.83 1264.33C1597.71 1263.93 1597.71 1263.5 1597.83 1263.1C1597.95 1262.7 1598.18 1262.34 1598.51 1262.07C1598.83 1261.8 1599.22 1261.63 1599.64 1261.58C1600.21 1261.53 1600.78 1261.7 1601.22 1262.06C1601.67 1262.43 1601.95 1262.95 1602 1263.52Z" fill="#1D3EC7" stroke="#1D3EC7" stroke-miterlimit="10"/>
<path d="M1614.28 1253.61C1614.32 1254.03 1614.23 1254.45 1614.03 1254.82C1613.83 1255.19 1613.52 1255.49 1613.15 1255.68C1612.78 1255.88 1612.35 1255.96 1611.94 1255.92C1611.52 1255.88 1611.12 1255.71 1610.8 1255.44C1610.47 1255.18 1610.23 1254.82 1610.11 1254.42C1609.99 1254.02 1609.98 1253.59 1610.1 1253.18C1610.22 1252.78 1610.46 1252.42 1610.78 1252.15C1611.11 1251.88 1611.5 1251.71 1611.92 1251.67C1612.49 1251.61 1613.06 1251.78 1613.5 1252.15C1613.94 1252.51 1614.22 1253.04 1614.28 1253.61Z" fill="#1D3EC7" stroke="#1D3EC7" stroke-miterlimit="10"/>
<path d="M1625.71 1242.49C1625.75 1242.91 1625.66 1243.33 1625.46 1243.7C1625.26 1244.07 1624.95 1244.37 1624.58 1244.56C1624.21 1244.76 1623.78 1244.84 1623.37 1244.8C1622.95 1244.76 1622.55 1244.59 1622.23 1244.33C1621.9 1244.06 1621.66 1243.7 1621.54 1243.3C1621.42 1242.9 1621.41 1242.47 1621.53 1242.06C1621.65 1241.66 1621.89 1241.3 1622.21 1241.03C1622.53 1240.76 1622.93 1240.6 1623.35 1240.55C1623.92 1240.49 1624.49 1240.67 1624.93 1241.03C1625.37 1241.39 1625.65 1241.92 1625.71 1242.49Z" fill="#1D3EC7" stroke="#1D3EC7" stroke-miterlimit="10"/>
<path d="M1636.57 1230.53C1636.61 1230.95 1636.52 1231.37 1636.32 1231.74C1636.11 1232.11 1635.81 1232.41 1635.44 1232.6C1635.06 1232.8 1634.64 1232.88 1634.22 1232.84C1633.81 1232.8 1633.41 1232.63 1633.09 1232.37C1632.76 1232.1 1632.52 1231.74 1632.4 1231.34C1632.28 1230.94 1632.27 1230.51 1632.39 1230.11C1632.51 1229.7 1632.75 1229.34 1633.07 1229.07C1633.39 1228.8 1633.79 1228.64 1634.21 1228.59C1634.78 1228.53 1635.35 1228.71 1635.79 1229.07C1636.23 1229.43 1636.51 1229.96 1636.57 1230.53Z" fill="#1D3EC7" stroke="#1D3EC7" stroke-miterlimit="10"/>
<path d="M1569.82 1255.42C1569.82 1255.42 1583.88 1260.64 1585.59 1272.18" stroke="#043D3E" stroke-width="3" stroke-miterlimit="10"/>
<path d="M1580.7 1247.26C1580.7 1247.26 1594.87 1251.35 1599.88 1263.76" stroke="#043D3E" stroke-width="3" stroke-miterlimit="10"/>
<path d="M1591.05 1238.79C1591.05 1238.79 1606.13 1243.01 1612.16 1253.84" stroke="#043D3E" stroke-width="3" stroke-miterlimit="10"/>
<path d="M1599.93 1231.13C1599.93 1231.13 1614.56 1230.68 1623.59 1242.72" stroke="#043D3E" stroke-width="3" stroke-miterlimit="10"/>
<path d="M1610.73 1221.38C1610.73 1221.38 1624.81 1219.77 1634.45 1230.76" stroke="#043D3E" stroke-width="3" stroke-miterlimit="10"/>
<path d="M1486.85 1123.04L1492.66 1203.53H1540.17L1538.23 1123.04H1486.85Z" fill="#FAB2B2" stroke="#FAB2B2" stroke-miterlimit="10"/>
<path d="M1542.97 1202.81C1541.81 1200.48 1539.64 1198.12 1535.62 1198.64C1528.05 1199.62 1519.26 1199.46 1514.47 1198.2C1514.47 1198.2 1519.64 1195.24 1517.97 1192.88C1517.71 1192.53 1517.32 1192.29 1516.88 1192.21C1515.06 1191.85 1509.16 1190.57 1506.59 1188.74C1505.89 1188.22 1505.07 1187.91 1504.2 1187.85C1501.79 1187.73 1496.78 1188.74 1488.01 1195.58C1476.66 1204.43 1451.52 1222.97 1436.49 1229.86C1435.09 1230.51 1433.66 1231.09 1432.2 1231.59C1431.31 1231.9 1430.4 1232.15 1429.47 1232.33C1428.61 1232.5 1427.76 1232.71 1426.92 1232.97C1415.05 1236.67 1402.38 1250.45 1406.85 1264.25C1406.85 1264.25 1410.49 1272.91 1426.84 1272.09C1443.2 1271.28 1520.5 1267.82 1520.5 1267.82C1520.5 1267.82 1537.05 1267.8 1541.42 1250.69C1541.96 1248.52 1542.29 1246.3 1542.4 1244.07C1542.41 1243.89 1542.43 1243.71 1542.43 1243.53C1543.24 1224.6 1543.88 1212.9 1544.12 1208.67C1544.25 1206.65 1543.86 1204.63 1542.97 1202.81Z" fill="#BCE1E5" stroke="#A8D1FB" stroke-miterlimit="10"/>
<path d="M1464.67 1253.89C1453.06 1254.54 1448.7 1245.43 1448.7 1245.43C1448.22 1243.81 1447.59 1242.25 1446.83 1240.75C1445.46 1241.21 1444.27 1241.59 1443.26 1241.9C1444.44 1243.82 1445.49 1245.82 1446.41 1247.88C1446.41 1247.88 1452.47 1257.88 1463.17 1258.45C1473.88 1259.02 1525.53 1260.04 1541.43 1250.69C1541.97 1248.52 1542.29 1246.3 1542.41 1244.07C1539.3 1246.35 1535.85 1248.14 1532.19 1249.35C1514.35 1255.21 1476.29 1253.24 1464.67 1253.89Z" fill="#00BEBF" stroke="#00BEBF" stroke-miterlimit="10"/>
<path d="M1515.77 1194.04C1515.5 1193.69 1515.11 1193.45 1514.68 1193.38C1512.86 1193.01 1506.96 1191.74 1504.38 1189.9C1503.69 1189.38 1502.87 1189.07 1502 1189.01C1499.58 1188.89 1494.57 1189.91 1485.81 1196.74C1474.46 1205.59 1449.32 1224.13 1434.29 1231.02C1432.89 1231.67 1431.46 1232.25 1430 1232.75C1432.42 1233.53 1436.66 1235.89 1441.06 1243.06C1442.06 1242.75 1443.26 1242.37 1444.62 1241.91C1455.85 1238.08 1478.58 1228.41 1501.62 1207.34C1501.62 1207.34 1507.82 1201.42 1512.26 1199.36C1512.26 1199.36 1517.44 1196.4 1515.77 1194.04Z" fill="#D9F1FF" stroke="#D9F1FF" stroke-miterlimit="10"/>
<path d="M1463.17 1258.45C1452.46 1257.88 1446.41 1247.88 1446.41 1247.88C1445.48 1245.82 1444.43 1243.82 1443.26 1241.9C1438.87 1234.73 1434.62 1232.37 1432.2 1231.59C1431.31 1231.9 1430.4 1232.15 1429.47 1232.33C1428.61 1232.5 1427.76 1232.71 1426.92 1232.97C1415.05 1236.67 1402.38 1250.45 1406.85 1264.25C1406.85 1264.25 1410.49 1272.91 1426.84 1272.09C1443.2 1271.28 1520.5 1267.82 1520.5 1267.82C1520.5 1267.82 1537.05 1267.8 1541.42 1250.69C1525.53 1260.04 1473.88 1259.02 1463.17 1258.45Z" fill="white" stroke="white" stroke-width="3" stroke-miterlimit="10"/>
<path d="M1462.36 1242.33C1462.38 1242.75 1462.26 1243.17 1462.04 1243.53C1461.82 1243.89 1461.5 1244.17 1461.11 1244.35C1460.73 1244.52 1460.3 1244.58 1459.88 1244.51C1459.47 1244.45 1459.08 1244.26 1458.77 1243.97C1458.46 1243.68 1458.24 1243.31 1458.15 1242.9C1458.05 1242.49 1458.08 1242.05 1458.22 1241.66C1458.37 1241.26 1458.63 1240.92 1458.98 1240.67C1459.32 1240.43 1459.73 1240.29 1460.15 1240.27C1460.72 1240.25 1461.27 1240.46 1461.68 1240.84C1462.1 1241.23 1462.34 1241.76 1462.36 1242.33Z" fill="#088B8C" stroke="#1D3EC7" stroke-miterlimit="10"/>
<path d="M1477.24 1235.15C1477.26 1235.57 1477.15 1235.99 1476.93 1236.35C1476.7 1236.71 1476.38 1237 1476 1237.17C1475.61 1237.35 1475.18 1237.4 1474.77 1237.34C1474.35 1237.27 1473.96 1237.08 1473.65 1236.79C1473.34 1236.5 1473.13 1236.13 1473.03 1235.72C1472.93 1235.31 1472.96 1234.88 1473.11 1234.48C1473.26 1234.08 1473.52 1233.74 1473.86 1233.49C1474.2 1233.25 1474.61 1233.11 1475.03 1233.09C1475.31 1233.08 1475.59 1233.13 1475.86 1233.23C1476.12 1233.32 1476.36 1233.47 1476.56 1233.66C1476.77 1233.86 1476.94 1234.08 1477.05 1234.34C1477.17 1234.6 1477.23 1234.87 1477.24 1235.15Z" fill="#088B8C" stroke="#1D3EC7" stroke-miterlimit="10"/>
<path d="M1490.23 1226.38C1490.25 1226.8 1490.14 1227.22 1489.91 1227.58C1489.69 1227.94 1489.37 1228.22 1488.98 1228.4C1488.6 1228.57 1488.17 1228.63 1487.75 1228.56C1487.34 1228.49 1486.95 1228.3 1486.64 1228.02C1486.33 1227.73 1486.12 1227.36 1486.02 1226.94C1485.92 1226.53 1485.95 1226.1 1486.1 1225.71C1486.24 1225.31 1486.51 1224.97 1486.85 1224.72C1487.19 1224.47 1487.6 1224.33 1488.02 1224.32C1488.59 1224.3 1489.14 1224.5 1489.55 1224.89C1489.97 1225.28 1490.21 1225.81 1490.23 1226.38Z" fill="#088B8C" stroke="#1D3EC7" stroke-miterlimit="10"/>
<path d="M1502.46 1216.37C1502.48 1216.79 1502.37 1217.21 1502.14 1217.57C1501.92 1217.93 1501.6 1218.21 1501.21 1218.39C1500.83 1218.57 1500.4 1218.62 1499.99 1218.56C1499.57 1218.49 1499.18 1218.3 1498.87 1218.01C1498.56 1217.72 1498.35 1217.35 1498.25 1216.94C1498.15 1216.53 1498.18 1216.1 1498.33 1215.7C1498.47 1215.3 1498.74 1214.96 1499.08 1214.71C1499.42 1214.47 1499.83 1214.33 1500.25 1214.31C1500.82 1214.29 1501.37 1214.5 1501.78 1214.88C1502.2 1215.27 1502.44 1215.8 1502.46 1216.37Z" fill="#088B8C" stroke="#1D3EC7" stroke-miterlimit="10"/>
<path d="M1514.19 1205.5C1514.2 1205.93 1514.09 1206.34 1513.87 1206.7C1513.65 1207.06 1513.33 1207.35 1512.94 1207.52C1512.56 1207.7 1512.13 1207.76 1511.71 1207.69C1511.29 1207.62 1510.91 1207.43 1510.6 1207.14C1510.29 1206.85 1510.07 1206.48 1509.98 1206.07C1509.88 1205.66 1509.91 1205.23 1510.05 1204.83C1510.2 1204.44 1510.46 1204.09 1510.81 1203.85C1511.15 1203.6 1511.56 1203.46 1511.98 1203.44C1512.54 1203.42 1513.1 1203.63 1513.51 1204.02C1513.92 1204.4 1514.17 1204.94 1514.19 1205.5Z" fill="#088B8C" stroke="#1D3EC7" stroke-miterlimit="10"/>
<path d="M1445.75 1224.95C1445.75 1224.95 1459.39 1231.04 1460.23 1242.41" stroke="#043D3E" stroke-width="3" stroke-miterlimit="10"/>
<path d="M1457.21 1217.78C1457.21 1217.78 1471.04 1222.78 1475.11 1235.23" stroke="#043D3E" stroke-width="3" stroke-miterlimit="10"/>
<path d="M1468.18 1210.28C1468.18 1210.28 1482.89 1215.47 1488.1 1226.45" stroke="#043D3E" stroke-width="3" stroke-miterlimit="10"/>
<path d="M1477.61 1203.46C1477.61 1203.46 1492.22 1204.07 1500.33 1216.45" stroke="#043D3E" stroke-width="3" stroke-miterlimit="10"/>
<path d="M1489.11 1194.74C1489.11 1194.74 1503.27 1194.18 1512.05 1205.58" stroke="#043D3E" stroke-width="3" stroke-miterlimit="10"/>
<path d="M1478.43 1098.52C1490.31 1100.39 1514.52 1102.66 1548.24 1098.03C1549.28 1097.89 1550.33 1097.95 1551.34 1098.22C1552.35 1098.49 1553.3 1098.95 1554.13 1099.59C1554.97 1100.22 1555.66 1101.01 1556.19 1101.92C1556.71 1102.83 1557.05 1103.83 1557.18 1104.87C1557.9 1110.48 1558.57 1118.06 1558.01 1124.22C1557.81 1126.5 1556.86 1128.64 1555.31 1130.33C1553.75 1132.01 1551.69 1133.14 1549.44 1133.53C1536.27 1135.8 1505.32 1139.61 1477.12 1131.6C1475.05 1131.01 1473.2 1129.8 1471.85 1128.13C1470.49 1126.45 1469.68 1124.4 1469.54 1122.25C1469.18 1116.83 1469.1 1111.39 1469.31 1105.97C1469.35 1104.85 1469.64 1103.77 1470.14 1102.77C1470.64 1101.78 1471.34 1100.9 1472.2 1100.2C1473.06 1099.49 1474.06 1098.98 1475.14 1098.69C1476.21 1098.4 1477.33 1098.34 1478.43 1098.52Z" fill="#088B8C" stroke="#088B8C" stroke-miterlimit="10"/>
<path d="M1590.83 1097.75C1602.73 1099.24 1631.13 1101.44 1659.42 1093.39C1660.58 1093.05 1661.8 1092.97 1663 1093.14C1664.2 1093.31 1665.34 1093.74 1666.37 1094.38C1667.39 1095.03 1668.26 1095.88 1668.93 1096.89C1669.6 1097.9 1670.05 1099.04 1670.25 1100.23C1671.33 1106.72 1672.1 1115.17 1670.33 1121.34C1669.93 1122.72 1669.23 1123.99 1668.26 1125.06C1667.3 1126.12 1666.1 1126.95 1664.77 1127.48C1655.96 1130.96 1630.1 1138.36 1588.47 1126.93C1587.38 1126.64 1586.41 1126.04 1585.65 1125.22C1584.89 1124.39 1584.39 1123.36 1584.19 1122.25C1583.12 1115.94 1583 1109.5 1583.84 1103.15C1584.05 1101.51 1584.91 1100.02 1586.22 1099.01C1587.53 1097.99 1589.18 1097.54 1590.83 1097.75Z" fill="#088B8C" stroke="#088B8C" stroke-miterlimit="10"/>
<path d="M1326.63 608.848L1327.09 609.32C1330.43 612.807 1334.72 615.229 1339.43 616.284L1348.45 618.303" stroke="#FA707F" stroke-width="3" stroke-miterlimit="10"/>
<path d="M1526.86 761.616C1526.86 761.616 1578.47 772.488 1630.34 758.912V788.974C1630.34 788.974 1572.69 805.944 1526.86 788.974V761.616Z" fill="white" stroke="white" stroke-width="3" stroke-miterlimit="10"/>
<path d="M1437.89 754.064C1437.89 754.064 1450.52 761.337 1479.35 762.306V784.125C1479.35 784.125 1445.16 784.125 1437.89 775.397V754.064Z" fill="white" stroke="white" stroke-width="3" stroke-miterlimit="10"/>
<path d="M1514.72 731.881C1514.72 732.577 1514.52 733.256 1514.13 733.834C1513.75 734.412 1513.2 734.863 1512.55 735.129C1511.91 735.395 1511.21 735.465 1510.52 735.329C1509.84 735.193 1509.22 734.859 1508.72 734.367C1508.23 733.875 1507.9 733.249 1507.76 732.567C1507.63 731.885 1507.7 731.178 1507.96 730.536C1508.23 729.894 1508.68 729.345 1509.26 728.959C1509.84 728.572 1510.51 728.366 1511.21 728.366C1512.14 728.366 1513.04 728.736 1513.7 729.396C1514.35 730.055 1514.72 730.949 1514.72 731.881Z" fill="#B0D4F9" stroke="#B0D4F9" stroke-miterlimit="10"/>
<path d="M1518.54 892.127C1520.65 892.127 1522.36 890.418 1522.36 888.309C1522.36 886.2 1520.65 884.491 1518.54 884.491C1516.43 884.491 1514.72 886.2 1514.72 888.309C1514.72 890.418 1516.43 892.127 1518.54 892.127Z" stroke="black" stroke-width="3" stroke-miterlimit="10"/>
<path d="M1490.36 491.674C1492.22 491.674 1493.72 490.172 1493.72 488.32C1493.72 486.468 1492.22 484.967 1490.36 484.967C1488.51 484.967 1487.01 486.468 1487.01 488.32C1487.01 490.172 1488.51 491.674 1490.36 491.674Z" fill="#08112F" stroke="#08112F" stroke-miterlimit="10"/>
<path d="M1510.63 692.156C1514.1 692.156 1516.9 688.431 1516.9 683.836C1516.9 679.241 1514.1 675.516 1510.63 675.516C1507.17 675.516 1504.36 679.241 1504.36 683.836C1504.36 688.431 1507.17 692.156 1510.63 692.156Z" fill="#088B8C" stroke="#BCE1E5" stroke-miterlimit="10"/>
<path d="M1560.79 692.156C1564.26 692.156 1567.06 688.431 1567.06 683.836C1567.06 679.241 1564.26 675.516 1560.79 675.516C1557.33 675.516 1554.52 679.241 1554.52 683.836C1554.52 688.431 1557.33 692.156 1560.79 692.156Z" fill="#088B8C" stroke="#BCE1E5" stroke-miterlimit="10"/>
<path d="M1481.37 372.148C1481.37 372.148 1507.75 365.492 1520.5 350.677C1520.5 350.677 1514.61 371.488 1484.88 382.044L1480.17 372.148H1481.37Z" fill="#FA707F" stroke="#FA707F" stroke-miterlimit="10"/>
<path d="M1434.01 268.719L1434.41 280.541L1434.92 288.509C1434.92 288.509 1436.95 275.781 1442.02 277.608C1447.08 279.435 1455.7 282.772 1466.82 273.04C1477.94 263.308 1490.99 257.393 1498.64 267.441C1498.64 267.441 1492.47 246.454 1460.19 270.174C1460.19 270.174 1450.68 278.578 1434.01 268.719Z" fill="#FA707F" stroke="#FA707F" stroke-miterlimit="10"/>
<path d="M1426.74 588.479C1426.74 588.479 1431.96 610.125 1423.82 634.546L1435.74 637.073C1435.74 637.073 1441.39 614.569 1431.17 588.805L1426.74 588.479Z" fill="#FA707F" stroke="#FA707F" stroke-miterlimit="10"/>
<path d="M1471.69 1008.79L1551.18 1013.66L1551.15 1029.95C1551.15 1029.95 1502.68 1012.68 1492.83 1047.71C1492.83 1047.71 1486 1075.85 1492.83 1100.15L1478.43 1098.52C1477.23 1098.2 1475.96 1098.3 1474.82 1098.78C1474.82 1098.78 1476.35 1079.84 1474.51 1051.79C1472.67 1023.74 1471.69 1008.79 1471.69 1008.79Z" fill="#044243" stroke="#088B8C" stroke-miterlimit="10"/>
<path d="M1580.57 1016.22L1661.62 1025.79L1661.47 1037.66C1661.47 1037.66 1611.86 1023.21 1604.95 1045.45C1598.04 1067.69 1604.95 1098.96 1604.95 1098.96L1590.83 1097.75L1580.57 1016.22Z" fill="#044243" stroke="#080020" stroke-miterlimit="10"/>
<path d="M1487.64 1134.05C1487.64 1134.05 1510.71 1137.99 1538.52 1135.09L1538.79 1146.11C1538.79 1146.11 1506.41 1138.87 1502.46 1152.77C1498.51 1166.68 1498.19 1189.23 1498.19 1189.23L1491.89 1192.76L1487.64 1134.05Z" fill="#FA707F" stroke="#FA707F" stroke-miterlimit="10"/>
<path d="M1605.74 1130.81C1605.74 1130.81 1635.16 1137.14 1659.13 1129.39L1659.41 1141.66C1659.41 1141.66 1626.57 1136.65 1622.59 1154.44C1618.61 1172.24 1619.79 1214.87 1619.79 1214.87L1613.8 1218.36L1605.74 1130.81Z" fill="#FA707F" stroke="#FA707F" stroke-miterlimit="10"/>
<path d="M1011.35 293.916H1063.27C1064.88 293.916 1066.43 294.556 1067.57 295.697C1068.71 296.837 1069.35 298.384 1069.35 299.997V375.224C1069.35 381.642 1066.8 387.798 1062.26 392.336C1057.73 396.875 1051.57 399.424 1045.15 399.424H1031.96C1024.88 399.424 1018.09 396.612 1013.09 391.606C1008.09 386.6 1005.27 379.811 1005.27 372.732V299.997C1005.27 298.384 1005.91 296.837 1007.05 295.697C1008.19 294.556 1009.74 293.916 1011.35 293.916Z" fill="#BCE1E5" stroke="#96C6F9" stroke-miterlimit="10"/>
<path d="M1019.89 324.787C1026.86 326.334 1040.71 328.176 1058.36 324.239C1058.76 324.15 1059.18 324.152 1059.58 324.245C1059.98 324.339 1060.36 324.521 1060.68 324.78C1061 325.038 1061.26 325.365 1061.44 325.736C1061.61 326.108 1061.71 326.515 1061.71 326.927V360.986C1061.71 362.038 1061.4 363.067 1060.82 363.943C1060.23 364.819 1059.4 365.502 1058.43 365.906C1052.72 368.263 1039.54 371.681 1018.98 365.552C1017.82 365.21 1016.8 364.501 1016.07 363.533C1015.35 362.564 1014.96 361.387 1014.95 360.177V328.738C1014.95 328.13 1015.09 327.531 1015.35 326.984C1015.62 326.437 1016 325.956 1016.47 325.577C1016.95 325.197 1017.5 324.93 1018.09 324.793C1018.68 324.656 1019.3 324.654 1019.89 324.787Z" fill="white" stroke="white" stroke-width="3" stroke-miterlimit="10"/>
<path d="M1021.84 333.164C1021.84 333.164 1040.11 337.2 1055.3 333.164" stroke="#BCE1E5" stroke-width="3" stroke-miterlimit="10"/>
<path d="M1021.84 338.288C1021.84 338.288 1040.11 342.323 1055.3 338.288" stroke="#BCE1E5" stroke-width="3" stroke-miterlimit="10"/>
<path d="M1021.6 343.411C1021.6 343.411 1039.87 347.446 1055.06 343.411" stroke="#BCE1E5" stroke-width="3" stroke-miterlimit="10"/>
<path d="M1021.6 348.534C1021.6 348.534 1039.87 352.569 1055.06 348.534" stroke="#BCE1E5" stroke-width="3" stroke-miterlimit="10"/>
<path d="M1021.53 353.657C1021.53 353.657 1039.81 357.693 1054.99 353.657" stroke="#BCE1E5" stroke-width="3" stroke-miterlimit="10"/>
<path d="M1021.6 358.78C1021.6 358.78 1039.87 362.816 1055.06 358.78" stroke="#BCE1E5" stroke-width="3" stroke-miterlimit="10"/>
<path d="M1046.58 306.578H1030.56C1029.88 306.576 1029.24 306.307 1028.76 305.829C1028.28 305.35 1028.01 304.703 1028.01 304.026C1028.01 303.35 1028.28 302.702 1028.76 302.224C1029.24 301.746 1029.88 301.477 1030.56 301.475H1046.58C1047.25 301.477 1047.9 301.746 1048.38 302.224C1048.86 302.702 1049.13 303.35 1049.13 304.026C1049.13 304.703 1048.86 305.35 1048.38 305.829C1047.9 306.307 1047.25 306.576 1046.58 306.578Z" fill="white" stroke="white" stroke-width="3" stroke-miterlimit="10"/>
<path d="M1037.97 304.026C1036.72 304.023 1035.51 303.521 1034.62 302.632C1033.73 301.742 1033.23 300.537 1033.23 299.279V287.825C1033.23 286.567 1033.73 285.362 1034.62 284.472C1035.51 283.583 1036.72 283.082 1037.97 283.078C1039.23 283.082 1040.44 283.583 1041.33 284.472C1042.21 285.362 1042.72 286.567 1042.72 287.825V299.279C1042.72 300.537 1042.21 301.742 1041.33 302.632C1040.44 303.521 1039.23 304.023 1037.97 304.026Z" fill="#181A51" stroke="#181A51" stroke-miterlimit="10"/>
<path d="M1037.31 399.424V475.116C1037.31 475.116 1039.03 528.64 1005.27 550.918C971.521 573.196 733.11 601.073 723.141 685.708C713.172 770.343 1034.74 707.818 1112.5 722.7C1190.26 737.582 1069.35 782.545 1069.35 782.545" stroke="#088B8C" stroke-width="4" stroke-miterlimit="10"/>
<path d="M1039.05 417.908H1035.57C1032.43 417.908 1029.88 420.459 1029.88 423.605V443.545C1029.88 446.691 1032.43 449.242 1035.57 449.242H1039.05C1042.2 449.242 1044.75 446.691 1044.75 443.545V423.605C1044.75 420.459 1042.2 417.908 1039.05 417.908Z" fill="#BCE1E5" stroke="#96C6F9" stroke-miterlimit="10"/>
<path d="M1120.7 277.608H1005.27V285.456H1120.7V277.608Z" fill="#080020" stroke="#080020" stroke-miterlimit="10"/>
<path d="M1095.07 285.456H1086.52V1213.23H1095.07V285.456Z" fill="#080020" stroke="#080020" stroke-miterlimit="10"/>
<path opacity="0.36" d="M1029.88 423.605V443.545C1029.88 443.545 1030.52 449.471 1035.57 449.242H1039.05C1039.05 449.242 1044.75 449.076 1044.75 443.545C1044.75 443.545 1034.64 448.023 1035.01 429.116C1035.01 429.116 1035.32 420.417 1039.05 417.908C1039.05 417.908 1029.88 415.87 1029.88 423.605Z" fill="#E0F0F2" stroke="#088B8C" stroke-miterlimit="10"/>
<path opacity="0.36" d="M1005.28 299.997V372.732C1005.28 372.732 1004.08 397.537 1031.96 399.424H1045.16C1045.16 399.424 1058.73 400.737 1066.7 386.195C1066.7 386.195 1022.04 401.682 1023.52 329.39C1023.52 329.39 1024.01 302.375 1029.88 293.916H1011.36C1011.36 293.916 1005.28 294.329 1005.28 299.997Z" fill="#BCE1E5" stroke="#BCE1E5" stroke-miterlimit="10"/>
<path d="M697.915 965.442H682.676V1354.5H697.915V965.442Z" fill="#088B8C" stroke="#080057" stroke-miterlimit="10"/>
<path d="M690.978 1382.37C701.434 1382.37 709.909 1373.89 709.909 1363.43C709.909 1352.97 701.434 1344.5 690.978 1344.5C680.523 1344.5 672.047 1352.97 672.047 1363.43C672.047 1373.89 680.523 1382.37 690.978 1382.37Z" fill="white" stroke="black" stroke-width="3" stroke-miterlimit="10"/>
<path d="M701.662 1372.47C706.389 1366.77 705.6 1358.31 699.899 1353.58C694.199 1348.86 685.746 1349.65 681.02 1355.35C676.293 1361.05 677.082 1369.5 682.782 1374.23C688.482 1378.96 696.935 1378.17 701.662 1372.47Z" fill="white" stroke="black" stroke-width="3" stroke-miterlimit="10"/>
<path d="M696.25 1368.82C698.961 1366.11 698.961 1361.71 696.25 1359C693.539 1356.29 689.143 1356.29 686.432 1359C683.721 1361.71 683.721 1366.11 686.432 1368.82C689.143 1371.53 693.539 1371.53 696.25 1368.82Z" fill="white" stroke="black" stroke-width="3" stroke-miterlimit="10"/>
<path d="M1781.86 963.652H1766.62V1273.65H1781.86V963.652Z" fill="#080020" stroke="#080020" stroke-miterlimit="10"/>
<path d="M1793.33 1286.99C1795.77 1276.82 1789.51 1266.6 1779.34 1264.17C1769.17 1261.73 1758.95 1268 1756.52 1278.16C1754.08 1288.33 1760.34 1298.55 1770.51 1300.99C1780.68 1303.43 1790.9 1297.16 1793.33 1286.99Z" fill="white" stroke="black" stroke-width="3" stroke-miterlimit="10"/>
<path d="M1788.52 1285.19C1789.7 1277.88 1784.73 1270.99 1777.42 1269.82C1770.11 1268.64 1763.23 1273.61 1762.05 1280.92C1760.87 1288.24 1765.84 1295.12 1773.16 1296.3C1780.47 1297.47 1787.35 1292.5 1788.52 1285.19Z" fill="white" stroke="black" stroke-width="3" stroke-miterlimit="10"/>
<path d="M1777.96 1289.46C1781.5 1287.98 1783.17 1283.92 1781.69 1280.38C1780.21 1276.84 1776.15 1275.17 1772.61 1276.65C1769.07 1278.13 1767.4 1282.19 1768.88 1285.73C1770.36 1289.27 1774.42 1290.94 1777.96 1289.46Z" fill="white" stroke="black" stroke-width="3" stroke-miterlimit="10"/>
<path d="M1888.83 964.377H1873.59V1353.43H1888.83V964.377Z" fill="#088B8C" stroke="#080057" stroke-miterlimit="10"/>
<path d="M1895.28 1375.76C1902.68 1368.36 1902.68 1356.37 1895.28 1348.98C1887.89 1341.58 1875.9 1341.58 1868.51 1348.98C1861.12 1356.37 1861.12 1368.36 1868.51 1375.76C1875.9 1383.15 1887.89 1383.15 1895.28 1375.76Z" fill="white" stroke="black" stroke-width="3" stroke-miterlimit="10"/>
<path d="M1891.74 1372.33C1896.98 1367.09 1896.98 1358.6 1891.74 1353.36C1886.5 1348.12 1878.01 1348.12 1872.78 1353.36C1867.54 1358.6 1867.54 1367.09 1872.78 1372.33C1878.01 1377.56 1886.5 1377.56 1891.74 1372.33Z" fill="white" stroke="black" stroke-width="3" stroke-miterlimit="10"/>
<path d="M1888.08 1366.62C1890.17 1363.4 1889.25 1359.1 1886.03 1357.02C1882.82 1354.93 1878.52 1355.85 1876.43 1359.07C1874.35 1362.28 1875.26 1366.58 1878.48 1368.67C1881.7 1370.75 1886 1369.84 1888.08 1366.62Z" fill="white" stroke="black" stroke-width="3" stroke-miterlimit="10"/>
<path d="M705.352 635.136H694.91V930.704H705.352V635.136Z" fill="#088B8C" stroke="#080057" stroke-miterlimit="10"/>
<path d="M1900.26 761.993H1888.45V931.508H1900.26V761.993Z" fill="white" stroke="black" stroke-width="3" stroke-miterlimit="10"/>
<path d="M648.402 587.095L641.055 593.268L942.93 952.732L950.278 946.559L648.402 587.095Z" fill="#080020" stroke="#080020" stroke-miterlimit="10"/>
<path d="M708.149 580.587C702.444 573.793 694.275 569.545 685.438 568.776C676.601 568.008 667.821 570.781 661.029 576.487L648.402 587.096L651.062 590.263L950.278 946.56L953.668 950.596L1014.07 945.659L708.149 580.587Z" fill="white" stroke="white" stroke-width="3" stroke-miterlimit="10"/>
<path d="M657.357 930.704H1912.59C1913.96 930.704 1915.27 931.247 1916.24 932.214C1917.2 933.18 1917.75 934.492 1917.75 935.859V952.214C1917.75 953.581 1917.2 954.893 1916.24 955.859C1915.27 956.826 1913.96 957.369 1912.59 957.369H657.358C655.99 957.369 654.679 956.826 653.713 955.859C652.746 954.893 652.203 953.581 652.203 952.214V935.859C652.203 935.182 652.336 934.512 652.595 933.886C652.855 933.261 653.234 932.692 653.713 932.214C654.191 931.735 654.76 931.355 655.385 931.096C656.01 930.837 656.681 930.704 657.357 930.704Z" fill="#D9E9F9" stroke="#D9E9F9" stroke-miterlimit="10"/>
<path d="M1900.26 957.369H657.469V965.477H1900.26V957.369Z" fill="#080020" stroke="#080020" stroke-miterlimit="10"/>
<path d="M885.609 557.738C885.609 557.738 905.919 585.24 888.002 598.392L891.703 602.269C891.703 602.269 912.21 580.21 885.609 557.738Z" fill="#150F42" stroke="#088B8C" stroke-miterlimit="10"/>
<path d="M910.905 645.583C910.905 645.583 958.055 671.995 943.182 695.416C943.182 695.416 948.524 676.354 926.727 660.285C926.727 660.285 949.827 687.187 920.082 703.962L887.172 665.349L910.905 645.583Z" fill="#150F42" stroke="#088B8C" stroke-miterlimit="10"/>
<path d="M906.475 658.386C906.475 658.386 903.711 689.945 929.259 703.962L941.6 712.191L891.698 717.572L848.566 661.867L907.923 658.386" fill="#FFB9B6"/>
<path d="M906.475 658.386C906.475 658.386 903.711 689.945 929.259 703.962L941.6 712.191L891.698 717.572L848.566 661.867L907.923 658.386" stroke="#FFB9B6" stroke-miterlimit="10"/>
<path d="M906.639 662.5L907.924 674.429C907.924 674.429 890.811 679.724 873.582 672.821C873.582 672.821 900.605 669.17 906.639 662.5Z" fill="#FF5972" stroke="#FF5972" stroke-miterlimit="10"/>
<path d="M902.679 710.609C902.679 710.609 938.754 704.912 957.107 707.127C975.461 709.343 985.587 716.622 996.663 726.117C1007.74 735.612 1024.19 768.529 1063.75 772.643L1057.42 908.739L1012.8 933.426C1012.8 933.426 1003.31 922.032 983.214 917.285C963.12 912.537 919.767 870.759 919.767 870.759L835.594 777.267C835.594 777.267 835.674 733.434 855.589 715.045L902.679 710.609Z" fill="#BCE1E5" stroke="#A8D2FC" stroke-miterlimit="10"/>
<path d="M882.108 725.168C882.108 725.168 902.044 756.818 948.877 761.565C995.711 766.313 1019.13 743.525 1024.19 734.663C1018.44 740.839 1011.43 745.697 1003.62 748.905C1003.62 748.905 1030.52 737.511 1017.86 693.201C1017.86 693.201 1013.12 724.851 966.282 727.705C966.282 727.705 1020.71 717.572 1002.36 667.881C1002.36 667.881 1016.81 708.033 974.583 716.947C968.08 718.285 961.413 718.633 954.807 717.979C948.344 717.412 941.924 716.432 935.587 715.045C923.246 712.191 907.299 708.709 891.698 708.076L880.422 711.241L882.108 725.168Z" fill="#150F42" stroke="#088B8C" stroke-miterlimit="10"/>
<path d="M891.698 708.077C885.343 691.59 877.958 680.561 870.74 673.19C853.984 656.08 838.124 658.702 838.124 658.702C838.124 658.702 804.264 658.702 806.796 638.762C806.796 638.762 810.91 625.469 829.263 633.065C829.263 633.065 853.946 625.153 843.187 599.2C843.187 599.2 862.806 634.015 834.643 641.611C834.643 641.611 855.729 642.852 855.729 617.871C855.706 612.669 854.791 607.509 853.024 602.616C849.092 591.578 839.974 562.618 853.313 564.543C853.313 564.543 854.262 562.485 861.699 564.543C861.699 564.543 877.055 571.601 891.209 594.514C883.221 536.339 855.528 549.509 855.528 549.509C840.022 514.693 802.049 562.485 798.252 571.031C794.455 579.577 786.86 587.173 786.86 587.173C757.747 621.988 764.709 654.588 764.709 654.588C766.924 685.921 808.695 694.467 808.695 694.467C789.708 686.238 779.107 673.581 779.107 673.581C756.323 640.194 781.481 607.186 781.481 607.186C762.494 643.658 781.481 664.241 793.822 673.581C806.163 682.922 809.96 689.403 809.96 689.403C844.611 744.474 882.109 725.168 882.109 725.168C885.026 723.367 887.437 720.853 889.115 717.863C890.793 714.873 891.682 711.505 891.698 708.077Z" fill="#150F42" stroke="#088B8C" stroke-miterlimit="10"/>
<path d="M910.49 631.799C907.544 624.52 909.955 620.355 909.955 620.355C912.487 613.026 905.209 609.961 905.209 609.961C900.679 607.491 896.864 603.894 894.133 599.516C893.168 597.77 892.193 596.102 891.208 594.514C877.054 571.601 861.698 564.543 861.698 564.543C854.262 562.485 853.312 564.543 853.312 564.543C839.974 562.618 849.092 591.578 853.024 602.616C854.791 607.509 855.706 612.669 855.729 617.871C855.729 642.852 834.642 641.611 834.642 641.611C862.806 634.015 843.186 599.2 843.186 599.2C853.945 625.153 829.263 633.065 829.263 633.065C810.909 625.469 806.795 638.762 806.795 638.762C804.264 658.702 838.123 658.702 838.123 658.702C838.123 658.702 853.983 656.08 870.739 673.19C878.426 672.276 895.854 669.513 905.525 662.5C918.183 653.322 913.436 639.079 910.49 631.799Z" fill="#FFB9B6" stroke="#FFB9B6" stroke-miterlimit="10"/>
<path d="M822.934 651.739C822.934 651.739 812.807 649.921 813.723 641.11C813.818 640.094 814.165 639.119 814.732 638.271C815.298 637.423 816.067 636.73 816.969 636.254C820.512 634.425 827.389 633.384 835.591 644.934" stroke="#FF5972" stroke-width="3" stroke-miterlimit="10"/>
<path d="M836.097 651.828C837.933 649.469 836.934 645.621 833.867 643.232C830.799 640.844 826.824 640.82 824.988 643.178C823.152 645.537 824.151 649.385 827.219 651.774C830.286 654.162 834.261 654.187 836.097 651.828Z" fill="#FF5972" stroke="#FF5972" stroke-miterlimit="10"/>
<path d="M869.596 602.709L867.914 601.829C873.538 591.083 884.566 593.917 884.676 593.946L884.182 595.779L884.429 594.863L884.184 595.78C883.79 595.675 874.502 593.335 869.596 602.709Z" fill="#11246A" stroke="#11246A" stroke-miterlimit="10"/>
<path d="M886.946 610.644C885.355 611.253 883.467 610.183 882.729 608.255C881.991 606.326 882.683 604.269 884.275 603.66C885.866 603.051 887.754 604.121 888.492 606.049C889.23 607.977 888.538 610.035 886.946 610.644Z" fill="black" stroke="black" stroke-width="3" stroke-miterlimit="10"/>
<path d="M884.273 603.66C884.273 603.66 879.695 604.422 876.57 610.712" stroke="black" stroke-width="3" stroke-miterlimit="10"/>
<path d="M876.982 648.875C884.112 645.921 887.498 637.746 884.545 630.615C881.591 623.484 873.418 620.098 866.288 623.052C859.159 626.005 855.773 634.181 858.726 641.312C861.679 648.443 869.853 651.829 876.982 648.875Z" fill="#FF8B9C" stroke="#FF8B9C" stroke-miterlimit="10"/>
<path d="M892.503 639.452C895.673 639.19 903.478 638.373 906.839 636.49C906.934 636.436 907.04 636.406 907.149 636.403C907.258 636.4 907.367 636.423 907.464 636.472C907.562 636.52 907.647 636.592 907.71 636.68C907.774 636.769 907.815 636.872 907.83 636.98C908.068 638.672 908.084 642.089 904.93 644.215C903.26 645.314 901.252 645.777 899.269 645.519C897.755 645.349 896.299 644.837 895.011 644.021C893.724 643.204 892.64 642.106 891.841 640.808C891.758 640.68 891.71 640.534 891.701 640.382C891.692 640.23 891.722 640.079 891.789 639.943C891.855 639.806 891.956 639.689 892.082 639.603C892.207 639.517 892.352 639.465 892.503 639.452Z" fill="#FF6D83" stroke="#FF6D83" stroke-miterlimit="10"/>
<path d="M865.656 661.867C865.656 661.867 890.655 673.894 893.503 703.962C893.503 703.962 899.199 671.995 865.656 661.867Z" fill="#150F42" stroke="#088B8C" stroke-miterlimit="10"/>
<path d="M915.618 880.842C915.618 880.842 934.023 888.37 951.427 854.256L969.306 833.367C969.306 833.367 982.122 825.296 981.647 809.154L921.365 813.984C921.365 813.984 879.966 851.882 915.618 880.842Z" fill="#088B8C" stroke="#000E0E" stroke-miterlimit="10"/>
<path d="M1055.95 766.834C1055.95 766.834 1043.6 762.547 1032.06 794.81C1020.51 827.073 986.081 987.439 1003.44 1033.32C1003.44 1033.32 1013.48 1055.68 1042.71 1033.32C1071.94 1010.97 1565.16 972.79 1842.83 1066.59C1842.83 1066.59 1906.76 1087.51 1893.98 1011C1881.19 934.494 1875.71 832.812 1773.41 802.47C1671.11 772.128 1269.23 766.645 1269.23 766.645C1269.23 766.645 1127.65 765.069 1091.12 779.776L1080.16 770.952C1072.55 767.629 1064.24 766.216 1055.95 766.834Z" fill="#BCE1E6" stroke="#85B4E2" stroke-miterlimit="10"/>
<path d="M1853.09 864.768C1853.09 864.768 1789.2 982.176 1438.42 957.369C1087.64 932.563 1120.06 845.351 1120.06 845.351C1120.06 845.351 1120.48 807.721 1187.2 767.953L1153.06 769.914L1091.12 779.776L1014.07 868.544C1014.07 868.544 990.394 993.953 1003.44 1033.32C1003.44 1033.32 1011.89 1054.8 1042.71 1033.32C1042.71 1033.32 1071.86 1020.85 1105.22 1020.52C1105.22 1020.52 1501.62 967.063 1842.83 1066.59C1842.83 1066.59 1908.67 1091.3 1893.98 1011C1893.98 1011 1878.52 888.171 1853.09 864.768Z" fill="#E0F0F2" stroke="#659CDD" stroke-miterlimit="10"/>
<path opacity="0.69" d="M952.307 835.329L981.658 854.71C981.658 854.71 992.727 850.195 998.74 844.814C1004.75 839.434 1039.24 806.518 1045.89 797.023C1052.53 787.527 1068.99 767.292 1075 764.433C1075 764.433 1079.43 761.279 1085.76 764.433C1085.76 764.433 1087.74 766.264 1092.49 764.433C1097.23 762.603 1098.89 761.516 1105.78 764.433C1105.78 764.433 1106.49 765.551 1110.29 764.433C1114.08 763.315 1119.54 763.315 1125.95 765.689C1132.36 768.062 1132.83 768.537 1138.53 768.775C1144.22 769.012 1153.24 767.113 1156.33 773.047C1159.41 778.982 1139.95 782.305 1139.95 782.305C1139.95 782.305 1125 783.729 1118.83 788.24C1112.66 792.75 1093.43 808.417 1093.43 808.417C1089.06 811.401 1084.14 813.497 1078.96 814.588C1070.18 816.487 1050.95 841.333 1041.14 856.208C1031.33 871.084 1004.2 908.565 993.124 906.982C993.124 906.982 956.926 907.031 917.098 852.727L952.307 835.329Z" fill="#E0F0F2" stroke="#BCE1E5" stroke-miterlimit="10"/>
<path d="M1061.22 826.894C1061.22 826.894 1056.63 828.31 1048.24 820.021L1057.58 811.221C1057.58 811.221 1068.51 820.535 1061.22 826.894Z" fill="#001449" stroke="#001449" stroke-miterlimit="10"/>
<path d="M955.208 823.283L979.587 842.961C981.492 844.506 983.88 845.332 986.332 845.293C988.785 845.254 991.146 844.354 993.001 842.749C993.061 842.697 993.121 842.644 993.181 842.59C999.193 837.209 1033.69 804.293 1040.33 794.798C1046.98 785.303 1063.43 765.068 1069.44 762.209C1069.44 762.209 1073.87 759.054 1080.2 762.209C1080.2 762.209 1082.18 764.039 1086.93 762.209C1091.67 760.379 1093.33 759.292 1100.22 762.209C1100.22 762.209 1100.93 763.327 1104.73 762.209C1108.52 761.091 1113.98 761.091 1120.39 763.464C1126.8 765.838 1127.27 766.313 1132.97 766.55C1138.66 766.788 1147.68 764.889 1150.77 770.823C1153.85 776.757 1134.39 780.081 1134.39 780.081C1134.39 780.081 1119.44 781.505 1113.27 786.015C1107.1 790.525 1087.88 806.192 1087.88 806.192C1083.5 809.176 1078.58 811.273 1073.4 812.364C1064.62 814.263 1045.39 839.109 1035.58 853.984C1025.77 868.86 1001.09 902.725 990.017 901.143C990.017 901.143 953.309 897.345 911.539 850.503L955.208 823.283Z" fill="#FFB9B6" stroke="#FFB9B6" stroke-miterlimit="10"/>
<path d="M858.348 747.729C853.88 748.491 849.69 750.412 846.197 753.3C842.703 756.187 840.027 759.94 838.437 764.185C834.872 773.574 832.32 788.962 843.259 805.356C860.999 831.943 899.818 874.67 915.059 880.842C915.059 880.842 899.446 859.953 926.028 841.438C952.609 822.922 969.222 825.296 981.088 809.154C981.088 809.154 951.185 803.457 926.977 775.922C908.479 754.881 878.413 744.416 858.348 747.729Z" fill="#BCE1E5" stroke="#78B7F4" stroke-miterlimit="10"/>
<path d="M837.133 766.704C837.411 765.799 837.751 764.913 838.15 764.054C840.986 757.775 850.456 742.875 875.124 747.806C875.124 747.806 892.017 750.28 903.016 757.196C903.016 757.196 866.847 729.082 838.849 752.488" fill="#088B8C"/>
<path d="M837.133 766.704C837.411 765.799 837.751 764.913 838.15 764.054C840.986 757.775 850.456 742.875 875.124 747.806C875.124 747.806 892.017 750.28 903.016 757.196C903.016 757.196 866.847 729.082 838.849 752.488" stroke="#088B8C" stroke-miterlimit="10"/>
<path d="M1033.37 802.987C1033.37 802.987 1041.62 804.706 1057.81 817.674C1058.89 818.529 1059.82 819.569 1060.54 820.745C1061.52 822.389 1062.33 824.674 1061.23 826.894C1061.23 826.894 1064.16 825.697 1066.46 821.895C1067.04 820.955 1067.34 819.874 1067.34 818.771C1067.34 817.669 1067.03 816.589 1066.44 815.653C1063.55 811.026 1056.24 801.857 1041.21 795.88C1040.35 795.534 1039.41 795.453 1038.51 795.648C1037.61 795.843 1036.79 796.305 1036.15 796.973C1034.59 798.616 1033.61 800.731 1033.37 802.987Z" fill="#088B8C" stroke="#3C85F7" stroke-miterlimit="10"/>
<path d="M836.067 772.732C836.067 772.732 830.198 790.161 849.332 813.984C868.466 837.808 897.04 873.98 915.058 880.842C915.058 880.842 898.962 859.306 926.027 841.438C926.027 841.438 942.51 830.123 957.438 825.085C957.438 825.085 974.613 818.837 981.644 809.154L969.23 805.471C969.23 805.471 946.536 809.154 917.916 820.508C906.267 825.129 893.566 826.622 882.166 821.417C868.203 815.041 850.594 801.48 836.067 772.732Z" fill="#E0F0F2" stroke="#088B8C" stroke-miterlimit="10"/>
<path d="M853.312 564.543C853.312 564.543 857.666 562.181 861.698 564.543C865.73 566.905 880.197 575.939 891.209 594.514C891.209 594.514 866.953 564.932 853.312 564.543Z" fill="#FF5972" stroke="#FF5972" stroke-miterlimit="10"/>
<path d="M834.645 641.611C834.645 641.611 861.714 638.695 843.188 599.2C843.188 599.2 849.384 613.092 843.139 621.988C843.139 621.988 845.103 636.126 834.645 641.611Z" fill="#FF5972" stroke="#FF5972" stroke-miterlimit="10"/>
<path d="M957.441 825.085C957.441 825.085 921.682 839.139 914.176 853.598C914.176 853.598 927.023 866.902 934.532 872.767C934.532 872.767 920.131 851.114 966.08 832.059L957.441 825.085Z" fill="#FF6D83"/>
<path d="M961.496 1172.47C973.859 1167.35 979.73 1153.17 974.609 1140.8C969.488 1128.44 955.315 1122.57 942.952 1127.69C930.589 1132.81 924.718 1146.99 929.839 1159.35C934.96 1171.72 949.133 1177.59 961.496 1172.47Z" fill="#088B8C" stroke="#77BEFF" stroke-miterlimit="10"/>
<path d="M653.18 1007.13C658.66 1007.13 663.102 1002.68 663.102 997.202C663.102 991.721 658.66 987.277 653.18 987.277C647.7 987.277 643.258 991.721 643.258 997.202C643.258 1002.68 647.7 1007.13 653.18 1007.13Z" fill="white"/>
<path d="M653.18 1007.13C658.66 1007.13 663.102 1002.68 663.102 997.202C663.102 991.721 658.66 987.277 653.18 987.277C647.7 987.277 643.258 991.721 643.258 997.202C643.258 1002.68 647.7 1007.13 653.18 1007.13Z" fill="url(#paint3_linear)"/>
<path d="M653.18 1007.13C658.66 1007.13 663.102 1002.68 663.102 997.202C663.102 991.721 658.66 987.277 653.18 987.277C647.7 987.277 643.258 991.721 643.258 997.202C643.258 1002.68 647.7 1007.13 653.18 1007.13Z" stroke="#85B4E2" stroke-miterlimit="10"/>
<path d="M635.451 1108.6C640.705 1108.6 644.964 1103.54 644.964 1097.3C644.964 1091.06 640.705 1086 635.451 1086C630.197 1086 625.938 1091.06 625.938 1097.3C625.938 1103.54 630.197 1108.6 635.451 1108.6Z" fill="#088B8C" stroke="#080057" stroke-miterlimit="10"/>
<path d="M1869.94 532.018C1880.16 532.018 1888.45 523.728 1888.45 513.5C1888.45 503.273 1880.16 494.982 1869.94 494.982C1859.71 494.982 1851.42 503.273 1851.42 513.5C1851.42 523.728 1859.71 532.018 1869.94 532.018Z" fill="white" stroke="white" stroke-width="3" stroke-miterlimit="10"/>
<path d="M457.624 585.358C467.849 585.358 476.139 577.067 476.139 566.84C476.139 556.612 467.849 548.322 457.624 548.322C447.399 548.322 439.109 556.612 439.109 566.84C439.109 577.067 447.399 585.358 457.624 585.358Z" fill="white" stroke="white" stroke-width="3" stroke-miterlimit="10"/>
<path d="M1938.06 1222.57C1945.29 1215.34 1945.29 1203.61 1938.06 1196.38C1930.83 1189.15 1919.11 1189.15 1911.88 1196.38C1904.65 1203.61 1904.65 1215.34 1911.88 1222.57C1919.11 1229.8 1930.83 1229.8 1938.06 1222.57Z" fill="white" stroke="white" stroke-width="3" stroke-miterlimit="10"/>
<path d="M1264.29 1480.18C1274.51 1480.18 1282.8 1471.89 1282.8 1461.66C1282.8 1451.43 1274.51 1443.14 1264.29 1443.14C1254.06 1443.14 1245.77 1451.43 1245.77 1461.66C1245.77 1471.89 1254.06 1480.18 1264.29 1480.18Z" fill="white" stroke="white" stroke-width="3" stroke-miterlimit="10"/>
<path d="M1138.58 656.7C1148.8 656.7 1157.09 648.41 1157.09 638.182C1157.09 627.955 1148.8 619.664 1138.58 619.664C1128.35 619.664 1120.06 627.955 1120.06 638.182C1120.06 648.41 1128.35 656.7 1138.58 656.7Z" fill="white" stroke="white" stroke-width="3" stroke-miterlimit="10"/>
<path d="M538.64 867.079C548.865 867.079 557.154 858.788 557.154 848.561C557.154 838.333 548.865 830.043 538.64 830.043C528.414 830.043 520.125 838.333 520.125 848.561C520.125 858.788 528.414 867.079 538.64 867.079Z" fill="white" stroke="white" stroke-width="3" stroke-miterlimit="10"/>
<path d="M1155.38 266.543C1159.67 257.261 1155.63 246.255 1146.35 241.962C1137.07 237.669 1126.06 241.714 1121.77 250.997C1117.48 260.279 1121.52 271.285 1130.8 275.578C1140.09 279.871 1151.09 275.826 1155.38 266.543Z" fill="#E2EAFA" stroke="#E2EAFA" stroke-miterlimit="10"/>
<path d="M1245.77 1122.72C1254.82 1122.72 1262.16 1115.39 1262.16 1106.33C1262.16 1097.28 1254.82 1089.94 1245.77 1089.94C1236.72 1089.94 1229.39 1097.28 1229.39 1106.33C1229.39 1115.39 1236.72 1122.72 1245.77 1122.72Z" fill="white" stroke="white" stroke-width="3" stroke-miterlimit="10"/>
<path d="M1949.79 609.531C1953.8 607.435 1955.35 602.484 1953.26 598.473C1951.16 594.462 1946.21 592.911 1942.2 595.007C1938.19 597.104 1936.64 602.055 1938.74 606.065C1940.83 610.076 1945.78 611.628 1949.79 609.531Z" fill="white" stroke="white" stroke-width="3" stroke-miterlimit="10"/>
<path d="M1943.41 594.989C1944.93 594.446 1946.59 594.368 1948.16 594.764C1949.73 595.161 1951.15 596.014 1952.23 597.217C1953.32 598.42 1954.03 599.918 1954.26 601.521C1954.5 603.125 1954.25 604.762 1953.55 606.226C1952.86 607.69 1951.74 608.915 1950.35 609.745C1948.96 610.576 1947.36 610.976 1945.74 610.893C1944.12 610.811 1942.56 610.251 1941.26 609.283C1939.96 608.315 1938.98 606.984 1938.44 605.457C1937.71 603.409 1937.82 601.156 1938.75 599.193C1939.69 597.23 1941.36 595.718 1943.41 594.989Z" fill="white" stroke="white" stroke-width="3" stroke-miterlimit="10"/>
<path d="M1313.52 1428.93C1315.49 1424.85 1313.77 1419.95 1309.7 1417.99C1305.62 1416.02 1300.73 1417.73 1298.76 1421.81C1296.8 1425.89 1298.51 1430.79 1302.58 1432.75C1306.66 1434.72 1311.56 1433.01 1313.52 1428.93Z" fill="white" stroke="white" stroke-width="3" stroke-miterlimit="10"/>
<path d="M1082.93 1244.87C1093.39 1244.87 1101.86 1236.39 1101.86 1225.93C1101.86 1215.48 1093.39 1207 1082.93 1207C1072.48 1207 1064 1215.48 1064 1225.93C1064 1236.39 1072.48 1244.87 1082.93 1244.87Z" fill="white" stroke="black" stroke-width="3" stroke-miterlimit="10"/>
<path d="M1083.29 1239.82C1090.7 1239.82 1096.7 1233.82 1096.7 1226.41C1096.7 1219 1090.7 1213 1083.29 1213C1075.89 1213 1069.89 1219 1069.89 1226.41C1069.89 1233.82 1075.89 1239.82 1083.29 1239.82Z" fill="white" stroke="black" stroke-width="3" stroke-miterlimit="10"/>
<path d="M1088.2 1231.32C1090.91 1228.61 1090.91 1224.21 1088.2 1221.5C1085.49 1218.79 1081.1 1218.79 1078.39 1221.5C1075.67 1224.21 1075.67 1228.61 1078.39 1231.32C1081.1 1234.03 1085.49 1234.03 1088.2 1231.32Z" fill="white" stroke="black" stroke-width="3" stroke-miterlimit="10"/>
<defs>
<linearGradient id="paint0_linear" x1="1467.17" y1="426.334" x2="1467.17" y2="974.701" gradientUnits="userSpaceOnUse">
<stop stop-color="white"/>
<stop offset="1" stop-color="white" stop-opacity="0"/>
</linearGradient>
<linearGradient id="paint1_linear" x1="1621.01" y1="412.804" x2="1621.01" y2="993.099" gradientUnits="userSpaceOnUse">
<stop stop-color="white"/>
<stop offset="1" stop-color="white" stop-opacity="0"/>
</linearGradient>
<linearGradient id="paint2_linear" x1="1539.72" y1="431.784" x2="1539.72" y2="669.698" gradientUnits="userSpaceOnUse">
<stop stop-color="white"/>
<stop offset="1" stop-color="white" stop-opacity="0"/>
</linearGradient>
<linearGradient id="paint3_linear" x1="653.18" y1="987.277" x2="653.18" y2="1007.13" gradientUnits="userSpaceOnUse">
<stop stop-color="white"/>
<stop offset="1" stop-color="white" stop-opacity="0"/>
</linearGradient>
</defs>
</svg>
