<svg width="21" height="21" viewBox="0 0 21 21" fill="none" xmlns="http://www.w3.org/2000/svg">
<mask id="mask0" mask-type="alpha" maskUnits="userSpaceOnUse" x="0" y="0" width="21" height="21">
<path d="M0 0H21V21H0V0Z" fill="white"/>
</mask>
<g mask="url(#mask0)">
<path fill-rule="evenodd" clip-rule="evenodd" d="M17.39 4.87554C17.39 4.53157 17.266 4.2356 17.016 3.98562C16.766 3.73564 16.468 3.60966 16.124 3.60966C15.78 3.60966 15.484 3.73564 15.234 3.98562C14.984 4.2356 14.858 4.53157 14.858 4.87554C14.858 5.2195 14.984 5.51547 15.234 5.76545C15.484 6.01543 15.78 6.14142 16.124 6.14142C16.468 6.14142 16.758 6.01543 16.992 5.76545C17.226 5.51547 17.358 5.2195 17.39 4.87554ZM10.5 14.0147C11.468 14.0147 12.296 13.6707 12.984 12.9848C13.672 12.2968 14.016 11.4689 14.016 10.501C14.016 9.53109 13.672 8.70317 12.984 8.01524C12.296 7.3293 11.468 6.98533 10.5 6.98533C9.53 6.98533 8.702 7.3293 8.016 8.01524C7.328 8.70317 6.984 9.53109 6.984 10.501C6.984 11.4689 7.328 12.2968 8.016 12.9848C8.702 13.6707 9.53 14.0147 10.5 14.0147ZM10.5 5.10951C11.468 5.10951 12.366 5.35149 13.194 5.83544C14.022 6.3214 14.68 6.97734 15.164 7.80526C15.648 8.63318 15.89 9.53109 15.89 10.501C15.89 11.4689 15.648 12.3668 15.164 13.1947C14.68 14.0227 14.022 14.6786 13.194 15.1646C12.366 15.6485 11.468 15.8905 10.5 15.8905C9.53 15.8905 8.632 15.6485 7.804 15.1646C6.976 14.6786 6.32 14.0227 5.836 13.1947C5.35 12.3668 5.108 11.4689 5.108 10.501C5.108 9.53109 5.35 8.63318 5.836 7.80526C6.32 6.97734 6.976 6.3214 7.804 5.83544C8.632 5.35149 9.53 5.10951 10.5 5.10951ZM18.702 16.6864C18.89 16.1565 19.014 15.3125 19.078 14.1567C19.108 13.4687 19.124 12.5008 19.124 11.2509V9.75107C19.124 8.46919 19.108 7.49929 19.078 6.84335C19.014 5.65746 18.89 4.81354 18.702 4.31359C18.328 3.34368 17.656 2.67175 16.686 2.29778C16.186 2.1098 15.344 1.98581 14.156 1.92182C13.468 1.89182 12.5 1.87582 11.25 1.87582H9.75C8.5 1.87582 7.53 1.89182 6.844 1.92182C5.686 1.98581 4.844 2.1098 4.312 2.29778C3.344 2.67175 2.672 3.34368 2.296 4.31359C2.108 4.81354 1.984 5.65746 1.922 6.84335C1.89 7.53128 1.874 8.49919 1.874 9.75107V11.2509C1.874 12.5008 1.89 13.4687 1.922 14.1567C1.984 15.3125 2.108 16.1565 2.296 16.6864C2.702 17.6563 3.374 18.3283 4.312 18.7022C4.844 18.8902 5.686 19.0142 6.844 19.0782C7.53 19.1082 8.5 19.1242 9.75 19.1242H11.25C12.53 19.1242 13.5 19.1082 14.156 19.0782C15.344 19.0142 16.186 18.8902 16.686 18.7022C17.656 18.2963 18.328 17.6243 18.702 16.6864ZM20.952 6.14142C20.984 7.01533 21 8.46919 21 10.501C21 12.5308 20.976 13.9927 20.93 14.8826C20.882 15.7725 20.75 16.5464 20.53 17.2024C20.25 17.9843 19.82 18.6642 19.242 19.2422C18.664 19.8201 17.984 20.2481 17.202 20.53C16.546 20.748 15.772 20.882 14.882 20.928C13.992 20.976 12.53 21 10.5 21C8.468 21 7.008 20.976 6.116 20.928C5.226 20.882 4.452 20.734 3.796 20.484C3.016 20.2341 2.336 19.8201 1.758 19.2422C1.18 18.6642 0.75 17.9843 0.468 17.2024C0.25 16.5464 0.116 15.7725 0.07 14.8826C0.022 13.9927 0 12.5308 0 10.501C0 8.46919 0.022 7.00733 0.07 6.11742C0.116 5.2275 0.25 4.45358 0.468 3.79764C0.75 3.01571 1.18 2.33578 1.758 1.75783C2.336 1.17989 3.016 0.749929 3.796 0.469955C4.452 0.249976 5.226 0.117989 6.116 0.0719931C7.008 0.0239977 8.468 0 10.5 0C12.53 0 13.992 0.0239977 14.882 0.0719931C15.772 0.117989 16.546 0.249976 17.202 0.469955C17.984 0.749929 18.664 1.17989 19.242 1.75783C19.82 2.33578 20.25 3.01571 20.53 3.79764C20.75 4.45358 20.89 5.2355 20.952 6.14142Z" fill="#666667"/>
</g>
</svg>
