<svg width="60" height="47" viewBox="0 0 60 47" fill="none" xmlns="http://www.w3.org/2000/svg">
<path d="M6.18743 10.4469V16.1354M6.18743 10.4469H2.88667C2.50389 9.67728 10.1998 3.59736 13.1108 1.33564C13.7392 0.847392 14.6262 0.89753 15.2006 1.44882L23.8952 9.79227C24.1418 10.0289 23.9752 10.4469 23.6343 10.4469H21.2766M6.18743 10.4469H9.95972M9.95972 10.4469V16.6095M9.95972 10.4469H17.5043M9.95972 16.6095H3.82974M9.95972 16.6095H17.5043M17.5043 10.4469V16.6095M17.5043 10.4469H21.2766M17.5043 16.6095H21.2766M21.2766 10.4469V16.6095M21.2766 16.6095H23.1628M22.6907 16.6095V19.9278H25.9915V24.1942H1V19.9278H4.30076V16.6095M43.9103 37.806H56.1702M43.9103 40.6502H53.341M35.894 5.70641C35.894 7.27725 34.6273 8.55067 33.0648 8.55067C31.5022 8.55067 30.2355 7.27725 30.2355 5.70641C30.2355 4.13557 31.5022 2.86216 33.0648 2.86216C34.6273 2.86216 35.894 4.13557 35.894 5.70641ZM12.3168 34.149C12.3168 35.7198 11.0501 36.9933 9.48753 36.9933C7.925 36.9933 6.65831 35.7198 6.65831 34.149C6.65831 32.5782 7.925 31.3047 9.48753 31.3047C11.0501 31.3047 12.3168 32.5782 12.3168 34.149ZM42.2267 24.6681H57.3833C58.2762 24.6681 59 25.3957 59 26.2934V44.3747C59 45.2723 58.2762 46 57.3833 46H42.2267C41.3339 46 40.61 45.2723 40.61 44.3747V26.2934C40.61 25.3957 41.3339 24.6681 42.2267 24.6681ZM44.3805 5.70641C44.3805 7.27725 43.1138 8.55067 41.5513 8.55067C39.9887 8.55067 38.7221 7.27725 38.7221 5.70641C38.7221 4.13557 39.9887 2.86216 41.5513 2.86216C43.1138 2.86216 44.3805 4.13557 44.3805 5.70641ZM20.8052 34.149C20.8052 35.7198 19.5385 36.9933 17.9759 36.9933C16.4134 36.9933 15.1467 35.7198 15.1467 34.149C15.1467 32.5782 16.4134 31.3047 17.9759 31.3047C19.5385 31.3047 20.8052 32.5782 20.8052 34.149ZM52.8689 5.70641C52.8689 7.27725 51.6022 8.55067 50.0397 8.55067C48.4772 8.55067 47.2105 7.27725 47.2105 5.70641C47.2105 4.13557 48.4772 2.86216 50.0397 2.86216C51.6022 2.86216 52.8689 4.13557 52.8689 5.70641ZM29.2917 34.149C29.2917 35.7198 28.025 36.9933 26.4625 36.9933C24.8999 36.9933 23.6332 35.7198 23.6332 34.149C23.6332 32.5782 24.8999 31.3047 26.4625 31.3047C28.025 31.3047 29.2917 32.5782 29.2917 34.149ZM56.1692 30.8308C56.1692 32.9253 54.4802 34.6232 52.3969 34.6232C50.3135 34.6232 48.6246 32.9253 48.6246 30.8308C48.6246 28.7364 50.3135 27.0385 52.3969 27.0385C54.4802 27.0385 56.1692 28.7364 56.1692 30.8308Z" stroke="#DCB05A" stroke-width="1.5"/>
</svg>
