<svg width="7329" height="5991" viewBox="0 0 7329 5991" fill="none" xmlns="http://www.w3.org/2000/svg">
<circle cx="3600.41" cy="3082.59" r="1844.41" fill="#E0F0F2"/>
<circle cx="3600.41" cy="3082.59" r="1844.41" fill="url(#paint0_linear)"/>
<path d="M2032.23 2112.45C2030.53 2107.49 2025.13 2104.84 2020.17 2106.54L1939.27 2134.21C1934.31 2135.91 1931.66 2141.31 1933.36 2146.27C1935.06 2151.24 1940.46 2153.89 1945.42 2152.19L2017.33 2127.59L2041.93 2199.5C2043.63 2204.46 2049.03 2207.11 2053.99 2205.41C2058.96 2203.72 2061.6 2198.32 2059.91 2193.35L2032.23 2112.45ZM2014.71 2111.35C1920.27 2304 1839.72 2466.9 1814.18 2732.24L1833.09 2734.06C1858.27 2472.42 1937.41 2312.19 2031.77 2119.71L2014.71 2111.35Z" fill="#4F4F4F"/>
<path d="M3907.64 1281.28C3911.8 1278.08 3912.57 1272.11 3909.36 1267.96L3857.14 1200.26C3853.93 1196.11 3847.97 1195.34 3843.81 1198.54C3839.66 1201.75 3838.89 1207.71 3842.09 1211.87L3888.52 1272.04L3828.34 1318.47C3824.19 1321.67 3823.42 1327.64 3826.62 1331.79C3829.83 1335.94 3835.79 1336.71 3839.95 1333.51L3907.64 1281.28ZM3903.06 1264.34C3692.52 1237.18 3520.89 1212.45 3250.74 1257.82L3253.89 1276.56C3521.03 1231.69 3690.22 1256.04 3900.62 1283.18L3903.06 1264.34Z" fill="#4F4F4F"/>
<path d="M5403.23 2742.66C5407.7 2745.4 5413.55 2744 5416.29 2739.52L5460.96 2666.62C5463.71 2662.15 5462.3 2656.3 5457.83 2653.56C5453.35 2650.82 5447.51 2652.22 5444.76 2656.7L5405.05 2721.5L5340.25 2681.78C5335.78 2679.04 5329.93 2680.45 5327.19 2684.92C5324.45 2689.39 5325.85 2695.24 5330.33 2697.98L5403.23 2742.66ZM5417.43 2732.34C5367.31 2523.58 5324.66 2354 5188.52 2116.44L5172.04 2125.89C5306.79 2361.03 5348.94 2528.47 5398.95 2736.78L5417.43 2732.34Z" fill="#4F4F4F"/>
<mask id="mask0" mask-type="alpha" maskUnits="userSpaceOnUse" x="1852" y="2784" width="646" height="645">
<g clip-path="url(#clip0)">
<path d="M2442.24 2936.68C2442.24 2931.66 2441.25 2926.68 2439.33 2922.04C2437.4 2917.39 2434.58 2913.17 2431.03 2909.62C2427.48 2906.06 2423.26 2903.24 2418.61 2901.32C2413.97 2899.4 2408.99 2898.41 2403.96 2898.41H1945.93C1935.78 2898.41 1926.04 2902.44 1918.86 2909.62C1911.69 2916.8 1907.65 2926.53 1907.65 2936.68V3249.28H2442.5V2936.68H2442.24ZM2397.58 3204.62H1952.31V2943.06H2397.58V3204.62Z" fill="black"/>
<path d="M2230.82 3262.04C2231.83 3264.03 2232.36 3266.24 2232.36 3268.48C2232.36 3272.29 2230.85 3275.95 2228.15 3278.64C2225.46 3281.34 2221.8 3282.85 2217.99 3282.85H2131.9C2128.09 3282.85 2124.44 3281.34 2121.74 3278.64C2119.05 3275.95 2117.53 3272.29 2117.53 3268.48C2117.53 3266.24 2118.06 3264.03 2119.08 3262.04H1852.75C1852.75 3291.1 1878.91 3314.68 1911.2 3314.68H2438.7C2470.92 3314.68 2497.14 3291.1 2497.14 3262.04H2230.82Z" fill="black"/>
</g>
</mask>
<g mask="url(#mask0)">
<rect x="1833.42" y="2760.73" width="723.869" height="668.021" fill="#4F4F4F"/>
</g>
<mask id="mask1" mask-type="alpha" maskUnits="userSpaceOnUse" x="3003" y="2827" width="1361" height="1361">
<path d="M4215.76 4032.72C4162.45 3860.4 4022.65 3731.69 3841.45 3687.23C3809.74 3652 3798.86 3628.96 3795.25 3617.86C3812.21 3591.47 3866.66 3504.03 3900.32 3422.64H3910.57C3964.51 3422.64 4003.74 3391.52 4003.74 3337.63C4003.74 3320.96 3998.77 3306.81 3990.82 3294.78C3986.4 3126.42 3873.2 2955.88 3685.92 2955.88C3497.79 2955.88 3395.87 3117.11 3387.49 3283.3C3374.06 3297.2 3365.56 3315.35 3365.56 3337.63C3365.56 3378.98 3388.77 3406.74 3423.84 3417.49C3453.97 3469.99 3517.39 3530.56 3648.31 3539.06C3654.94 3549.52 3666.07 3556.83 3679.34 3556.83C3700.04 3556.83 3716.87 3539.99 3716.87 3519.29C3716.87 3498.55 3700.04 3481.76 3679.34 3481.76C3667.26 3481.76 3657.02 3487.88 3650.13 3496.77C3601.85 3493.54 3564.78 3482.44 3535.96 3467.56C3511.95 3414.22 3491.67 3359.43 3489.29 3323.68C3551.65 3298.43 3733.45 3221.88 3797.46 3162.5C3797.46 3162.5 3824.37 3257.8 3884.38 3294.91C3884.98 3302.18 3885.32 3309.49 3885.32 3316.75C3885.32 3387.99 3791 3546.96 3754.66 3602.18C3751.85 3606.47 3750.66 3611.7 3751.38 3616.8C3753.81 3634.06 3766.39 3671.17 3822.58 3729.4C3817.1 3758.85 3791.68 3847.1 3684.35 3847.56C3576.73 3847.05 3544.55 3759.2 3536.64 3728.72C3538.05 3728.38 3539.32 3727.83 3540.77 3727.53L3540.13 3724.89C3604.02 3657.48 3608.31 3622.37 3607.84 3612.85C3607.71 3609.45 3606.78 3606.13 3605.08 3603.16C3599.89 3594.15 3593.26 3582.2 3585.95 3568.6C3565.59 3563.63 3546.63 3557.46 3528.57 3550.58C3544.3 3581.56 3557.86 3606.18 3564.36 3617.61C3561.51 3626.83 3550.84 3651.02 3513.22 3691.53C3332.66 3740.41 3195.75 3869.67 3154.48 4033.65C3152.9 4039.99 3154.31 4046.75 3158.35 4051.93C3162.38 4057.2 3168.59 4060.22 3175.14 4060.22H4195.44C4202.2 4060.22 4208.57 4057.03 4212.53 4051.59C4216.56 4046.15 4217.71 4039.14 4215.76 4032.72ZM3685.97 2998.39C3846.85 2998.39 3929.01 3139.59 3945.46 3260.39C3937.77 3257.59 3929.61 3255.67 3921.19 3254.36C3898.66 3146.18 3817.99 3048.71 3686.05 3048.71C3555.56 3048.71 3475.65 3145.76 3453.12 3253.68C3446.07 3254.48 3439.14 3255.67 3432.51 3257.54C3447.89 3139.51 3520.79 2998.39 3685.97 2998.39ZM3203.4 4017.71C3245.57 3889.64 3354 3788.1 3495.88 3741C3510.89 3799.7 3563.89 3890.2 3683.2 3890.2C3683.33 3890.2 3683.42 3890.2 3683.54 3890.2H3684.35C3684.39 3890.2 3684.48 3890.2 3684.52 3890.2H3685.33C3685.41 3890.2 3685.5 3890.15 3685.58 3890.15C3806.81 3889.56 3853.86 3797.45 3864.41 3738.32C4005.18 3783.04 4115.02 3884.08 4165.73 4017.71H3203.4Z" fill="black"/>
</mask>
<g mask="url(#mask1)">
<rect x="2899.17" y="2659.8" width="1464.46" height="1586.87" fill="#4F4F4F"/>
</g>
<mask id="mask2" mask-type="alpha" maskUnits="userSpaceOnUse" x="2442" y="1597" width="550" height="550">
<path d="M2979.22 1664.03C2977.09 1663.42 2974.83 1663.39 2972.67 1663.94C2970.52 1664.5 2968.55 1665.61 2966.97 1667.17L2917.37 1716.08L2872.49 1671.19L2922.08 1621.6C2923.67 1620.02 2924.8 1618.05 2925.37 1615.89C2925.94 1613.73 2925.92 1611.46 2925.32 1609.31C2924.71 1607.15 2923.55 1605.2 2921.94 1603.65C2920.34 1602.1 2918.35 1601 2916.18 1600.48C2893.65 1595.35 2870.21 1595.91 2847.96 1602.1C2825.7 1608.29 2805.34 1619.91 2788.69 1635.93C2755.13 1669.5 2763.55 1709.35 2768.64 1733.11L2769.65 1737.76C2741.67 1766.93 2612.5 1896.67 2582.13 1925.84L2578.99 1925.09C2555.54 1919.3 2516.13 1909.62 2481.24 1943.95C2465.46 1960.58 2453.98 1980.82 2447.82 2002.92C2441.66 2025.01 2441.01 2048.27 2445.92 2070.67C2446.44 2072.84 2447.53 2074.82 2449.08 2076.42C2450.62 2078.03 2452.56 2079.19 2454.7 2079.8C2456.84 2080.41 2459.11 2080.44 2461.27 2079.88C2463.42 2079.33 2465.39 2078.21 2466.97 2076.64L2516.57 2027.74L2561.45 2072.62L2511.86 2122.22C2510.27 2123.79 2509.14 2125.76 2508.57 2127.93C2508.01 2130.09 2508.02 2132.36 2508.63 2134.51C2509.23 2136.66 2510.39 2138.61 2512 2140.16C2513.6 2141.72 2515.6 2142.81 2517.77 2143.34C2527.71 2145.74 2537.9 2146.95 2548.13 2146.92C2584.34 2147 2619.16 2133 2645.25 2107.89C2678.81 2074.32 2670.39 2034.46 2665.3 2010.7L2664.29 2006.05C2692.27 1976.88 2821.44 1847.14 2851.81 1817.97L2854.95 1818.73C2878.4 1824.51 2917.81 1834.19 2952.7 1799.87C2968.46 1783.26 2979.91 1763.04 2986.07 1740.99C2992.23 1718.93 2992.9 1695.7 2988.03 1673.33C2987.53 1671.13 2986.45 1669.11 2984.9 1667.47C2983.35 1665.84 2981.39 1664.65 2979.22 1664.03V1664.03ZM2934.91 1781.95C2909.76 1806.41 2882.86 1799.68 2861.05 1794.53C2857.21 1793.58 2853.63 1792.7 2850.49 1792.07C2848.55 1791.69 2846.55 1791.77 2844.65 1792.31C2842.75 1792.84 2841 1793.82 2839.55 1795.15C2821.57 1811.56 2656.88 1976.7 2641.54 1993.54C2640.27 1994.93 2639.34 1996.58 2638.79 1998.37C2638.25 2000.17 2638.11 2002.06 2638.4 2003.91C2638.9 2007.5 2639.78 2011.52 2640.72 2015.98C2645.5 2038.36 2651.41 2066.27 2627.52 2090.16C2606 2110.45 2577.51 2121.7 2547.94 2121.59L2588.17 2081.36C2589.34 2080.19 2590.27 2078.8 2590.9 2077.28C2591.53 2075.75 2591.86 2074.12 2591.86 2072.46C2591.86 2070.81 2591.53 2069.18 2590.9 2067.65C2590.27 2066.12 2589.34 2064.74 2588.17 2063.57L2525.31 2000.71C2522.95 1998.37 2519.77 1997.05 2516.45 1997.05C2513.12 1997.05 2509.94 1998.37 2507.58 2000.71L2467.41 2040.31C2467.72 2011.04 2478.92 1982.93 2498.84 1961.48C2523.99 1937.03 2550.89 1943.76 2572.71 1948.91C2576.54 1949.85 2580.12 1950.73 2583.27 1951.36C2585.2 1951.74 2587.2 1951.66 2589.1 1951.13C2591 1950.59 2592.75 1949.62 2594.2 1948.28C2612.37 1932.25 2777.07 1767.12 2792.4 1750.27C2793.67 1748.89 2794.61 1747.24 2795.15 1745.44C2795.69 1743.65 2795.83 1741.75 2795.55 1739.9C2795.04 1736.38 2794.16 1732.29 2793.22 1727.89C2788.44 1705.52 2782.53 1677.61 2806.42 1653.72C2827.94 1633.43 2856.43 1622.17 2886 1622.29L2845.77 1662.52C2844.6 1663.69 2843.68 1665.07 2843.04 1666.6C2842.41 1668.13 2842.08 1669.76 2842.08 1671.41C2842.08 1673.07 2842.41 1674.7 2843.04 1676.23C2843.68 1677.75 2844.6 1679.14 2845.77 1680.31L2908.63 1743.17C2910.99 1745.51 2914.17 1746.82 2917.5 1746.82C2920.82 1746.82 2924 1745.51 2926.36 1743.17L2966.53 1703.57C2966.07 1732.71 2954.8 1760.65 2934.91 1781.95V1781.95Z" fill="black"/>
</mask>
<g mask="url(#mask2)">
<rect x="2323.05" y="1429.79" width="829.759" height="827.664" fill="#4F4F4F"/>
</g>
<mask id="mask3" mask-type="alpha" maskUnits="userSpaceOnUse" x="4820" y="2846" width="475" height="475">
<path d="M5077.96 3320.08C5053.9 3318.57 5031.84 3311.05 5010.79 3300.53C4963.66 3277.47 4923.56 3245.89 4889.47 3205.78C4864.41 3176.2 4843.85 3143.62 4830.32 3107.53C4823.8 3089.98 4819.29 3071.93 4820.29 3052.88C4821.29 3040.85 4825.81 3030.83 4834.33 3022.81C4843.85 3013.78 4852.38 3004.76 4861.9 2995.74C4873.93 2983.7 4888.97 2983.7 4901 2995.74C4908.52 3003.26 4915.54 3010.27 4923.06 3017.79C4930.08 3024.81 4937.6 3032.33 4944.61 3039.35C4957.15 3051.88 4957.15 3066.92 4944.61 3079.45C4935.59 3088.48 4926.57 3097.5 4917.54 3106.52C4915.04 3109.03 4915.04 3110.53 4916.04 3113.54C4922.06 3128.08 4930.58 3140.61 4940.6 3152.64C4960.16 3176.71 4982.71 3198.26 5008.78 3214.8C5014.3 3218.31 5020.81 3220.82 5026.83 3224.33C5029.84 3225.83 5031.84 3225.33 5034.35 3222.83C5043.37 3213.8 5052.39 3204.28 5061.42 3195.25C5073.45 3183.22 5088.49 3183.22 5100.52 3195.25C5115.06 3209.79 5130.1 3224.33 5144.63 3239.37C5156.67 3251.9 5156.67 3266.94 5144.63 3278.97C5136.11 3287.49 5127.59 3295.51 5119.57 3304.04C5108.54 3317.07 5094.5 3321.08 5077.96 3320.08ZM5034.85 3096L5033.35 3094.49C4981.21 3035.84 4983.72 2946.11 5039.86 2889.96C5098.01 2831.81 5192.76 2831.81 5250.91 2889.96C5309.06 2948.11 5309.06 3042.86 5250.91 3101.01C5201.78 3150.14 5127.09 3157.66 5069.94 3124.07L5069.44 3123.57C5046.88 3140.61 5022.82 3143.62 5005.77 3141.11C5000.26 3140.11 4999.26 3132.59 5004.27 3130.08C5019.31 3123.07 5029.33 3108.03 5034.85 3096ZM5127.09 2928.06C5127.09 2941.6 5138.12 2952.62 5151.65 2952.62C5164.69 2952.62 5175.72 2941.6 5175.72 2928.06C5175.72 2914.52 5165.19 2903.5 5151.65 2903.5C5138.12 2903.5 5127.09 2914.52 5127.09 2928.06ZM5108.54 2975.18C5111.05 2976.18 5114.05 2976.18 5116.56 2976.69C5122.58 2977.69 5125.08 2979.69 5124.58 2986.21C5124.58 2987.21 5124.58 2988.22 5124.58 2989.22C5122.08 3004.26 5119.07 3019.8 5116.56 3034.84C5115.06 3043.36 5113.55 3052.38 5112.55 3060.9C5110.55 3073.94 5123.08 3085.97 5133.1 3086.97C5139.12 3087.98 5145.14 3087.98 5150.65 3087.98C5163.18 3087.98 5173.71 3082.46 5182.73 3073.44C5184.24 3071.93 5185.74 3069.93 5186.24 3067.42C5187.24 3063.91 5184.24 3061.41 5180.73 3062.91C5178.22 3063.91 5176.22 3065.42 5173.71 3066.42C5170.7 3067.42 5167.69 3068.42 5164.69 3068.93C5161.18 3069.43 5158.17 3067.42 5157.17 3063.91C5156.67 3061.41 5156.16 3058.4 5156.67 3055.39C5157.17 3049.38 5158.67 3043.86 5159.67 3038.35C5162.68 3020.8 5166.19 3003.76 5169.2 2986.21C5170.2 2981.7 5170.7 2976.69 5170.7 2972.17C5170.7 2966.66 5167.19 2963.65 5161.68 2963.65C5153.66 2963.65 5145.64 2963.65 5138.12 2963.65C5130.6 2963.65 5123.08 2963.65 5115.56 2963.65C5113.55 2963.65 5112.05 2963.65 5110.04 2964.15C5106.54 2964.65 5105.03 2966.66 5104.53 2969.17C5104.03 2971.67 5105.03 2973.68 5108.54 2975.18Z" fill="black"/>
</mask>
<g mask="url(#mask3)">
<rect x="4651.36" y="2749.26" width="740.256" height="740.256" fill="#4F4F4F"/>
</g>
<mask id="mask4" mask-type="alpha" maskUnits="userSpaceOnUse" x="4217" y="1593" width="611" height="611">
<path d="M4376.79 2000.52C4370.07 2000.52 4363.53 1996.95 4360.06 1990.63C4353.23 1978.23 4347.77 1965.06 4343.86 1951.51C4340.92 1941.38 4346.76 1930.8 4356.88 1927.88C4367.02 1924.92 4377.58 1930.79 4380.51 1940.91C4383.65 1951.76 4388.01 1962.29 4393.49 1972.22C4398.57 1981.44 4395.21 1993.05 4385.98 1998.14C4383.06 1999.75 4379.9 2000.52 4376.79 2000.52Z" fill="black"/>
<path d="M4479.46 2082.57C4477.71 2082.57 4475.92 2082.33 4474.15 2081.82C4460.59 2077.9 4447.43 2072.45 4435.02 2065.61C4425.79 2060.52 4422.43 2048.91 4427.52 2039.69C4432.6 2030.45 4444.22 2027.1 4453.44 2032.18C4463.37 2037.65 4473.91 2042.01 4484.75 2045.15C4494.88 2048.08 4500.71 2058.66 4497.77 2068.78C4495.37 2077.14 4487.74 2082.57 4479.46 2082.57Z" fill="black"/>
<path d="M4362.2 1869.9C4360.44 1869.9 4358.66 1869.66 4356.88 1869.15C4346.75 1866.22 4340.92 1855.64 4343.86 1845.52C4347.77 1831.96 4353.23 1818.8 4360.06 1806.39C4365.13 1797.16 4376.75 1793.8 4385.98 1798.88C4395.21 1803.97 4398.57 1815.58 4393.49 1824.8C4388.01 1834.75 4383.65 1845.28 4380.51 1856.12C4378.1 1864.47 4370.48 1869.9 4362.2 1869.9Z" fill="black"/>
<path d="M4444.26 1767.22C4437.54 1767.22 4431 1763.65 4427.53 1757.34C4422.44 1748.11 4425.8 1736.5 4435.04 1731.42C4447.44 1724.58 4460.6 1719.13 4474.16 1715.21C4484.29 1712.26 4494.86 1718.12 4497.79 1728.24C4500.73 1738.36 4494.89 1748.94 4484.77 1751.87C4473.92 1755.01 4463.39 1759.37 4453.46 1764.84C4450.53 1766.46 4447.37 1767.22 4444.26 1767.22Z" fill="black"/>
<path d="M4610.05 1767.22C4606.94 1767.22 4603.78 1766.46 4600.86 1764.84C4590.93 1759.37 4580.39 1755.01 4569.55 1751.87C4559.42 1748.94 4553.59 1738.36 4556.53 1728.24C4559.45 1718.11 4569.99 1712.27 4580.16 1715.2C4593.72 1719.13 4606.88 1724.57 4619.29 1731.41C4628.52 1736.5 4631.88 1748.11 4626.79 1757.33C4623.31 1763.65 4616.79 1767.22 4610.05 1767.22Z" fill="black"/>
<path d="M4692.12 1869.9C4683.84 1869.9 4676.21 1864.47 4673.8 1856.12C4670.66 1845.27 4666.3 1834.74 4660.83 1824.8C4655.74 1815.58 4659.1 1803.97 4668.33 1798.88C4677.55 1793.8 4689.18 1797.16 4694.25 1806.39C4701.09 1818.79 4706.54 1831.96 4710.45 1845.52C4713.39 1855.64 4707.55 1866.22 4697.43 1869.15C4695.66 1869.66 4693.87 1869.9 4692.12 1869.9Z" fill="black"/>
<path d="M4677.52 2000.52C4674.41 2000.52 4671.25 1999.75 4668.33 1998.14C4659.1 1993.06 4655.74 1981.44 4660.83 1972.22C4666.3 1962.28 4670.66 1951.75 4673.8 1940.91C4676.72 1930.79 4687.28 1924.93 4697.43 1927.88C4707.56 1930.81 4713.39 1941.39 4710.45 1951.51C4706.54 1965.06 4701.09 1978.22 4694.25 1990.63C4690.77 1996.95 4684.25 2000.52 4677.52 2000.52Z" fill="black"/>
<path d="M4574.85 2082.57C4566.57 2082.57 4558.94 2077.14 4556.53 2068.79C4553.59 2058.66 4559.43 2048.08 4569.55 2045.16C4580.4 2042.02 4590.93 2037.66 4600.86 2032.18C4610.09 2027.11 4621.7 2030.45 4626.78 2039.69C4631.87 2048.91 4628.51 2060.52 4619.28 2065.61C4606.87 2072.44 4593.71 2077.9 4580.15 2081.82C4578.39 2082.33 4576.6 2082.57 4574.85 2082.57Z" fill="black"/>
<path d="M4527.32 2012.78C4527.32 2012.78 4527.33 2012.78 4527.32 2012.78C4499.23 2012.78 4472.36 2002.76 4451.64 1984.56C4412.28 1950 4401.43 1891.35 4425.88 1845.1C4445.46 1808.04 4485.43 1784.1 4527.69 1784.1C4536.95 1784.1 4546.18 1785.24 4555.11 1787.47C4605.25 1800.06 4641.64 1846.76 4641.64 1898.51C4641.64 1935.56 4623.57 1970.48 4593.33 1991.94C4574.12 2005.57 4551.29 2012.78 4527.32 2012.78ZM4527.69 1822.26C4499.39 1822.26 4472.67 1838.22 4459.62 1862.93C4443.34 1893.74 4450.58 1932.84 4476.82 1955.88C4490.57 1967.96 4508.5 1974.61 4527.32 1974.61C4543.35 1974.61 4558.52 1969.84 4571.24 1960.82C4591.43 1946.51 4603.48 1923.21 4603.48 1898.51C4603.48 1864 4579.23 1832.88 4545.81 1824.49C4539.91 1823.01 4533.81 1822.26 4527.69 1822.26Z" fill="black"/>
<path d="M4402.52 2109.68C4398.96 2109.68 4395.37 2108.68 4392.15 2106.6C4362.74 2087.52 4338.16 2062.94 4319.07 2033.52C4313.33 2024.67 4315.86 2012.86 4324.69 2007.13C4333.55 2001.38 4345.35 2003.91 4351.09 2012.75C4367.23 2037.64 4388.04 2058.44 4412.93 2074.59C4421.77 2080.32 4424.28 2092.13 4418.55 2100.98C4414.89 2106.61 4408.77 2109.68 4402.52 2109.68Z" fill="black"/>
<path d="M4527.15 2146.6C4509.89 2146.6 4492.63 2144.77 4475.47 2141.12C4465.17 2138.93 4458.59 2128.79 4460.79 2118.48C4462.98 2108.18 4473.05 2101.59 4483.43 2103.79C4512.44 2109.96 4541.87 2109.96 4570.88 2103.79C4581.22 2101.58 4591.32 2108.17 4593.52 2118.48C4595.71 2128.79 4589.14 2138.93 4578.83 2141.12C4561.68 2144.77 4544.42 2146.6 4527.15 2146.6Z" fill="black"/>
<path d="M4303.19 1965.3C4294.37 1965.3 4286.46 1959.16 4284.55 1950.19C4277.24 1915.91 4277.24 1881.13 4284.55 1846.84C4286.73 1836.54 4296.83 1829.95 4307.19 1832.15C4317.49 1834.35 4324.07 1844.48 4321.87 1854.79C4315.7 1883.81 4315.7 1913.22 4321.87 1942.25C4324.06 1952.55 4317.49 1962.69 4307.19 1964.88C4305.85 1965.16 4304.51 1965.3 4303.19 1965.3Z" fill="black"/>
<path d="M4335.06 1792.98C4331.5 1792.98 4327.9 1791.99 4324.69 1789.91C4315.85 1784.17 4313.33 1772.36 4319.07 1763.52C4338.15 1734.11 4362.73 1709.51 4392.15 1690.43C4401.01 1684.68 4412.8 1687.22 4418.54 1696.05C4424.29 1704.89 4421.76 1716.7 4412.92 1722.44C4388.03 1738.58 4367.23 1759.39 4351.08 1784.28C4347.43 1789.92 4341.31 1792.98 4335.06 1792.98Z" fill="black"/>
<path d="M4574.88 1693.65C4573.56 1693.65 4572.23 1693.51 4570.88 1693.23C4541.87 1687.06 4512.45 1687.06 4483.44 1693.23C4473.06 1695.42 4462.98 1688.85 4460.8 1678.54C4458.6 1668.24 4465.18 1658.1 4475.48 1655.9C4509.79 1648.59 4544.53 1648.59 4578.84 1655.9C4589.14 1658.1 4595.73 1668.23 4593.52 1678.54C4591.61 1687.51 4583.7 1693.65 4574.88 1693.65Z" fill="black"/>
<path d="M4719.26 1792.98C4713.01 1792.98 4706.89 1789.91 4703.23 1784.28C4687.09 1759.39 4666.28 1738.58 4641.39 1722.44C4632.56 1716.7 4630.04 1704.89 4635.77 1696.05C4641.51 1687.21 4653.3 1684.68 4662.17 1690.43C4691.58 1709.51 4716.17 1734.09 4735.25 1763.52C4740.99 1772.36 4738.47 1784.17 4729.63 1789.9C4726.42 1791.98 4722.82 1792.98 4719.26 1792.98Z" fill="black"/>
<path d="M4751.12 1965.3C4749.81 1965.3 4748.47 1965.16 4747.13 1964.88C4736.82 1962.69 4730.24 1952.56 4732.44 1942.24C4738.62 1913.22 4738.62 1883.81 4732.44 1854.79C4730.25 1844.49 4736.82 1834.34 4747.13 1832.15C4757.45 1829.95 4767.57 1836.53 4769.77 1846.84C4777.07 1881.13 4777.07 1915.9 4769.77 1950.19C4767.85 1959.16 4759.93 1965.3 4751.12 1965.3Z" fill="black"/>
<path d="M4651.79 2109.68C4645.54 2109.68 4639.42 2106.61 4635.77 2100.98C4630.02 2092.13 4632.55 2080.32 4641.39 2074.59C4666.28 2058.44 4687.08 2037.64 4703.23 2012.75C4708.96 2003.9 4720.75 2001.38 4729.62 2007.13C4738.46 2012.86 4740.98 2024.67 4735.24 2033.52C4716.16 2062.93 4691.58 2087.52 4662.16 2106.6C4658.95 2108.68 4655.36 2109.68 4651.79 2109.68Z" fill="black"/>
<path d="M4751.1 1965.3H4692.12C4681.59 1965.3 4673.04 1956.76 4673.04 1946.22C4673.04 1935.69 4681.59 1927.14 4692.12 1927.14H4751.1C4761.63 1927.14 4770.18 1935.69 4770.18 1946.22C4770.18 1956.76 4761.63 1965.3 4751.1 1965.3Z" fill="black"/>
<path d="M4362.18 1965.3H4303.21C4292.67 1965.3 4284.12 1956.76 4284.12 1946.22C4284.12 1935.69 4292.67 1927.14 4303.21 1927.14H4362.18C4372.72 1927.14 4381.26 1935.69 4381.26 1946.22C4381.26 1956.76 4372.73 1965.3 4362.18 1965.3Z" fill="black"/>
<path d="M4751.1 1869.9H4692.12C4681.59 1869.9 4673.04 1861.35 4673.04 1850.82C4673.04 1840.29 4681.59 1831.74 4692.12 1831.74H4751.1C4761.63 1831.74 4770.18 1840.29 4770.18 1850.82C4770.18 1861.35 4761.63 1869.9 4751.1 1869.9Z" fill="black"/>
<path d="M4362.18 1869.9H4303.21C4292.67 1869.9 4284.12 1861.35 4284.12 1850.82C4284.12 1840.29 4292.67 1831.74 4303.21 1831.74H4362.18C4372.72 1831.74 4381.26 1840.29 4381.26 1850.82C4381.26 1861.35 4372.73 1869.9 4362.18 1869.9Z" fill="black"/>
<path d="M4677.54 1834.68C4672.66 1834.68 4667.78 1832.82 4664.05 1829.09C4656.6 1821.64 4656.6 1809.56 4664.05 1802.11L4705.75 1760.41C4713.2 1752.96 4725.28 1752.96 4732.73 1760.41C4740.18 1767.86 4740.18 1779.94 4732.73 1787.39L4691.03 1829.09C4687.3 1832.82 4682.42 1834.68 4677.54 1834.68Z" fill="black"/>
<path d="M4402.54 2109.68C4397.66 2109.68 4392.78 2107.82 4389.05 2104.09C4381.6 2096.64 4381.6 2084.56 4389.05 2077.11L4430.75 2035.41C4438.2 2027.96 4450.28 2027.96 4457.73 2035.41C4465.18 2042.86 4465.18 2054.94 4457.73 2062.39L4416.03 2104.09C4412.3 2107.82 4407.42 2109.68 4402.54 2109.68Z" fill="black"/>
<path d="M4610.07 1767.22C4605.19 1767.22 4600.31 1765.36 4596.58 1761.63C4589.13 1754.18 4589.13 1742.1 4596.58 1734.65L4638.28 1692.95C4645.74 1685.5 4657.81 1685.5 4665.26 1692.95C4672.72 1700.4 4672.72 1712.48 4665.26 1719.93L4623.56 1761.63C4619.84 1765.36 4614.96 1767.22 4610.07 1767.22Z" fill="black"/>
<path d="M4335.07 2042.22C4330.19 2042.22 4325.31 2040.36 4321.58 2036.63C4314.13 2029.18 4314.13 2017.1 4321.58 2009.65L4363.28 1967.95C4370.74 1960.49 4382.81 1960.49 4390.26 1967.95C4397.72 1975.4 4397.72 1987.47 4390.26 1994.93L4348.56 2036.63C4344.84 2040.36 4339.96 2042.22 4335.07 2042.22Z" fill="black"/>
<path d="M4479.46 2141.54C4468.92 2141.54 4460.38 2132.99 4460.38 2122.46V2063.49C4460.38 2052.96 4468.92 2044.41 4479.46 2044.41C4489.99 2044.41 4498.54 2052.96 4498.54 2063.49V2122.47C4498.54 2133 4489.99 2141.54 4479.46 2141.54Z" fill="black"/>
<path d="M4479.46 1752.63C4468.92 1752.63 4460.38 1744.09 4460.38 1733.55V1674.57C4460.38 1664.04 4468.92 1655.49 4479.46 1655.49C4489.99 1655.49 4498.54 1664.04 4498.54 1674.57V1733.55C4498.54 1744.09 4489.99 1752.63 4479.46 1752.63Z" fill="black"/>
<path d="M4574.86 2141.54C4564.33 2141.54 4555.78 2132.99 4555.78 2122.46V2063.49C4555.78 2052.96 4564.33 2044.41 4574.86 2044.41C4585.39 2044.41 4593.94 2052.96 4593.94 2063.49V2122.47C4593.94 2133 4585.39 2141.54 4574.86 2141.54Z" fill="black"/>
<path d="M4574.86 1752.63C4564.33 1752.63 4555.78 1744.09 4555.78 1733.55V1674.57C4555.78 1664.04 4564.33 1655.49 4574.86 1655.49C4585.39 1655.49 4593.94 1664.04 4593.94 1674.57V1733.55C4593.94 1744.09 4585.39 1752.63 4574.86 1752.63Z" fill="black"/>
<path d="M4719.24 2042.22C4714.36 2042.22 4709.48 2040.36 4705.75 2036.63L4664.05 1994.93C4656.6 1987.47 4656.6 1975.4 4664.05 1967.95C4671.5 1960.49 4683.58 1960.49 4691.03 1967.95L4732.73 2009.65C4740.18 2017.1 4740.18 2029.18 4732.73 2036.63C4729 2040.36 4724.13 2042.22 4719.24 2042.22Z" fill="black"/>
<path d="M4444.24 1767.22C4439.36 1767.22 4434.48 1765.36 4430.75 1761.63L4389.05 1719.93C4381.6 1712.48 4381.6 1700.4 4389.05 1692.95C4396.5 1685.5 4408.58 1685.5 4416.03 1692.95L4457.73 1734.65C4465.18 1742.1 4465.18 1754.18 4457.73 1761.63C4454 1765.36 4449.12 1767.22 4444.24 1767.22Z" fill="black"/>
<path d="M4651.78 2109.68C4646.9 2109.68 4642.02 2107.82 4638.29 2104.08L4596.59 2062.38C4589.14 2054.93 4589.14 2042.86 4596.59 2035.4C4604.04 2027.95 4616.12 2027.95 4623.57 2035.4L4665.27 2077.11C4672.72 2084.56 4672.72 2096.63 4665.27 2104.08C4661.54 2107.82 4656.66 2109.68 4651.78 2109.68Z" fill="black"/>
<path d="M4376.77 1834.68C4371.89 1834.68 4367.02 1832.82 4363.28 1829.09L4321.58 1787.39C4314.13 1779.94 4314.13 1767.86 4321.58 1760.41C4329.04 1752.96 4341.11 1752.96 4348.56 1760.41L4390.26 1802.11C4397.72 1809.56 4397.72 1821.64 4390.26 1829.09C4386.54 1832.82 4381.66 1834.68 4376.77 1834.68Z" fill="black"/>
</mask>
<g mask="url(#mask4)">
<rect x="3956.59" y="1448.75" width="1009.49" height="856.843" fill="#4F4F4F"/>
</g>
<defs>
<linearGradient id="paint0_linear" x1="3600.41" y1="1238.18" x2="3600.41" y2="4927" gradientUnits="userSpaceOnUse">
<stop offset="0.255208" stop-color="white" stop-opacity="0"/>
<stop offset="0.708333" stop-color="#EFEDE8"/>
</linearGradient>
<clipPath id="clip0">
<rect width="644.393" height="644.393" fill="white" transform="translate(1852.75 2784.35)"/>
</clipPath>
</defs>
</svg>
