<svg width="80" height="45" viewBox="0 0 80 45" fill="none" xmlns="http://www.w3.org/2000/svg">
<rect width="80" height="43" transform="translate(0 1)" fill="white"/>
<path d="M9 36.9999C9 36.9999 9.0034 4.0613 9 1.99996C8.99918 1.49995 66.8151 1.44608 67 1.99996C67.5009 3.49996 67 36.9999 67 36.9999H39H9Z" stroke="#DCB05A" stroke-width="1.5"/>
<circle cx="38.2103" cy="21.8134" r="9.46032" stroke="#DCB05A" stroke-width="1.5"/>
<rect x="41.5312" y="3.00488" width="13.0031" height="21.5974" transform="rotate(28.5025 41.5312 3.00488)" fill="white"/>
<path d="M40.3573 13.7528L31.5 28.5L35 30.5L44.1209 15.3647C50.569 17.5142 49.4945 7.84134 48.9571 7.30402C48.4196 6.7667 45.733 13.2154 45.733 13.2154L41.9703 11.0656C41.9703 11.0656 45.5013 5.70361 44.6592 5.69192C44.6125 5.69128 44.5396 5.69241 44.5396 5.69241C37.1359 5.69181 38.2098 11.6031 40.3573 13.7528Z" stroke="#DCB05A" stroke-width="1.5"/>
<path d="M8.36259 37C8.36259 37 2.57548 37.0001 2.08723 37C1.59899 37 3.19447 43.0469 6.01563 43.5C8.94577 43.9706 65.0627 43.9706 67.0156 43.5C69.9051 42.8038 72.5963 37 71.9058 37C71.4175 37 65.5586 37 65.5586 37" stroke="#DCB05A" stroke-width="1.5"/>
</svg>
