<svg width="7329" height="5991" viewBox="0 0 7329 5991" fill="none" xmlns="http://www.w3.org/2000/svg">
<circle cx="3644.5" cy="3337.5" r="1963.5" fill="#E0F0F2"/>
<circle cx="3644.5" cy="3337.5" r="1963.5" fill="url(#paint0_linear)"/>
<g filter="url(#filter0_d)">
<mask id="mask0" mask-type="alpha" maskUnits="userSpaceOnUse" x="2803" y="2725" width="1752" height="1752">
<path d="M4535.53 4221.99V3517.3C4535.53 3490.04 4518.01 3472.52 4490.76 3472.52H4187.08V4214.2H4492.71C4506.33 4214.2 4523.85 4216.15 4535.53 4221.99ZM4424.57 4017.59C4424.57 4035.11 4409 4050.68 4391.48 4050.68H4305.83C4288.31 4050.68 4272.73 4035.11 4272.73 4017.59V3928.04C4272.73 3910.52 4288.31 3894.95 4305.83 3894.95H4391.48C4409 3894.95 4424.57 3910.52 4424.57 3928.04V4017.59ZM4424.57 3754.79C4424.57 3772.31 4409 3787.88 4391.48 3787.88H4305.83C4288.31 3787.88 4272.73 3772.31 4272.73 3754.79V3665.24C4272.73 3647.72 4288.31 3632.15 4305.83 3632.15H4391.48C4409 3632.15 4424.57 3647.72 4424.57 3665.24V3754.79ZM4475.19 4272.6H2876.97C2849.72 4272.6 2832.2 4290.12 2832.2 4317.38V4445.86H4521.91V4317.38C4519.96 4290.12 4502.44 4272.6 4475.19 4272.6ZM3497.96 3320.68H3856.15C3883.4 3320.68 3900.92 3303.16 3900.92 3275.91V2917.72C3900.92 2890.47 3883.4 2872.95 3856.15 2872.95H3497.96C3472.65 2872.95 3453.19 2890.47 3453.19 2917.72V3275.91C3453.19 3299.27 3474.6 3320.68 3497.96 3320.68ZM3575.83 3057.88H3638.12V2995.59C3638.12 2972.23 3655.64 2954.71 3679 2954.71C3702.36 2954.71 3719.88 2972.23 3719.88 2995.59V3057.88H3782.17C3805.53 3057.88 3823.05 3075.4 3823.05 3098.76C3823.05 3122.12 3805.53 3139.64 3782.17 3139.64H3719.88V3201.94C3719.88 3225.3 3702.36 3242.82 3679 3242.82C3655.64 3242.82 3638.12 3225.3 3638.12 3201.94V3139.64H3575.83C3552.47 3139.64 3534.95 3122.12 3534.95 3098.76C3534.95 3075.4 3554.41 3057.88 3575.83 3057.88ZM3587.51 4019.54C3587.51 4002.02 3603.08 3986.44 3620.6 3986.44H3737.4C3754.92 3986.44 3770.49 4002.02 3770.49 4019.54V4212.26H4134.52V3254.5C4134.52 3227.24 4117 3209.72 4089.75 3209.72H3961.27V3273.96C3961.27 3330.42 3916.49 3377.14 3858.09 3377.14H3497.96C3441.51 3377.14 3394.79 3332.36 3394.79 3273.96V3209.72H3266.31C3239.05 3209.72 3221.53 3227.24 3221.53 3254.5V4210.31H3585.56V4019.54H3587.51ZM3883.4 3497.83C3883.4 3480.31 3898.97 3464.74 3916.49 3464.74H4002.15C4019.67 3464.74 4035.24 3480.31 4035.24 3497.83V3587.38C4035.24 3604.9 4019.67 3620.47 4002.15 3620.47H3916.49C3898.97 3620.47 3883.4 3604.9 3883.4 3587.38V3497.83ZM3883.4 3760.63C3883.4 3743.11 3898.97 3727.54 3916.49 3727.54H4002.15C4019.67 3727.54 4035.24 3743.11 4035.24 3760.63V3850.18C4035.24 3867.7 4019.67 3883.27 4002.15 3883.27H3916.49C3898.97 3883.27 3883.4 3867.7 3883.4 3850.18V3760.63ZM3603.08 3497.83C3603.08 3480.31 3618.65 3464.74 3636.17 3464.74H3721.83C3739.35 3464.74 3754.92 3480.31 3754.92 3497.83V3587.38C3754.92 3604.9 3739.35 3620.47 3721.83 3620.47H3636.17C3618.65 3620.47 3603.08 3604.9 3603.08 3587.38C3603.08 3587.38 3603.08 3497.83 3603.08 3497.83ZM3603.08 3760.63C3603.08 3743.11 3618.65 3727.54 3636.17 3727.54H3721.83C3739.35 3727.54 3754.92 3743.11 3754.92 3760.63V3850.18C3754.92 3867.7 3739.35 3883.27 3721.83 3883.27H3636.17C3618.65 3883.27 3603.08 3867.7 3603.08 3850.18C3603.08 3850.18 3603.08 3760.63 3603.08 3760.63ZM3474.6 3852.12C3474.6 3869.64 3459.03 3885.22 3441.51 3885.22H3355.85C3338.33 3885.22 3322.76 3869.64 3322.76 3852.12V3762.58C3322.76 3745.06 3338.33 3729.48 3355.85 3729.48H3441.51C3459.03 3729.48 3474.6 3745.06 3474.6 3762.58V3852.12ZM3474.6 3587.38C3474.6 3604.9 3459.03 3620.47 3441.51 3620.47H3355.85C3338.33 3620.47 3322.76 3604.9 3322.76 3587.38V3497.83C3322.76 3480.31 3338.33 3464.74 3355.85 3464.74H3441.51C3459.03 3464.74 3474.6 3480.31 3474.6 3497.83V3587.38Z" fill="black"/>
<path d="M2822.47 3517.29V4221.99C2834.15 4216.15 2851.67 4212.25 2867.24 4212.25H3168.97V3472.52H2865.29C2839.99 3472.52 2822.47 3491.99 2822.47 3517.29ZM2931.48 3928.04C2931.48 3912.47 2943.16 3894.95 2964.57 3894.95H3050.23C3065.8 3894.95 3083.32 3906.63 3083.32 3928.04V4017.59C3083.32 4033.16 3071.64 4050.68 3050.23 4050.68H2962.63C2947.05 4050.68 2929.53 4039 2929.53 4017.59V3928.04H2931.48ZM2931.48 3665.24C2931.48 3649.67 2943.16 3632.15 2964.57 3632.15H3050.23C3065.8 3632.15 3083.32 3643.83 3083.32 3665.24V3754.79C3083.32 3770.36 3071.64 3787.88 3050.23 3787.88H2962.63C2947.05 3787.88 2929.53 3776.2 2929.53 3754.79V3665.24H2931.48Z" fill="black"/>
</mask>
<g mask="url(#mask0)">
<g filter="url(#filter1_d)">
<rect x="2645.32" y="2514.76" width="2154.96" height="2154.96" fill="#4F4F4F"/>
</g>
</g>
</g>
<mask id="mask1" mask-type="alpha" maskUnits="userSpaceOnUse" x="1711" y="3057" width="746" height="746">
<path d="M2383.74 3695.2C2389.43 3684.28 2391.84 3671.64 2390.7 3659.16C2390.17 3654.91 2389.38 3650.76 2388.21 3646.68C2375.05 3601.35 2357.66 3572.66 2340.39 3554.25C2311.98 3523.96 2283.85 3521.57 2275.27 3519.58C2273.63 3519.23 2272.01 3518.86 2270.37 3518.57C2265.13 3513.71 2260.96 3506.91 2257.74 3498.79C2249.66 3478.43 2247.28 3449.49 2247.5 3420.74C2247.96 3368.97 2257.04 3317.68 2257.04 3317.68C2257.04 3317.68 2257.04 3317.68 2257.04 3317.67C2257.04 3310.5 2256.87 3303.62 2256.6 3296.89C2256.51 3294.77 2256.37 3292.74 2256.27 3290.66C2256.02 3286.11 2255.76 3281.64 2255.36 3277.29C2255.16 3275 2254.94 3272.79 2254.72 3270.55C2254.33 3266.54 2253.85 3262.64 2253.32 3258.82C2253.04 3256.68 2252.77 3254.54 2252.45 3252.45C2251.87 3248.55 2251.21 3244.73 2250.52 3241.02C2250.17 3239.31 2249.9 3237.55 2249.56 3235.85C2248.51 3230.77 2247.39 3225.84 2246.18 3221.1C2246.11 3220.93 2246.09 3220.75 2246.03 3220.55C2244.73 3215.58 2243.35 3210.87 2241.86 3206.33C2241.38 3204.97 2240.93 3203.68 2240.46 3202.37C2239.44 3199.23 2238.29 3196.14 2237.14 3193.19C2236.57 3191.71 2235.98 3190.24 2235.38 3188.82C2234.29 3186.14 2233.09 3183.53 2231.91 3181.01C2231.28 3179.62 2230.66 3178.24 2230 3176.91C2228.7 3174.36 2227.4 3171.9 2226.1 3169.53C2225.47 3168.41 2224.86 3167.27 2224.25 3166.19C2222.49 3163.13 2220.59 3160.16 2218.76 3157.35C2218.59 3157.07 2218.42 3156.76 2218.21 3156.47C2216.11 3153.37 2213.95 3150.42 2211.8 3147.65C2211.16 3146.84 2210.5 3146.08 2209.83 3145.31C2208.25 3143.37 2206.69 3141.49 2205.08 3139.7C2204.23 3138.81 2203.41 3137.97 2202.58 3137.06C2201.11 3135.47 2199.6 3133.96 2198.07 3132.49C2197.23 3131.66 2196.39 3130.85 2195.55 3130.09C2193.95 3128.63 2192.36 3127.27 2190.74 3125.92C2189.95 3125.26 2189.16 3124.59 2188.4 3123.98C2186.36 3122.37 2184.3 3120.83 2182.22 3119.39C2181.9 3119.13 2181.53 3118.85 2181.23 3118.63C2178.82 3116.95 2176.38 3115.41 2173.94 3113.95C2173.24 3113.54 2172.53 3113.17 2171.84 3112.77C2170.11 3111.75 2168.36 3110.8 2166.69 3109.94C2165.77 3109.47 2164.9 3109.04 2164.01 3108.6C2162.43 3107.84 2160.92 3107.12 2159.38 3106.43C2158.46 3106.04 2157.59 3105.65 2156.68 3105.28C2155.11 3104.61 2153.58 3104.03 2151.99 3103.45C2151.19 3103.14 2150.34 3102.82 2149.59 3102.53C2147.77 3101.87 2145.92 3101.28 2144.15 3100.74C2143.66 3100.59 2143.13 3100.4 2142.67 3100.27C2140.41 3099.6 2138.22 3099.02 2136.06 3098.48C2135.33 3098.31 2134.68 3098.17 2133.98 3098.02C2132.51 3097.69 2131.04 3097.34 2129.63 3097.06C2128.8 3096.9 2127.96 3096.74 2127.18 3096.61C2125.93 3096.37 2124.67 3096.17 2123.49 3095.98C2122.67 3095.85 2121.86 3095.73 2121.12 3095.64C2119.96 3095.49 2118.78 3095.34 2117.64 3095.22C2116.86 3095.14 2116.15 3095.05 2115.45 3094.97C2114.26 3094.87 2113.11 3094.76 2111.97 3094.68C2111.37 3094.65 2110.79 3094.58 2110.26 3094.55C2108.67 3094.44 2107.22 3094.41 2105.78 3094.35C2105.13 3094.33 2104.56 3094.33 2103.9 3094.33C2103.2 3094.33 2102.45 3094.32 2101.76 3094.32C2098.26 3094.32 2095.47 3094.45 2093.49 3094.62C2093.21 3094.62 2093.03 3094.64 2092.82 3094.67C2092.1 3094.71 2091.53 3094.77 2091.12 3094.82C2090.97 3094.83 2090.77 3094.85 2090.67 3094.88C2090.27 3094.89 2090.04 3094.93 2090.04 3094.93C2088.01 3094.8 2085.98 3094.72 2083.98 3094.64C2081.98 3094.7 2079.97 3094.8 2077.91 3094.91C2077.91 3094.91 2077.67 3094.89 2077.29 3094.85C2077.15 3094.83 2076.97 3094.82 2076.85 3094.8C2076.45 3094.76 2075.84 3094.7 2075.15 3094.64C2074.97 3094.63 2074.74 3094.63 2074.48 3094.61C2072.51 3094.44 2069.73 3094.3 2066.23 3094.3C2065.53 3094.3 2064.75 3094.3 2064 3094.3C2063.39 3094.3 2062.87 3094.3 2062.24 3094.32C2060.81 3094.36 2059.29 3094.44 2057.71 3094.52C2057.24 3094.55 2056.72 3094.59 2056.23 3094.64C2055.05 3094.71 2053.82 3094.81 2052.53 3094.96C2051.85 3095 2051.17 3095.09 2050.51 3095.17C2049.3 3095.31 2048.1 3095.46 2046.83 3095.63C2046.1 3095.73 2045.37 3095.85 2044.63 3095.95C2043.3 3096.15 2041.99 3096.37 2040.62 3096.64C2039.9 3096.77 2039.18 3096.88 2038.45 3097.02C2036.86 3097.34 2035.3 3097.7 2033.64 3098.05C2033.09 3098.19 2032.56 3098.31 2031.96 3098.43C2029.73 3098.96 2027.47 3099.55 2025.2 3100.25C2024.83 3100.34 2024.47 3100.49 2024.1 3100.59C2022.2 3101.19 2020.26 3101.81 2018.31 3102.5C2017.57 3102.76 2016.82 3103.05 2016.05 3103.34C2014.42 3103.95 2012.8 3104.6 2011.16 3105.28C2010.33 3105.62 2009.48 3105.98 2008.67 3106.36C2007.04 3107.05 2005.42 3107.85 2003.78 3108.64C2002.96 3109.03 2002.13 3109.42 2001.31 3109.86C1999.52 3110.79 1997.67 3111.82 1995.85 3112.88C1995.26 3113.24 1994.63 3113.55 1994.02 3113.93C1991.57 3115.4 1989.11 3116.96 1986.63 3118.67C1986.4 3118.82 1986.18 3119 1985.96 3119.16C1983.78 3120.69 1981.6 3122.31 1979.45 3124.02C1978.72 3124.59 1977.99 3125.22 1977.26 3125.8C1975.58 3127.18 1973.94 3128.62 1972.29 3130.11C1971.47 3130.88 1970.65 3131.67 1969.85 3132.43C1968.26 3133.93 1966.73 3135.5 1965.18 3137.14C1964.4 3137.96 1963.61 3138.8 1962.84 3139.64C1961.18 3141.48 1959.55 3143.42 1957.93 3145.39C1957.34 3146.14 1956.74 3146.82 1956.14 3147.6C1953.93 3150.39 1951.77 3153.34 1949.66 3156.46C1949.5 3156.7 1949.37 3156.96 1949.22 3157.17C1947.3 3160.04 1945.46 3163.05 1943.58 3166.2C1942.98 3167.24 1942.43 3168.36 1941.82 3169.44C1940.49 3171.87 1939.16 3174.36 1937.87 3176.94C1937.22 3178.27 1936.61 3179.61 1935.98 3180.98C1934.8 3183.54 1933.64 3186.18 1932.47 3188.89C1931.9 3190.32 1931.29 3191.74 1930.73 3193.19C1929.57 3196.19 1928.44 3199.31 1927.37 3202.5C1926.94 3203.8 1926.45 3205.02 1926.06 3206.35C1924.56 3210.92 1923.14 3215.66 1921.85 3220.61C1921.8 3220.8 1921.75 3221.02 1921.72 3221.21C1920.51 3225.93 1919.36 3230.86 1918.35 3235.93C1918.03 3237.61 1917.74 3239.35 1917.4 3241.03C1916.72 3244.75 1916.05 3248.6 1915.45 3252.51C1915.13 3254.58 1914.87 3256.72 1914.58 3258.85C1914.07 3262.67 1913.58 3266.57 1913.22 3270.61C1912.97 3272.86 1912.76 3275.07 1912.56 3277.37C1912.21 3281.68 1911.89 3286.16 1911.64 3290.69C1911.52 3292.78 1911.38 3294.81 1911.31 3296.97C1911.03 3303.68 1910.85 3310.57 1910.85 3317.73C1910.85 3317.73 1910.85 3317.73 1910.85 3317.74C1910.85 3317.74 1919.93 3369.05 1920.39 3420.8C1920.67 3449.55 1918.27 3478.48 1910.17 3498.88C1906.91 3507 1902.8 3513.8 1897.54 3518.62C1895.84 3518.94 1894.26 3519.29 1892.67 3519.67C1884.05 3521.67 1855.94 3524.04 1827.53 3554.32C1810.26 3572.76 1792.86 3601.48 1779.68 3646.77C1778.51 3650.85 1777.7 3654.99 1777.34 3659.19C1776.16 3671.69 1778.57 3684.35 1784.31 3695.2C1812.82 3749.13 1962.78 3765.7 2084.01 3765.7C2205.23 3765.7 2355.23 3749.13 2383.74 3695.2ZM2245.2 3517.19C2248.52 3524.3 2250.84 3531.7 2252.08 3539.23C2254.23 3539.96 2256.21 3540.81 2258.1 3541.83C2278.21 3552.58 2285.83 3577.72 2275.07 3597.84C2267.85 3611.35 2253.85 3619.72 2238.54 3619.72C2231.78 3619.72 2225.03 3618.03 2219.04 3614.82C2209.29 3609.62 2202.16 3600.92 2198.96 3590.33C2195.76 3579.75 2196.86 3568.56 2202.07 3558.81C2207.25 3549.14 2216.08 3542.02 2226.65 3538.86C2222.98 3524.47 2213.11 3507.23 2195.79 3501.54L2191.71 3500.2C2191.34 3500.08 2190.95 3500 2190.61 3499.84L2189.28 3499.4L2189.37 3499.16C2185.64 3497.01 2183.1 3493.03 2183.1 3488.42C2183.1 3481.56 2188.66 3476 2195.53 3476C2196 3476 2196.45 3476.09 2196.91 3476.14L2196.98 3475.95L2197.85 3476.24C2198.87 3476.43 2199.82 3476.75 2200.73 3477.18L2203.51 3478.08C2221.33 3483.94 2236.14 3497.83 2245.2 3517.19ZM1950.29 3308.31C1951.06 3307.78 1951.88 3307.41 1952.76 3307.26C1954.74 3306.93 1956.82 3307.67 1958.84 3309.31C1958.84 3309.31 1958.84 3309.16 1958.89 3308.86C1959.1 3306.74 1960.13 3297.93 1963.13 3286.93C1963.17 3286.81 1963.2 3286.7 1963.23 3286.57C1963.66 3285.05 1964.13 3283.49 1964.63 3281.89C1967.8 3271.8 1972.58 3260.56 1979.84 3251.14C1980.47 3250.33 1981.13 3249.54 1981.8 3248.76C1982.02 3248.49 1982.23 3248.22 1982.45 3247.95C1992.42 3236.56 2006.48 3228.67 2026.25 3230.51L2202.14 3321.05L2216.44 3307.29C2216.91 3307.38 2217.41 3307.54 2217.85 3307.75C2222.51 3309.95 2225.2 3318.73 2224.99 3330.02C2224.91 3333.79 2224.52 3337.84 2223.76 3342.01C2221.49 3354.82 2216.49 3365.38 2211.2 3369.9C2209.06 3371.67 2206.87 3372.52 2204.82 3372.17C2203.66 3371.97 2202.55 3371.39 2201.6 3370.49C2189.86 3406.98 2167.45 3443.33 2139.15 3465.2C2122.63 3477.92 2104.13 3485.7 2084.54 3485.7C2064.86 3485.7 2046.24 3477.81 2029.65 3464.94C2001.5 3443.06 1979.17 3406.83 1967.5 3370.49C1966.54 3371.37 1965.51 3371.95 1964.31 3372.17C1961.92 3372.6 1959.34 3371.39 1956.91 3368.93C1951.99 3363.98 1947.47 3353.98 1945.31 3342.01C1944.6 3338.06 1944.21 3334.23 1944.12 3330.64C1943.82 3319.88 1946.12 3311.3 1950.29 3308.31ZM1963.94 3702.51C1961.41 3704.61 1958.25 3705.76 1954.93 3705.76H1939.36C1931.55 3705.76 1925.19 3699.4 1925.19 3691.59L1925.21 3691.04C1925.5 3683.51 1931.81 3677.43 1939.36 3677.43H1954.93C1956.53 3677.43 1958.09 3677.7 1959.59 3678.22C1960.54 3677.96 1960.83 3677.74 1960.84 3677.73C1962.57 3674.66 1962.57 3661.86 1962.57 3655.71C1962.57 3643.31 1959.46 3628.34 1954.02 3614.43C1951.2 3612.82 1948.92 3610.4 1947.52 3607.47C1938.07 3587.69 1925.23 3574.92 1914.79 3574.92C1904.12 3574.92 1890.64 3588.73 1881.24 3609.26C1879.7 3612.61 1877.01 3615.34 1873.69 3616.96C1868.77 3630.28 1866.07 3643.98 1866.07 3655.7C1866.07 3660.87 1866.07 3674.57 1868.05 3677.78C1868.07 3677.78 1868.51 3678.05 1869.75 3678.36C1871.36 3677.74 1873.09 3677.42 1874.82 3677.42H1890.43C1897.71 3677.42 1903.77 3682.96 1904.51 3690.15L1904.59 3691.03C1904.59 3699.4 1898.24 3705.76 1890.44 3705.76H1874.83C1871.73 3705.76 1868.74 3704.73 1866.28 3702.84C1857.37 3701.16 1851.09 3697.23 1847.11 3690.83C1842.29 3683.1 1841.41 3672.94 1841.41 3655.7C1841.41 3640.58 1844.9 3623.18 1851.24 3606.55C1850.31 3602.99 1850.62 3599.28 1852.17 3595.93C1858.78 3581.48 1867.18 3569.11 1876.46 3560.17C1881.56 3555.25 1887.04 3551.3 1892.78 3548.41C1894.87 3543.51 1898.44 3539.39 1902.84 3536.76C1905.16 3523.72 1912.46 3509.93 1923.09 3498.64C1937.74 3483.07 1956.15 3474.5 1974.91 3474.5H1978.64V3474.58C1985.14 3474.95 1990.3 3480.27 1990.3 3486.86C1990.3 3493.45 1985.14 3498.78 1978.64 3499.14V3499.19H1978.17C1978.1 3499.19 1978.02 3499.21 1977.96 3499.21C1977.89 3499.21 1977.81 3499.19 1977.74 3499.19H1974.92C1951.81 3499.19 1932.67 3521.09 1927.83 3538.08C1931.14 3540.54 1933.84 3543.87 1935.61 3547.76C1951.55 3555.28 1965.62 3571.11 1976.4 3593.65C1978.2 3597.45 1978.43 3601.73 1977.11 3605.64C1983.57 3622.27 1987.27 3640.44 1987.27 3655.7C1987.25 3677.09 1987.25 3697.31 1963.94 3702.51ZM1976.16 3523.44C1972.97 3519.3 1970.96 3514.96 1970.41 3510.43V3510.41C1971.16 3510.14 1972.88 3509.54 1975.18 3508.49C1976.11 3508.09 1977.15 3507.57 1978.19 3506.99C1987.36 3502.19 2000.82 3492.17 2000.82 3474.52C2000.82 3474.52 2000.82 3474.52 2000.84 3474.52C2015.28 3488.82 2031.38 3500.19 2048.54 3506.99C2060.08 3511.58 2072.13 3514.11 2084.5 3514.11C2096.88 3514.11 2108.92 3511.58 2120.46 3506.99C2137.47 3500.26 2153.37 3489.07 2167.77 3474.92C2167.87 3474.98 2167.97 3475.02 2168.07 3475.07C2168.16 3480.76 2169.65 3485.64 2171.93 3489.8C2178.79 3502.3 2192.78 3508.33 2197.41 3510.06C2197.42 3510.14 2197.41 3510.26 2197.38 3510.43C2196.85 3514.93 2194.83 3519.3 2191.63 3523.44C2176.5 3542.77 2083.92 3630.38 2083.92 3630.38C2083.92 3630.38 1991.31 3542.8 1976.16 3523.44Z" fill="black"/>
<path d="M1979.84 3251.14C1980.47 3250.33 1981.13 3249.54 1981.8 3248.76Z" fill="black"/>
<path d="M1963.24 3286.58C1963.66 3285.05 1964.13 3283.49 1964.63 3281.89Z" fill="black"/>
<path d="M2238.57 3600.69C2250.93 3600.69 2260.95 3590.67 2260.95 3578.31C2260.95 3565.95 2250.93 3555.93 2238.57 3555.93C2226.21 3555.93 2216.19 3565.95 2216.19 3578.31C2216.19 3590.67 2226.21 3600.69 2238.57 3600.69Z" fill="black"/>
</mask>
<g mask="url(#mask1)">
<rect x="1711" y="3029.65" width="776.18" height="818.619" fill="#4F4F4F"/>
</g>
<mask id="mask2" mask-type="alpha" maskUnits="userSpaceOnUse" x="5027" y="3117" width="649" height="649">
<path d="M5315.18 3162.32C5315.18 3167.26 5315.18 3172.27 5315.18 3177.21C5315.18 3190.71 5315.18 3204.27 5315.18 3217.77C5315.18 3237.8 5315.18 3257.83 5315.18 3277.79C5315.18 3302.19 5315.18 3326.66 5315.18 3351.06C5315.18 3377.93 5315.18 3404.81 5315.18 3431.61C5315.18 3458.61 5315.18 3485.61 5315.18 3512.61C5315.18 3537.77 5315.18 3563 5315.18 3588.16C5315.18 3609.46 5315.18 3630.75 5315.18 3651.98C5315.18 3667.26 5315.18 3682.59 5315.18 3697.87C5315.18 3705.09 5315.12 3712.38 5315.18 3719.61C5315.18 3719.92 5315.18 3720.24 5315.18 3720.56C5315.18 3730.32 5319.43 3740.52 5326.34 3747.43C5332.93 3754.02 5343.77 3758.97 5353.21 3758.59C5363.03 3758.14 5373.24 3754.91 5380.08 3747.43C5386.93 3740.02 5391.24 3730.83 5391.24 3720.56C5391.24 3715.62 5391.24 3710.61 5391.24 3705.66C5391.24 3692.16 5391.24 3678.6 5391.24 3665.1C5391.24 3645.07 5391.24 3625.05 5391.24 3605.08C5391.24 3580.68 5391.24 3556.22 5391.24 3531.82C5391.24 3504.94 5391.24 3478.07 5391.24 3451.26C5391.24 3424.26 5391.24 3397.26 5391.24 3370.26C5391.24 3345.1 5391.24 3319.88 5391.24 3294.72C5391.24 3273.42 5391.24 3252.13 5391.24 3230.89C5391.24 3215.62 5391.24 3200.28 5391.24 3185.01C5391.24 3177.78 5391.3 3170.49 5391.24 3163.27C5391.24 3162.95 5391.24 3162.63 5391.24 3162.32C5391.24 3152.56 5386.99 3142.35 5380.08 3135.44C5373.49 3128.85 5362.65 3123.91 5353.21 3124.29C5343.39 3124.73 5333.18 3127.97 5326.34 3135.44C5319.49 3142.86 5315.18 3151.99 5315.18 3162.32Z" fill="black"/>
<path d="M5169.16 3553.37C5176.13 3600.9 5205.73 3644.19 5249.08 3665.55C5278.36 3680 5310.94 3686.97 5343.51 3686.78C5352.96 3686.72 5362.59 3686.46 5371.97 3685.89C5387.56 3685 5403.28 3683.1 5418.55 3679.74C5431.67 3676.89 5443.97 3672.27 5456.33 3666.94C5464.12 3663.52 5471.67 3659.46 5478.57 3654.52C5486.94 3648.44 5495.18 3642.1 5501.96 3634.24C5514.32 3619.98 5523.26 3604.64 5529.09 3586.64C5530.61 3581.89 5531.81 3577.01 5532.57 3572C5533.78 3564.59 5534.85 3557.04 5535.11 3549.5C5535.43 3541.13 5534.28 3533.09 5533.14 3524.78C5533.08 3524.53 5533.08 3524.28 5533.02 3524.09C5533.46 3527.45 5533.9 3530.8 5534.35 3534.23C5533.4 3520.79 5530.93 3508.94 5525.73 3496.64C5523.64 3491.64 5521.55 3486.76 5518.69 3482.13C5515.08 3476.23 5510.64 3470.72 5506.27 3465.46C5499.36 3457.16 5490.87 3450.63 5482.31 3444.17C5475.98 3439.41 5469.19 3435.29 5462.16 3431.68C5435.29 3417.86 5405.94 3409.05 5376.09 3404.68C5362.97 3402.72 5349.79 3401.7 5336.67 3399.99C5340.03 3400.43 5343.39 3400.88 5346.81 3401.32C5326.02 3398.53 5305.49 3393.78 5286.09 3385.6C5289.13 3386.87 5292.18 3388.14 5295.16 3389.41C5283.94 3384.59 5273.23 3378.69 5263.53 3371.22C5266.06 3373.18 5268.66 3375.21 5271.2 3377.17C5263.91 3371.53 5257.32 3365.07 5251.68 3357.78C5253.64 3360.31 5255.67 3362.91 5257.64 3365.45C5252.69 3359.05 5248.57 3352.01 5245.4 3344.6C5246.67 3347.64 5247.94 3350.68 5249.21 3353.66C5246.23 3346.56 5244.14 3339.15 5243.06 3331.54C5243.5 3334.9 5243.95 3338.26 5244.39 3341.68C5243.25 3333.06 5243.76 3324.06 5244.83 3315.51C5244.39 3318.87 5243.95 3322.22 5243.5 3325.65C5244.71 3316.96 5246.86 3308.47 5250.28 3300.42C5249.02 3303.46 5247.75 3306.51 5246.48 3309.48C5249.4 3302.64 5253.2 3296.18 5257.76 3290.28C5255.8 3292.82 5253.77 3295.41 5251.8 3297.95C5256.62 3291.8 5262.2 3286.29 5268.41 3281.47C5265.87 3283.44 5263.28 3285.46 5260.74 3287.43C5269.11 3280.96 5278.3 3275.89 5287.99 3271.77C5284.95 3273.04 5281.91 3274.31 5278.93 3275.58C5294.14 3269.18 5310.37 3265.31 5326.72 3263.09C5323.36 3263.54 5320 3263.98 5316.58 3264.42C5328.68 3262.77 5340.85 3262.2 5353.08 3262.39C5362.84 3262.58 5372.48 3262.84 5382.17 3264.11C5378.82 3263.66 5375.46 3263.22 5372.03 3262.77C5385.6 3264.61 5398.97 3267.97 5411.65 3273.23C5408.6 3271.96 5405.56 3270.7 5402.58 3269.43C5412.53 3273.68 5421.91 3279.06 5430.47 3285.65C5427.93 3283.69 5425.34 3281.66 5422.8 3279.7C5430.91 3285.97 5438.14 3293.26 5444.41 3301.31C5442.45 3298.77 5440.42 3296.18 5438.46 3293.64C5445.3 3302.51 5450.88 3312.21 5455.25 3322.54C5453.98 3319.5 5452.72 3316.46 5451.45 3313.48C5455.25 3322.41 5458.42 3331.98 5459.69 3341.68C5459.24 3338.32 5458.8 3334.96 5458.36 3331.54C5458.36 3331.6 5458.36 3331.73 5458.36 3331.79C5458.17 3337.05 5459.24 3341.93 5461.65 3346.43C5463.17 3351.12 5465.84 3355.24 5469.51 3358.67C5476.1 3365.26 5486.94 3370.2 5496.38 3369.82C5506.21 3369.38 5516.41 3366.15 5523.26 3358.67C5529.59 3351.76 5535.55 3341.55 5534.41 3331.79C5532.89 3318.87 5530.29 3306.76 5525.35 3294.65C5520.47 3282.74 5515.33 3271.14 5507.92 3260.49C5499.49 3248.32 5489.98 3236.73 5478.38 3227.41C5470.91 3221.39 5463.24 3215.49 5454.87 3210.68C5445.81 3205.48 5436.11 3201.42 5426.35 3197.81C5406.89 3190.59 5385.66 3187.54 5365 3186.66C5352.39 3186.09 5339.58 3186.15 5326.97 3187.29C5313.85 3188.49 5300.73 3190.27 5287.93 3193.12C5273.61 3196.35 5260.04 3201.42 5246.67 3207.44C5232.92 3213.59 5220.37 3222.34 5209.15 3232.35C5202.24 3238.56 5196.66 3245.85 5191.09 3253.27C5187.22 3258.46 5183.99 3264.11 5181.33 3270C5177.14 3279.32 5173.34 3288.63 5171.38 3298.65C5169.16 3309.55 5168.02 3320.7 5167.83 3331.86C5167.83 3333.89 5167.83 3335.91 5168.02 3337.94C5169.67 3357.78 5174.99 3376.48 5185.13 3393.78C5199.77 3418.88 5223.16 3439.09 5249.14 3451.71C5267.46 3460.58 5286.73 3467.3 5306.69 3471.35C5322.73 3474.65 5339.01 3476.36 5355.3 3478.01C5357.65 3478.26 5359.99 3478.52 5362.34 3478.83C5358.98 3478.39 5355.62 3477.95 5352.2 3477.5C5369.37 3479.85 5386.36 3483.59 5402.84 3488.91C5408.79 3490.88 5414.69 3493.03 5420.46 3495.44C5417.41 3494.17 5414.37 3492.9 5411.39 3491.64C5423.18 3496.64 5434.59 3502.73 5444.73 3510.59C5442.19 3508.62 5439.6 3506.59 5437.06 3504.63C5443.46 3509.57 5449.29 3515.15 5454.24 3521.49C5452.27 3518.95 5450.24 3516.35 5448.28 3513.82C5452.21 3518.95 5455.57 3524.53 5458.1 3530.49C5456.84 3527.45 5455.57 3524.4 5454.3 3521.42C5456.65 3527.13 5458.29 3533.09 5459.12 3539.17C5458.67 3535.81 5458.23 3532.45 5457.79 3529.03C5458.48 3534.48 5459.12 3539.93 5459.81 3545.38C5459.37 3542.02 5458.93 3538.66 5458.48 3535.24C5459.56 3543.29 5459.31 3551.53 5458.23 3559.51C5458.67 3556.16 5459.12 3552.8 5459.56 3549.37C5458.42 3557.74 5456.2 3565.98 5452.97 3573.84C5454.24 3570.8 5455.5 3567.75 5456.77 3564.78C5453.79 3571.75 5449.99 3578.27 5445.43 3584.23C5447.39 3581.7 5449.42 3579.1 5451.38 3576.56C5446.63 3582.65 5441.12 3588.1 5435.03 3592.85C5437.57 3590.89 5440.17 3588.86 5442.7 3586.89C5434.97 3592.85 5426.35 3597.67 5417.35 3601.47C5420.39 3600.2 5423.43 3598.94 5426.41 3597.67C5412.09 3603.69 5396.94 3607.24 5381.54 3609.33C5384.9 3608.89 5388.26 3608.44 5391.68 3608C5380.59 3609.46 5369.44 3610.15 5358.28 3610.34C5355.87 3610.34 5353.53 3610.34 5351.12 3610.53C5345.23 3610.92 5339.27 3610.85 5333.37 3610.53C5327.99 3610.28 5322.6 3609.77 5317.21 3609.08C5320.57 3609.52 5323.93 3609.96 5327.35 3610.41C5312.97 3608.44 5298.77 3604.89 5285.33 3599.25C5288.37 3600.52 5291.42 3601.79 5294.4 3603.06C5284.63 3598.94 5275.44 3593.68 5267.08 3587.21C5269.61 3589.18 5272.21 3591.2 5274.75 3593.17C5267.71 3587.65 5261.37 3581.38 5255.86 3574.35C5257.83 3576.88 5259.85 3579.48 5261.82 3582.01C5256.11 3574.54 5251.42 3566.42 5247.68 3557.8C5248.95 3560.85 5250.22 3563.89 5251.49 3566.87C5246.92 3556.03 5244.01 3544.68 5242.3 3533.09C5241.09 3528.14 5238.88 3523.83 5235.52 3520.16C5232.85 3516.04 5229.31 3512.74 5224.87 3510.33C5216.69 3505.58 5204.71 3503.55 5195.59 3506.53C5186.4 3509.51 5177.52 3515.21 5172.83 3524.02C5171.57 3527.06 5170.3 3530.11 5169.03 3533.09C5167.32 3539.87 5167.32 3546.59 5169.16 3553.37Z" fill="black"/>
</mask>
<g mask="url(#mask2)">
<rect x="5027" y="3030.46" width="767.983" height="828.557" fill="#4F4F4F"/>
</g>
<path d="M1974.49 2304.93C1972.79 2299.96 1967.39 2297.31 1962.43 2299.01L1881.53 2326.68C1876.56 2328.38 1873.91 2333.78 1875.61 2338.75C1877.31 2343.71 1882.71 2346.36 1887.68 2344.66L1959.59 2320.06L1984.18 2391.97C1985.88 2396.94 1991.28 2399.58 1996.25 2397.89C2001.21 2396.19 2003.86 2390.79 2002.16 2385.82L1974.49 2304.93ZM1956.97 2303.82C1856.43 2508.9 1770.72 2682.24 1743.54 2964.59L1762.46 2966.41C1789.28 2687.76 1873.57 2517.1 1974.03 2312.18L1956.97 2303.82Z" fill="#4F4F4F"/>
<path d="M3212.53 1416.71C3214.28 1411.76 3211.68 1406.33 3206.74 1404.58L3126.12 1376.1C3121.18 1374.35 3115.75 1376.94 3114 1381.89C3112.25 1386.84 3114.85 1392.26 3119.79 1394.01L3191.45 1419.33L3166.13 1490.99C3164.38 1495.94 3166.97 1501.36 3171.92 1503.11C3176.87 1504.86 3182.3 1502.27 3184.04 1497.32L3212.53 1416.71ZM3199.48 1404.97C3096.82 1454.02 3003.67 1480.6 2904.59 1519.14C2805.93 1557.51 2703.51 1607.08 2585.58 1701.07L2597.42 1715.93C2713.49 1623.42 2814.1 1574.72 2911.48 1536.85C3008.44 1499.14 3104.32 1471.49 3207.67 1422.11L3199.48 1404.97Z" fill="#4F4F4F"/>
<path d="M4808.25 1772.34C4813.41 1771.37 4816.81 1766.4 4815.84 1761.25L4800.05 1677.22C4799.08 1672.06 4794.11 1668.67 4788.96 1669.63C4783.8 1670.6 4780.41 1675.57 4781.38 1680.73L4795.41 1755.42L4720.72 1769.45C4715.56 1770.42 4712.17 1775.39 4713.13 1780.54C4714.1 1785.7 4719.07 1789.1 4724.23 1788.13L4808.25 1772.34ZM4811.86 1755.16C4625.31 1627.62 4474.54 1521.24 4196.48 1433.71L4190.77 1451.83C4465.93 1538.45 4614.69 1643.38 4801.14 1770.84L4811.86 1755.16Z" fill="#4F4F4F"/>
<path d="M5564.04 2975.1C5568.51 2977.84 5574.36 2976.44 5577.1 2971.96L5621.77 2899.06C5624.52 2894.59 5623.11 2888.74 5618.64 2886C5614.16 2883.26 5608.32 2884.66 5605.57 2889.14L5565.86 2953.94L5501.06 2914.23C5496.59 2911.48 5490.74 2912.89 5488 2917.36C5485.26 2921.84 5486.66 2927.68 5491.14 2930.43L5564.04 2975.1ZM5578.24 2964.78C5524.89 2742.55 5479.5 2562.09 5334.62 2309.28L5318.13 2318.72C5461.63 2569.13 5506.52 2747.44 5559.76 2969.22L5578.24 2964.78Z" fill="#4F4F4F"/>
<mask id="mask3" mask-type="alpha" maskUnits="userSpaceOnUse" x="4531" y="2024" width="617" height="487">
<path d="M4999.55 2154.52C5005.83 2148.35 5005.88 2138.22 4999.67 2131.89L4898.39 2028.84C4892.17 2022.52 4882.04 2022.4 4875.76 2028.57C4869.48 2034.74 4869.43 2044.87 4875.64 2051.2L4965.67 2142.8L4874.69 2232.21C4868.41 2238.39 4868.35 2248.52 4874.57 2254.84C4880.78 2261.16 4890.91 2261.29 4897.19 2255.11L4999.55 2154.52ZM4988.38 2127.07L4651.39 2123L4651.23 2155L4988.21 2159.07L4988.38 2127.07Z" fill="black"/>
<path d="M4658.18 2139C4658.18 2139 4547 2139 4547 2267.45C4547 2395.89 4652.45 2378.54 4652.45 2378.54" stroke="black" stroke-width="32"/>
<path d="M4679.05 2379.75C4672.76 2385.9 4672.69 2396.03 4678.89 2402.38L4779.98 2505.85C4786.19 2512.2 4796.32 2512.36 4802.61 2506.22C4808.9 2500.07 4808.97 2489.94 4802.77 2483.59L4712.91 2391.62L4804.05 2302.57C4810.34 2296.43 4810.41 2286.3 4804.21 2279.95C4798 2273.6 4787.87 2273.43 4781.58 2279.58L4679.05 2379.75ZM4690.17 2407.25L5027.15 2412.7L5027.37 2380.7L4690.4 2375.25L4690.17 2407.25Z" fill="black"/>
<path d="M5020.39 2396.69C5020.39 2396.69 5131.57 2397.14 5131.8 2268.7C5132.03 2140.25 5026.55 2157.17 5026.55 2157.17" stroke="black" stroke-width="32"/>
</mask>
<g mask="url(#mask3)">
<rect x="4461.34" y="1975.45" width="731.25" height="539.701" fill="#4F4F4F"/>
</g>
<mask id="mask4" mask-type="alpha" maskUnits="userSpaceOnUse" x="3368" y="1374" width="680" height="680">
<path d="M3600.54 1942.14L3667.07 2008.67C3674.21 2004.91 3680.98 2000.42 3687.28 1995.19L3621.49 1929.4C3614.82 1934.21 3607.84 1938.48 3600.54 1942.14Z" fill="black"/>
<path d="M3640.45 1913.45C3639.63 1914.27 3638.74 1914.96 3637.91 1915.76L3702.69 1980.54L3719.54 1963.69L3654.88 1899.03L3640.45 1913.45Z" fill="black"/>
<path d="M3718.62 1835.27L3701.77 1852.12L3766.44 1916.79L3783.29 1899.94L3718.62 1835.27Z" fill="black"/>
<path d="M3686.75 1867.15L3669.9 1884L3734.56 1948.66L3751.41 1931.81L3686.75 1867.15Z" fill="black"/>
<path d="M3495.27 1953.74L3529.2 1987.68C3544.28 2002.76 3562.77 2013.1 3582.88 2018.28L3522.5 1957.9C3513.16 1957.32 3504.07 1955.92 3495.27 1953.74Z" fill="black"/>
<path d="M4012.27 1588.87C4007.08 1568.76 3996.74 1550.27 3981.67 1535.2L3947.74 1501.28C3949.92 1510.09 3951.31 1519.17 3951.89 1528.5L4012.27 1588.87Z" fill="black"/>
<path d="M3625.42 1898.43L3892.43 1631.41C3917.39 1606.46 3931.12 1573.28 3931.12 1538C3931.12 1465.14 3871.86 1405.88 3799 1405.88C3763.71 1405.88 3730.54 1419.61 3705.58 1444.57L3438.57 1711.58C3413.61 1736.54 3399.88 1769.72 3399.88 1805C3399.88 1877.86 3459.14 1937.12 3532 1937.12C3567.29 1937.12 3600.46 1923.39 3625.42 1898.43ZM3740.14 1753.65L3725.12 1738.63L3746.63 1717.11L3761.66 1732.14L3740.14 1753.65ZM3772.28 1721.51L3757.26 1706.49L3778.51 1685.24L3793.53 1700.26L3772.28 1721.51ZM3720.61 1459.59C3741.54 1438.65 3769.39 1427.12 3799 1427.12C3816.43 1427.12 3833.13 1431.08 3848.64 1438.87L3839.11 1457.85C3826.58 1451.57 3813.08 1448.38 3799 1448.38C3775.06 1448.38 3752.56 1457.69 3735.64 1474.62L3701.35 1508.91L3686.32 1493.88L3720.61 1459.59ZM3675.9 1504.3L3690.93 1519.33L3669.37 1540.89L3654.34 1525.86L3675.9 1504.3ZM3537.47 1642.74L3552.49 1657.76L3538.22 1672.03L3523.2 1657.01L3537.47 1642.74ZM3508.18 1672.03L3523.2 1687.06L3508.17 1702.09L3493.14 1687.07L3508.18 1672.03ZM3478.12 1702.09L3493.14 1717.11L3478.12 1732.14L3463.09 1717.11L3478.12 1702.09ZM3476.91 1875.64C3492.79 1888.06 3511.84 1894.62 3532 1894.62C3555.94 1894.62 3578.44 1885.31 3595.36 1868.38L3714.76 1748.99L3729.78 1764.01L3610.39 1883.41C3589.46 1904.35 3561.61 1915.88 3532 1915.88C3507.05 1915.88 3483.47 1907.75 3463.82 1892.38L3476.91 1875.64Z" fill="black"/>
<path d="M3551.63 1956.98L3616.57 2021.92C3626.55 2021.57 3636.31 2020.07 3645.68 2017.32L3579.25 1950.88C3570.3 1953.77 3561.07 1955.78 3551.63 1956.98Z" fill="black"/>
<path d="M3750.5 1803.4L3733.65 1820.25L3798.31 1884.91L3815.17 1868.06L3750.5 1803.4Z" fill="black"/>
<path d="M3923.39 1627.49L3989.18 1693.28C3994.41 1686.98 3998.91 1680.2 4002.66 1673.07L3936.13 1606.54C3932.48 1613.83 3928.21 1620.81 3923.39 1627.49Z" fill="black"/>
<path d="M3907.45 1646.45L3893.02 1660.87L3957.69 1725.54L3974.54 1708.69L3909.76 1643.91C3908.96 1644.74 3908.27 1645.63 3907.45 1646.45Z" fill="black"/>
<path d="M3782.38 1771.52L3765.53 1788.38L3830.19 1853.04L3847.04 1836.19L3782.38 1771.52Z" fill="black"/>
<path d="M3950.98 1557.63C3949.78 1567.07 3947.76 1576.3 3944.88 1585.23L4011.32 1651.67C4014.07 1642.31 4015.57 1632.54 4015.92 1622.57L3950.98 1557.63Z" fill="black"/>
<path d="M3877.99 1675.9L3861.14 1692.75L3925.8 1757.41L3942.65 1740.56L3877.99 1675.9Z" fill="black"/>
<path d="M3814.25 1739.65L3797.4 1756.5L3862.06 1821.16L3878.92 1804.31L3814.25 1739.65Z" fill="black"/>
<path d="M3846.11 1707.77L3829.26 1724.62L3893.92 1789.29L3910.78 1772.44L3846.11 1707.77Z" fill="black"/>
</mask>
<g mask="url(#mask4)">
<rect x="3116.4" y="1170" width="1010.93" height="961.067" fill="#4F4F4F"/>
</g>
<mask id="mask5" mask-type="alpha" maskUnits="userSpaceOnUse" x="2182" y="1949" width="626" height="626">
<path d="M2596.66 1964.65H2393.53C2370.65 1964.65 2348.71 1973.73 2332.53 1989.89C2316.34 2006.05 2307.23 2027.98 2307.2 2050.85V2473.15C2307.23 2496.02 2316.34 2517.95 2332.53 2534.11C2348.71 2550.27 2370.65 2559.35 2393.53 2559.35H2596.66C2607.98 2559.35 2619.19 2557.12 2629.64 2552.79C2640.1 2548.45 2649.59 2542.1 2657.59 2534.1C2665.59 2526.09 2671.94 2516.59 2676.26 2506.13C2680.59 2495.67 2682.81 2484.47 2682.8 2473.15V2050.85C2682.81 2039.53 2680.59 2028.32 2676.26 2017.87C2671.94 2007.41 2665.59 1997.9 2657.59 1989.9C2649.59 1981.89 2640.1 1975.54 2629.64 1971.21C2619.19 1966.88 2607.98 1964.65 2596.66 1964.65V1964.65ZM2495 2524.92C2488.81 2524.92 2482.76 2523.08 2477.61 2519.64C2472.46 2516.2 2468.45 2511.32 2466.08 2505.6C2463.71 2499.88 2463.09 2493.58 2464.3 2487.51C2465.51 2481.44 2468.49 2475.86 2472.87 2471.49C2477.25 2467.11 2482.82 2464.13 2488.89 2462.92C2494.97 2461.71 2501.26 2462.33 2506.98 2464.7C2512.7 2467.07 2517.59 2471.08 2521.03 2476.23C2524.46 2481.38 2526.3 2487.43 2526.3 2493.62C2526.3 2501.92 2523 2509.88 2517.13 2515.75C2511.26 2521.62 2503.3 2524.92 2495 2524.92V2524.92ZM2651.5 2424.76H2338.5V2067.94H2651.5V2424.76Z" fill="black"/>
</mask>
<g mask="url(#mask5)">
<rect x="2169.48" y="1932.31" width="638.52" height="724.073" fill="#4F4F4F"/>
</g>
<defs>
<filter id="filter0_d" x="2784" y="2710" width="1790" height="1790" filterUnits="userSpaceOnUse" color-interpolation-filters="sRGB">
<feFlood flood-opacity="0" result="BackgroundImageFix"/>
<feColorMatrix in="SourceAlpha" type="matrix" values="0 0 0 0 0 0 0 0 0 0 0 0 0 0 0 0 0 0 127 0" result="hardAlpha"/>
<feOffset dy="4"/>
<feGaussianBlur stdDeviation="9.5"/>
<feComposite in2="hardAlpha" operator="out"/>
<feColorMatrix type="matrix" values="0 0 0 0 0 0 0 0 0 0 0 0 0 0 0 0 0 0 0.25 0"/>
<feBlend mode="normal" in2="BackgroundImageFix" result="effect1_dropShadow"/>
<feBlend mode="normal" in="SourceGraphic" in2="effect1_dropShadow" result="shape"/>
</filter>
<filter id="filter1_d" x="2641.32" y="2514.76" width="2162.96" height="2162.96" filterUnits="userSpaceOnUse" color-interpolation-filters="sRGB">
<feFlood flood-opacity="0" result="BackgroundImageFix"/>
<feColorMatrix in="SourceAlpha" type="matrix" values="0 0 0 0 0 0 0 0 0 0 0 0 0 0 0 0 0 0 127 0" result="hardAlpha"/>
<feOffset dy="4"/>
<feGaussianBlur stdDeviation="2"/>
<feComposite in2="hardAlpha" operator="out"/>
<feColorMatrix type="matrix" values="0 0 0 0 0 0 0 0 0 0 0 0 0 0 0 0 0 0 0.25 0"/>
<feBlend mode="normal" in2="BackgroundImageFix" result="effect1_dropShadow"/>
<feBlend mode="normal" in="SourceGraphic" in2="effect1_dropShadow" result="shape"/>
</filter>
<linearGradient id="paint0_linear" x1="3644.5" y1="1374" x2="3644.5" y2="5301" gradientUnits="userSpaceOnUse">
<stop offset="0.255208" stop-color="white" stop-opacity="0"/>
<stop offset="0.708333" stop-color="#EFEDE8"/>
</linearGradient>
</defs>
</svg>
