<svg width="2585" height="1723" viewBox="0 0 2585 1723" fill="none" xmlns="http://www.w3.org/2000/svg">
<path d="M1241.4 198.808C711.602 198.808 282.117 463.534 282.117 790.09C282.117 1040.99 535.661 1255.39 893.433 1341.26C916.661 1346.84 940.314 1351.86 964.392 1356.34C984.142 1360 1004.15 1363.28 1024.42 1366.18C1046.74 1369.36 1069.35 1372.05 1092.25 1374.26C1097.33 1374.75 1102.42 1375.21 1107.52 1375.66C1151.27 1379.43 1195.9 1381.33 1241.4 1381.37C1362.47 1381.37 1478.29 1367.55 1584.96 1342.32C1945.06 1257.15 2200.68 1042.02 2200.68 790.09C2200.68 463.534 1771.2 198.808 1241.4 198.808Z" fill="#E0F0F2" stroke="#C5DAFD" stroke-width="0.99376" stroke-miterlimit="10"/>
<path d="M2246.97 786.549C2253.2 786.419 2258.03 775.644 2257.75 762.483C2257.48 749.323 2252.2 738.76 2245.97 738.891C2239.74 739.022 2234.92 749.796 2235.19 762.957C2235.47 776.117 2240.74 786.68 2246.97 786.549Z" fill="white" stroke="white" stroke-width="2.98127" stroke-miterlimit="10"/>
<path d="M2337.34 738.583C2347.33 723.292 2350.48 707.663 2344.38 703.677C2338.27 699.69 2325.23 708.855 2315.24 724.146C2305.25 739.438 2302.1 755.067 2308.2 759.053C2314.31 763.04 2327.35 753.875 2337.34 738.583Z" fill="white" stroke="white" stroke-width="2.98127" stroke-miterlimit="10"/>
<path d="M2409.71 736.397C2422.57 728.256 2430.95 718.415 2428.41 714.415C2425.88 710.416 2413.4 713.773 2400.54 721.914C2387.68 730.055 2379.3 739.896 2381.83 743.895C2384.37 747.895 2396.85 744.537 2409.71 736.397Z" fill="white" stroke="white" stroke-width="2.98127" stroke-miterlimit="10"/>
<path d="M2240.68 484.399C2247.4 484.132 2252.11 465.536 2251.21 442.866C2250.3 420.195 2244.12 402.034 2237.4 402.302C2230.69 402.57 2225.97 421.165 2226.87 443.835C2227.78 466.506 2233.96 484.667 2240.68 484.399Z" fill="white" stroke="white" stroke-width="2.98127" stroke-miterlimit="10"/>
<path d="M2286.52 555.202C2304.82 553.576 2319.18 547.038 2318.61 540.598C2318.03 534.159 2302.74 530.257 2284.45 531.883C2266.16 533.509 2251.8 540.047 2252.37 546.486C2252.94 552.925 2268.23 556.827 2286.52 555.202Z" fill="white" stroke="white" stroke-width="2.98127" stroke-miterlimit="10"/>
<path d="M2342.12 470.896C2342.57 467.565 2338.92 464.32 2333.96 463.649C2329.01 462.978 2324.63 465.135 2324.18 468.466C2323.73 471.798 2327.38 475.042 2332.33 475.713C2337.28 476.384 2341.67 474.227 2342.12 470.896Z" fill="white" stroke="white" stroke-width="2.98127" stroke-miterlimit="10"/>
<path d="M2343.58 362.341C2342.79 368.195 2345.06 373.335 2348.65 373.821C2352.23 374.306 2355.78 369.955 2356.58 364.1C2357.37 358.246 2355.11 353.106 2351.52 352.621C2347.93 352.135 2344.38 356.487 2343.58 362.341Z" fill="white" stroke="white" stroke-width="2.98127" stroke-miterlimit="10"/>
<path d="M2210.64 534.353C2209.57 542.297 2205.79 548.343 2202.2 547.857C2198.61 547.371 2196.57 540.538 2197.65 532.594C2198.73 524.65 2202.51 518.604 2206.1 519.09C2209.68 519.576 2211.72 526.41 2210.64 534.353Z" fill="white" stroke="white" stroke-width="2.98127" stroke-miterlimit="10"/>
<path d="M2218.08 598.106C2217.63 601.391 2222.26 604.73 2228.41 605.563C2234.56 606.395 2239.91 604.408 2240.35 601.122C2240.8 597.837 2236.17 594.499 2230.02 593.666C2223.87 592.833 2218.52 594.821 2218.08 598.106Z" fill="white" stroke="white" stroke-width="2.98127" stroke-miterlimit="10"/>
<path d="M754.933 1213.87H1046.27C1051.92 1213.87 1057.33 1216.11 1061.32 1220.1C1065.31 1224.09 1067.56 1229.51 1067.56 1235.15V1235.15C1067.56 1240.79 1065.31 1246.21 1061.32 1250.2C1057.33 1254.19 1051.92 1256.43 1046.27 1256.43H754.933C749.288 1256.43 743.874 1254.19 739.883 1250.2C735.891 1246.21 733.648 1240.79 733.648 1235.15C733.648 1229.51 735.891 1224.09 739.883 1220.1C743.874 1216.11 749.288 1213.87 754.933 1213.87Z" fill="#088B8C" stroke="#2924E5" stroke-width="0.99376" stroke-miterlimit="10"/>
<path d="M1026.62 694.882C1026.62 694.882 1023.64 709.422 1045.81 723.256C1067.99 737.09 1066.28 772.067 1045.81 784.423L1040.27 776.741C1040.27 776.741 1057.75 774.957 1056.05 756.663C1054.8 743.303 1045.37 734.135 1040.37 730.161C1039.05 729.127 1037.66 728.193 1036.2 727.368C1032.2 725.072 1018.57 715.338 1019.53 689.809L1026.62 694.882Z" fill="#03015F" stroke="#03015F" stroke-width="0.99376" stroke-miterlimit="10"/>
<path d="M883.218 797.419L903.807 801.043L1021.53 698.559C1053.11 703.089 1063.29 680.812 1063.29 680.812C1036.43 697.014 1033.44 659.495 1032.59 642.015C1032 630.981 1030.58 620.008 1028.35 609.186C1020.71 587.442 1004.02 604.922 1004.02 604.922C968.312 550.832 900.032 591.289 879.823 605.054C875.716 607.851 871.52 610.509 867.237 613.028C851.49 622.274 812.619 647.275 795.493 677.828C773.745 716.626 807.433 719.61 807.433 719.61C807.433 719.61 795.493 716.626 793.36 694.882C791.461 675.516 814.255 663.929 819.264 661.626C820.191 661.2 821.115 660.768 822.032 660.322L858.787 642.441C858.787 642.441 825.343 696.588 818.52 706.433C811.697 716.279 809.565 721.316 809.565 721.316C801.527 747.642 824.731 770.076 841.961 782.558C853.979 782.12 870.141 780.822 880.775 779.89C880.775 779.89 881.407 786.903 883.218 797.419Z" fill="#150F42" stroke="#03015F" stroke-width="0.99376" stroke-miterlimit="10"/>
<path d="M736.218 854.124C736.218 854.124 718.947 872.67 773.957 895.373L805.3 909.762L836.003 928.948L850.075 882.902C850.075 882.902 765.002 832.38 736.218 854.124Z" fill="#841349" stroke="#841349" stroke-width="0.99376" stroke-miterlimit="10"/>
<path d="M1067.56 937.502C1067.56 937.502 1070.8 957.088 1021.52 964.762L1015.29 919.547C1015.29 919.547 1056.68 917.917 1067.56 937.502Z" fill="#841349" stroke="#841349" stroke-width="0.99376" stroke-miterlimit="10"/>
<path d="M1041.87 919.547C1041.87 919.547 1038.56 1063.68 1056.05 1163.01L977.155 1067.94L970.332 909.42L1041.87 919.547Z" fill="#FCBEA9" stroke="#FCBEA9" stroke-width="0.99376" stroke-miterlimit="10"/>
<path d="M1018.45 1186.72L1067.94 1232.45C1061.18 1203.78 1042.21 1190.71 1018.45 1186.72Z" fill="#841349" stroke="#841349" stroke-width="0.99376" stroke-miterlimit="10"/>
<path d="M1077.4 1251.71C1073.44 1237.96 1067.94 1232.45 1067.94 1232.45L1018.46 1186.72C986.32 1181.31 945.434 1192.53 914.16 1204.24L961.447 1232.45C961.447 1232.45 978.053 1242.91 978.022 1265.79C992.71 1274.71 1000.78 1280.41 1000.78 1280.41C1003.22 1304.32 1008.39 1335.94 1013.55 1364.48C1035.87 1367.66 1058.49 1371 1081.38 1373.21V1283.29C1081.38 1269.81 1079.63 1259.46 1077.4 1251.71Z" fill="#FCBEA9" stroke="#FCBEA9" stroke-width="0.99376" stroke-miterlimit="10"/>
<path d="M961.445 1232.45L914.158 1204.24L901.961 1196.96L770.52 1216.25C796.424 1235.55 892.367 1278.49 892.367 1278.49C889.196 1296.73 885.938 1317.28 882.7 1338.64C905.928 1344.21 929.453 1349.54 953.518 1354C961.403 1325.94 969.378 1299.34 974.398 1285.21C976.978 1277.95 978.013 1271.48 978.021 1265.79C978.051 1242.91 961.445 1232.45 961.445 1232.45Z" fill="#FCBEA9" stroke="#FCBEA9" stroke-width="0.99376" stroke-miterlimit="10"/>
<path d="M1073.7 1179.22C1044.92 1130.77 1013.26 1046.35 1008.46 1010.38C1008.46 1010.38 1005.53 992.735 1002.78 968.407C994.6 956.856 986.192 938.914 987.602 892.081C988.941 847.594 984.644 825.844 981.927 816.764C978.222 815.01 974.324 813.226 970.332 811.483L970.331 811.485C984.404 885.88 950.474 891.856 950.474 891.856C905.806 896.438 888.837 830.051 883.219 797.419C881.409 786.902 880.776 779.89 880.776 779.89C876.173 780.293 870.533 780.765 864.643 781.206C869.36 800.108 879.861 857.629 848.942 907.337C839.705 922.118 826.171 933.723 810.152 940.598C801.568 944.34 792.672 947.324 783.568 949.515C751.268 1006.57 689.602 1107.6 644.836 1132.69C644.836 1132.69 607.419 1155.72 593.027 1179.22C593.027 1179.22 658.08 1260.33 813.688 1236.61C839.594 1232.64 864.855 1225.23 888.806 1214.59C891.841 1213.25 895.125 1211.83 898.62 1210.38C930.745 1197 980.657 1180.36 1018.46 1186.72C1042.21 1190.71 1061.18 1203.78 1067.94 1232.45C1067.94 1232.45 1073.44 1237.96 1077.4 1251.71C1084.1 1241.7 1095.67 1216.19 1073.7 1179.22Z" fill="#FF4D89" stroke="#FF4D89" stroke-width="0.99376" stroke-miterlimit="10"/>
<path d="M950.471 891.856C950.471 891.856 984.401 885.88 970.328 811.485L970.329 811.483C962.547 808.086 954.411 804.849 946.662 802.322L891.865 778.873C891.865 778.873 887.388 779.311 880.773 779.89C880.773 779.89 891.409 897.914 950.471 891.856Z" fill="#FBEDEC" stroke="#FBEDEC" stroke-width="0.99376" stroke-miterlimit="10"/>
<path d="M1016.29 703.115C1016.29 703.115 1026.19 736.238 1042.82 749.881C1059.45 763.524 1055.62 792.943 1031.31 801.043C1007 809.144 952.854 801.874 938.602 792.516L991.224 706.433L1016.29 703.115Z" fill="#150F42" stroke="#150F42" stroke-width="0.99376" stroke-miterlimit="10"/>
<path d="M911.483 749.881C911.483 749.881 909.777 775.462 891.867 778.873C891.867 778.873 916.174 868.833 951.141 861.158C951.141 861.158 969.478 857.321 960.949 812.555C960.949 812.555 958.391 794.648 970.331 777.168L911.483 749.881Z" fill="#FCBEA9" stroke="#FCBEA9" stroke-width="0.99376" stroke-miterlimit="10"/>
<path d="M988.562 635.406C988.882 626.133 982.805 635.406 982.805 635.406C979.287 619.738 971.292 635.406 971.292 635.406C954.341 664.824 939.629 671.219 926.196 675.696C912.764 680.173 911.804 686.568 912.124 694.562C912.444 702.556 910.525 701.917 910.525 701.917C897.778 683.153 887.578 680.852 881.013 682.537C878.699 683.175 876.576 684.366 874.825 686.007C873.074 687.648 871.749 689.69 870.963 691.957C863.044 713.653 887.417 723.113 891.335 724.62C895.493 726.219 897.412 730.695 897.412 730.695C902.529 749.242 925.557 783.776 964.575 784.416C987.049 784.784 999.123 772.211 1005.32 761.482C1008.02 756.869 1010.03 751.883 1011.27 746.684L1015.16 728.424L1021.53 698.559C976.457 691.045 988.242 644.679 988.562 635.406Z" fill="#FCBEA9" stroke="#FCBEA9" stroke-width="0.99376" stroke-miterlimit="10"/>
<path d="M1015.16 728.424C1010.86 727.379 1006.32 728.026 1002.48 730.233C998.638 732.439 995.793 736.035 994.53 740.279C993.267 744.522 993.682 749.089 995.691 753.035C997.699 756.981 1001.15 760.005 1005.32 761.482C1008.02 756.869 1010.03 751.883 1011.27 746.684L1015.16 728.424Z" fill="#FD7E9F" stroke="#FD7E9F" stroke-width="0.99376" stroke-miterlimit="10"/>
<path d="M877.673 710.902C877.673 710.902 868.292 699.39 877.673 692.569C887.055 685.747 898.995 701.522 898.569 710.902" stroke="#FC6A79" stroke-width="2.98127" stroke-miterlimit="10"/>
<path d="M895.762 717.407C898.932 716.016 899.758 710.916 897.606 706.016C895.455 701.117 891.141 698.273 887.971 699.665C884.8 701.056 883.975 706.156 886.126 711.056C888.278 715.955 892.592 718.799 895.762 717.407Z" fill="#FC6A79" stroke="#FC6A79" stroke-width="0.99376" stroke-miterlimit="10"/>
<path d="M966.67 693.106C966.246 692.689 956.112 682.945 941.623 688.528L940.703 686.141C956.767 679.951 968.354 691.173 968.469 691.287L966.67 693.106Z" fill="#03015F" stroke="#03015F" stroke-width="0.99376" stroke-miterlimit="10"/>
<path d="M956.417 713.28C959.685 713.28 962.334 710.215 962.334 706.433C962.334 702.651 959.685 699.585 956.417 699.585C953.149 699.585 950.5 702.651 950.5 706.433C950.5 710.215 953.149 713.28 956.417 713.28Z" fill="black" stroke="black" stroke-width="2.98127" stroke-miterlimit="10"/>
<path d="M960.138 701.113C960.138 701.113 955.297 696.417 942.664 699.806" stroke="black" stroke-width="2.98127" stroke-miterlimit="10"/>
<path d="M1016.34 713.443C1016.14 716.805 1013.63 719.391 1010.72 719.219C1007.82 719.047 1005.62 716.182 1005.82 712.819C1006.02 709.457 1008.54 706.871 1011.44 707.043C1014.35 707.215 1016.54 710.08 1016.34 713.443Z" fill="black" stroke="black" stroke-width="2.98127" stroke-miterlimit="10"/>
<path d="M1019.04 701.131C1006.24 695.796 998.783 700.164 998.709 700.208L997.383 698.021C997.729 697.811 1006.04 692.939 1020.02 698.77L1019.04 701.131Z" fill="#03015F" stroke="#03015F" stroke-width="0.99376" stroke-miterlimit="10"/>
<path d="M981.525 707.213L984.084 732.934C984.084 732.934 986.003 742.207 972.57 738.37" stroke="black" stroke-width="2.98127" stroke-miterlimit="10"/>
<path d="M946.202 732.744C948.393 723.463 942.645 714.162 933.362 711.971C924.079 709.78 914.777 715.528 912.585 724.809C910.394 734.091 916.143 743.391 925.426 745.582C934.709 747.773 944.011 742.025 946.202 732.744Z" fill="#FD7E9F" stroke="#FD7E9F" stroke-width="0.99376" stroke-miterlimit="10"/>
<path d="M956.068 745.52C960.056 749.172 968.182 755.494 978.422 757.488C978.71 757.546 978.98 757.673 979.207 757.86C979.435 758.046 979.614 758.285 979.728 758.555C979.843 758.826 979.889 759.121 979.864 759.414C979.838 759.707 979.742 759.989 979.582 760.236C977.066 764.145 970.771 771.178 959.578 767.47C957.081 766.656 954.921 765.046 953.429 762.885C951.22 759.663 949.023 754.141 951.717 746.581C951.869 746.165 952.12 745.792 952.45 745.497C952.78 745.201 953.178 744.991 953.608 744.886C954.039 744.781 954.488 744.784 954.917 744.895C955.346 745.005 955.742 745.22 956.068 745.52Z" fill="#FD6D84" stroke="#FD6D84" stroke-width="0.99376" stroke-miterlimit="10"/>
<path d="M1011.44 707.043C1011.44 707.043 1007.86 705.562 1001.46 708.536" stroke="black" stroke-width="2.98127" stroke-miterlimit="10"/>
<path d="M777.161 862.719C777.161 862.719 763.663 942.455 745.819 997.019C727.975 1051.58 708.719 1095.51 708.719 1095.51C708.719 1095.51 704.881 1107.02 690.169 1108.94L659.146 1116.29C659.146 1116.29 653.069 1117.89 642.195 1128.12L631.161 1138.83C631.161 1138.83 628.265 1142.23 629.562 1146.67L617.089 1160.58C617.089 1160.58 612.612 1166.49 619.168 1170.97C619.168 1170.97 611.866 1178 615.597 1181.68C619.328 1185.36 626.684 1180.4 632.281 1175.61C632.281 1175.61 627.963 1182 632.761 1185.84C637.558 1189.68 658.986 1167.61 658.986 1167.61C658.986 1167.61 662.025 1164.41 666.182 1163.62C670.34 1162.82 695.126 1153.86 699.924 1157.06C704.721 1160.26 690.169 1171.61 690.169 1171.61C690.169 1171.61 677.856 1180.34 681.214 1186.29C684.572 1192.23 706.64 1179.92 713.836 1172.57C713.836 1172.57 718.953 1166.17 721.352 1159.3C723.751 1152.42 738.782 1120.13 746.458 1107.34C754.134 1094.55 786.745 1032.83 795.706 1000.22C799.296 987.148 804.015 967.636 808.382 948.942C811.06 937.481 813.604 926.333 815.675 917.161C818.656 903.958 820.658 894.855 820.658 894.855L777.161 862.719Z" fill="#CE2261" stroke="#CE2261" stroke-width="0.99376" stroke-miterlimit="10"/>
<path d="M773.318 856.682C773.318 856.682 759.819 936.418 741.975 990.983C724.131 1045.55 704.875 1089.47 704.875 1089.47C704.875 1089.47 701.037 1100.98 686.325 1102.9L655.302 1110.25C655.302 1110.25 649.226 1111.85 638.352 1122.09L627.318 1132.8C627.318 1132.8 624.421 1136.19 625.719 1140.63L613.245 1154.54C613.245 1154.54 608.768 1160.46 615.324 1164.93C615.324 1164.93 608.022 1171.97 611.753 1175.65C615.484 1179.32 622.84 1174.37 628.437 1169.57C628.437 1169.57 624.119 1175.97 628.917 1179.8C633.714 1183.64 655.142 1161.58 655.142 1161.58C655.142 1161.58 658.181 1158.38 662.338 1157.58C666.496 1156.78 691.283 1147.83 696.08 1151.02C700.877 1154.22 686.325 1165.57 686.325 1165.57C686.325 1165.57 674.012 1174.3 677.37 1180.25C680.728 1186.2 702.796 1173.89 709.992 1166.53C709.992 1166.53 715.11 1160.14 717.508 1153.26C719.907 1146.39 734.939 1114.09 742.614 1101.3C750.29 1088.51 782.901 1026.8 791.862 994.18C795.453 981.111 800.172 961.599 804.539 942.905C807.216 931.445 809.76 920.296 811.831 911.125C814.813 897.922 816.814 888.819 816.814 888.819L773.318 856.682Z" fill="#FCBEA9" stroke="#FCBEA9" stroke-width="0.99376" stroke-miterlimit="10"/>
<path d="M834.725 782.71C834.725 782.71 801.463 776.741 768.201 820.868C768.201 820.868 750.291 846.449 736.219 854.124C736.219 854.124 760.525 845.81 785.472 882.902C810.418 919.995 848.941 907.337 848.941 907.337L865.428 826.097C865.428 826.097 859.031 784.842 834.725 782.71Z" fill="#FBD1EC" stroke="#FBD1EC" stroke-width="0.99376" stroke-miterlimit="10"/>
<path d="M864.642 781.206C856.924 781.784 848.777 782.309 841.961 782.558C839.314 782.655 836.865 782.71 834.724 782.71C834.724 782.71 857.325 791.663 850.929 836.857C844.532 882.05 829.607 909.763 829.607 909.763C829.607 909.763 825.382 913.334 811.831 911.124C809.76 920.296 807.216 931.444 804.539 942.905C806.486 942.142 808.365 941.369 810.151 940.598C826.169 933.723 839.704 922.118 848.941 907.337C879.859 857.629 869.359 800.108 864.642 781.206Z" fill="#FBEDEC" stroke="#FBEDEC" stroke-width="0.99376" stroke-miterlimit="10"/>
<path d="M1067.56 937.503C1060.07 923.701 1053.52 904.146 1047.09 876.818C1040.66 849.49 1011.08 831.741 1011.08 831.741L1011.08 831.74L1011.08 831.741C995.253 847.463 996.667 903.595 1000.78 948.794C1034.23 921.298 1067.56 937.503 1067.56 937.503Z" fill="#FBD1EC" stroke="#FBD1EC" stroke-width="0.99376" stroke-miterlimit="10"/>
<path d="M1011.08 831.74L1011.08 831.74C1011.08 831.739 998.418 824.567 981.926 816.764C983.459 821.886 985.494 831.044 986.737 846.039C987.697 857.623 988.184 872.691 987.601 892.081C986.657 923.431 990.112 941.833 994.955 954.041C996.966 959.133 999.595 963.958 1002.78 968.408C1002.09 962.241 1001.4 955.642 1000.78 948.794C996.665 903.594 995.251 847.462 1011.08 831.74Z" fill="#FBEDEC" stroke="#FBEDEC" stroke-width="0.99376" stroke-miterlimit="10"/>
<path d="M934.201 890.2C934.201 890.2 888.88 874.589 886.748 895.373C884.616 916.158 911.553 923.223 934.201 890.2Z" stroke="#FBD1EC" stroke-width="3.97503" stroke-miterlimit="10"/>
<path d="M934.203 890.201C934.203 890.201 951.141 862.821 958.817 877.765C966.493 892.709 958.629 925.211 934.203 890.201Z" stroke="#FBD1EC" stroke-width="3.97503" stroke-miterlimit="10"/>
<path d="M814.417 1012.94C795.815 992.475 812.55 972.862 837.709 961.329C862.869 949.796 883.764 922.616 883.764 922.616C907.644 888.57 934.203 890.2 934.203 890.2C934.203 890.2 914.041 902.515 923.849 945.576C933.657 988.637 935.789 1002.71 920.437 1010.38" stroke="#FBD1EC" stroke-width="3.97503" stroke-miterlimit="10"/>
<path d="M891.868 588.721C891.868 588.721 887.388 552.888 855.741 551.657C854.751 551.611 853.763 551.785 852.849 552.167C851.934 552.55 851.116 553.13 850.454 553.867C848.523 556.068 848.016 559.658 858.18 563.566C874.81 569.961 885.471 569.109 891.868 588.721Z" fill="#03015F" stroke="#03015F" stroke-width="0.99376" stroke-miterlimit="10"/>
<path d="M889.306 591.705C889.306 591.705 877.443 572.041 866.227 574.646C865.24 574.873 864.333 575.361 863.6 576.06C862.867 576.758 862.336 577.642 862.064 578.617C861.791 579.591 861.786 580.622 862.05 581.599C862.313 582.577 862.836 583.465 863.562 584.17C865.191 585.624 867.102 586.726 869.177 587.407C871.542 588.237 874.033 588.648 876.539 588.623C879.739 588.621 885.352 589.045 889.306 591.705Z" fill="#03015F" stroke="#03015F" stroke-width="0.99376" stroke-miterlimit="10"/>
<path d="M628.438 1169.57L646.028 1152.57C646.028 1152.57 651.358 1147.24 664.791 1142.55" stroke="#FC6A79" stroke-width="2.98127" stroke-miterlimit="10"/>
<path d="M615.324 1164.93L633.661 1147.67C633.661 1147.67 643.042 1138.5 654.983 1133.6" stroke="#FC6A79" stroke-width="2.98127" stroke-miterlimit="10"/>
<path d="M625.719 1140.63L639.205 1128.48C639.205 1128.48 644.962 1124.22 650.292 1121.87" stroke="#FC6A79" stroke-width="2.98127" stroke-miterlimit="10"/>
<path d="M754.935 1256.43L744.254 1296.21" stroke="#07045F" stroke-width="7.95007" stroke-miterlimit="10"/>
<path d="M791.863 1256.43L798.291 1316.4" stroke="#07045F" stroke-width="7.95007" stroke-miterlimit="10"/>
<path d="M1000.78 948.794C1000.78 948.794 1021.22 932.915 1041.68 932.788L1041.62 945.923C1041.62 945.923 1018.59 942.789 1001.76 958.945L1000.78 948.794Z" fill="#FC6A79" stroke="#FC6A79" stroke-width="0.99376" stroke-miterlimit="10"/>
<path d="M966.888 784.423C966.888 784.423 940.872 785.772 925.734 770.708C925.734 770.708 935.978 792.326 961.643 800.296C961.643 800.296 962.934 788.569 966.888 784.423Z" fill="#FC6A79" stroke="#FC6A79" stroke-width="0.99376" stroke-miterlimit="10"/>
<path d="M982.802 635.406C982.802 635.406 968.908 682.096 1001.46 690.538C1001.46 690.538 981.302 680.692 988.559 635.406C988.559 635.406 989.548 626.087 982.802 635.406Z" fill="#FC6A79" stroke="#FC6A79" stroke-width="0.99376" stroke-miterlimit="10"/>
<path d="M771.589 866.407C771.589 866.407 780.025 875.794 785.47 882.902C790.916 890.011 796.624 899.554 813.016 905.863L811.831 911.124C811.831 911.124 784.836 902.601 767.309 888.819L771.589 866.407Z" fill="#FC6A79" stroke="#FC6A79" stroke-width="0.99376" stroke-miterlimit="10"/>
<path d="M807.039 1237.57C807.039 1237.57 849.326 1231.15 878.066 1219.1C906.807 1207.06 914.159 1204.24 914.159 1204.24L923.12 1209.58C923.12 1209.58 868.971 1244.11 824.672 1246.53L807.039 1237.57Z" fill="#FC6A79" stroke="#FC6A79" stroke-width="0.99376" stroke-miterlimit="10"/>
<path d="M982.88 1268.77C982.88 1268.77 989.031 1242.91 970.332 1230.29C961.935 1224.62 953.655 1219.4 947.082 1215.36C945.822 1214.59 944.809 1213.47 944.16 1212.14C943.511 1210.81 943.254 1209.33 943.418 1207.86C943.582 1206.39 944.161 1205 945.086 1203.85C946.012 1202.7 947.246 1201.83 948.645 1201.35C964.67 1195.91 991.796 1188.83 1022.02 1190.01L1018.46 1186.72C1018.46 1186.72 994.188 1176.14 914.16 1204.24L961.447 1232.45C961.447 1232.45 978.065 1242.57 978.023 1265.79L982.88 1268.77Z" fill="#FC606D" stroke="#FC606D" stroke-width="0.99376" stroke-miterlimit="10"/>
<path d="M804.539 942.905C804.539 942.905 854.2 933.399 868.06 855.192C868.06 855.192 874.259 813.965 864.642 781.206L861.676 781.424C861.676 781.424 890.273 900.184 806.78 933.252L804.539 942.905Z" fill="#CE2261" stroke="#CE2261" stroke-width="0.99376" stroke-miterlimit="10"/>
<path d="M1604.86 575.864C1604.86 575.864 1573.38 528.646 1607.82 501.123C1613.15 496.885 1619.27 493.742 1625.82 491.873C1632.37 490.004 1639.23 489.446 1646 490.232C1664.73 492.382 1692.36 503.757 1713.22 547.248C1717.29 555.6 1718.67 565.01 1717.17 574.179C1714.6 589.179 1703.44 607.334 1664.64 608.08L1604.86 575.864Z" fill="#150F42" stroke="#150F42" stroke-width="0.99376" stroke-miterlimit="10"/>
<path d="M1125.49 1296.21C1117.12 1317.65 1106.97 1345.89 1096.65 1374.61C1140.4 1378.37 1185.1 1381.6 1230.53 1381.6C1351.59 1381.6 1486.28 1367.99 1584.96 1342.32L1455.67 1196.96C1455.67 1196.96 1155.76 1218.58 1125.49 1296.21Z" fill="#088B8C" stroke="#02023B" stroke-width="0.99376" stroke-miterlimit="10"/>
<path d="M1591.7 578.662C1591.7 578.662 1548.5 541.57 1598.89 501.28C1598.89 501.28 1565.13 541.57 1598.89 574.825L1591.7 578.662Z" fill="#2F248A" stroke="#2F248A" stroke-width="0.99376" stroke-miterlimit="10"/>
<path d="M1699.82 656.364C1677.43 565.232 1598.89 570.348 1598.89 570.348C1536.99 576.104 1495.98 618.313 1488.31 654.126C1480.63 689.94 1497.26 702.73 1497.26 702.73C1495.13 732.148 1509.63 742.381 1509.63 742.381C1493.85 715.86 1513.68 680.986 1513.68 680.986L1646.14 760.927C1646.14 760.927 1722.2 747.497 1699.82 656.364Z" fill="#150F42" stroke="#150F42" stroke-width="0.99376" stroke-miterlimit="10"/>
<path d="M1601.63 570.296C1601.63 570.296 1648.18 569.267 1676.82 607.179C1676.82 607.179 1721.06 605.116 1717.47 561.809C1717.47 561.809 1715.99 539.772 1686.94 509.929C1686.94 509.929 1700.03 542.878 1676.18 558.554C1652.34 574.23 1597.4 561.199 1597.4 561.199L1601.63 570.296Z" fill="#07194A" stroke="#07194A" stroke-width="0.99376" stroke-miterlimit="10"/>
<path d="M1674.66 788.397C1671.82 784.972 1662.8 786.108 1657.08 787.249C1658.5 794.603 1660.05 800.603 1660.96 803.897C1669.56 797.068 1676.45 790.557 1674.66 788.397Z" fill="#0E1229" stroke="#0E1229" stroke-width="0.99376" stroke-miterlimit="10"/>
<path d="M1152.02 933.812C1152.02 933.812 1122.27 989.183 1143.38 1035.28L1188.47 1021.91L1195.19 975.867C1195.19 975.867 1163.53 937.8 1152.02 933.812Z" fill="black" stroke="black" stroke-width="2.98127" stroke-miterlimit="10"/>
<path d="M965.522 958.945C976.756 958.945 985.864 940.239 985.864 917.163C985.864 894.087 976.756 875.381 965.522 875.381C954.287 875.381 945.18 894.087 945.18 917.163C945.18 940.239 954.287 958.945 965.522 958.945Z" fill="#DBEDF6" stroke="#DBEDF6" stroke-width="0.99376" stroke-miterlimit="10"/>
<path d="M967.431 901.459C967.431 901.459 962.73 917.79 968.088 930.984C968.591 932.21 969.448 933.258 970.55 933.994C971.652 934.73 972.948 935.122 974.273 935.118H988.078C990.188 935.121 992.235 934.398 993.876 933.07C995.516 931.742 996.649 929.891 997.086 927.827C998.328 921.903 998.823 912.702 994.669 901.459C994.669 901.459 974.481 896.393 967.431 901.459Z" fill="#1E102D" stroke="#1E102D" stroke-width="0.99376" stroke-miterlimit="10"/>
<path d="M1043.11 897.572L1029.04 913.774C1029.04 913.774 1023.07 919.316 1031.17 933.812L1038.42 952.145C1038.42 952.145 1044.27 973.889 1054.2 972.61C1064.12 971.331 1076.37 967.494 1076.37 967.494L1087.88 925.711L1043.11 897.572Z" fill="#F87C9F" stroke="#F87C9F" stroke-width="0.99376" stroke-miterlimit="10"/>
<path d="M1158.97 938.125C1158.97 938.125 1129.25 935.517 1118.59 926.138C1111.21 919.647 1097.91 908.051 1090.42 901.524C1084.2 896.063 1077.09 891.71 1069.4 888.659C1068.61 888.349 1067.81 888.052 1066.99 887.766C1059.08 885.017 1040.65 878.39 1033.8 875.922C1030.95 874.884 1027.93 874.382 1024.9 874.44C1019.11 874.65 1013.42 875.991 1008.14 878.386C994.497 884.355 969.763 891.177 967.205 897.998C964.646 904.82 978.292 906.525 987.247 904.394C994.221 902.734 1008.69 898.746 1014.76 897.063C1016.58 896.558 1018.49 896.544 1020.32 897.024C1026.33 898.6 1040.37 902.312 1045.67 903.967C1052.49 906.099 1069.55 930.827 1069.55 930.827C1069.55 930.827 1071.68 935.091 1059.31 931.68C1049.01 928.838 1039.89 927.772 1032.69 925.768C1027.82 924.377 1022.82 923.48 1017.76 923.089C1012.15 922.69 1005.33 922.685 999.772 924.124C998.288 924.496 996.848 925.022 995.474 925.694C992.12 927.37 989.776 929.941 989.379 933.812C989.379 933.812 986.949 939.584 1009.02 946.256C1011.04 946.866 1013.26 947.484 1015.71 948.106C1018.21 948.739 1020.94 949.376 1023.92 950.013C1023.92 950.013 1034.15 952.571 1041.83 957.687C1049.51 962.804 1076.8 981.137 1098.55 984.548C1120.29 987.958 1141.2 989.664 1165.5 1008L1177.44 970.478L1158.97 938.125Z" fill="#FDAFAF" stroke="#FDAFAF" stroke-width="0.99376" stroke-miterlimit="10"/>
<path d="M1533.08 866.514C1533.08 866.514 1427.37 965.315 1404.34 986.419C1404.34 986.419 1185.59 934.922 1152.01 933.812C1152.01 933.812 1178.88 988.224 1143.38 1035.28L1410.1 1095.77C1410.1 1095.77 1446.56 1103.45 1468.62 1082.34C1490.69 1061.24 1513.68 1035.28 1513.68 1035.28L1548.85 902.262L1533.08 866.514Z" fill="#FDFDFD" stroke="#DBEDF6" stroke-width="0.99376" stroke-miterlimit="10"/>
<path d="M1523.59 1039.51C1523.64 1037.83 1523.7 1036.17 1523.77 1034.51C1526.64 964.106 1544.38 909.42 1544.38 909.42L1549.96 895.871L1544.38 892.123L1518.3 958.102C1508.79 982.013 1503.38 1007.35 1502.28 1033.06C1502.25 1033.8 1502.23 1034.54 1502.2 1035.28C1501.24 1065.08 1502.2 1126.47 1502.2 1126.47C1502.2 1126.47 1305.52 1200.33 1284.41 1223.35C1284.41 1223.35 1350.61 1241.58 1382.28 1316.4L1626.93 1180.19L1592.51 989.656L1523.59 1039.51Z" fill="#BCE1E5" stroke="#D7EAFA" stroke-width="0.99376" stroke-miterlimit="10"/>
<path d="M1523.77 1034.51C1523.7 1036.17 1523.64 1037.83 1523.59 1039.51L1592.51 989.656L1579.11 915.435L1549.96 895.871L1544.38 909.42C1544.38 909.42 1526.64 964.106 1523.77 1034.51Z" fill="#00A2A4" stroke="#569FF2" stroke-width="0.99376" stroke-miterlimit="10"/>
<path d="M1527.19 860.906C1527.19 860.906 1520.82 874.976 1552.32 926.138L1555.98 917.292L1571.03 860.906C1571.03 860.906 1539.21 843.852 1527.19 860.906Z" fill="#1E102D" stroke="#1E102D" stroke-width="0.99376" stroke-miterlimit="10"/>
<path d="M1585.21 853.981C1584.97 840.711 1581.58 828.713 1577.82 819.384C1564.35 825.857 1528.98 844.356 1527.19 860.906C1527.19 860.906 1558.63 851.024 1560.84 891.691C1562.32 886.051 1563.36 882.224 1563.36 882.224C1565.13 872.909 1574.16 862.98 1585.21 853.981Z" fill="#088B8C" stroke="#569FF2" stroke-width="0.99376" stroke-miterlimit="10"/>
<path d="M1550.81 933.812L1523.59 1039.51L1690.01 900.13L1697.68 816.992L1571.95 875.989C1571.95 875.989 1565.14 886.487 1550.81 933.812Z" fill="#00A2A4" stroke="#7BC2FA" stroke-width="0.99376" stroke-miterlimit="10"/>
<path d="M1696.4 792.264C1688.94 776.601 1670.39 778.552 1656.16 782.14C1656.45 783.901 1656.76 785.608 1657.08 787.249C1662.79 786.108 1671.82 784.972 1674.66 788.398C1676.45 790.557 1669.56 797.068 1660.96 803.897C1649.08 813.338 1633.93 823.387 1633.93 823.387C1633.93 823.387 1614.02 833.118 1595.3 846.349L1595.3 846.346C1595.2 846.42 1595.09 846.497 1594.99 846.572C1594.26 847.087 1593.54 847.607 1592.82 848.131C1592.76 848.173 1592.7 848.215 1592.64 848.258C1590.99 849.462 1589.37 850.69 1587.76 851.942C1587.7 851.992 1587.64 852.041 1587.57 852.091C1586.78 852.716 1585.99 853.346 1585.21 853.981C1574.16 862.98 1565.13 872.909 1563.36 882.224C1563.36 882.224 1562.32 886.051 1560.84 891.691C1557.58 904.107 1552.16 925.31 1550.81 933.812L1559.94 918.89C1559.94 918.89 1566.77 871.565 1579.99 880.092C1593.21 888.619 1600.03 903.115 1609.41 931.68C1609.41 931.68 1667.83 854.937 1721.99 825.093C1721.99 825.093 1704.93 810.17 1696.4 792.264Z" fill="#088B8C" stroke="#7BC2FA" stroke-width="0.99376" stroke-miterlimit="10"/>
<path d="M1657.08 787.249C1656.76 785.608 1656.45 783.901 1656.16 782.14C1653.84 768.273 1652.48 751.171 1656.32 738.224L1600.67 776.113L1567.41 799.618C1567.41 799.618 1572.93 807.24 1577.82 819.384C1581.58 828.713 1584.97 840.711 1585.2 853.981C1588.44 851.343 1591.85 848.785 1595.3 846.346C1614.02 833.115 1633.93 823.387 1633.93 823.387C1633.93 823.387 1649.08 813.338 1660.96 803.897C1660.05 800.603 1658.49 794.603 1657.08 787.249Z" fill="#FDAFAF" stroke="#FDAFAF" stroke-width="0.99376" stroke-miterlimit="10"/>
<path d="M1550.78 629.824C1550.78 629.824 1516.23 667.556 1513.68 680.986C1513.68 680.986 1515.59 773.078 1538.62 794.182C1561.65 815.287 1601.95 798.019 1601.95 798.019C1601.95 798.019 1640.97 783.31 1652.48 742.381C1652.48 742.381 1683.53 738.43 1684.11 706.141C1684.14 704.441 1683.83 702.752 1683.2 701.173C1682.56 699.595 1681.62 698.159 1680.43 696.95C1679.23 695.74 1677.8 694.783 1676.23 694.134C1674.66 693.484 1672.98 693.156 1671.27 693.168C1667.85 693.222 1663.6 694.152 1658.35 696.582C1654.01 698.602 1649.19 699.356 1644.43 698.758C1637.16 697.832 1626.07 694.5 1610.9 684.823C1580.84 665.638 1560.37 641.975 1550.78 629.824Z" fill="#FDAFAF" stroke="#FDAFAF" stroke-width="0.99376" stroke-miterlimit="10"/>
<path d="M1550.78 629.824C1550.78 629.824 1517.49 663.465 1513.68 680.986L1513.25 684.155C1513.25 684.155 1527.42 662.215 1544.03 650.796C1546.98 648.79 1550.54 647.905 1554.09 648.303C1557.63 648.7 1560.91 650.354 1563.34 652.963C1578.07 668.675 1613.52 701.499 1650.62 698.779C1650.62 698.779 1609.25 697.839 1550.78 629.824Z" fill="#FD4A77" stroke="#FD4A77" stroke-width="0.99376" stroke-miterlimit="10"/>
<path d="M1678.71 707.207C1678.71 707.207 1666.56 697.854 1654.78 717.023C1653.56 718.964 1652.73 721.127 1652.34 723.389C1651.91 726.112 1652.08 729.468 1654.83 731.296" stroke="#FD4A77" stroke-width="2.98127" stroke-miterlimit="10"/>
<path d="M1666.43 727.277C1669.46 722.788 1669.35 717.414 1666.17 715.273C1663 713.131 1657.97 715.034 1654.94 719.522C1651.91 724.01 1652.02 729.384 1655.2 731.526C1658.37 733.667 1663.4 731.765 1666.43 727.277Z" fill="#FD4A77" stroke="#FD4A77" stroke-width="0.99376" stroke-miterlimit="10"/>
<path d="M1501.52 686.102C1501.52 686.102 1498.32 676.51 1506.32 663.079C1514.32 649.649 1523.59 644.853 1523.59 644.853C1523.59 644.853 1504.72 672.033 1501.52 686.102Z" fill="#C5DAFD" stroke="#C5DAFD" stroke-width="0.99376" stroke-miterlimit="10"/>
<path d="M1684.11 605.857C1661.37 558.227 1598.89 564.701 1598.89 564.701C1598.89 564.701 1660.63 546.026 1691.73 603.593" stroke="#77BCFE" stroke-width="4.96879" stroke-miterlimit="10"/>
<path d="M1658.36 589.33C1658.36 589.33 1671.57 539.127 1736.8 572.852C1746.06 577.559 1753.8 584.787 1759.12 593.703C1765.97 605.365 1769.81 621.383 1750.39 632.645C1738.65 639.454 1724.58 640.895 1711.53 637.192C1695.18 632.555 1672.38 620.509 1658.36 589.33Z" stroke="#77BCFE" stroke-width="4.96879" stroke-miterlimit="10"/>
<path d="M1658.36 589.33C1658.36 589.33 1640.33 646.452 1678.71 682.905C1717.09 719.358 1727.32 761.567 1714.53 781.392" stroke="#77BCFE" stroke-width="4.96879" stroke-miterlimit="10"/>
<path d="M1574.5 686.641C1574.47 686.641 1574.44 686.64 1574.4 686.638L1574.54 684.084C1574.52 684.082 1574.5 684.082 1574.48 684.084C1575.17 683.899 1575.85 683.671 1576.51 683.402C1581.76 681.464 1594.05 676.925 1609.25 682.267L1608.4 684.681C1594.07 679.643 1582.39 683.959 1577.4 685.802C1575.91 686.351 1575.13 686.641 1574.5 686.641Z" fill="#150F42" stroke="#150F42" stroke-width="0.99376" stroke-miterlimit="10"/>
<path d="M1532.98 687.267C1532.89 687.227 1523.7 683.171 1514.1 686.567L1513.25 684.155C1523.85 680.407 1533.62 684.751 1534.04 684.938L1532.98 687.267Z" fill="#150F42" stroke="#150F42" stroke-width="0.99376" stroke-miterlimit="10"/>
<path d="M1586.92 719.677C1590.36 719.677 1593.15 715.884 1593.15 711.204C1593.15 706.524 1590.36 702.73 1586.92 702.73C1583.47 702.73 1580.68 706.524 1580.68 711.204C1580.68 715.884 1583.47 719.677 1586.92 719.677Z" fill="black" stroke="black" stroke-width="2.98127" stroke-miterlimit="10"/>
<path d="M1586.92 702.73C1586.92 702.73 1592.67 699.766 1604.19 704.925" stroke="black" stroke-width="2.98127" stroke-miterlimit="10"/>
<path d="M1523.59 721.916C1526.51 721.916 1528.87 718.838 1528.87 715.041C1528.87 711.244 1526.51 708.166 1523.59 708.166C1520.68 708.166 1518.32 711.244 1518.32 715.041C1518.32 718.838 1520.68 721.916 1523.59 721.916Z" fill="black" stroke="black" stroke-width="2.98127" stroke-miterlimit="10"/>
<path d="M1521.99 708.166C1521.99 708.166 1525.83 706.247 1536.38 711.204" stroke="black" stroke-width="2.98127" stroke-miterlimit="10"/>
<path d="M1552.38 695.375L1550.46 737.904C1550.46 737.904 1549.5 749.735 1567.41 749.096" stroke="black" stroke-width="2.98127" stroke-miterlimit="10"/>
<path d="M1553.43 770.926C1558.73 771.496 1570.29 772.055 1581.35 768.029C1581.81 767.86 1582.31 767.814 1582.8 767.893C1583.29 767.973 1583.74 768.175 1584.13 768.482C1584.51 768.789 1584.81 769.19 1585 769.646C1585.19 770.102 1585.25 770.598 1585.19 771.087C1584.49 776.473 1581.54 784.912 1570.24 787.841C1567.31 788.647 1564.21 788.58 1561.32 787.65C1557.28 786.281 1552.44 782.73 1550.85 773.71C1550.78 773.349 1550.8 772.976 1550.91 772.623C1551.01 772.269 1551.19 771.944 1551.44 771.674C1551.69 771.404 1552 771.196 1552.35 771.066C1552.69 770.936 1553.06 770.888 1553.43 770.926Z" fill="#FD6D84" stroke="#FD6D84" stroke-width="0.99376" stroke-miterlimit="10"/>
<path d="M1527.19 743.18C1536.69 743.18 1544.38 732.658 1544.38 719.677C1544.38 706.697 1536.69 696.175 1527.19 696.175C1517.7 696.175 1510 706.697 1510 719.677C1510 732.658 1517.7 743.18 1527.19 743.18Z" stroke="black" stroke-width="2.98127" stroke-miterlimit="10"/>
<path d="M1544.38 718.111C1544.38 718.111 1552.95 708.166 1568.01 719.677" stroke="black" stroke-width="2.98127" stroke-miterlimit="10"/>
<path d="M1594.27 746.422C1608.53 746.422 1620.09 733.747 1620.09 718.111C1620.09 702.475 1608.53 689.799 1594.27 689.799C1580.01 689.799 1568.45 702.475 1568.45 718.111C1568.45 733.747 1580.01 746.422 1594.27 746.422Z" stroke="black" stroke-width="2.98127" stroke-miterlimit="10"/>
<path d="M1617.12 704.926L1667.59 689.799C1667.59 689.799 1678.89 686.124 1684.11 696.175" stroke="black" stroke-width="2.98127" stroke-miterlimit="10"/>
<path d="M1622.74 776.113C1631.84 776.113 1639.21 768.741 1639.21 759.647C1639.21 750.552 1631.84 743.18 1622.74 743.18C1613.64 743.18 1606.27 750.552 1606.27 759.647C1606.27 768.741 1613.64 776.113 1622.74 776.113Z" fill="#FD7E9F" stroke="#FD7E9F" stroke-width="0.99376" stroke-miterlimit="10"/>
<path d="M1526.31 772.438C1531.87 772.438 1536.38 767.929 1536.38 762.366C1536.38 756.803 1531.87 752.293 1526.31 752.293C1520.74 752.293 1516.23 756.803 1516.23 762.366C1516.23 767.929 1520.74 772.438 1526.31 772.438Z" fill="#FD7E9F" stroke="#FD7E9F" stroke-width="0.99376" stroke-miterlimit="10"/>
<path d="M1713.75 851.014C1713.75 851.014 1797.14 899.15 1811.54 970.134C1825.93 1041.12 1837.44 1242.56 1837.44 1242.56C1837.44 1242.56 1844.16 1312.58 1793.31 1361.5C1742.46 1410.43 1515.35 1388.36 1515.35 1388.36C1515.35 1388.36 1668.58 1392.2 1304 1388.36C1304 1388.36 1321.27 1346.16 1503.56 1240.64C1503.56 1240.64 1506.72 1099 1515.35 1065.43C1515.35 1065.43 1578.94 961.85 1664.75 880.307C1671.59 873.828 1678.84 867.787 1686.45 862.223L1708.54 846L1713.75 851.014Z" fill="white"/>
<path d="M1713.75 851.014C1713.75 851.014 1797.14 899.15 1811.54 970.134C1825.93 1041.12 1837.44 1242.56 1837.44 1242.56C1837.44 1242.56 1844.16 1312.58 1793.31 1361.5C1742.46 1410.43 1515.35 1388.36 1515.35 1388.36C1515.35 1388.36 1668.58 1392.2 1304 1388.36C1304 1388.36 1321.27 1346.16 1503.56 1240.64C1503.56 1240.64 1506.72 1099 1515.35 1065.43C1515.35 1065.43 1578.94 961.85 1664.75 880.307C1671.59 873.828 1678.84 867.787 1686.45 862.223L1708.54 846L1713.75 851.014Z" fill="url(#paint0_linear)"/>
<path d="M1713.75 851.014C1713.75 851.014 1797.14 899.15 1811.54 970.134C1825.93 1041.12 1837.44 1242.56 1837.44 1242.56C1837.44 1242.56 1844.16 1312.58 1793.31 1361.5C1742.46 1410.43 1515.35 1388.36 1515.35 1388.36C1515.35 1388.36 1668.58 1392.2 1304 1388.36C1304 1388.36 1321.27 1346.16 1503.56 1240.64C1503.56 1240.64 1506.72 1099 1515.35 1065.43C1515.35 1065.43 1578.94 961.85 1664.75 880.307C1671.59 873.828 1678.84 867.787 1686.45 862.223L1708.54 846L1713.75 851.014Z" stroke="#EDFCF6" stroke-width="0.99376" stroke-miterlimit="10"/>
<path d="M1316.07 1168C1316.07 1168 1316.07 1236.78 1368.84 1260.76L1393.79 1220.47L1354.93 1175.39C1354.93 1175.39 1337.18 1163.49 1316.07 1168Z" fill="black" stroke="black" stroke-width="2.98127" stroke-miterlimit="10"/>
<path d="M1337.78 1182.87C1337.78 1182.87 1253.34 1196.94 1238.42 1204.61C1235.62 1206.05 1232.06 1207.99 1228.14 1210.18L1204.98 1213.9C1202.04 1214.36 1199.32 1215.72 1197.18 1217.8C1194.15 1220.77 1189.62 1226.32 1183.7 1236.59V1236.59C1180.03 1239.36 1174.18 1244.16 1169.33 1249.81C1161.66 1258.76 1148.87 1273.68 1148.87 1273.68C1148.87 1273.68 1143.75 1281.36 1153.98 1284.34C1162.51 1286.83 1179.61 1267.13 1185.09 1260.48C1186.55 1258.7 1188.2 1257.08 1190.01 1255.65C1199.84 1248 1211.09 1242.35 1223.11 1239.03C1223.23 1239 1223.36 1239.01 1223.47 1239.07C1223.58 1239.12 1223.67 1239.21 1223.72 1239.33C1223.78 1239.44 1223.79 1239.57 1223.75 1239.69C1223.72 1239.81 1223.64 1239.91 1223.54 1239.98L1208.73 1249.96C1206.18 1251.67 1203.83 1253.65 1201.7 1255.87C1193.97 1263.93 1176.33 1283.68 1181.7 1290.74C1187.08 1297.8 1207.6 1276.46 1216.02 1267.14C1218.57 1264.32 1221.51 1261.86 1224.75 1259.85L1250.42 1243.85C1250.48 1243.81 1250.56 1243.79 1250.64 1243.8C1250.71 1243.82 1250.78 1243.86 1250.83 1243.92C1250.88 1243.98 1250.91 1244.05 1250.91 1244.13C1250.9 1244.21 1250.87 1244.28 1250.82 1244.34L1232.87 1263.45C1232.87 1263.45 1206.01 1294.57 1214.96 1301.39C1222.51 1307.14 1240.35 1282.32 1245.78 1274.36C1246.98 1272.6 1248.4 1271.01 1250.01 1269.61C1254.85 1265.4 1265.76 1256.55 1277.42 1251.31C1277.6 1251.23 1277.81 1251.21 1278 1251.27C1278.19 1251.32 1278.36 1251.44 1278.48 1251.6C1278.6 1251.76 1278.66 1251.96 1278.65 1252.16C1278.63 1252.36 1278.55 1252.55 1278.42 1252.7L1269.25 1262.75C1268.28 1263.81 1267.43 1264.97 1266.7 1266.22C1262.67 1273.11 1249.54 1296.49 1254.62 1300.11C1260.34 1304.2 1269.18 1300.07 1277.78 1282.88C1278.69 1281.08 1279.83 1279.41 1281.18 1277.91C1286.9 1271.53 1302.49 1255.26 1316.08 1251.51C1333.08 1246.82 1380.84 1236.59 1380.84 1236.59L1337.78 1182.87Z" fill="#01011C" stroke="#01011C" stroke-width="0.99376" stroke-miterlimit="10"/>
<path d="M1236.28 1202.84L1204.98 1207.86C1202.04 1208.32 1199.31 1209.68 1197.18 1211.76C1194.14 1214.74 1189.62 1220.28 1183.7 1230.55V1242.92L1236.28 1208.38V1202.84Z" fill="#F87C9F" stroke="#F87C9F" stroke-width="0.99376" stroke-miterlimit="10"/>
<path d="M1337.77 1176.83C1337.77 1176.83 1253.34 1190.9 1238.42 1198.58C1223.49 1206.25 1187.24 1227.99 1187.24 1227.99C1187.24 1227.99 1177.01 1234.82 1169.33 1243.77C1161.66 1252.72 1148.87 1267.64 1148.87 1267.64C1148.87 1267.64 1143.75 1275.32 1153.98 1278.3C1162.51 1280.79 1179.61 1261.09 1185.09 1254.44C1186.55 1252.66 1188.2 1251.04 1190.01 1249.62C1199.84 1241.96 1211.09 1236.31 1223.11 1233C1223.23 1232.96 1223.36 1232.98 1223.47 1233.03C1223.58 1233.08 1223.67 1233.17 1223.72 1233.29C1223.78 1233.4 1223.79 1233.53 1223.75 1233.65C1223.72 1233.77 1223.64 1233.88 1223.54 1233.95L1208.73 1243.92C1206.18 1245.63 1203.83 1247.61 1201.7 1249.83C1193.97 1257.9 1176.33 1277.65 1181.7 1284.7C1187.08 1291.76 1207.6 1270.42 1216.02 1261.11C1218.57 1258.28 1221.51 1255.83 1224.75 1253.81L1250.42 1237.81C1250.48 1237.77 1250.56 1237.75 1250.64 1237.77C1250.71 1237.78 1250.78 1237.82 1250.83 1237.88C1250.88 1237.94 1250.91 1238.01 1250.9 1238.09C1250.9 1238.17 1250.87 1238.24 1250.82 1238.3L1232.87 1257.41C1232.87 1257.41 1206.01 1288.54 1214.96 1295.36C1222.51 1301.11 1240.35 1276.28 1245.78 1268.32C1246.98 1266.57 1248.4 1264.97 1250.01 1263.57C1254.85 1259.36 1265.76 1250.52 1277.42 1245.27C1277.6 1245.19 1277.81 1245.18 1278 1245.23C1278.19 1245.28 1278.36 1245.4 1278.48 1245.56C1278.6 1245.72 1278.66 1245.92 1278.65 1246.12C1278.63 1246.32 1278.55 1246.51 1278.42 1246.66L1269.25 1256.71C1268.28 1257.78 1267.43 1258.94 1266.7 1260.18C1262.67 1267.08 1249.54 1290.45 1254.62 1294.08C1260.34 1298.16 1269.18 1294.04 1277.78 1276.84C1278.69 1275.04 1279.83 1273.37 1281.18 1271.88C1286.9 1265.49 1302.49 1249.22 1316.08 1245.47C1333.08 1240.78 1380.84 1230.55 1380.84 1230.55L1337.77 1176.83Z" fill="#FDAFAF" stroke="#FDAFAF" stroke-width="0.99376" stroke-miterlimit="10"/>
<path d="M1568.45 1035.28C1568.45 1035.28 1613.25 1030.54 1636.4 1019.03V1075.12L1620.09 1064.12L1567.41 1068.91L1568.45 1035.28Z" fill="white" stroke="white" stroke-width="2.98127" stroke-miterlimit="10"/>
<path d="M1769.45 896.476C1764.99 892.86 1759.6 890.566 1753.9 889.854C1738.54 887.959 1705.84 891.491 1669.14 941.334C1618.29 1010.4 1571.03 1076.59 1571.03 1076.59C1571.03 1076.59 1558.89 1096.44 1527.19 1104.26C1495.49 1112.08 1316.07 1168 1316.07 1168C1316.07 1168 1369.8 1189.78 1368.84 1260.76L1610.62 1183.06C1610.62 1183.06 1643.81 1172.51 1661.75 1147.57C1676.05 1127.7 1744.77 1034.23 1772.08 997.092C1782.95 982.45 1789.01 964.802 1789.43 946.576C1789.75 929.378 1785.76 909.618 1769.45 896.476Z" fill="white"/>
<path d="M1769.45 896.476C1764.99 892.86 1759.6 890.566 1753.9 889.854C1738.54 887.959 1705.84 891.491 1669.14 941.334C1618.29 1010.4 1571.03 1076.59 1571.03 1076.59C1571.03 1076.59 1558.89 1096.44 1527.19 1104.26C1495.49 1112.08 1316.07 1168 1316.07 1168C1316.07 1168 1369.8 1189.78 1368.84 1260.76L1610.62 1183.06C1610.62 1183.06 1643.81 1172.51 1661.75 1147.57C1676.05 1127.7 1744.77 1034.23 1772.08 997.092C1782.95 982.45 1789.01 964.802 1789.43 946.576C1789.75 929.378 1785.76 909.618 1769.45 896.476Z" fill="url(#paint1_linear)"/>
<path d="M1769.45 896.476C1764.99 892.86 1759.6 890.566 1753.9 889.854C1738.54 887.959 1705.84 891.491 1669.14 941.334C1618.29 1010.4 1571.03 1076.59 1571.03 1076.59C1571.03 1076.59 1558.89 1096.44 1527.19 1104.26C1495.49 1112.08 1316.07 1168 1316.07 1168C1316.07 1168 1369.8 1189.78 1368.84 1260.76L1610.62 1183.06C1610.62 1183.06 1643.81 1172.51 1661.75 1147.57C1676.05 1127.7 1744.77 1034.23 1772.08 997.092C1782.95 982.45 1789.01 964.802 1789.43 946.576C1789.75 929.378 1785.76 909.618 1769.45 896.476Z" stroke="#EDFCF6" stroke-width="0.99376" stroke-miterlimit="10"/>
<path d="M1559.95 918.89C1559.95 918.89 1584.4 893.859 1601.9 929.975L1607.21 925.106C1607.21 925.106 1599.03 890.402 1579.99 880.092C1579.99 880.092 1568.82 866.75 1559.95 918.89Z" fill="#1E102D" stroke="#1E104D" stroke-width="0.99376" stroke-miterlimit="10"/>
<path d="M1671.71 725.01C1670.3 723.414 1668.52 722.178 1666.53 721.404C1664.55 720.63 1662.4 720.34 1660.28 720.56C1659.99 720.602 1659.71 720.7 1659.46 720.851C1659.2 721.001 1658.98 721.199 1658.81 721.435C1658.63 721.671 1658.5 721.939 1658.43 722.224C1658.36 722.509 1658.34 722.805 1658.38 723.097V723.097L1658.55 724.365C1658.59 724.656 1658.68 724.937 1658.83 725.191C1658.98 725.445 1659.18 725.667 1659.41 725.843C1659.65 726.02 1659.92 726.148 1660.2 726.22C1660.49 726.291 1660.78 726.305 1661.07 726.261C1662.27 726.183 1663.46 726.379 1664.56 726.832C1665.67 727.285 1666.65 727.985 1667.45 728.876C1670.06 731.764 1673.65 739.865 1668.27 761.676C1664.02 778.895 1641.13 817.674 1613.83 853.883C1581.06 897.368 1548.42 929.246 1524.29 941.343C1512.69 947.158 1503.05 948.523 1495.65 945.398C1489.88 942.965 1485.85 938.426 1483.65 931.908C1477.91 914.851 1484.29 883.574 1502.08 841.459C1510.57 821.43 1520.14 801.882 1530.77 782.902L1527.9 776.26L1526.78 778.198C1515.75 797.817 1505.79 818.016 1496.93 838.707C1478.17 882.945 1471.86 914.919 1478.2 933.743C1480.65 941.023 1485 946.347 1491.14 949.613C1485.19 960.487 1460.98 1003.64 1428.71 1045.97C1406.95 1074.51 1385.87 1097.08 1366.03 1113.03C1341.5 1132.77 1318.93 1142.36 1298.9 1141.5C1222.88 1138.26 1111.01 1085.21 1015.71 948.106C1013.26 947.484 1011.04 946.867 1009.02 946.256C1026.66 972.163 1046.22 996.706 1067.54 1019.68C1092.66 1046.58 1119.36 1069.86 1146.91 1088.86C1198.09 1124.18 1250.58 1143.92 1298.71 1145.97C1299.59 1146.01 1300.47 1146.03 1301.36 1146.03C1321.81 1146.03 1344.49 1136.11 1368.84 1116.52C1388.95 1100.34 1410.3 1077.51 1432.27 1048.69C1465.07 1005.66 1489.61 961.764 1495.27 951.391C1498.14 952.33 1501.15 952.801 1504.17 952.784C1510.9 952.784 1518.53 950.665 1526.87 946.488C1551.76 934.008 1585.14 901.517 1618.43 857.347C1646.58 819.999 1669.37 781.225 1673.86 763.056C1678.45 744.449 1677.73 731.648 1671.71 725.01Z" fill="#1E104D" stroke="#1E104D" stroke-width="0.99376" stroke-miterlimit="10"/>
<path d="M1570.28 804.672C1570.28 804.672 1598.53 804.932 1622.17 786.111C1622.17 786.111 1610.3 807.424 1576.83 816.992C1576.83 816.992 1573.15 809.725 1570.28 804.672Z" fill="#FD4A77" stroke="#FD4A77" stroke-width="0.99376" stroke-miterlimit="10"/>
<path d="M1153.62 937.498C1153.62 937.498 1167.87 966.769 1158.83 1003.31C1158.83 1003.31 1149.1 997.275 1143.38 995.035C1143.38 995.035 1162.31 976.069 1150.42 937.032L1153.62 937.498Z" fill="#FD4A77" stroke="#FD4A77" stroke-width="0.99376" stroke-miterlimit="10"/>
<path d="M1331.99 1177.82C1331.99 1177.82 1358.35 1197.07 1366.32 1233.71L1353.64 1236.52C1353.64 1236.52 1354.92 1210.2 1323.16 1179.36L1331.99 1177.82Z" fill="#FD4A77" stroke="#FD4A77" stroke-width="0.99376" stroke-miterlimit="10"/>
<path d="M1511.8 1214.72L1610.62 1183.06C1610.62 1183.06 1644.58 1171.17 1661.76 1147.57C1678.93 1123.98 1772.08 997.092 1772.08 997.092C1772.08 997.092 1683.35 1169.37 1636.4 1192.42C1589.46 1215.47 1500.89 1236.52 1500.89 1236.52C1500.89 1236.52 1478.13 1241.78 1428.95 1265.4L1511.8 1214.72Z" fill="#BCE1E5" stroke="#B4D9F7" stroke-width="0.99376" stroke-miterlimit="10"/>
<path d="M1502.01 1111.27L1532.99 1102.63C1532.99 1102.63 1557.16 1095.94 1571.03 1076.59L1669.14 941.334C1669.14 941.334 1724 865.774 1769.45 896.476C1769.45 896.476 1732.68 846.273 1666.01 928.249C1599.34 1010.22 1558.05 1064.61 1558.05 1064.61C1558.05 1064.61 1533.96 1095.14 1501.88 1097.13L1502.01 1111.27Z" fill="#BCE1E5" stroke="#B1D3FF" stroke-width="0.99376" stroke-miterlimit="10"/>
<path d="M1323.16 1243.63C1323.16 1243.63 1355.84 1262.61 1375.65 1302.44L1366.32 1309.55C1366.32 1309.55 1338.83 1260.62 1308.28 1248.76L1323.16 1243.63Z" fill="#01011C" stroke="#01011C" stroke-width="0.99376" stroke-miterlimit="10"/>
<path d="M568.997 911.717C580.846 911.717 590.451 902.114 590.451 890.267C590.451 878.421 580.846 868.817 568.997 868.817C557.148 868.817 547.543 878.421 547.543 890.267C547.543 902.114 557.148 911.717 568.997 911.717Z" fill="white" stroke="white" stroke-width="2.98127" stroke-miterlimit="10"/>
<path d="M2182.63 1405.86C2184.18 1394.11 2175.91 1383.34 2164.17 1381.78C2152.42 1380.23 2141.64 1388.49 2140.09 1400.24C2138.54 1411.98 2146.8 1422.76 2158.55 1424.31C2170.29 1425.87 2181.07 1417.6 2182.63 1405.86Z" fill="white" stroke="white" stroke-width="2.98127" stroke-miterlimit="10"/>
<path d="M1915.5 383.784C1923.88 375.408 1923.88 361.826 1915.5 353.449C1907.13 345.073 1893.54 345.073 1885.16 353.45C1876.78 361.826 1876.78 375.408 1885.16 383.784C1893.54 392.161 1907.13 392.161 1915.5 383.784Z" fill="white" stroke="white" stroke-width="2.98127" stroke-miterlimit="10"/>
<path d="M1956.81 1041.15C1959.54 1029.62 1952.4 1018.06 1940.86 1015.34C1929.33 1012.62 1917.78 1019.76 1915.05 1031.29C1912.33 1042.82 1919.47 1054.37 1931.01 1057.09C1942.54 1059.82 1954.09 1052.68 1956.81 1041.15Z" fill="white" stroke="white" stroke-width="2.98127" stroke-miterlimit="10"/>
<path d="M1313.77 610.915C1319.69 610.915 1324.49 606.113 1324.49 600.19C1324.49 594.267 1319.69 589.465 1313.77 589.465C1307.84 589.465 1303.04 594.267 1303.04 600.19C1303.04 606.113 1307.84 610.915 1313.77 610.915Z" fill="white" stroke="white" stroke-width="2.98127" stroke-miterlimit="10"/>
<path d="M1428.95 929.975C1434.88 929.975 1439.68 925.173 1439.68 919.25C1439.68 913.327 1434.88 908.525 1428.95 908.525C1423.03 908.525 1418.23 913.327 1418.23 919.25C1418.23 925.173 1423.03 929.975 1428.95 929.975Z" fill="white" stroke="white" stroke-width="2.98127" stroke-miterlimit="10"/>
<path d="M1900.33 612.011C1906.26 612.011 1911.06 607.209 1911.06 601.286C1911.06 595.362 1906.26 590.561 1900.33 590.561C1894.41 590.561 1889.61 595.362 1889.61 601.286C1889.61 607.209 1894.41 612.011 1900.33 612.011Z" fill="white" stroke="white" stroke-width="2.98127" stroke-miterlimit="10"/>
<path d="M610.692 1029.98C616.616 1029.98 621.419 1025.18 621.419 1019.25C621.419 1013.33 616.616 1008.53 610.692 1008.53C604.768 1008.53 599.965 1013.33 599.965 1019.25C599.965 1025.18 604.768 1029.98 610.692 1029.98Z" fill="white" stroke="white" stroke-width="2.98127" stroke-miterlimit="10"/>
<path d="M568.997 423.854C574.921 423.854 579.724 419.052 579.724 413.129C579.724 407.206 574.921 402.404 568.997 402.404C563.072 402.404 558.27 407.206 558.27 413.129C558.27 419.052 563.072 423.854 568.997 423.854Z" fill="white" stroke="white" stroke-width="2.98127" stroke-miterlimit="10"/>
<defs>
<linearGradient id="paint0_linear" x1="1570.87" y1="846" x2="1570.87" y2="1393.32" gradientUnits="userSpaceOnUse">
<stop stop-color="white"/>
<stop offset="1" stop-color="white" stop-opacity="0"/>
</linearGradient>
<linearGradient id="paint1_linear" x1="1552.76" y1="889.477" x2="1552.76" y2="1260.76" gradientUnits="userSpaceOnUse">
<stop stop-color="white"/>
<stop offset="1" stop-color="white" stop-opacity="0"/>
</linearGradient>
</defs>
</svg>
