<svg width="77" height="68" viewBox="0 0 77 68" fill="none" xmlns="http://www.w3.org/2000/svg">
<g clip-path="url(#clip0)">
<mask id="mask0" mask-type="alpha" maskUnits="userSpaceOnUse" x="0" y="12" width="23" height="23">
<mask id="path-1-inside-1" mask-type="luminance" fill="white">
<path d="M20.9367 21.2424C20.7441 20.6487 20.1928 20.2491 19.5696 20.2491H19.5581L14.4191 20.2893L12.8716 15.3903C12.6819 14.7931 12.1277 14.387 11.5017 14.387C10.8756 14.387 10.3193 14.7931 10.1317 15.3903L8.58139 20.2893L3.44232 20.2491H3.42938C2.80551 20.2491 2.25351 20.6487 2.06089 21.2424C1.86682 21.8397 2.08173 22.4909 2.59276 22.8567L6.77229 25.8453L5.14792 30.7198C4.94954 31.315 5.16014 31.9697 5.66757 32.337C5.91985 32.521 6.21598 32.613 6.5121 32.613C6.81254 32.613 7.11154 32.5181 7.3667 32.3313L11.5002 29.2787L15.6338 32.3313C15.8882 32.5181 16.1879 32.613 16.4876 32.613C16.7838 32.613 17.0813 32.521 17.3343 32.337C17.8403 31.9683 18.0509 31.3135 17.8525 30.7198L16.226 25.8453L20.4055 22.8567C20.9173 22.4923 21.13 21.8397 20.9367 21.2424ZM14.5262 25.294L16.4876 31.1762L11.4995 27.4927L6.51067 31.1762L8.47213 25.294L3.42723 21.688L9.62789 21.7347L11.4988 15.8237L13.3704 21.7355L19.5711 21.6887L14.5262 25.294Z"/>
</mask>
<path d="M20.9367 21.2424C20.7441 20.6487 20.1928 20.2491 19.5696 20.2491H19.5581L14.4191 20.2893L12.8716 15.3903C12.6819 14.7931 12.1277 14.387 11.5017 14.387C10.8756 14.387 10.3193 14.7931 10.1317 15.3903L8.58139 20.2893L3.44232 20.2491H3.42938C2.80551 20.2491 2.25351 20.6487 2.06089 21.2424C1.86682 21.8397 2.08173 22.4909 2.59276 22.8567L6.77229 25.8453L5.14792 30.7198C4.94954 31.315 5.16014 31.9697 5.66757 32.337C5.91985 32.521 6.21598 32.613 6.5121 32.613C6.81254 32.613 7.11154 32.5181 7.3667 32.3313L11.5002 29.2787L15.6338 32.3313C15.8882 32.5181 16.1879 32.613 16.4876 32.613C16.7838 32.613 17.0813 32.521 17.3343 32.337C17.8403 31.9683 18.0509 31.3135 17.8525 30.7198L16.226 25.8453L20.4055 22.8567C20.9173 22.4923 21.13 21.8397 20.9367 21.2424ZM14.5262 25.294L16.4876 31.1762L11.4995 27.4927L6.51067 31.1762L8.47213 25.294L3.42723 21.688L9.62789 21.7347L11.4988 15.8237L13.3704 21.7355L19.5711 21.6887L14.5262 25.294Z" fill="black"/>
<path d="M20.9367 21.2424L25.6937 19.7025L25.6926 19.6993L20.9367 21.2424ZM19.5581 20.2491V15.2491H19.5386L19.519 15.2492L19.5581 20.2491ZM14.4191 20.2893L9.65128 21.7954L10.764 25.3181L14.4582 25.2892L14.4191 20.2893ZM12.8716 15.3903L17.6394 13.8843L17.6369 13.8764L12.8716 15.3903ZM10.1317 15.3903L14.8987 16.8989L14.902 16.8886L10.1317 15.3903ZM8.58139 20.2893L8.54223 25.2892L12.2344 25.3181L13.3484 21.7979L8.58139 20.2893ZM3.44232 20.2491L3.48148 15.2492L3.4619 15.2491H3.44232V20.2491ZM2.06089 21.2424L6.81618 22.7874L6.81682 22.7855L2.06089 21.2424ZM2.59276 22.8567L-0.317757 26.9223L-0.315482 26.9239L2.59276 22.8567ZM6.77229 25.8453L11.5158 27.426L12.6826 23.9247L9.68053 21.7781L6.77229 25.8453ZM5.14792 30.7198L9.89133 32.301L9.89147 32.3006L5.14792 30.7198ZM5.66757 32.337L8.6139 28.2973L8.60657 28.292L8.59921 28.2867L5.66757 32.337ZM7.3667 32.3313L10.3211 36.3651L10.329 36.3593L10.337 36.3534L7.3667 32.3313ZM11.5002 29.2787L14.4705 25.2566L11.5002 23.0631L8.52997 25.2566L11.5002 29.2787ZM15.6338 32.3313L12.6635 36.3534L12.674 36.3611L15.6338 32.3313ZM17.3343 32.337L20.2752 36.3807L20.2789 36.378L17.3343 32.337ZM17.8525 30.7198L13.1096 32.3024L13.1103 32.3044L17.8525 30.7198ZM16.226 25.8453L13.3178 21.7781L10.3144 23.9256L11.4831 27.4279L16.226 25.8453ZM20.4055 22.8567L17.5053 18.7838L17.4973 18.7895L20.4055 22.8567ZM14.5262 25.294L11.619 21.226L8.6149 23.3729L9.78292 26.8757L14.5262 25.294ZM16.4876 31.1762L13.5174 35.1984L26.2299 44.5862L21.2309 29.5946L16.4876 31.1762ZM11.4995 27.4927L14.4698 23.4705L11.4997 21.2772L8.52954 23.4703L11.4995 27.4927ZM6.51067 31.1762L1.76742 29.5946L-3.23103 44.5845L9.48063 35.1986L6.51067 31.1762ZM8.47213 25.294L13.2154 26.8757L14.3833 23.3732L11.3796 21.2263L8.47213 25.294ZM3.42723 21.688L3.4649 16.6882L-12.3327 16.5691L0.519722 25.7558L3.42723 21.688ZM9.62789 21.7347L9.59021 26.7346L13.281 26.7624L14.3948 23.2435L9.62789 21.7347ZM11.4988 15.8237L16.2656 14.3146L11.4982 -0.743834L6.73187 14.315L11.4988 15.8237ZM13.3704 21.7355L8.60361 23.2446L9.71755 26.7631L13.4081 26.7353L13.3704 21.7355ZM19.5711 21.6887L22.4782 25.7567L35.3336 16.5698L19.5334 16.6889L19.5711 21.6887ZM25.6926 19.6993C24.83 17.0407 22.3557 15.2491 19.5696 15.2491V25.2491C18.0299 25.2491 16.6581 24.2568 16.1808 22.7855L25.6926 19.6993ZM19.5696 15.2491H19.5581V25.2491H19.5696V15.2491ZM19.519 15.2492L14.3799 15.2895L14.4582 25.2892L19.5973 25.2489L19.519 15.2492ZM19.1869 18.7833L17.6394 13.8843L8.10381 16.8964L9.65128 21.7954L19.1869 18.7833ZM17.6369 13.8764C16.7892 11.2082 14.3112 9.38696 11.5017 9.38696V19.387C9.94424 19.387 8.57447 18.3779 8.1063 16.9042L17.6369 13.8764ZM11.5017 9.38696C8.70412 9.38696 6.2074 11.1988 5.36148 13.8921L14.902 16.8886C14.4312 18.3873 13.0472 19.387 11.5017 19.387V9.38696ZM5.36474 13.8818L3.81439 18.7808L13.3484 21.7979L14.8987 16.8989L5.36474 13.8818ZM8.62054 15.2895L3.48148 15.2492L3.40316 25.2489L8.54223 25.2892L8.62054 15.2895ZM3.44232 15.2491H3.42938V25.2491H3.44232V15.2491ZM3.42938 15.2491C0.647051 15.2491 -1.83107 17.0365 -2.69505 19.6993L6.81682 22.7855C6.33809 24.261 4.96397 25.2491 3.42938 25.2491V15.2491ZM-2.69441 19.6974C-3.56372 22.3729 -2.59555 25.2916 -0.317756 26.9223L5.50328 18.7911C6.75901 19.6901 7.29737 21.3065 6.81618 22.7874L-2.69441 19.6974ZM-0.315482 26.9239L3.86405 29.9125L9.68053 21.7781L5.501 18.7895L-0.315482 26.9239ZM2.02873 24.2646L0.40436 29.1391L9.89147 32.3006L11.5158 27.426L2.02873 24.2646ZM0.4045 29.1387C-0.483622 31.8031 0.457895 34.7386 2.73593 36.3874L8.59921 28.2867C9.86238 29.2009 10.3827 30.8269 9.89133 32.301L0.4045 29.1387ZM2.72124 36.3767C3.84603 37.1971 5.17804 37.613 6.5121 37.613V27.613C7.25392 27.613 7.99368 27.845 8.6139 28.2973L2.72124 36.3767ZM6.5121 37.613C7.87148 37.613 9.20596 37.1818 10.3211 36.3651L4.41234 28.2974C5.01712 27.8545 5.75361 27.613 6.5121 27.613V37.613ZM10.337 36.3534L14.4705 33.3009L8.52997 25.2566L4.39644 28.3091L10.337 36.3534ZM8.52997 33.3009L12.6635 36.3534L18.604 28.3091L14.4705 25.2566L8.52997 33.3009ZM12.674 36.3611C13.7932 37.1831 15.1314 37.613 16.4876 37.613V27.613C17.2444 27.613 17.9832 27.8532 18.5935 28.3014L12.674 36.3611ZM16.4876 37.613C17.8177 37.613 19.1493 37.1995 20.2752 36.3807L14.3935 28.2933C15.0133 27.8425 15.7498 27.613 16.4876 27.613V37.613ZM20.2789 36.378C22.5384 34.7315 23.4866 31.8042 22.5948 29.1353L13.1103 32.3044C12.6152 30.8228 13.1422 29.2051 14.3897 28.2961L20.2789 36.378ZM22.5955 29.1372L20.9689 24.2627L11.4831 27.4279L13.1096 32.3024L22.5955 29.1372ZM19.1343 29.9125L23.3138 26.9239L17.4973 18.7895L13.3178 21.7781L19.1343 29.9125ZM23.3058 26.9296C25.6108 25.2883 26.5528 22.3566 25.6937 19.7025L16.1797 22.7823C15.7073 21.3227 16.2238 19.6963 17.5053 18.7838L23.3058 26.9296ZM9.78292 26.8757L11.7444 32.7579L21.2309 29.5946L19.2694 23.7123L9.78292 26.8757ZM19.4579 27.1541L14.4698 23.4705L8.52927 31.5148L13.5174 35.1984L19.4579 27.1541ZM8.52954 23.4703L3.5407 27.1539L9.48063 35.1986L14.4695 31.515L8.52954 23.4703ZM11.2539 32.7579L13.2154 26.8757L3.72889 23.7123L1.76742 29.5946L11.2539 32.7579ZM11.3796 21.2263L6.33474 17.6203L0.519722 25.7558L5.56463 29.3617L11.3796 21.2263ZM3.38956 26.6879L9.59021 26.7346L9.66556 16.7349L3.4649 16.6882L3.38956 26.6879ZM14.3948 23.2435L16.2657 17.3325L6.73187 14.315L4.86096 20.226L14.3948 23.2435ZM6.73198 17.3329L8.60361 23.2446L18.1372 20.2263L16.2656 14.3146L6.73198 17.3329ZM13.4081 26.7353L19.6087 26.6886L19.5334 16.6889L13.3327 16.7356L13.4081 26.7353ZM16.664 17.6207L11.619 21.226L17.4333 29.362L22.4782 25.7567L16.664 17.6207Z" fill="black" mask="url(#path-1-inside-1)"/>
</mask>
<g mask="url(#mask0)">
<rect y="7.8335" width="27.0833" height="30.2083" fill="#DCB05A"/>
</g>
<mask id="mask1" mask-type="alpha" maskUnits="userSpaceOnUse" x="28" y="-1" width="23" height="23">
<mask id="path-4-inside-2" mask-type="luminance" fill="white">
<path d="M48.9367 8.2424C48.7441 7.64871 48.1928 7.24909 47.5696 7.24909H47.5581L42.4191 7.28934L40.8716 2.39034C40.6819 1.79306 40.1277 1.38696 39.5017 1.38696C38.8756 1.38696 38.3193 1.79306 38.1317 2.39034L36.5814 7.28934L31.4423 7.24909H31.4294C30.8055 7.24909 30.2535 7.64871 30.0609 8.2424C29.8668 8.83968 30.0817 9.49087 30.5928 9.85671L34.7723 12.8453L33.1479 17.7198C32.9495 18.315 33.1601 18.9697 33.6676 19.337C33.9199 19.521 34.216 19.613 34.5121 19.613C34.8125 19.613 35.1115 19.5181 35.3667 19.3313L39.5002 16.2787L43.6338 19.3313C43.8882 19.5181 44.1879 19.613 44.4876 19.613C44.7838 19.613 45.0813 19.521 45.3343 19.337C45.8403 18.9683 46.0509 18.3135 45.8525 17.7198L44.226 12.8453L48.4055 9.85671C48.9173 9.49231 49.13 8.83968 48.9367 8.2424ZM42.5262 12.294L44.4876 18.1762L39.4995 14.4927L34.5107 18.1762L36.4721 12.294L31.4272 8.68802L37.6279 8.73474L39.4988 2.82374L41.3704 8.73546L47.5711 8.68874L42.5262 12.294Z"/>
</mask>
<path d="M48.9367 8.2424C48.7441 7.64871 48.1928 7.24909 47.5696 7.24909H47.5581L42.4191 7.28934L40.8716 2.39034C40.6819 1.79306 40.1277 1.38696 39.5017 1.38696C38.8756 1.38696 38.3193 1.79306 38.1317 2.39034L36.5814 7.28934L31.4423 7.24909H31.4294C30.8055 7.24909 30.2535 7.64871 30.0609 8.2424C29.8668 8.83968 30.0817 9.49087 30.5928 9.85671L34.7723 12.8453L33.1479 17.7198C32.9495 18.315 33.1601 18.9697 33.6676 19.337C33.9199 19.521 34.216 19.613 34.5121 19.613C34.8125 19.613 35.1115 19.5181 35.3667 19.3313L39.5002 16.2787L43.6338 19.3313C43.8882 19.5181 44.1879 19.613 44.4876 19.613C44.7838 19.613 45.0813 19.521 45.3343 19.337C45.8403 18.9683 46.0509 18.3135 45.8525 17.7198L44.226 12.8453L48.4055 9.85671C48.9173 9.49231 49.13 8.83968 48.9367 8.2424ZM42.5262 12.294L44.4876 18.1762L39.4995 14.4927L34.5107 18.1762L36.4721 12.294L31.4272 8.68802L37.6279 8.73474L39.4988 2.82374L41.3704 8.73546L47.5711 8.68874L42.5262 12.294Z" fill="black"/>
<path d="M48.9367 8.2424L53.6937 6.70254L53.6926 6.69931L48.9367 8.2424ZM47.5581 7.24909V2.24909H47.5386L47.519 2.24924L47.5581 7.24909ZM42.4191 7.28934L37.6513 8.79536L38.764 12.3181L42.4582 12.2892L42.4191 7.28934ZM40.8716 2.39034L45.6394 0.88431L45.6369 0.87645L40.8716 2.39034ZM38.1317 2.39034L42.8987 3.89891L42.902 3.88858L38.1317 2.39034ZM36.5814 7.28934L36.5422 12.2892L40.2344 12.3181L41.3484 8.79791L36.5814 7.28934ZM31.4423 7.24909L31.4815 2.24924L31.4619 2.24909H31.4423V7.24909ZM30.0609 8.2424L34.8162 9.78744L34.8168 9.78549L30.0609 8.2424ZM30.5928 9.85671L27.6822 13.9223L27.6845 13.9239L30.5928 9.85671ZM34.7723 12.8453L39.5158 14.426L40.6826 10.9247L37.6805 8.77807L34.7723 12.8453ZM33.1479 17.7198L37.8913 19.301L37.8915 19.3006L33.1479 17.7198ZM33.6676 19.337L36.6139 15.2973L36.6066 15.292L36.5992 15.2867L33.6676 19.337ZM35.3667 19.3313L38.3211 23.3651L38.329 23.3593L38.337 23.3534L35.3667 19.3313ZM39.5002 16.2787L42.4705 12.2566L39.5002 10.0631L36.53 12.2566L39.5002 16.2787ZM43.6338 19.3313L40.6635 23.3534L40.674 23.3611L43.6338 19.3313ZM45.3343 19.337L48.2752 23.3807L48.2789 23.378L45.3343 19.337ZM45.8525 17.7198L41.1096 19.3024L41.1103 19.3044L45.8525 17.7198ZM44.226 12.8453L41.3178 8.77807L38.3144 10.9256L39.4831 14.4279L44.226 12.8453ZM48.4055 9.85671L45.5053 5.78379L45.4973 5.78951L48.4055 9.85671ZM42.5262 12.294L39.619 8.22599L36.6149 10.3729L37.7829 13.8757L42.5262 12.294ZM44.4876 18.1762L41.5174 22.1984L54.2299 31.5862L49.2309 16.5946L44.4876 18.1762ZM39.4995 14.4927L42.4698 10.4705L39.4997 8.27722L36.5295 10.4703L39.4995 14.4927ZM34.5107 18.1762L29.7674 16.5946L24.769 31.5845L37.4806 22.1986L34.5107 18.1762ZM36.4721 12.294L41.2154 13.8757L42.3833 10.3732L39.3796 8.22627L36.4721 12.294ZM31.4272 8.68802L31.4649 3.68817L15.6673 3.56914L28.5197 12.7558L31.4272 8.68802ZM37.6279 8.73474L37.5902 13.7346L41.281 13.7624L42.3948 10.2435L37.6279 8.73474ZM39.4988 2.82374L44.2656 1.31459L39.4982 -13.7438L34.7319 1.31495L39.4988 2.82374ZM41.3704 8.73546L36.6036 10.2446L37.7176 13.7631L41.4081 13.7353L41.3704 8.73546ZM47.5711 8.68874L50.4782 12.7567L63.3336 3.56984L47.5334 3.68888L47.5711 8.68874ZM53.6926 6.69931C52.83 4.04065 50.3557 2.24909 47.5696 2.24909V12.2491C46.0299 12.2491 44.6581 11.2568 44.1808 9.78549L53.6926 6.69931ZM47.5696 2.24909H47.5581V12.2491H47.5696V2.24909ZM47.519 2.24924L42.3799 2.28949L42.4582 12.2892L47.5973 12.2489L47.519 2.24924ZM47.1869 5.78331L45.6394 0.884312L36.1038 3.89636L37.6513 8.79536L47.1869 5.78331ZM45.6369 0.87645C44.7892 -1.7918 42.3112 -3.61304 39.5017 -3.61304V6.38696C37.9442 6.38696 36.5745 5.37791 36.1063 3.90423L45.6369 0.87645ZM39.5017 -3.61304C36.7041 -3.61304 34.2074 -1.80122 33.3615 0.8921L42.902 3.88858C42.4312 5.38734 41.0472 6.38696 39.5017 6.38696V-3.61304ZM33.3647 0.881769L31.8144 5.78077L41.3484 8.79791L42.8987 3.89891L33.3647 0.881769ZM36.6205 2.28949L31.4815 2.24924L31.4032 12.2489L36.5422 12.2892L36.6205 2.28949ZM31.4423 2.24909H31.4294V12.2491H31.4423V2.24909ZM31.4294 2.24909C28.6471 2.24909 26.1689 4.03647 25.305 6.69931L34.8168 9.78549C34.3381 11.261 32.964 12.2491 31.4294 12.2491V2.24909ZM25.3056 6.69736C24.4363 9.37291 25.4044 12.2916 27.6822 13.9223L33.5033 5.79114C34.759 6.69011 35.2974 8.30645 34.8162 9.78744L25.3056 6.69736ZM27.6845 13.9239L31.864 16.9125L37.6805 8.77807L33.501 5.78951L27.6845 13.9239ZM30.0287 11.2646L28.4044 16.1391L37.8915 19.3006L39.5158 14.426L30.0287 11.2646ZM28.4045 16.1387C27.5164 18.8031 28.4579 21.7386 30.7359 23.3874L36.5992 15.2867C37.8624 16.2009 38.3827 17.8269 37.8913 19.301L28.4045 16.1387ZM30.7212 23.3767C31.846 24.1971 33.178 24.613 34.5121 24.613V14.613C35.2539 14.613 35.9937 14.845 36.6139 15.2973L30.7212 23.3767ZM34.5121 24.613C35.8715 24.613 37.206 24.1818 38.3211 23.3651L32.4123 15.2974C33.0171 14.8545 33.7536 14.613 34.5121 14.613V24.613ZM38.337 23.3534L42.4705 20.3009L36.53 12.2566L32.3964 15.3091L38.337 23.3534ZM36.53 20.3009L40.6635 23.3534L46.604 15.3091L42.4705 12.2566L36.53 20.3009ZM40.674 23.3611C41.7932 24.1831 43.1314 24.613 44.4876 24.613V14.613C45.2444 14.613 45.9832 14.8532 46.5935 15.3014L40.674 23.3611ZM44.4876 24.613C45.8177 24.613 47.1493 24.1995 48.2752 23.3807L42.3935 15.2933C43.0133 14.8425 43.7498 14.613 44.4876 14.613V24.613ZM48.2789 23.378C50.5384 21.7315 51.4866 18.8042 50.5948 16.1353L41.1103 19.3044C40.6152 17.8228 41.1422 16.2051 42.3897 15.2961L48.2789 23.378ZM50.5955 16.1372L48.9689 11.2627L39.4831 14.4279L41.1096 19.3024L50.5955 16.1372ZM47.1343 16.9125L51.3138 13.9239L45.4973 5.78951L41.3178 8.77807L47.1343 16.9125ZM51.3058 13.9296C53.6108 12.2883 54.5528 9.35662 53.6937 6.70254L44.1797 9.78226C43.7073 8.32274 44.2238 6.69632 45.5053 5.7838L51.3058 13.9296ZM37.7829 13.8757L39.7444 19.7579L49.2309 16.5946L47.2694 10.7123L37.7829 13.8757ZM47.4579 14.1541L42.4698 10.4705L36.5293 18.5148L41.5174 22.1984L47.4579 14.1541ZM36.5295 10.4703L31.5407 14.1539L37.4806 22.1986L42.4695 18.515L36.5295 10.4703ZM39.2539 19.7579L41.2154 13.8757L31.7289 10.7123L29.7674 16.5946L39.2539 19.7579ZM39.3796 8.22627L34.3347 4.6203L28.5197 12.7558L33.5646 16.3617L39.3796 8.22627ZM31.3896 13.6879L37.5902 13.7346L37.6656 3.73489L31.4649 3.68817L31.3896 13.6879ZM42.3948 10.2435L44.2657 4.33254L34.7319 1.31495L32.861 7.22595L42.3948 10.2435ZM34.732 4.3329L36.6036 10.2446L46.1372 7.22631L44.2656 1.31459L34.732 4.3329ZM41.4081 13.7353L47.6087 13.6886L47.5334 3.68888L41.3327 3.7356L41.4081 13.7353ZM44.664 4.62074L39.619 8.22599L45.4333 16.362L50.4782 12.7567L44.664 4.62074Z" fill="black" mask="url(#path-4-inside-2)"/>
</mask>
<g mask="url(#mask1)">
<rect x="28" y="-5.1665" width="27.0833" height="30.2083" fill="#DCB05A"/>
</g>
<mask id="mask2" mask-type="alpha" maskUnits="userSpaceOnUse" x="55" y="12" width="23" height="23">
<mask id="path-7-inside-3" mask-type="luminance" fill="white">
<path d="M75.9367 21.2424C75.7441 20.6487 75.1928 20.2491 74.5696 20.2491H74.5581L69.4191 20.2893L67.8716 15.3903C67.6819 14.7931 67.1277 14.387 66.5017 14.387C65.8756 14.387 65.3193 14.7931 65.1317 15.3903L63.5814 20.2893L58.4423 20.2491H58.4294C57.8055 20.2491 57.2535 20.6487 57.0609 21.2424C56.8668 21.8397 57.0817 22.4909 57.5928 22.8567L61.7723 25.8453L60.1479 30.7198C59.9495 31.315 60.1601 31.9697 60.6676 32.337C60.9199 32.521 61.216 32.613 61.5121 32.613C61.8125 32.613 62.1115 32.5181 62.3667 32.3313L66.5002 29.2787L70.6338 32.3313C70.8882 32.5181 71.1879 32.613 71.4876 32.613C71.7838 32.613 72.0813 32.521 72.3343 32.337C72.8403 31.9683 73.0509 31.3135 72.8525 30.7198L71.226 25.8453L75.4055 22.8567C75.9173 22.4923 76.13 21.8397 75.9367 21.2424ZM69.5262 25.294L71.4876 31.1762L66.4995 27.4927L61.5107 31.1762L63.4721 25.294L58.4272 21.688L64.6279 21.7347L66.4988 15.8237L68.3704 21.7355L74.5711 21.6887L69.5262 25.294Z"/>
</mask>
<path d="M75.9367 21.2424C75.7441 20.6487 75.1928 20.2491 74.5696 20.2491H74.5581L69.4191 20.2893L67.8716 15.3903C67.6819 14.7931 67.1277 14.387 66.5017 14.387C65.8756 14.387 65.3193 14.7931 65.1317 15.3903L63.5814 20.2893L58.4423 20.2491H58.4294C57.8055 20.2491 57.2535 20.6487 57.0609 21.2424C56.8668 21.8397 57.0817 22.4909 57.5928 22.8567L61.7723 25.8453L60.1479 30.7198C59.9495 31.315 60.1601 31.9697 60.6676 32.337C60.9199 32.521 61.216 32.613 61.5121 32.613C61.8125 32.613 62.1115 32.5181 62.3667 32.3313L66.5002 29.2787L70.6338 32.3313C70.8882 32.5181 71.1879 32.613 71.4876 32.613C71.7838 32.613 72.0813 32.521 72.3343 32.337C72.8403 31.9683 73.0509 31.3135 72.8525 30.7198L71.226 25.8453L75.4055 22.8567C75.9173 22.4923 76.13 21.8397 75.9367 21.2424ZM69.5262 25.294L71.4876 31.1762L66.4995 27.4927L61.5107 31.1762L63.4721 25.294L58.4272 21.688L64.6279 21.7347L66.4988 15.8237L68.3704 21.7355L74.5711 21.6887L69.5262 25.294Z" fill="black"/>
<path d="M75.9367 21.2424L80.6937 19.7025L80.6926 19.6993L75.9367 21.2424ZM74.5581 20.2491V15.2491H74.5386L74.519 15.2492L74.5581 20.2491ZM69.4191 20.2893L64.6513 21.7954L65.764 25.3181L69.4582 25.2892L69.4191 20.2893ZM67.8716 15.3903L72.6394 13.8843L72.6369 13.8764L67.8716 15.3903ZM65.1317 15.3903L69.8987 16.8989L69.902 16.8886L65.1317 15.3903ZM63.5814 20.2893L63.5422 25.2892L67.2344 25.3181L68.3484 21.7979L63.5814 20.2893ZM58.4423 20.2491L58.4815 15.2492L58.4619 15.2491H58.4423V20.2491ZM57.0609 21.2424L61.8162 22.7874L61.8168 22.7855L57.0609 21.2424ZM57.5928 22.8567L54.6822 26.9223L54.6845 26.9239L57.5928 22.8567ZM61.7723 25.8453L66.5158 27.426L67.6826 23.9247L64.6805 21.7781L61.7723 25.8453ZM60.1479 30.7198L64.8913 32.301L64.8915 32.3006L60.1479 30.7198ZM60.6676 32.337L63.6139 28.2973L63.6066 28.292L63.5992 28.2867L60.6676 32.337ZM62.3667 32.3313L65.3211 36.3651L65.329 36.3593L65.337 36.3534L62.3667 32.3313ZM66.5002 29.2787L69.4705 25.2566L66.5002 23.0631L63.53 25.2566L66.5002 29.2787ZM70.6338 32.3313L67.6635 36.3534L67.674 36.3611L70.6338 32.3313ZM72.3343 32.337L75.2752 36.3807L75.2789 36.378L72.3343 32.337ZM72.8525 30.7198L68.1096 32.3024L68.1103 32.3044L72.8525 30.7198ZM71.226 25.8453L68.3178 21.7781L65.3144 23.9256L66.4831 27.4279L71.226 25.8453ZM75.4055 22.8567L72.5053 18.7838L72.4973 18.7895L75.4055 22.8567ZM69.5262 25.294L66.619 21.226L63.6149 23.3729L64.7829 26.8757L69.5262 25.294ZM71.4876 31.1762L68.5174 35.1984L81.2299 44.5862L76.2309 29.5946L71.4876 31.1762ZM66.4995 27.4927L69.4698 23.4705L66.4997 21.2772L63.5295 23.4703L66.4995 27.4927ZM61.5107 31.1762L56.7674 29.5946L51.769 44.5845L64.4806 35.1986L61.5107 31.1762ZM63.4721 25.294L68.2154 26.8757L69.3833 23.3732L66.3796 21.2263L63.4721 25.294ZM58.4272 21.688L58.4649 16.6882L42.6673 16.5691L55.5197 25.7558L58.4272 21.688ZM64.6279 21.7347L64.5902 26.7346L68.281 26.7624L69.3948 23.2435L64.6279 21.7347ZM66.4988 15.8237L71.2656 14.3146L66.4982 -0.743834L61.7319 14.315L66.4988 15.8237ZM68.3704 21.7355L63.6036 23.2446L64.7176 26.7631L68.4081 26.7353L68.3704 21.7355ZM74.5711 21.6887L77.4782 25.7567L90.3336 16.5698L74.5334 16.6889L74.5711 21.6887ZM80.6926 19.6993C79.83 17.0407 77.3557 15.2491 74.5696 15.2491V25.2491C73.0299 25.2491 71.6581 24.2568 71.1808 22.7855L80.6926 19.6993ZM74.5696 15.2491H74.5581V25.2491H74.5696V15.2491ZM74.519 15.2492L69.3799 15.2895L69.4582 25.2892L74.5973 25.2489L74.519 15.2492ZM74.1869 18.7833L72.6394 13.8843L63.1038 16.8964L64.6513 21.7954L74.1869 18.7833ZM72.6369 13.8764C71.7892 11.2082 69.3112 9.38696 66.5017 9.38696V19.387C64.9442 19.387 63.5745 18.3779 63.1063 16.9042L72.6369 13.8764ZM66.5017 9.38696C63.7041 9.38696 61.2074 11.1988 60.3615 13.8921L69.902 16.8886C69.4312 18.3873 68.0472 19.387 66.5017 19.387V9.38696ZM60.3647 13.8818L58.8144 18.7808L68.3484 21.7979L69.8987 16.8989L60.3647 13.8818ZM63.6205 15.2895L58.4815 15.2492L58.4032 25.2489L63.5422 25.2892L63.6205 15.2895ZM58.4423 15.2491H58.4294V25.2491H58.4423V15.2491ZM58.4294 15.2491C55.6471 15.2491 53.1689 17.0365 52.305 19.6993L61.8168 22.7855C61.3381 24.261 59.964 25.2491 58.4294 25.2491V15.2491ZM52.3056 19.6974C51.4363 22.3729 52.4044 25.2916 54.6822 26.9223L60.5033 18.7911C61.759 19.6901 62.2974 21.3065 61.8162 22.7874L52.3056 19.6974ZM54.6845 26.9239L58.864 29.9125L64.6805 21.7781L60.501 18.7895L54.6845 26.9239ZM57.0287 24.2646L55.4044 29.1391L64.8915 32.3006L66.5158 27.426L57.0287 24.2646ZM55.4045 29.1387C54.5164 31.8031 55.4579 34.7386 57.7359 36.3874L63.5992 28.2867C64.8624 29.2009 65.3827 30.8269 64.8913 32.301L55.4045 29.1387ZM57.7212 36.3767C58.846 37.1971 60.178 37.613 61.5121 37.613V27.613C62.2539 27.613 62.9937 27.845 63.6139 28.2973L57.7212 36.3767ZM61.5121 37.613C62.8715 37.613 64.206 37.1818 65.3211 36.3651L59.4123 28.2974C60.0171 27.8545 60.7536 27.613 61.5121 27.613V37.613ZM65.337 36.3534L69.4705 33.3009L63.53 25.2566L59.3964 28.3091L65.337 36.3534ZM63.53 33.3009L67.6635 36.3534L73.604 28.3091L69.4705 25.2566L63.53 33.3009ZM67.674 36.3611C68.7932 37.1831 70.1314 37.613 71.4876 37.613V27.613C72.2444 27.613 72.9832 27.8532 73.5935 28.3014L67.674 36.3611ZM71.4876 37.613C72.8177 37.613 74.1493 37.1995 75.2752 36.3807L69.3935 28.2933C70.0133 27.8425 70.7498 27.613 71.4876 27.613V37.613ZM75.2789 36.378C77.5384 34.7315 78.4866 31.8042 77.5948 29.1353L68.1103 32.3044C67.6152 30.8228 68.1422 29.2051 69.3897 28.2961L75.2789 36.378ZM77.5955 29.1372L75.9689 24.2627L66.4831 27.4279L68.1096 32.3024L77.5955 29.1372ZM74.1343 29.9125L78.3138 26.9239L72.4973 18.7895L68.3178 21.7781L74.1343 29.9125ZM78.3058 26.9296C80.6108 25.2883 81.5528 22.3566 80.6937 19.7025L71.1797 22.7823C70.7073 21.3227 71.2238 19.6963 72.5053 18.7838L78.3058 26.9296ZM64.7829 26.8757L66.7444 32.7579L76.2309 29.5946L74.2694 23.7123L64.7829 26.8757ZM74.4579 27.1541L69.4698 23.4705L63.5293 31.5148L68.5174 35.1984L74.4579 27.1541ZM63.5295 23.4703L58.5407 27.1539L64.4806 35.1986L69.4695 31.515L63.5295 23.4703ZM66.2539 32.7579L68.2154 26.8757L58.7289 23.7123L56.7674 29.5946L66.2539 32.7579ZM66.3796 21.2263L61.3347 17.6203L55.5197 25.7558L60.5646 29.3617L66.3796 21.2263ZM58.3896 26.6879L64.5902 26.7346L64.6656 16.7349L58.4649 16.6882L58.3896 26.6879ZM69.3948 23.2435L71.2657 17.3325L61.7319 14.315L59.861 20.226L69.3948 23.2435ZM61.732 17.3329L63.6036 23.2446L73.1372 20.2263L71.2656 14.3146L61.732 17.3329ZM68.4081 26.7353L74.6087 26.6886L74.5334 16.6889L68.3327 16.7356L68.4081 26.7353ZM71.664 17.6207L66.619 21.226L72.4333 29.362L77.4782 25.7567L71.664 17.6207Z" fill="black" mask="url(#path-7-inside-3)"/>
</mask>
<g mask="url(#mask2)">
<rect x="55" y="7.8335" width="27.0833" height="30.2083" fill="#DCB05A"/>
</g>
<path d="M30.9355 45.0418C30.9355 45.0418 36.7327 50.312 37.7868 50.312C38.3138 50.312 47.2731 37.6636 47.2731 37.6636" stroke="#DCB05A" stroke-width="2.5"/>
<path d="M39.3684 25.0153C38.3138 25.2869 24.9262 29.1287 24.6119 29.7584C24.0859 30.8124 23.8641 48.2274 24.0849 49.258C25.6654 56.6362 39.3684 64.0145 39.3684 64.0145C39.3684 64.0145 53.5979 56.6362 54.1248 48.204C54.1577 47.678 54.2454 29.6631 53.5978 29.2314C52.0168 28.1773 40.4229 24.7436 39.3684 25.0153Z" stroke="#DCB05A" stroke-width="2"/>
</g>
<defs>
<clipPath id="clip0">
<rect width="77" height="68" fill="white"/>
</clipPath>
</defs>
</svg>
