<svg width="80" height="79" viewBox="0 0 80 79" fill="none" xmlns="http://www.w3.org/2000/svg">
<mask id="mask0" mask-type="alpha" maskUnits="userSpaceOnUse" x="5" y="7" width="70" height="70">
<path d="M43.9269 24.878H15.0449C14.7579 24.878 14.5199 25.116 14.5199 25.403V47.11C14.5199 47.397 14.7579 47.635 15.0449 47.635H43.9339C44.2209 47.635 44.4589 47.397 44.4589 47.11V25.403C44.4519 25.116 44.2209 24.878 43.9269 24.878ZM43.4019 32.116H37.3399V25.928H43.4019V32.116ZM22.9269 33.166H29.0869V39.361H22.9269V33.166ZM21.8769 39.361H15.5699V33.166H21.8769V39.361ZM29.0869 32.116H22.9269V25.928H29.0869V32.116ZM30.1369 25.928H36.2969V32.116H30.1369V25.928ZM29.0869 40.411V46.578H22.9269V40.411H29.0869ZM30.1369 40.411H36.2969V46.578H30.1369V40.411ZM30.1369 39.361V33.166H36.2969V39.361H30.1369ZM37.3469 33.166H43.4089V39.361H37.3469V33.166ZM21.8769 25.928V32.116H15.5699V25.928H21.8769ZM15.5699 40.411H21.8769V46.578H15.5699V40.411ZM37.3469 46.585V40.418H43.4089V46.585H37.3469ZM64.9409 52.878C65.3679 52.129 66.3129 50.477 67.3559 48.713C70.3799 43.589 71.1499 38.22 69.3299 35.028C68.3149 33.25 66.5789 32.312 64.3109 32.312C61.6929 32.312 59.9919 33.831 58.1929 35.434C56.0859 37.31 53.7129 39.424 49.2679 39.599V16.891C49.2679 15.442 48.0919 14.266 46.6429 14.266H40.3709V11.025C40.3709 10.738 40.1329 10.5 39.8459 10.5C39.5589 10.5 39.3209 10.738 39.3209 11.025V14.266H37.8159V11.025C37.8159 10.738 37.5779 10.5 37.2909 10.5C37.0039 10.5 36.7659 10.738 36.7659 11.025V14.266H22.4579V11.025C22.4579 10.738 22.2199 10.5 21.9329 10.5C21.6459 10.5 21.4079 10.738 21.4079 11.025V14.266H19.9029V11.025C19.9029 10.738 19.6649 10.5 19.3779 10.5C19.0909 10.5 18.8529 10.738 18.8529 11.025V14.266H12.3359C10.8869 14.266 9.71094 15.442 9.71094 16.891V49.511C9.71094 50.96 10.8869 52.136 12.3359 52.136H46.6429C48.0919 52.136 49.2679 50.96 49.2679 49.511V40.649C54.1049 40.474 56.6459 38.22 58.8929 36.211C60.6079 34.678 62.0919 33.355 64.3109 33.355C66.2079 33.355 67.5869 34.09 68.4199 35.546C70.0369 38.374 69.2459 43.449 66.4529 48.174C65.4099 49.945 64.4649 51.59 64.0379 52.353C60.5939 50.68 56.3869 51.926 54.4479 55.286L50.3109 62.447C49.3239 64.148 49.0649 66.136 49.5759 68.033C50.0869 69.93 51.3049 71.519 53.0059 72.506C54.1609 73.171 55.4279 73.493 56.6809 73.493C59.2289 73.493 61.7139 72.17 63.0719 69.811L67.2089 62.65C68.1959 60.949 68.4549 58.961 67.9439 57.064C67.4679 55.335 66.4109 53.872 64.9409 52.878ZM40.6019 15.316C40.4759 16.331 39.6149 17.122 38.5649 17.122C37.5149 17.122 36.6539 16.331 36.5279 15.316H40.6019ZM22.6889 15.316C22.5629 16.331 21.7019 17.122 20.6519 17.122C19.6019 17.122 18.7409 16.331 18.6149 15.316H22.6889ZM12.3359 15.316H17.5719C17.7049 16.912 19.0279 18.172 20.6589 18.172C22.2899 18.172 23.6129 16.912 23.7459 15.316H35.4849C35.6179 16.912 36.9409 18.172 38.5719 18.172C40.2029 18.172 41.5259 16.912 41.6589 15.316H46.6499C47.5179 15.316 48.2249 16.023 48.2249 16.891V20.244H10.7609V16.891C10.7609 16.023 11.4679 15.316 12.3359 15.316ZM46.6429 51.086H12.3359C11.4679 51.086 10.7609 50.379 10.7609 49.511V21.294H48.2179V39.886C48.1759 39.963 48.1409 40.047 48.1409 40.145C48.1409 40.243 48.1759 40.327 48.2179 40.404V49.511C48.2179 50.379 47.5109 51.086 46.6429 51.086ZM66.2919 62.132L62.1549 69.293C60.4119 72.31 56.5409 73.346 53.5239 71.603C52.0609 70.763 51.0179 69.398 50.5769 67.767C50.1429 66.136 50.3669 64.435 51.2069 62.979L55.3439 55.818C56.5129 53.795 58.6409 52.661 60.8249 52.661C61.8959 52.661 62.9809 52.934 63.9749 53.508C65.4379 54.348 66.4809 55.713 66.9219 57.344C67.3559 58.968 67.1319 60.669 66.2919 62.132ZM64.8709 63.217C64.7729 63.385 64.5979 63.483 64.4159 63.483C64.3249 63.483 64.2409 63.462 64.1569 63.413L55.2109 58.282C54.9589 58.135 54.8749 57.82 55.0149 57.568C55.1619 57.316 55.4769 57.225 55.7289 57.372L64.6749 62.503C64.9269 62.65 65.0179 62.972 64.8709 63.217ZM60.4399 59.36L60.6709 59.5C60.9089 59.633 61.1679 59.703 61.4199 59.703C61.9379 59.703 62.4489 59.437 62.7219 58.954L64.2409 56.322C64.4439 55.979 64.4929 55.573 64.3879 55.181C64.2829 54.789 64.0379 54.467 63.6879 54.271L63.4499 54.138C62.7359 53.725 61.8119 53.97 61.3989 54.691L59.8799 57.323C59.4739 58.03 59.7189 58.947 60.4399 59.36ZM60.7969 57.834L62.3159 55.202C62.4419 54.985 62.7149 54.915 62.9319 55.034L63.1699 55.167C63.2749 55.23 63.3449 55.328 63.3799 55.44C63.4149 55.552 63.3939 55.678 63.3379 55.783L61.8189 58.415C61.6929 58.632 61.4129 58.709 61.2029 58.583L60.9649 58.45C60.7479 58.331 60.6709 58.051 60.7969 57.834Z" fill="black"/>
</mask>
<g mask="url(#mask0)">
<rect x="5" y="7" width="70" height="73" fill="#DCB05A"/>
</g>
</svg>
