<svg width="85" height="75" viewBox="0 0 85 75" fill="none" xmlns="http://www.w3.org/2000/svg">
<mask id="mask0" mask-type="alpha" maskUnits="userSpaceOnUse" x="0" y="0" width="81" height="75">
<path d="M18.6609 36.5622C19.7838 38.845 21.2474 40.7666 22.9024 42.1301C24.7058 43.6113 26.6469 44.4016 28.669 44.4798C28.7501 44.4832 28.8301 44.4847 28.9111 44.4847C30.7263 44.4847 32.6097 43.6933 34.5147 42.1291C36.1686 40.7666 37.6323 38.845 38.7551 36.5622C39.6944 35.7474 43.4223 32.3237 43.1391 29.5424C43.0796 28.9605 42.8296 28.1877 42.0261 27.5491C42.1784 25.6764 42.2907 20.1573 38.8997 16.2405C36.5904 13.5734 33.1623 12.2206 28.708 12.2197C28.7071 12.2197 28.7051 12.2197 28.7041 12.2197C24.2538 12.2197 20.8256 13.571 18.5184 16.2361C15.1254 20.1534 15.2387 25.6754 15.391 27.5491C14.5874 28.1877 14.3364 28.9605 14.2769 29.5424C13.9947 32.3237 17.7216 35.7474 18.6609 36.5622ZM20.0299 17.5454C21.9407 15.3383 24.8591 14.2193 28.7041 14.2193C28.7051 14.2193 28.7071 14.2193 28.708 14.2193C32.5502 14.2203 35.4686 15.3378 37.3804 17.541C40.06 20.6277 40.1518 25.1055 40.0533 26.999C36.2173 26.7565 33.4586 25.0645 31.0163 23.5415C29.0185 22.2951 27.2923 21.2186 25.3746 21.2186C22.9814 21.2186 21.6019 22.9029 20.3853 24.389C19.436 25.5486 18.585 26.5677 17.3568 26.913C17.2633 24.9751 17.3874 20.596 20.0299 17.5454ZM16.786 29.019C19.2728 28.8713 20.6885 27.1755 21.9328 25.6559C23.0039 24.348 23.9286 23.2183 25.3746 23.2183C26.7201 23.2183 28.2208 24.1541 29.9588 25.2385C32.6174 26.897 35.9233 28.938 40.6481 29.0303C41.0341 29.2869 41.1295 29.543 41.1493 29.744C41.2928 31.1402 38.9866 33.7585 37.3042 35.1718C37.1949 35.2631 37.107 35.3773 37.0455 35.5057C36.0349 37.6118 34.7207 39.3684 33.2444 40.5845C31.6226 41.9162 30.1316 42.5299 28.7471 42.4821C27.1692 42.421 25.6305 41.7825 24.1727 40.5854C22.6954 39.3684 21.3811 37.6118 20.3706 35.5057C20.3091 35.3769 20.2212 35.2631 20.1119 35.1713C18.4295 33.7614 16.1243 31.1456 16.2668 29.745C16.2878 29.5406 16.3847 29.2798 16.786 29.019Z" fill="black"/>
<path d="M8.46473 62.2108H48.9558C49.5084 62.2108 49.9557 61.7631 49.9557 61.211C49.9557 52.9551 44.687 45.6721 36.8456 43.0891C36.3906 42.9368 35.8799 43.1394 35.6505 43.569C34.8069 45.1542 31.9402 49.338 28.7103 49.957C24.83 49.2189 21.8003 43.6251 21.77 43.568C21.5396 43.1399 21.0367 42.9363 20.575 43.0891C12.7335 45.6721 7.46484 52.9551 7.46484 61.211C7.46484 61.7631 7.91209 62.2108 8.46473 62.2108ZM20.4412 45.2581C21.5318 47.0298 24.5606 51.3367 28.5559 51.9596C28.6595 51.9753 28.7611 51.9753 28.8646 51.9596C32.8609 51.3367 35.8887 47.0298 36.9793 45.2581C43.2674 47.6596 47.5391 53.5043 47.9267 60.2111H9.49384C9.88142 53.5043 14.1532 47.6591 20.4412 45.2581Z" fill="black"/>
<path d="M42.6512 54.0455H41.0265V52.4208C41.0265 51.8686 40.5794 51.4209 40.0267 51.4209C39.4741 51.4209 39.0268 51.8686 39.0268 52.4208V54.0455H37.4022C36.8495 54.0455 36.4023 54.4932 36.4023 55.0453C36.4023 55.5975 36.8495 56.0452 37.4022 56.0452H39.0268V57.6698C39.0268 58.222 39.4741 58.6697 40.0267 58.6697C40.5794 58.6697 41.0265 58.222 41.0265 57.6698V56.0452H42.6512C43.2039 56.0452 43.6511 55.5975 43.6511 55.0453C43.6511 54.4932 43.2039 54.0455 42.6512 54.0455Z" fill="black"/>
<mask id="mask1" maskUnits="userSpaceOnUse" x="43" y="18" width="42" height="41">
<path d="M53.3818 47.4364C53.1569 47.4364 52.9319 47.389 52.7189 47.2943C52.3243 47.1168 52.0244 46.7972 51.8705 46.3947L48.8441 38.4163C48.6902 38.0138 48.706 37.5758 48.8796 37.1812C49.0572 36.7867 49.3768 36.4868 49.7792 36.3329L60.2711 32.3516L64.4458 43.3485L53.9579 47.3298C53.7724 47.4009 53.5791 47.4364 53.3818 47.4364ZM59.5885 33.8825L50.2054 37.4456C50.0989 37.4851 50.012 37.5679 49.9647 37.6705C49.9174 37.777 49.9134 37.8915 49.9529 38.002L52.9793 45.9804C53.0188 46.0869 53.1016 46.1737 53.2042 46.2211C53.3107 46.2684 53.4252 46.2724 53.5357 46.2329L62.9188 42.6698L59.5885 33.8825Z" fill="black"/>
<path d="M49.5079 47.018C48.6556 47.018 47.8507 46.4972 47.5311 45.6528L46.0909 41.853C45.6766 40.7639 46.229 39.5407 47.318 39.1264L50.0051 38.1084L52.9487 45.858L50.2537 46.8799C50.009 46.9746 49.7565 47.018 49.5079 47.018ZM49.3106 39.6354L47.7323 40.2352C47.2549 40.4167 47.0102 40.9533 47.1917 41.4347L48.632 45.2345C48.8135 45.712 49.3501 45.9566 49.8315 45.7751L51.4098 45.1753L49.3106 39.6354Z" fill="black"/>
<path d="M76.6351 45.862C76.5799 45.862 76.5247 45.858 76.4694 45.8462L63.2549 43.53L59.2578 33.0105L67.6071 22.5107C67.8242 22.2384 68.1714 22.1003 68.5186 22.1556C68.8619 22.2108 69.1539 22.4436 69.2762 22.7711L77.5387 44.548C77.6611 44.8755 77.6019 45.2425 77.3809 45.5108C77.1994 45.7357 76.9192 45.862 76.6351 45.862ZM64.119 42.4804L76.3037 44.6151L68.3055 23.5405L60.6073 33.2236L64.119 42.4804Z" fill="black"/>
<path d="M58.8055 54.4126C58.5135 54.4126 58.2333 54.2508 58.0952 53.9746L54.0508 46.0317L60.7074 43.5063L61.4965 45.5818C61.7885 46.3552 61.6741 47.2154 61.1887 47.8862L60.7863 48.4425L62.6763 52.0451C62.7829 52.2463 62.7986 52.487 62.7158 52.7001C62.6329 52.9131 62.4672 53.0828 62.2502 53.1657L59.0896 54.3652C58.9988 54.3968 58.9002 54.4126 58.8055 54.4126ZM55.7041 46.6669L58.9909 53.1302L61.4255 52.2069L59.3934 48.34L60.2299 47.1878C60.4824 46.8445 60.5416 46.3986 60.3877 46.0001L60.0208 45.0334L55.7041 46.6669Z" fill="black"/>
<path d="M80.6583 31.5398L80.2383 30.4331L76.7375 31.7617L77.1575 32.8684L80.6583 31.5398Z" fill="black"/>
<path d="M76.6747 24.9062L75.8203 24.0869L73.226 26.7926L74.0804 27.6119L76.6747 24.9062Z" fill="black"/>
<path d="M81.6541 38.0441L77.9219 37.7412L77.8261 38.921L81.5583 39.2239L81.6541 38.0441Z" fill="black"/>
<path d="M58.7091 37.4807L58.2891 36.374L52.4937 38.5734L52.9137 39.6801L58.7091 37.4807Z" fill="black"/>
</mask>
<g mask="url(#mask1)">
<rect x="39.3438" y="18.0757" width="41.4684" height="40.4051" fill="#DCB05A"/>
</g>
</mask>
<g mask="url(#mask0)">
<rect x="-1.0625" y="-1.06348" width="88.2532" height="75.4937" fill="#DCB05A"/>
</g>
</svg>
