<svg width="80" height="79" viewBox="0 0 80 79" fill="none" xmlns="http://www.w3.org/2000/svg">
<mask id="mask0" mask-type="alpha" maskUnits="userSpaceOnUse" x="9" y="7" width="68" height="68">
<path d="M47.6835 72.5716H15.4902C13.2511 72.5716 11.4297 70.7501 11.4297 68.5111V13.4845C11.4297 11.248 13.2511 9.42871 15.4902 9.42871H47.6835C49.9225 9.42871 51.744 11.248 51.744 13.4845V28.7456C51.744 29.0138 51.5265 29.2313 51.2583 29.2313C50.99 29.2313 50.7725 29.0138 50.7725 28.7456V13.4845C50.7725 11.7838 49.3868 10.4001 47.6835 10.4001H15.4902C13.7869 10.4001 12.4011 11.7838 12.4011 13.4845V68.5111C12.4011 70.2144 13.7869 71.6001 15.4902 71.6001H47.6835C49.3868 71.6001 50.7725 70.2144 50.7725 68.5111V53.2547C50.7725 52.9865 50.99 52.769 51.2583 52.769C51.5265 52.769 51.744 52.9865 51.744 53.2547V68.5111C51.744 70.7501 49.9225 72.5716 47.6835 72.5716Z" fill="black"/>
<path d="M51.2566 17.1863H11.9154C11.6472 17.1863 11.4297 16.9688 11.4297 16.7006C11.4297 16.4323 11.6472 16.2148 11.9154 16.2148H51.2566C51.5248 16.2148 51.7423 16.4323 51.7423 16.7006C51.7423 16.9688 51.5248 17.1863 51.2566 17.1863Z" fill="black"/>
<path d="M51.2566 62.9617H11.9154C11.6472 62.9617 11.4297 62.7442 11.4297 62.476C11.4297 62.2077 11.6472 61.9902 11.9154 61.9902H51.2566C51.5248 61.9902 51.7423 62.2077 51.7423 62.476C51.7423 62.7442 51.5248 62.9617 51.2566 62.9617Z" fill="black"/>
<path d="M35.3252 13.9885H27.849C27.5808 13.9885 27.3633 13.771 27.3633 13.5028C27.3633 13.2346 27.5808 13.0171 27.849 13.0171H35.3252C35.5934 13.0171 35.8109 13.2346 35.8109 13.5028C35.8109 13.771 35.5934 13.9885 35.3252 13.9885Z" fill="black"/>
<path d="M31.5886 70.3595C29.9178 70.3595 28.5586 69.0003 28.5586 67.3295C28.5586 65.6613 29.9178 64.3042 31.5886 64.3042C33.2568 64.3042 34.6139 65.6613 34.6139 67.3295C34.6139 69.0003 33.2568 70.3595 31.5886 70.3595ZM31.5886 65.2756C30.4535 65.2756 29.53 66.197 29.53 67.3295C29.53 68.4646 30.4535 69.3881 31.5886 69.3881C32.7211 69.3881 33.6425 68.4646 33.6425 67.3295C33.6425 66.197 32.7211 65.2756 31.5886 65.2756Z" fill="black"/>
<path d="M70.2475 53.7403H37.9136C35.5294 53.7403 33.5898 51.8008 33.5898 49.4168V32.5833C33.5898 30.1993 35.5294 28.2598 37.9136 28.2598H70.2475C72.6315 28.2598 74.571 30.1993 74.571 32.5833V49.4168C74.571 51.8008 72.6315 53.7403 70.2475 53.7403ZM37.9136 29.2312C36.0651 29.2312 34.5613 30.7348 34.5613 32.5833V49.4168C34.5613 51.2653 36.0651 52.7689 37.9136 52.7689H70.2475C72.096 52.7689 73.5996 51.2653 73.5996 49.4168V32.5833C73.5996 30.7348 72.096 29.2312 70.2475 29.2312H37.9136Z" fill="black"/>
<path d="M74.0851 34.5334H34.1263C33.8581 34.5334 33.6406 34.316 33.6406 34.0477C33.6406 33.7795 33.8581 33.562 34.1263 33.562H74.0851C74.3533 33.562 74.5708 33.7795 74.5708 34.0477C74.5708 34.316 74.3533 34.5334 74.0851 34.5334Z" fill="black"/>
<path d="M74.0851 39.7957H34.1263C33.8581 39.7957 33.6406 39.5782 33.6406 39.3099C33.6406 39.0417 33.8581 38.8242 34.1263 38.8242H74.0851C74.3533 38.8242 74.5708 39.0417 74.5708 39.3099C74.5708 39.5782 74.3533 39.7957 74.0851 39.7957Z" fill="black"/>
<path d="M48.2478 45.0574H37.5013C37.2331 45.0574 37.0156 44.8399 37.0156 44.5717C37.0156 44.3034 37.2331 44.0859 37.5013 44.0859H48.2478C48.516 44.0859 48.7335 44.3034 48.7335 44.5717C48.7335 44.8399 48.516 45.0574 48.2478 45.0574Z" fill="black"/>
<path d="M57.112 49.0647H37.5013C37.2331 49.0647 37.0156 48.8472 37.0156 48.579C37.0156 48.3107 37.2331 48.0933 37.5013 48.0933H57.112C57.3803 48.0933 57.5978 48.3107 57.5978 48.579C57.5978 48.8472 57.3803 49.0647 57.112 49.0647Z" fill="black"/>
<path d="M67.2086 49.0646C66.6173 49.0646 66.0389 48.9078 65.5358 48.6111C65.3048 48.4747 65.228 48.1771 65.3644 47.9459C65.5005 47.7149 65.7986 47.6376 66.0296 47.7744C66.383 47.9829 66.7907 48.0931 67.2086 48.0931C68.5194 48.0931 69.5857 47.0292 69.5857 45.7215C69.5857 44.4138 68.5194 43.3498 67.2086 43.3498C66.7904 43.3498 66.3828 43.4599 66.0296 43.6684C65.7984 43.8043 65.5005 43.7276 65.3644 43.4969C65.228 43.2657 65.3048 42.968 65.5358 42.8316C66.0386 42.5352 66.6171 42.3784 67.2086 42.3784C69.0549 42.3784 70.5571 43.878 70.5571 45.7215C70.5571 47.565 69.0549 49.0646 67.2086 49.0646Z" fill="black"/>
<path d="M64.3509 49.0648C62.5074 49.0648 61.0078 47.5652 61.0078 45.7217C61.0078 43.8783 62.5074 42.3784 64.3509 42.3784C66.1972 42.3784 67.6994 43.8783 67.6994 45.7217C67.6994 47.5652 66.1972 49.0648 64.3509 49.0648ZM64.3509 43.3498C63.0432 43.3498 61.9792 44.4138 61.9792 45.7217C61.9792 47.0295 63.0432 48.0934 64.3509 48.0934C65.6617 48.0934 66.728 47.0295 66.728 45.7217C66.728 44.4138 65.6617 43.3498 64.3509 43.3498Z" fill="black"/>
</mask>
<g mask="url(#mask0)">
<rect x="7" y="4" width="70" height="71" fill="#DCB05A"/>
</g>
</svg>
