<svg width="7329" height="5991" viewBox="0 0 7329 5991" fill="none" xmlns="http://www.w3.org/2000/svg">
<circle cx="3600.41" cy="3082.59" r="1844.41" fill="#E0F0F2"/>
<circle cx="3600.41" cy="3082.59" r="1844.41" fill="url(#paint0_linear)"/>
<path d="M2032.23 2112.45C2030.53 2107.49 2025.13 2104.84 2020.17 2106.54L1939.27 2134.21C1934.31 2135.91 1931.66 2141.31 1933.36 2146.27C1935.06 2151.24 1940.46 2153.89 1945.42 2152.19L2017.33 2127.59L2041.93 2199.5C2043.63 2204.46 2049.03 2207.11 2053.99 2205.41C2058.96 2203.72 2061.6 2198.32 2059.91 2193.35L2032.23 2112.45ZM2014.71 2111.35C1920.27 2304 1839.72 2466.9 1814.18 2732.24L1833.09 2734.06C1858.27 2472.42 1937.41 2312.19 2031.77 2119.71L2014.71 2111.35Z" fill="#4F4F4F"/>
<path d="M3907.64 1281.28C3911.8 1278.08 3912.57 1272.11 3909.36 1267.96L3857.14 1200.26C3853.93 1196.11 3847.97 1195.34 3843.81 1198.54C3839.66 1201.75 3838.89 1207.71 3842.09 1211.87L3888.52 1272.04L3828.34 1318.47C3824.19 1321.67 3823.42 1327.64 3826.62 1331.79C3829.83 1335.94 3835.79 1336.71 3839.95 1333.51L3907.64 1281.28ZM3903.06 1264.34C3692.52 1237.18 3520.89 1212.45 3250.74 1257.82L3253.89 1276.56C3521.03 1231.69 3690.22 1256.04 3900.62 1283.18L3903.06 1264.34Z" fill="#4F4F4F"/>
<path d="M5403.23 2742.66C5407.7 2745.4 5413.55 2744 5416.29 2739.52L5460.96 2666.62C5463.71 2662.15 5462.3 2656.3 5457.83 2653.56C5453.35 2650.82 5447.51 2652.22 5444.76 2656.7L5405.05 2721.5L5340.25 2681.78C5335.78 2679.04 5329.93 2680.45 5327.19 2684.92C5324.45 2689.39 5325.85 2695.24 5330.33 2697.98L5403.23 2742.66ZM5417.43 2732.34C5367.31 2523.58 5324.66 2354 5188.52 2116.44L5172.04 2125.89C5306.79 2361.03 5348.94 2528.47 5398.95 2736.78L5417.43 2732.34Z" fill="#4F4F4F"/>
<mask id="mask0" mask-type="alpha" maskUnits="userSpaceOnUse" x="1852" y="2784" width="646" height="645">
<g clip-path="url(#clip0)">
<path d="M2442.24 2936.68C2442.24 2931.66 2441.25 2926.68 2439.33 2922.04C2437.4 2917.39 2434.58 2913.17 2431.03 2909.62C2427.48 2906.06 2423.26 2903.24 2418.61 2901.32C2413.97 2899.4 2408.99 2898.41 2403.96 2898.41H1945.93C1935.78 2898.41 1926.04 2902.44 1918.86 2909.62C1911.69 2916.8 1907.65 2926.53 1907.65 2936.68V3249.28H2442.5V2936.68H2442.24ZM2397.58 3204.62H1952.31V2943.06H2397.58V3204.62Z" fill="black"/>
<path d="M2230.82 3262.04C2231.83 3264.03 2232.36 3266.24 2232.36 3268.48C2232.36 3272.29 2230.85 3275.95 2228.15 3278.64C2225.46 3281.34 2221.8 3282.85 2217.99 3282.85H2131.9C2128.09 3282.85 2124.44 3281.34 2121.74 3278.64C2119.05 3275.95 2117.53 3272.29 2117.53 3268.48C2117.53 3266.24 2118.06 3264.03 2119.08 3262.04H1852.75C1852.75 3291.1 1878.91 3314.68 1911.2 3314.68H2438.7C2470.92 3314.68 2497.14 3291.1 2497.14 3262.04H2230.82Z" fill="black"/>
</g>
</mask>
<g mask="url(#mask0)">
<rect x="1833.42" y="2760.73" width="723.869" height="668.021" fill="#4F4F4F"/>
</g>
<mask id="mask1" mask-type="alpha" maskUnits="userSpaceOnUse" x="4185" y="1645" width="558" height="376">
<path d="M4305.12 2020.42C4238.79 2020.42 4185 1966.61 4185 1900.31C4185.04 1846.9 4219.69 1802.23 4267.62 1786.44C4269.28 1741.19 4306.4 1705.1 4352.02 1705.06C4366.62 1705.06 4380.35 1708.84 4392.26 1715.41C4417.63 1673.29 4463.73 1645 4516.54 1645C4595.56 1645.04 4659.8 1708.14 4661.64 1786.7C4708.91 1802.81 4742.96 1847.44 4743 1900.15C4743 1966.45 4689.19 2020.26 4622.88 2020.26H4305.12V2020.42ZM4637.48 1821.71C4627.23 1819.79 4620.18 1810.46 4621.18 1800.13C4621.6 1796.69 4621.7 1793.4 4621.7 1790.16C4621.56 1732.14 4574.6 1685.18 4516.58 1685.1C4471.56 1685.06 4433.26 1713.49 4418.27 1753.36C4415.82 1759.81 4410.16 1764.64 4403.29 1765.96C4396.48 1767.28 4389.42 1764.92 4384.73 1759.77C4376.41 1750.7 4365.01 1745.16 4352.04 1745.16C4327.52 1745.2 4307.68 1765.02 4307.6 1789.54C4307.6 1792.28 4307.94 1795.09 4308.5 1798.05C4309.48 1803.39 4308.34 1808.86 4305.24 1813.3C4302.13 1817.79 4297.37 1820.73 4292.08 1821.59C4254.07 1827.84 4224.98 1860.63 4225.02 1900.27C4225.1 1944.49 4260.89 1980.26 4305.12 1980.38H4622.92C4667.15 1980.26 4702.88 1944.49 4702.96 1900.27C4703 1861.09 4674.69 1828.58 4637.48 1821.71Z" fill="black"/>
</mask>
<g mask="url(#mask1)">
<rect x="4080.37" y="1542.5" width="762.338" height="587.235" fill="#4F4F4F"/>
</g>
<mask id="mask2" mask-type="alpha" maskUnits="userSpaceOnUse" x="2912" y="2715" width="1524" height="1283">
<path d="M3672 3358.97C3658.91 3358.97 3650.19 3368 3650.19 3381.55V3593.8L3471.31 3702.18C3460.41 3708.95 3458.22 3722.5 3462.59 3733.79C3466.95 3740.56 3473.49 3745.08 3482.22 3745.08C3486.58 3745.08 3488.76 3745.08 3493.13 3742.82L3672 3634.44L3850.88 3742.82C3855.24 3745.08 3857.42 3745.08 3861.79 3745.08C3868.33 3745.08 3877.06 3740.56 3881.42 3733.79C3887.96 3722.5 3883.6 3708.95 3872.69 3702.18L3693.82 3593.8V3381.55C3693.82 3368 3685.09 3358.97 3672 3358.97Z" fill="black"/>
<path d="M3401.35 3336.4H3951.07C3964.16 3336.4 3972.88 3327.36 3972.88 3313.82V3266.4C3972.88 3155.76 3903.08 3054.15 3796.19 3008.99C3824.54 2977.38 3844.18 2934.48 3844.18 2889.32C3844.18 2794.49 3767.83 2715.46 3676.21 2715.46C3584.59 2715.46 3508.24 2794.49 3508.24 2889.32C3508.24 2936.74 3525.69 2979.64 3556.23 3008.99C3449.34 3054.15 3379.54 3153.5 3379.54 3266.4V3313.82C3379.54 3327.36 3388.26 3336.4 3401.35 3336.4ZM3676.21 2760.62C3743.83 2760.62 3800.55 2819.32 3800.55 2889.32C3800.55 2934.48 3776.55 2975.12 3741.65 2997.7C3722.02 3008.99 3700.2 3018.02 3676.21 3018.02C3652.21 3018.02 3630.4 3011.25 3610.77 2997.7C3575.86 2975.12 3551.87 2934.48 3551.87 2889.32C3551.87 2819.32 3608.58 2760.62 3676.21 2760.62ZM3423.16 3266.4C3423.16 3162.53 3492.97 3074.47 3597.68 3042.86C3621.67 3056.41 3647.85 3063.18 3676.21 3063.18C3704.57 3063.18 3730.74 3056.41 3754.74 3042.86C3857.27 3074.47 3929.25 3167.05 3929.25 3266.4V3291.24H3423.16V3266.4Z" fill="black"/>
<path d="M4258.56 3670.55C4286.92 3638.93 4304.37 3596.03 4304.37 3550.87C4304.37 3456.04 4228.02 3377.01 4136.41 3377.01C4044.79 3377.01 3968.44 3456.04 3968.44 3550.87C3968.44 3598.29 3985.89 3641.19 4016.43 3672.8C3911.72 3717.96 3841.91 3815.06 3841.91 3927.95V3975.37C3841.91 3988.92 3850.64 3997.95 3863.73 3997.95H4413.45C4426.53 3997.95 4435.26 3988.92 4435.26 3975.37V3927.95C4435.26 3817.31 4363.27 3715.71 4258.56 3670.55ZM4136.41 3422.17C4204.03 3422.17 4260.75 3480.88 4260.75 3550.87C4260.75 3620.87 4204.03 3679.58 4136.41 3679.58C4114.59 3679.58 4094.96 3675.06 4077.51 3663.77C4075.33 3661.51 4070.96 3659.26 4066.6 3657C4033.88 3634.42 4009.88 3593.78 4009.88 3548.62C4012.06 3480.88 4068.78 3422.17 4136.41 3422.17ZM4391.63 3952.79H3885.54V3927.95C3885.54 3826.35 3955.35 3736.03 4057.87 3704.42C4081.87 3717.96 4108.05 3724.74 4136.41 3724.74C4164.76 3724.74 4193.12 3717.96 4217.12 3704.42C4319.64 3736.03 4391.63 3828.6 4391.63 3927.95V3952.79Z" fill="black"/>
<path d="M3329.32 3670.55C3357.68 3638.93 3375.13 3596.03 3375.13 3550.87C3375.13 3456.04 3298.78 3377.01 3207.16 3377.01C3115.54 3377.01 3039.19 3456.04 3039.19 3550.87C3039.19 3598.29 3056.65 3641.19 3087.19 3672.8C2982.48 3717.96 2912.67 3815.06 2912.67 3927.95V3975.37C2912.67 3988.92 2921.4 3997.95 2934.49 3997.95H3484.2C3497.29 3997.95 3506.02 3988.92 3506.02 3975.37V3927.95C3506.02 3817.31 3434.03 3715.71 3329.32 3670.55ZM3207.16 3422.17C3274.79 3422.17 3331.5 3480.88 3331.5 3550.87C3331.5 3620.87 3274.79 3679.58 3207.16 3679.58C3185.35 3679.58 3165.72 3675.06 3148.27 3663.77C3146.08 3661.51 3141.72 3659.26 3137.36 3657C3104.64 3634.42 3080.64 3593.78 3080.64 3548.62C3082.82 3480.88 3139.54 3422.17 3207.16 3422.17ZM3462.39 3952.79H2956.3V3927.95C2956.3 3826.35 3026.11 3736.03 3128.63 3704.42C3152.63 3717.96 3178.81 3724.74 3207.16 3724.74C3235.52 3724.74 3263.88 3717.96 3287.88 3704.42C3390.4 3736.03 3462.39 3828.6 3462.39 3927.95V3952.79Z" fill="black"/>
</mask>
<g mask="url(#mask2)">
<rect x="2815.06" y="2612.67" width="1683.9" height="1454.28" fill="#4F4F4F"/>
</g>
<circle cx="3208.83" cy="3550.66" r="134.224" fill="#4F4F4F"/>
<circle cx="4138.07" cy="3550.66" r="134.224" fill="#4F4F4F"/>
<path d="M3809.94 2890.56C3809.94 2964.69 3749.85 3024.78 3675.72 3024.78C3601.59 3024.78 3541.5 2964.69 3541.5 2890.56C3541.5 2816.43 3601.59 2756.33 3675.72 2756.33C3749.85 2756.33 3809.94 2816.43 3809.94 2890.56Z" fill="#4F4F4F"/>
<mask id="mask3" mask-type="alpha" maskUnits="userSpaceOnUse" x="2568" y="1606" width="454" height="454">
<path d="M3005.92 1930.99C2986.12 1912.84 2967.97 1893.05 2949.83 1874.9C2930.03 1855.1 2901.98 1855.1 2880.54 1874.9L2877.24 1876.55C2867.34 1886.45 2857.44 1894.7 2847.54 1906.25C2845.89 1904.6 2844.24 1904.6 2842.6 1904.6C2839.3 1902.95 2832.7 1901.3 2829.4 1898C2799.7 1879.85 2773.31 1855.1 2745.26 1822.11C2732.07 1807.26 2723.82 1792.42 2717.22 1779.22C2725.47 1770.97 2733.71 1762.72 2741.96 1754.47L2748.56 1747.87C2770.01 1726.43 2770.01 1698.38 2748.56 1676.94C2741.96 1670.34 2735.36 1663.74 2728.77 1657.14L2723.82 1648.89C2720.52 1645.59 2718.87 1643.94 2715.57 1640.64C2708.97 1634.04 2702.37 1627.45 2695.77 1620.85C2675.98 1601.05 2647.93 1601.05 2626.48 1620.85C2621.54 1625.8 2616.59 1630.75 2611.64 1635.69C2605.04 1642.29 2598.44 1648.89 2591.84 1655.49C2578.64 1668.69 2570.39 1685.19 2568.74 1703.33C2565.45 1733.03 2573.69 1759.42 2581.94 1779.22C2598.44 1823.76 2624.83 1865 2659.48 1909.54C2704.02 1962.34 2756.81 2003.58 2817.85 2033.27C2852.49 2049.77 2880.54 2058.02 2908.58 2059.67C2911.88 2059.67 2911.88 2059.67 2915.18 2059.67C2939.93 2059.67 2959.72 2051.42 2974.57 2033.27C2981.17 2026.67 2987.77 2020.07 2994.37 2013.48C2997.67 2010.18 3000.97 2006.88 3005.92 2003.58C3027.36 1980.48 3027.36 1952.44 3005.92 1930.99ZM2984.47 1982.13C2981.17 1985.43 2977.87 1988.73 2972.92 1992.03C2966.32 1998.63 2958.07 2006.88 2951.48 2015.13C2939.93 2026.67 2928.38 2031.62 2908.58 2029.97C2885.49 2028.32 2859.09 2020.07 2829.4 2006.88C2773.31 1978.83 2722.17 1939.24 2679.27 1889.75C2646.28 1850.16 2623.19 1810.56 2606.69 1769.32C2600.09 1744.57 2595.14 1726.43 2596.79 1706.63C2598.44 1695.08 2601.74 1686.84 2609.99 1678.59C2618.24 1671.99 2624.83 1663.74 2631.43 1657.14C2636.38 1652.19 2641.33 1647.24 2644.63 1643.94C2651.23 1638.99 2656.18 1635.69 2661.13 1635.69C2666.08 1635.69 2671.03 1638.99 2675.98 1643.94C2682.57 1650.54 2689.17 1657.14 2695.77 1663.74C2697.42 1665.39 2700.72 1668.69 2704.02 1671.99L2712.27 1680.24C2718.87 1686.84 2725.47 1693.43 2732.07 1700.03C2743.61 1711.58 2743.61 1719.83 2732.07 1729.73L2723.82 1736.33C2715.57 1744.57 2705.67 1754.47 2695.77 1762.72C2690.82 1767.67 2685.87 1775.92 2690.82 1787.47C2697.42 1805.61 2708.97 1822.11 2723.82 1841.91C2751.86 1876.55 2781.56 1904.6 2814.55 1924.39C2819.5 1927.69 2824.45 1930.99 2829.4 1932.64C2832.7 1934.29 2834.35 1934.29 2837.65 1935.94C2847.54 1940.89 2857.44 1939.24 2865.69 1932.64C2877.24 1922.74 2887.14 1911.19 2897.04 1901.3L2900.33 1899.65C2910.23 1889.75 2920.13 1889.75 2930.03 1899.65C2948.18 1917.79 2966.32 1935.94 2986.12 1955.74C2994.37 1960.69 2994.37 1972.23 2984.47 1982.13Z" fill="black"/>
</mask>
<g mask="url(#mask3)">
<rect x="2504.41" y="1553.07" width="579.182" height="573.133" fill="#4F4F4F"/>
</g>
<rect x="4835.07" y="2901.77" width="133.853" height="407.463" rx="32" fill="#4F4F4F"/>
<mask id="mask4" mask-type="alpha" maskUnits="userSpaceOnUse" x="4777" y="2825" width="561" height="540">
<path d="M5244.5 3105.04H5088.67C5071.01 3105.04 5057.5 3091.56 5057.5 3073.93V3032.44C5057.5 3014.81 5071.01 3001.32 5088.67 3001.32H5244.5C5262.16 3001.32 5275.67 3014.81 5275.67 3032.44V3073.93C5275.67 3091.56 5262.16 3105.04 5244.5 3105.04ZM5088.67 3022.07C5082.43 3022.07 5078.28 3026.22 5078.28 3032.44V3073.93C5078.28 3080.15 5082.43 3084.3 5088.67 3084.3H5244.5C5250.73 3084.3 5254.89 3080.15 5254.89 3073.93V3032.44C5254.89 3026.22 5250.73 3022.07 5244.5 3022.07H5088.67Z" fill="black"/>
<path d="M5114.64 3167.28H5093.86C5090.75 3167.28 5088.67 3165.21 5088.67 3162.09V3141.35C5088.67 3138.24 5090.75 3136.16 5093.86 3136.16H5114.64C5117.76 3136.16 5119.83 3138.24 5119.83 3141.35V3162.09C5119.83 3165.21 5117.76 3167.28 5114.64 3167.28Z" fill="black"/>
<path d="M5176.97 3167.28H5156.19C5153.07 3167.28 5151 3165.21 5151 3162.09V3141.35C5151 3138.24 5153.07 3136.16 5156.19 3136.16H5176.97C5180.08 3136.16 5182.16 3138.24 5182.16 3141.35V3162.09C5182.16 3165.21 5180.08 3167.28 5176.97 3167.28Z" fill="black"/>
<path d="M5239.3 3167.28H5218.53C5215.41 3167.28 5213.33 3165.21 5213.33 3162.09V3141.35C5213.33 3138.24 5215.41 3136.16 5218.53 3136.16H5239.3C5242.42 3136.16 5244.5 3138.24 5244.5 3141.35V3162.09C5244.5 3165.21 5242.42 3167.28 5239.3 3167.28Z" fill="black"/>
<path d="M5114.64 3229.51H5093.86C5090.75 3229.51 5088.67 3227.43 5088.67 3224.32V3203.58C5088.67 3200.47 5090.75 3198.39 5093.86 3198.39H5114.64C5117.76 3198.39 5119.83 3200.47 5119.83 3203.58V3224.32C5119.83 3227.43 5117.76 3229.51 5114.64 3229.51Z" fill="black"/>
<path d="M5176.97 3229.51H5156.19C5153.07 3229.51 5151 3227.43 5151 3224.32V3203.58C5151 3200.47 5153.07 3198.39 5156.19 3198.39H5176.97C5180.08 3198.39 5182.16 3200.47 5182.16 3203.58V3224.32C5182.16 3227.43 5180.08 3229.51 5176.97 3229.51Z" fill="black"/>
<path d="M5239.3 3229.51H5218.53C5215.41 3229.51 5213.33 3227.43 5213.33 3224.32V3203.58C5213.33 3200.47 5215.41 3198.39 5218.53 3198.39H5239.3C5242.42 3198.39 5244.5 3200.47 5244.5 3203.58V3224.32C5244.5 3227.43 5242.42 3229.51 5239.3 3229.51Z" fill="black"/>
<path d="M5114.64 3291.74H5093.86C5090.75 3291.74 5088.67 3289.67 5088.67 3286.56V3265.81C5088.67 3262.7 5090.75 3260.62 5093.86 3260.62H5114.64C5117.76 3260.62 5119.83 3262.7 5119.83 3265.81V3286.56C5119.83 3289.67 5117.76 3291.74 5114.64 3291.74Z" fill="black"/>
<path d="M5176.97 3291.74H5156.19C5153.07 3291.74 5151 3289.67 5151 3286.56V3265.81C5151 3262.7 5153.07 3260.62 5156.19 3260.62H5176.97C5180.08 3260.62 5182.16 3262.7 5182.16 3265.81V3286.56C5182.16 3289.67 5180.08 3291.74 5176.97 3291.74Z" fill="black"/>
<path d="M5239.3 3291.74H5218.53C5215.41 3291.74 5213.33 3289.67 5213.33 3286.56V3265.81C5213.33 3262.7 5215.41 3260.62 5218.53 3260.62H5239.3C5242.42 3260.62 5244.5 3262.7 5244.5 3265.81V3286.56C5244.5 3289.67 5242.42 3291.74 5239.3 3291.74Z" fill="black"/>
<path d="M5306.83 2953.61V2925.61C5306.83 2918.35 5303.72 2912.13 5299.56 2907.98L5223.72 2832.26C5219.57 2827.07 5213.33 2825 5206.06 2825H5029.45C5015.94 2825 5005.56 2836.41 5005.56 2849.89V2949.46H4984.78C4984.78 2915.24 4956.73 2887.23 4922.44 2887.23H4880.89C4846.61 2887.23 4818.56 2915.24 4818.56 2949.46V2950.5C4794.66 2955.69 4777 2976.43 4777 3001.33V3312.49C4777 3341.53 4799.86 3364.35 4828.94 3364.35H5286.06C5315.14 3364.35 5338 3341.53 5338 3312.49V3001.33C5338 2980.58 5325.53 2961.91 5306.83 2953.61ZM5270.47 2907.98H5216.45C5214.37 2907.98 5213.33 2905.9 5213.33 2903.83V2850.93L5270.47 2907.98ZM5026.33 2849.89C5026.33 2847.82 5027.37 2845.74 5030.49 2845.74H5192.56V2903.83C5192.56 2917.31 5202.94 2928.72 5216.45 2928.72H5286.06V2949.46H5026.33V2849.89ZM4839.33 2949.46C4839.33 2926.65 4858.03 2907.98 4880.89 2907.98H4922.44C4945.3 2907.98 4964 2926.65 4964 2949.46V3260.63C4964 3283.45 4945.3 3302.11 4922.44 3302.11H4880.89C4858.03 3302.11 4839.33 3283.45 4839.33 3260.63V2949.46ZM5317.22 3312.49C5317.22 3330.12 5303.72 3343.6 5286.06 3343.6H4828.94C4811.28 3343.6 4797.78 3330.12 4797.78 3312.49V3001.33C4797.78 2987.84 4806.09 2976.43 4818.56 2972.28V3260.63C4818.56 3294.85 4846.61 3322.86 4880.89 3322.86H4922.44C4956.73 3322.86 4984.78 3294.85 4984.78 3260.63V2970.21H5286.06C5303.72 2970.21 5317.22 2983.69 5317.22 3001.33V3312.49Z" fill="black"/>
</mask>
<g mask="url(#mask4)">
<rect x="4656.35" y="2749.49" width="797.867" height="683.727" fill="#4F4F4F"/>
</g>
<defs>
<linearGradient id="paint0_linear" x1="3600.41" y1="1238.18" x2="3600.41" y2="4927" gradientUnits="userSpaceOnUse">
<stop offset="0.255208" stop-color="white" stop-opacity="0"/>
<stop offset="0.708333" stop-color="#EFEDE8"/>
</linearGradient>
<clipPath id="clip0">
<rect width="644.393" height="644.393" fill="white" transform="translate(1852.75 2784.35)"/>
</clipPath>
</defs>
</svg>
