<svg width="80" height="79" viewBox="0 0 80 79" fill="none" xmlns="http://www.w3.org/2000/svg">
<mask id="mask0" mask-type="alpha" maskUnits="userSpaceOnUse" x="6" y="13" width="69" height="58">
<path d="M40.3392 42.1021C39.7473 42.1021 39.3527 42.5105 39.3527 43.1232V52.7217L31.2633 57.6231C30.7701 57.9295 30.6714 58.5421 30.8687 59.0527C31.066 59.359 31.362 59.5633 31.7566 59.5633C31.9539 59.5633 32.0525 59.5633 32.2498 59.4611L40.3392 54.5598L48.4286 59.4611C48.6259 59.5633 48.7245 59.5633 48.9218 59.5633C49.2178 59.5633 49.6124 59.359 49.8097 59.0527C50.1057 58.5421 49.9084 57.9295 49.4151 57.6231L41.3257 52.7217V43.1232C41.3257 42.5105 40.9311 42.1021 40.3392 42.1021Z" fill="black"/>
<path d="M28.0998 41.0809H52.9598C53.5517 41.0809 53.9463 40.6725 53.9463 40.0598V37.9154C53.9463 32.9119 50.7895 28.3169 45.9556 26.2746C47.2381 24.845 48.1259 22.9049 48.1259 20.8627C48.1259 16.5739 44.6731 13 40.5298 13C36.3865 13 32.9337 16.5739 32.9337 20.8627C32.9337 23.007 33.7229 24.9471 35.104 26.2746C30.2701 28.3169 27.1133 32.8098 27.1133 37.9154V40.0598C27.1133 40.6725 27.5079 41.0809 28.0998 41.0809ZM40.5298 15.0422C43.588 15.0422 46.1529 17.6972 46.1529 20.8627C46.1529 22.9049 45.0677 24.7429 43.4893 25.764C42.6015 26.2746 41.615 26.6831 40.5298 26.6831C39.4446 26.6831 38.4581 26.3767 37.5703 25.764C35.9919 24.7429 34.9067 22.9049 34.9067 20.8627C34.9067 17.6972 37.4716 15.0422 40.5298 15.0422ZM29.0863 37.9154C29.0863 33.2182 32.2431 29.2359 36.9784 27.8063C38.0635 28.419 39.2473 28.7253 40.5298 28.7253C41.8123 28.7253 42.9961 28.419 44.0812 27.8063C48.7178 29.2359 51.9733 33.4225 51.9733 37.9154V39.0387H29.0863V37.9154Z" fill="black"/>
<path d="M66.8657 56.1935C68.1482 54.764 68.9374 52.8238 68.9374 50.7816C68.9374 46.4929 65.4846 42.9189 61.3413 42.9189C57.198 42.9189 53.7452 46.4929 53.7452 50.7816C53.7452 52.926 54.5344 54.8661 55.9155 56.2957C51.1803 58.3379 48.0234 62.7287 48.0234 67.8343V69.9787C48.0234 70.5914 48.418 70.9998 49.0099 70.9998H73.87C74.4619 70.9998 74.8565 70.5914 74.8565 69.9787V67.8343C74.8565 62.8308 71.601 58.2358 66.8657 56.1935ZM61.3413 44.9612C64.3995 44.9612 66.9644 47.6161 66.9644 50.7816C66.9644 53.9471 64.3995 56.602 61.3413 56.602C60.3548 56.602 59.4669 56.3978 58.6777 55.8872C58.5791 55.7851 58.3818 55.683 58.1845 55.5809C56.7047 54.5597 55.6196 52.7217 55.6196 50.6795C55.7182 47.6161 58.2831 44.9612 61.3413 44.9612ZM72.8835 68.9576H49.9965V67.8343C49.9965 63.2393 53.1533 59.1548 57.7899 57.7252C58.875 58.3379 60.0588 58.6442 61.3413 58.6442C62.6238 58.6442 63.9062 58.3379 64.9914 57.7252C69.628 59.1548 72.8835 63.3414 72.8835 67.8343V68.9576Z" fill="black"/>
<path d="M24.8423 56.1935C26.1248 54.764 26.914 52.8238 26.914 50.7816C26.914 46.4929 23.4612 42.9189 19.3179 42.9189C15.1745 42.9189 11.7218 46.4929 11.7218 50.7816C11.7218 52.926 12.511 54.8661 13.8921 56.2957C9.15683 58.3379 6 62.7287 6 67.8343V69.9787C6 70.5914 6.3946 70.9998 6.98651 70.9998H31.8465C32.4385 70.9998 32.8331 70.5914 32.8331 69.9787V67.8343C32.8331 62.8308 29.5776 58.2358 24.8423 56.1935ZM19.3179 44.9612C22.3761 44.9612 24.941 47.6161 24.941 50.7816C24.941 53.9471 22.3761 56.602 19.3179 56.602C18.3314 56.602 17.4435 56.3978 16.6543 55.8872C16.5556 55.7851 16.3583 55.683 16.161 55.5809C14.6813 54.5597 13.5961 52.7217 13.5961 50.6795C13.6948 47.6161 16.2597 44.9612 19.3179 44.9612ZM30.86 68.9576H7.97302V67.8343C7.97302 63.2393 11.1298 59.1548 15.7664 57.7252C16.8516 58.3379 18.0354 58.6442 19.3179 58.6442C20.6003 58.6442 21.8828 58.3379 22.968 57.7252C27.6046 59.1548 30.86 63.3414 30.86 67.8343V68.9576Z" fill="black"/>
</mask>
<g mask="url(#mask0)">
<rect x="1.58594" y="8.35303" width="76.1516" height="65.7673" fill="#DCB05A"/>
</g>
</svg>
