<svg width="80" height="82" viewBox="0 0 80 82" fill="none" xmlns="http://www.w3.org/2000/svg">
<mask id="mask0" mask-type="alpha" maskUnits="userSpaceOnUse" x="2" y="6" width="76" height="76">
<path d="M17.9971 30.4899H51.9918C52.6919 30.4899 53.2585 29.9233 53.2585 29.2232C53.2585 28.5231 52.6919 27.9565 51.9918 27.9565H17.9971C17.297 27.9565 16.7305 28.5231 16.7305 29.2232C16.7305 29.9233 17.297 30.4899 17.9971 30.4899Z" fill="black"/>
<path d="M17.9971 37.4044H51.9918C52.6919 37.4044 53.2585 36.8379 53.2585 36.1378C53.2585 35.4376 52.6919 34.8711 51.9918 34.8711H17.9971C17.297 34.8711 16.7305 35.4376 16.7305 36.1378C16.7305 36.8379 17.297 37.4044 17.9971 37.4044Z" fill="black"/>
<path d="M37.8309 41.7856H17.9971C17.297 41.7856 16.7305 42.3522 16.7305 43.0523C16.7305 43.7524 17.297 44.319 17.9971 44.319H37.8309C38.531 44.319 39.0975 43.7524 39.0975 43.0523C39.0975 42.3522 38.531 41.7856 37.8309 41.7856Z" fill="black"/>
<path d="M60.3944 38.7864V19.671C60.3944 18.9708 59.8279 18.4043 59.1277 18.4043H10.8682C10.1681 18.4043 9.60156 18.9708 9.60156 19.671V50.5682C9.60156 51.2684 10.1681 51.8349 10.8682 51.8349H14.5074V59.5227C14.5074 60.0052 14.782 60.4455 15.2137 60.6595C15.3919 60.7461 15.5836 60.7894 15.7741 60.7894C16.0475 60.7894 16.3208 60.7003 16.546 60.5272L27.8581 51.8349H44.2357V56.5119C44.2357 63.7779 56.2889 69.2553 56.8022 69.4854C56.9667 69.5584 57.1424 69.5955 57.3193 69.5955C57.4962 69.5955 57.6718 69.5584 57.8363 69.4854C58.3497 69.2553 70.4016 63.7779 70.4016 56.5119V44.6963C70.4016 44.3215 70.2346 43.9652 69.9476 43.724C66.7761 41.0731 63.5873 39.4302 60.3944 38.7864ZM27.4277 49.3016C27.1481 49.3016 26.8772 49.3943 26.6558 49.5638L17.0408 56.9523V50.5682C17.0408 49.8681 16.4742 49.3016 15.7741 49.3016H12.1349V20.9376H57.8611V38.5002C53.4607 38.3441 49.0589 40.0734 44.6897 43.724C44.4027 43.9652 44.2357 44.3215 44.2357 44.6963V49.3016H27.4277ZM67.8682 56.5119C67.8682 60.9416 60.6888 65.313 57.3193 66.9322C53.9497 65.313 46.7691 60.9416 46.7691 56.5119V45.2962C53.8632 39.6024 60.7766 39.6049 67.8682 45.2962V56.5119Z" fill="black"/>
<path d="M52.1193 54.6849C51.6245 54.1901 50.8229 54.1901 50.3281 54.6849C49.8333 55.1797 49.8333 55.9813 50.3281 56.4761L53.3674 59.5153C53.6049 59.7528 53.9265 59.8864 54.263 59.8864C54.5994 59.8864 54.921 59.7528 55.1585 59.5153L64.3097 50.3629C64.8045 49.8681 64.8045 49.0666 64.3097 48.5718C63.8149 48.077 63.0134 48.077 62.5186 48.5718L54.263 56.8286L52.1193 54.6849Z" fill="black"/>
</mask>
<g mask="url(#mask0)">
<rect x="2" y="5" width="76" height="77" fill="#DCB05A"/>
</g>
</svg>
