<svg width="2585" height="1723" viewBox="0 0 2585 1723" fill="none" xmlns="http://www.w3.org/2000/svg">
<g clip-path="url(#clip0)">
<path d="M1263 239.722C679.235 239.722 206 514.524 206 853.509C206 1113.96 485.371 1336.52 879.588 1425.66C905.182 1431.45 931.244 1436.66 957.775 1441.31C979.537 1445.11 1001.59 1448.52 1023.92 1451.52C1048.52 1454.82 1073.43 1457.62 1098.65 1459.91C1104.25 1460.42 1109.86 1460.9 1115.49 1461.37C1163.69 1465.28 1212.86 1467.25 1263 1467.3C1396.4 1467.3 1524.03 1452.94 1641.55 1426.76C2038.33 1338.35 2320 1115.03 2320 853.509C2320 514.524 1846.76 239.722 1263 239.722Z" fill="#E0F0F2" stroke="#C5DAFD" stroke-width="0.99376" stroke-miterlimit="10"/>
<path d="M2383.65 987.432C2390.65 987.432 2396.33 982.083 2396.33 975.485C2396.33 968.887 2390.65 963.538 2383.65 963.538C2376.64 963.538 2370.96 968.887 2370.96 975.485C2370.96 982.083 2376.64 987.432 2383.65 987.432Z" fill="white" stroke="white" stroke-width="2.98127" stroke-miterlimit="10"/>
<path d="M1584.69 570.26C1591.69 570.26 1597.37 564.911 1597.37 558.313C1597.37 551.715 1591.69 546.366 1584.69 546.366C1577.68 546.366 1572 551.715 1572 558.313C1572 564.911 1577.68 570.26 1584.69 570.26Z" fill="white" stroke="white" stroke-width="2.98127" stroke-miterlimit="10"/>
<path d="M1041.69 1017.74C1048.69 1017.74 1054.37 1012.39 1054.37 1005.79C1054.37 999.195 1048.69 993.847 1041.69 993.847C1034.68 993.847 1029 999.195 1029 1005.79C1029 1012.39 1034.68 1017.74 1041.69 1017.74Z" fill="white" stroke="white" stroke-width="2.98127" stroke-miterlimit="10"/>
<path d="M392.685 925.847C399.691 925.847 405.37 920.498 405.37 913.9C405.37 907.302 399.691 901.953 392.685 901.953C385.679 901.953 380 907.302 380 913.9C380 920.498 385.679 925.847 392.685 925.847Z" fill="white" stroke="white" stroke-width="2.98127" stroke-miterlimit="10"/>
<path d="M1387.47 1451.6C1394.48 1451.6 1400.16 1446.25 1400.16 1439.65C1400.16 1433.05 1394.48 1427.7 1387.47 1427.7C1380.46 1427.7 1374.79 1433.05 1374.79 1439.65C1374.79 1446.25 1380.46 1451.6 1387.47 1451.6Z" fill="white" stroke="white" stroke-width="2.98127" stroke-miterlimit="10"/>
<path d="M272.395 749.728C275.614 736.885 267.169 724.016 253.533 720.984C239.896 717.952 226.232 725.906 223.012 738.749C219.793 751.592 228.238 764.461 241.875 767.493C255.512 770.524 269.176 762.571 272.395 749.728Z" fill="white" stroke="white" stroke-width="2.98127" stroke-miterlimit="10"/>
<path d="M1803.67 399.258C1806.89 386.415 1798.45 373.546 1784.81 370.514C1771.17 367.482 1757.51 375.436 1754.29 388.279C1751.07 401.122 1759.52 413.991 1773.15 417.023C1786.79 420.055 1800.45 412.101 1803.67 399.258Z" fill="white" stroke="white" stroke-width="2.98127" stroke-miterlimit="10"/>
<path d="M776.059 1366.14C779.278 1353.3 770.833 1340.43 757.197 1337.4C743.56 1334.36 729.896 1342.32 726.676 1355.16C723.457 1368 731.902 1380.87 745.539 1383.9C759.176 1386.94 772.84 1378.98 776.059 1366.14Z" fill="white" stroke="white" stroke-width="2.98127" stroke-miterlimit="10"/>
<path d="M893.129 384.778C896.349 371.934 887.903 359.065 874.267 356.034C860.63 353.002 846.966 360.955 843.747 373.798C840.528 386.641 848.973 399.511 862.609 402.542C876.246 405.574 889.91 397.621 893.129 384.778Z" fill="white" stroke="white" stroke-width="2.98127" stroke-miterlimit="10"/>
<path d="M2034.99 611.679C2038.12 535.876 1977.23 471.972 1898.98 468.945C1820.74 465.918 1754.79 524.914 1751.66 600.718C1748.54 676.521 1809.43 740.426 1887.67 743.452C1965.91 746.479 2031.87 687.483 2034.99 611.679Z" fill="#E0F0F2"/>
<path d="M1893.33 748.464C1812.36 748.464 1746.49 684.642 1746.49 606.195C1746.49 527.748 1812.36 463.927 1893.33 463.927C1974.3 463.927 2040.18 527.748 2040.18 606.195C2040.18 684.642 1974.3 748.464 1893.33 748.464ZM1893.33 473.738C1817.95 473.738 1756.62 533.158 1756.62 606.195C1756.62 679.232 1817.95 738.652 1893.33 738.652C1968.72 738.652 2030.05 679.232 2030.05 606.195C2030.05 533.158 1968.72 473.738 1893.33 473.738Z" fill="#088B8C"/>
<path d="M1947.94 671.089H1838.74C1813.77 671.089 1793.53 651.478 1793.53 627.288V583.454C1793.53 559.264 1813.77 539.653 1838.74 539.653H1947.94C1972.91 539.653 1993.15 559.264 1993.15 583.454V627.288C1993.15 651.478 1972.91 671.089 1947.94 671.089Z" fill="#E0F0F2"/>
<path d="M1960.98 674.769H1825.68C1805.85 674.769 1789.72 659.14 1789.72 639.927V570.812C1789.72 551.601 1805.85 535.972 1825.68 535.972H1960.98C1980.81 535.972 1996.94 551.601 1996.94 570.812V639.927C1996.94 659.14 1980.81 674.769 1960.98 674.769ZM1825.68 543.331C1810.04 543.331 1797.32 555.66 1797.32 570.812V639.927C1797.32 655.079 1810.04 667.41 1825.68 667.41H1960.97C1976.62 667.41 1989.34 655.081 1989.34 639.927V570.812C1989.34 555.66 1976.61 543.331 1960.97 543.331H1825.68Z" fill="#088B8C"/>
<path d="M1921.83 633.005C1937.58 617.749 1937.58 593.013 1921.83 577.757C1906.09 562.501 1880.56 562.501 1864.81 577.757C1849.06 593.013 1849.06 617.748 1864.81 633.005C1880.56 648.261 1906.09 648.261 1921.83 633.005Z" fill="#E0F0F2"/>
<path d="M1893.33 647.503C1869.35 647.503 1849.84 628.602 1849.84 605.371C1849.84 582.14 1869.35 563.238 1893.33 563.238C1917.31 563.238 1936.82 582.137 1936.82 605.371C1936.82 628.604 1917.31 647.503 1893.33 647.503ZM1893.33 569.373C1872.84 569.373 1856.17 585.523 1856.17 605.373C1856.17 625.224 1872.84 641.374 1893.33 641.374C1913.82 641.374 1930.49 625.224 1930.49 605.373C1930.49 585.523 1913.82 569.373 1893.33 569.373Z" fill="#088B8C"/>
<path d="M1901.2 584.386H1885.47V626.358H1901.2V584.386Z" fill="#088B8C"/>
<path d="M1914.99 612.989V597.754H1871.67V612.989H1914.99Z" fill="#088B8C"/>
<path d="M1936.96 519.156C1936.96 523.362 1933.43 526.774 1929.09 526.774H1857.56C1853.22 526.774 1849.7 523.365 1849.7 519.156C1849.7 514.951 1853.22 511.539 1857.56 511.539H1929.09C1933.44 511.542 1936.96 514.951 1936.96 519.156Z" fill="#088B8C"/>
<path d="M2034.99 611.678C2038.12 535.875 1977.22 471.971 1898.98 468.944C1820.74 465.917 1754.78 524.913 1751.66 600.717C1748.53 676.52 1809.43 740.425 1887.67 743.452C1965.91 746.478 2031.87 687.482 2034.99 611.678Z" fill="#E0F0F2"/>
<path d="M1893.33 748.464C1812.36 748.464 1746.49 684.642 1746.49 606.195C1746.49 527.748 1812.36 463.927 1893.33 463.927C1974.3 463.927 2040.18 527.748 2040.18 606.195C2040.18 684.642 1974.3 748.464 1893.33 748.464ZM1893.33 473.738C1817.95 473.738 1756.62 533.158 1756.62 606.195C1756.62 679.232 1817.95 738.652 1893.33 738.652C1968.72 738.652 2030.05 679.232 2030.05 606.195C2030.05 533.158 1968.72 473.738 1893.33 473.738Z" fill="#088B8C"/>
<path d="M1947.94 671.089H1838.73C1813.76 671.089 1793.52 651.478 1793.52 627.288V583.454C1793.52 559.264 1813.76 539.653 1838.73 539.653H1947.94C1972.9 539.653 1993.14 559.264 1993.14 583.454V627.288C1993.14 651.478 1972.9 671.089 1947.94 671.089Z" fill="#E0F0F2"/>
<path d="M1960.97 674.768H1825.68C1805.85 674.768 1789.72 659.139 1789.72 639.926V570.811C1789.72 551.6 1805.85 535.971 1825.68 535.971H1960.97C1980.8 535.971 1996.93 551.6 1996.93 570.811V639.926C1996.93 659.139 1980.8 674.768 1960.97 674.768ZM1825.68 543.33C1810.04 543.33 1797.31 555.659 1797.31 570.811V639.926C1797.31 655.078 1810.04 667.409 1825.68 667.409H1960.97C1976.61 667.409 1989.33 655.081 1989.33 639.926V570.811C1989.33 555.659 1976.61 543.33 1960.97 543.33H1825.68Z" fill="#088B8C"/>
<path d="M1921.83 633.004C1937.58 617.748 1937.58 593.012 1921.83 577.756C1906.09 562.5 1880.56 562.5 1864.81 577.756C1849.06 593.012 1849.06 617.747 1864.81 633.004C1880.56 648.26 1906.09 648.26 1921.83 633.004Z" fill="#E0F0F2"/>
<path d="M1893.33 647.502C1869.35 647.502 1849.84 628.601 1849.84 605.37C1849.84 582.139 1869.35 563.237 1893.33 563.237C1917.3 563.237 1936.81 582.136 1936.81 605.37C1936.81 628.603 1917.3 647.502 1893.33 647.502ZM1893.33 569.372C1872.84 569.372 1856.17 585.522 1856.17 605.372C1856.17 625.223 1872.84 641.373 1893.33 641.373C1913.82 641.373 1930.48 625.223 1930.48 605.372C1930.48 585.522 1913.82 569.372 1893.33 569.372Z" fill="#088B8C"/>
<path d="M1901.2 584.385H1885.47V626.357H1901.2V584.385Z" fill="#088B8C"/>
<path d="M1914.99 612.989V597.754H1871.67V612.989H1914.99Z" fill="#088B8C"/>
<path d="M1936.96 519.155C1936.96 523.361 1933.43 526.773 1929.09 526.773H1857.56C1853.22 526.773 1849.7 523.364 1849.7 519.155C1849.7 514.95 1853.22 511.538 1857.56 511.538H1929.09C1933.44 511.541 1936.96 514.95 1936.96 519.155Z" fill="#088B8C"/>
<path d="M1379.98 900.057H1407.11V893.961H1379.98V900.057Z" fill="#D4E0E4"/>
<path d="M1323.85 665.535C1323.85 666.507 1323.92 667.454 1324.07 668.385C1325.49 677.89 1333.95 685.205 1344.16 685.205C1355.36 685.205 1364.46 676.386 1364.46 665.538C1364.46 664.566 1364.39 663.619 1364.24 662.688C1362.82 653.186 1354.36 645.86 1344.16 645.86C1332.96 645.86 1323.85 654.684 1323.85 665.535ZM1353.56 664.906C1353.58 665.11 1353.59 665.321 1353.59 665.535C1353.59 670.571 1349.36 674.664 1344.16 674.664C1339.66 674.664 1335.89 671.603 1334.96 667.521C1334.81 666.884 1334.73 666.214 1334.73 665.538C1334.73 660.499 1338.96 656.402 1344.16 656.402C1349.14 656.399 1353.23 660.164 1353.56 664.906Z" fill="#6C82A8"/>
<path d="M1233.15 1002.99C1233.15 1002.99 1166.15 1205.05 1162.3 1277.1C1160.66 1307.76 1163.79 1417.23 1145 1471.04C1147.2 1481.01 1207.77 1505.4 1221.86 1485.26C1235.9 1465.18 1282.87 1357.78 1286.17 1317.56C1286.9 1308.59 1271.95 1292.93 1263.09 1279.4C1282.59 1245.23 1363 1117.95 1363 1117.95L1292.16 963L1233.15 1002.99Z" fill="#088B8C"/>
<path d="M1347.05 599C1376.22 604.294 1498.09 612.782 1534.08 676.553C1549.24 703.421 1500.82 1087.67 1491.75 1099.44C1477.2 1118.31 1285.09 1143.69 1255.13 1099.44C1246.64 1086.89 1159.63 710.553 1218.04 652.718C1247.55 623.491 1347.05 599 1347.05 599Z" fill="#088B8C"/>
<path d="M1252.97 404.008C1225.39 421.599 1232.95 472.803 1267.67 494.458C1285.59 505.631 1348.35 535.291 1360.62 527.864C1372.88 520.435 1392.16 462.826 1377.09 430.781C1372.21 420.421 1360.76 408.876 1345.93 406.64C1331.71 404.495 1326.56 396.679 1308.14 389.064C1288.04 380.751 1267.14 394.977 1252.97 404.008Z" fill="#150F42"/>
<path d="M1364.57 458.62C1370.03 506.281 1383.25 596.033 1386.92 604.571C1390.59 613.106 1354.78 632.131 1328.91 632.314C1293.25 632.567 1272.38 619.509 1272.38 611.685C1272.38 603.859 1284.12 524.78 1284.12 524.78L1312.05 464.907L1364.57 458.62Z" fill="#F9A2A2"/>
<path d="M1287.9 438.082C1278.21 440.864 1268.31 428.152 1262.36 434.835C1254.05 444.183 1251.01 448.951 1252.17 472.803C1254.27 516.049 1277.92 565.077 1293.36 565.936C1341.16 568.597 1360.73 507.896 1361.2 505C1364.5 485.044 1360.42 487.932 1363.66 479.67C1366.9 471.408 1374.54 457.785 1369.98 451.945C1365.42 446.104 1356.84 455.905 1356.84 455.905C1356.84 455.905 1354.86 445.338 1338.41 431.292C1328.21 422.582 1314.05 430.57 1287.9 438.082Z" fill="#FDAFAF"/>
<path d="M1313.67 456.262C1313.67 456.262 1331.01 452.292 1348.71 453.112L1349.5 460.5C1349.5 460.5 1340 453.059 1313 460L1313.67 456.262Z" fill="#000120" stroke="#000120" stroke-miterlimit="10"/>
<path d="M1528.77 1362.62C1526.96 1362.62 1525.37 1361.35 1525.05 1359.57C1524.7 1357.58 1526.09 1355.69 1528.15 1355.35C1530.91 1354.89 1534.19 1354.37 1537.81 1353.8C1557.79 1350.61 1604.02 1343.24 1611.55 1338.22C1614.07 1329.17 1598.29 1258.61 1581.3 1194.57C1580.78 1192.62 1582 1190.62 1584.02 1190.12C1586.02 1189.61 1588.09 1190.79 1588.61 1192.75C1588.71 1193.11 1598.04 1228.35 1606.31 1263.94C1623.49 1337.98 1619.52 1341.29 1616.88 1343.47C1609.82 1349.34 1576.03 1355.12 1539.04 1361.02C1535.43 1361.6 1532.17 1362.11 1529.41 1362.57C1529.19 1362.6 1528.98 1362.62 1528.77 1362.62Z" fill="#BCE1E5"/>
<path d="M1292.19 455.086C1292.19 455.086 1274.78 451.117 1257.1 452.06L1255.37 457.619C1255.37 457.619 1263.5 451.918 1292.93 458.915L1292.19 455.086Z" fill="#000120" stroke="#000120" stroke-miterlimit="10"/>
<path d="M1303 538.155C1303 538.155 1316.74 542.755 1321.72 529" stroke="black" stroke-width="2" stroke-miterlimit="10"/>
<path d="M1328.8 474.106C1328.8 477.716 1326.61 480.642 1323.9 480.642C1321.19 480.642 1319 477.716 1319 474.106C1319 470.496 1321.19 467.57 1323.9 467.57C1326.61 467.57 1328.8 470.496 1328.8 474.106Z" fill="black" stroke="black" stroke-width="2" stroke-miterlimit="10"/>
<path d="M1323.9 467.57C1323.9 467.57 1329.27 465.411 1338.26 469.496" stroke="black" stroke-width="2" stroke-miterlimit="10"/>
<path d="M1276.75 479.489C1279.45 479.489 1281.65 476.563 1281.65 472.954C1281.65 469.344 1279.45 466.418 1276.75 466.418C1274.04 466.418 1271.84 469.344 1271.84 472.954C1271.84 476.563 1274.04 479.489 1276.75 479.489Z" fill="black" stroke="black" stroke-width="2" stroke-miterlimit="10"/>
<path d="M1276.74 466.418C1276.74 466.418 1271.38 464.259 1262.39 468.343" stroke="black" stroke-width="2" stroke-miterlimit="10"/>
<path d="M1482.31 1037C1504.03 1095.74 1515.97 1203.45 1516 1255.98C1546.49 1268.91 1566.32 1284.93 1569.68 1292.45C1586.42 1329.87 1584.97 1459.98 1584.97 1464.36C1579.59 1469.96 1521.95 1471.5 1518.77 1463.24L1480.65 1389.34C1480.65 1389.34 1438.72 1301.7 1421.33 1276.05C1350.03 1170.93 1260 1052.34 1260 1052.34L1482.31 1037Z" fill="#088B8C"/>
<path d="M1275.59 584.383C1271.54 582.939 1253.12 610.876 1251.96 617.13C1250.8 623.385 1285.41 662.501 1293.65 658.509C1301.89 654.517 1308.44 638.47 1311.68 637.222C1316.72 635.273 1319.75 662.501 1329.77 662.501C1339.79 662.501 1415.25 630.796 1415.7 609.987C1415.75 607.62 1382.2 569.835 1380.25 570.81C1375.8 573.045 1346.06 599.644 1309.72 599.644C1290.76 599.646 1279.1 585.634 1275.59 584.383Z" fill="white"/>
<path d="M1275.59 584.383C1271.54 582.939 1253.12 610.876 1251.96 617.13C1250.8 623.385 1285.41 662.501 1293.65 658.509C1301.89 654.517 1308.44 638.47 1311.68 637.222C1316.72 635.273 1319.75 662.501 1329.77 662.501C1339.79 662.501 1415.25 630.796 1415.7 609.987C1415.75 607.62 1382.2 569.835 1380.25 570.81C1375.8 573.045 1346.06 599.644 1309.72 599.644C1290.76 599.646 1279.1 585.634 1275.59 584.383Z" fill="url(#paint0_linear)"/>
<path d="M1312.39 609.548L1297.24 652.841C1297.24 652.841 1301.97 671.283 1304.82 679.264C1297.24 693.632 1277.25 885.753 1304.82 951.746C1333.17 917.687 1351.25 883.626 1351.25 883.626C1351.25 883.626 1311.51 734.612 1315.9 679.264C1320.98 668.619 1325.31 648.906 1325.31 648.906L1312.39 609.548Z" fill="#F9B233"/>
<path d="M1329.78 664.935C1328.71 664.935 1327.73 664.272 1327.39 663.238L1312.32 617.343L1296.24 663.282C1296 663.983 1295.44 664.535 1294.72 664.79C1293.99 665.04 1293.21 664.96 1292.55 664.576C1291.29 663.826 1261.47 645.93 1250.66 621.58C1250.11 620.345 1250.7 618.914 1251.98 618.383C1253.26 617.854 1254.73 618.426 1255.28 619.659C1263.65 638.522 1285.02 653.808 1292.53 658.746L1310.01 608.769C1310.36 607.777 1311.26 607.08 1312.42 607.117C1313.5 607.127 1314.46 607.81 1314.79 608.813L1331.42 659.473C1342.71 656.031 1391.81 639.945 1411.38 615.17C1412.21 614.105 1413.79 613.896 1414.9 614.718C1416 615.536 1416.21 617.062 1415.36 618.13C1392.3 647.351 1332.99 664.146 1330.47 664.847C1330.24 664.904 1330.01 664.935 1329.78 664.935Z" fill="#BCE1E5"/>
<path d="M853.382 714.521C856.241 693.601 835.345 676.665 831.427 671.67C827.507 666.675 823.515 660.014 820.417 664.45C817.319 668.885 821.915 679.981 821.745 685.527C821.574 691.074 794.113 664.981 788.185 661.095C782.258 657.206 768.141 652.317 767.111 657.944C766.081 663.573 787.954 674.684 789.053 681.064C790.152 687.443 759.297 669.362 755.219 674.504C751.145 679.645 749.651 702.108 754.104 709.877C758.557 717.647 809.153 745.976 812.538 748.198C815.927 750.421 847.868 753.309 847.868 753.309L853.382 714.521Z" fill="#FDAFAF"/>
<path d="M1220.12 623.859C1176.01 642.227 1026.86 755.844 984.647 747.108C942.432 738.371 856.927 704.483 856.927 704.483C856.927 704.483 831.667 740.775 840.46 752.887C849.257 764.996 975.313 856.259 1004.07 863.526C1053.18 875.942 1189.93 786.76 1189.93 786.76L1220.12 623.859Z" fill="white"/>
<path d="M1402.52 593.408C1408.19 650.528 1402.52 1147.67 1329 1255.54C1422.51 1278.06 1606.8 1321.84 1606.8 1321.84C1606.8 1321.84 1548.55 1046.54 1550.28 994.979C1552.02 943.417 1561.95 701.022 1545.63 666.492C1526.01 624.981 1402.52 593.408 1402.52 593.408Z" fill="white"/>
<path d="M1258.44 604.352C1258.44 604.352 1220.61 614.063 1182.79 648.812C1134.01 693.634 1184.42 914.182 1174.05 982.17C1160.93 1068.19 1105.86 1315.64 1111.88 1324.15C1117.9 1332.67 1545.91 1316.29 1570 1309.98C1594.09 1303.66 1349.5 1127.69 1258.44 944.903C1209.42 846.51 1258.44 604.352 1258.44 604.352Z" fill="white"/>
<path d="M1533.42 1029.49L1508.71 1063.81C1508.71 1063.81 1485.33 1102.93 1482.19 1109.32C1479.04 1115.7 1473.27 1130.07 1476.57 1131.67C1479.87 1133.26 1532.6 1126.88 1539.19 1124.48C1545.79 1122.09 1539.98 1079.49 1545.77 1076.84C1551.56 1074.19 1591.85 1017.51 1591.85 1017.51L1533.42 1029.49Z" fill="#FDAFAF"/>
<path d="M1545.62 666.491C1600.43 731.419 1701.51 863.125 1701.51 897.186C1701.51 931.245 1566.04 1074.71 1566.04 1074.71L1515.29 1042.47C1515.29 1042.47 1582.86 902.506 1587.8 889.734C1592.75 876.962 1485.63 813.376 1482.34 771.865C1479.04 730.357 1527.36 644.854 1545.62 666.491Z" fill="white"/>
<path d="M1454.09 1260.53C1447.75 1260.53 1443.2 1259.8 1441.6 1258.04C1435.7 1251.51 1424.59 1167.98 1420.09 1132.36C1419.97 1131.37 1420.27 1130.36 1420.94 1129.59C1421.6 1128.81 1422.56 1128.33 1423.59 1128.27L1545.09 1120.44C1546.1 1120.37 1547.11 1120.71 1547.87 1121.37C1548.63 1122.03 1549.07 1122.96 1549.11 1123.95C1549.28 1128.19 1553.12 1227.91 1552.15 1236.85C1551.8 1240.08 1548.97 1242.88 1535.99 1246.87C1521.06 1251.45 1476.47 1260.53 1454.09 1260.53ZM1447.19 1252.98C1458.11 1256.78 1536.68 1242.62 1544.68 1235.45C1545.24 1225.83 1542.86 1158.3 1541.71 1127.99L1428.08 1135.31C1434.83 1188.16 1443.57 1245.6 1447.19 1252.98Z" fill="#BCE1E5"/>
<path d="M1548.45 853.913C1547.4 853.913 1546.35 853.487 1545.61 852.662C1516.02 819.893 1488.67 789.199 1479.1 773.748C1478.02 772.018 1478.6 769.769 1480.39 768.727C1482.18 767.691 1484.5 768.25 1485.58 769.983C1495.59 786.151 1527.78 821.806 1551.29 847.842C1552.66 849.364 1552.5 851.674 1550.93 853.007C1550.22 853.613 1549.34 853.913 1548.45 853.913Z" fill="#BCE1E5"/>
<path d="M1395.78 910.124C1395.29 910.124 1394.79 910.028 1394.31 909.835C1392.39 909.046 1391.49 906.901 1392.3 905.039C1407.73 869.701 1453.15 758.1 1452.58 745.738C1450.65 743.709 1441.13 741.695 1435.35 740.47C1422.87 737.832 1412.08 735.548 1411.93 728.049C1411.77 719.97 1430.92 685.254 1457.99 637.093L1465.03 624.553C1466.03 622.779 1468.32 622.124 1470.16 623.083C1471.99 624.047 1472.67 626.268 1471.67 628.047L1464.63 640.592C1447.71 670.687 1419.39 721.061 1419.48 727.912C1420.58 729.857 1431.24 732.113 1436.96 733.325C1447.41 735.532 1456.43 737.443 1459.35 742.394C1460.85 744.929 1463.1 748.755 1434.88 820.888C1420.66 857.228 1404.41 896.088 1399.26 907.893C1398.65 909.286 1397.25 910.124 1395.78 910.124Z" fill="#BCE1E5"/>
<path d="M1226.35 913.909C1224.8 913.909 1223.35 912.978 1222.8 911.485C1218.03 898.582 1184.69 753.605 1186.63 743.281C1187.8 737.051 1196.26 733.943 1206.07 730.344C1212.24 728.077 1222.58 724.281 1222.58 721.218C1222.58 717.247 1219.62 707.796 1216.19 696.847C1211.23 681.032 1204.45 659.377 1200.58 636.12C1200.25 634.122 1201.64 632.247 1203.7 631.925C1205.78 631.6 1207.7 632.961 1208.03 634.952C1211.82 657.719 1218.52 679.106 1223.41 694.72C1227.31 707.169 1230.13 716.161 1230.13 721.215C1230.13 729.33 1219.26 733.322 1208.74 737.182C1203.75 739.013 1194.47 742.425 1194.06 744.585C1192.98 754.044 1224.42 894.177 1229.91 909.01C1230.61 910.91 1229.59 913.006 1227.63 913.687C1227.21 913.839 1226.78 913.909 1226.35 913.909Z" fill="#BCE1E5"/>
<path d="M1573.65 1069.63C1572.77 1069.63 1571.88 1069.34 1571.15 1068.74C1569.52 1067.4 1569.31 1065.03 1570.69 1063.45C1571.01 1063.08 1602.95 1026.55 1620.3 1009.75C1640 990.657 1697.29 902.759 1690.57 883.327C1680.2 853.332 1626.14 776.319 1529.91 654.426C1528.61 652.781 1528.93 650.424 1530.63 649.166C1532.33 647.903 1534.76 648.22 1536.06 649.865C1632.81 772.417 1687.27 850.163 1697.91 880.941C1706.67 906.253 1642.12 999.216 1625.77 1015.05C1608.66 1031.63 1576.93 1067.93 1576.61 1068.3C1575.84 1069.18 1574.75 1069.63 1573.65 1069.63Z" fill="#BCE1E5"/>
<path d="M1519.94 1042.26C1519.57 1042.26 1519.19 1042.21 1518.82 1042.1C1516.77 1041.51 1515.61 1039.41 1516.22 1037.43C1520.13 1024.82 1581.66 893.755 1584.28 888.183C1585.16 886.295 1587.46 885.459 1589.41 886.321C1591.36 887.179 1592.22 889.402 1591.33 891.29C1569.23 938.339 1526.65 1029.88 1523.65 1039.58C1523.14 1041.21 1521.6 1042.26 1519.94 1042.26Z" fill="#BCE1E5"/>
<path d="M986.684 751.128C985.737 751.128 984.861 751.071 984.05 750.953C940.355 744.627 858.744 709.524 855.289 708.034C853.267 707.16 852.356 704.862 853.259 702.902C854.161 700.943 856.535 700.063 858.555 700.935C859.391 701.296 942.623 737.095 985.234 743.266C1009.37 746.755 1122.83 678.921 1164.49 652.482C1166.35 651.309 1168.84 651.812 1170.05 653.604C1171.26 655.399 1170.74 657.807 1168.89 658.986C1153.7 668.627 1022.61 751.128 986.684 751.128Z" fill="#BCE1E5"/>
<path d="M1554.43 956.264C1552.42 956.264 1550.69 954.809 1550.45 952.832C1547.79 930.931 1543.91 854.761 1543.74 851.527C1543.64 849.384 1545.34 847.561 1547.55 847.456C1549.79 847.332 1551.65 849.003 1551.76 851.146C1551.8 851.935 1555.79 930.281 1558.42 951.924C1558.68 954.054 1557.1 955.985 1554.9 956.238C1554.75 956.256 1554.59 956.264 1554.43 956.264Z" fill="#BCE1E5"/>
<path d="M704.967 704.975C663.096 705.058 623.695 689.337 594.023 660.707C564.352 632.076 547.96 593.964 547.869 553.39C547.778 512.816 563.998 474.639 593.539 445.89C623.083 417.14 662.412 401.263 704.284 401.179C746.155 401.096 785.555 416.817 815.228 445.447C844.899 474.078 861.29 512.191 861.382 552.764C861.473 593.338 845.253 631.515 815.711 660.265C786.168 689.012 746.838 704.891 704.967 704.975ZM704.295 406.103C620.66 406.27 552.768 472.338 552.95 553.38C553.133 634.422 621.322 700.218 704.956 700.051C788.59 699.884 856.482 633.816 856.3 552.774C856.118 471.732 787.929 405.936 704.295 406.103Z" fill="#BF323F"/>
<path d="M705.773 449.116C709.373 449.688 712.499 452.766 712.763 456.007C713.326 463.004 713.616 466.503 714.197 473.5C712.11 473.377 710.081 473.417 708.26 473.826C708.238 473.844 708.224 473.857 708.197 473.855C705.609 473.47 703.246 473.4 701.278 473.775C700.648 465.842 700.341 461.875 699.735 453.941C699.486 450.706 702.205 448.549 705.773 449.116Z" fill="#BF323F"/>
<path d="M683.338 457.002C680.49 458.938 678.958 462.383 679.92 464.707C682.006 469.724 683.043 472.233 685.11 477.257C686.84 476.276 688.579 475.432 690.275 474.93C690.3 474.932 690.316 474.936 690.337 474.924C692.395 473.55 694.379 472.487 696.19 471.898C693.819 466.215 692.626 463.376 690.234 457.706C689.265 455.388 686.163 455.084 683.338 457.002Z" fill="#BF323F"/>
<path d="M731.827 475.295C728.72 473.83 725.17 472.699 721.629 472.107C722.681 464.922 724.352 455.173 724.362 455.084C724.765 452.793 727.347 451.665 730.148 452.571C732.936 453.473 734.92 456.062 734.522 458.369L734.528 458.372C734.528 458.372 733.73 463.114 732.889 468.355C732.521 470.675 732.142 473.129 731.827 475.295Z" fill="#BF323F"/>
<path d="M739.569 490.79C739.581 490.375 739.579 489.958 739.563 489.539C739.052 476.427 724.835 466.096 707.808 466.464C690.781 466.831 677.392 477.76 677.905 490.871C677.921 491.29 677.952 491.707 677.997 492.12L739.569 490.79Z" fill="#BF323F"/>
<path d="M776.787 468.292C775.942 467.872 775.057 467.388 774.044 467.267C750.117 464.403 697.616 483.779 698.471 513.773C698.577 517.471 699.533 520.568 701.093 522.886C703.853 526.999 708.851 529.211 713.446 525.782C729.479 510.368 744.986 497.18 767.25 490.92C768.212 490.649 781.305 487.878 781.679 489.165C782.205 482.687 780.065 472.53 776.787 468.292Z" fill="#D14754"/>
<path d="M671.513 502.389C672.041 496.936 671.292 491.586 670.396 486.374C669.154 479.149 665.592 474.924 666.779 467.139C667.968 459.341 669.41 451.828 670.151 444.024C670.335 442.094 668.821 440.39 666.791 440.216L658.655 439.513C655.292 439.223 652.246 441.429 651.667 444.588C649.954 453.94 648.885 463.253 646.366 472.362C645.495 476.496 644.549 480.603 643.477 484.67C640.294 496.754 636.806 508.234 634.82 520.112C635.558 527.958 638.085 535.018 643.58 539.713C653.995 548.611 663.917 538.318 668.43 524.837C669.915 520.404 670.478 515.22 670.885 510.167C671.104 507.497 671.274 504.86 671.513 502.389Z" fill="#BF323F"/>
<path d="M737.253 483.527C728.04 479.424 717.836 477.127 707.732 476.968C689.308 476.674 671.61 483.233 655.344 491.192C620.733 508.128 623.413 596.126 655.229 626.166C671.25 641.294 709.42 674.323 734.311 661.915C750.824 653.684 751.653 636.154 754.214 620.49C757.175 602.38 760.268 584.915 765.664 567.31C770.64 551.071 775.304 534.023 769.924 517.263C765.045 502.063 752.508 490.32 737.253 483.527Z" fill="#D14754"/>
<path d="M651.22 580.063C650.195 580.063 649.321 579.305 649.227 578.298C649.127 577.231 649.941 576.287 651.04 576.191C664.478 575.016 677.674 567.56 691.389 553.396C693.989 550.71 696.703 547.468 699.576 544.033C709.805 531.809 721.402 517.952 737.365 516.65C754.587 515.254 759.975 526.017 760.194 526.475C760.663 527.446 760.231 528.602 759.227 529.055C758.226 529.504 757.03 529.091 756.565 528.119C756.391 527.772 752.015 519.34 737.701 520.519C723.438 521.682 712.415 534.856 702.689 546.478C699.768 549.968 697.012 553.263 694.312 556.051C679.897 570.939 665.861 578.791 651.402 580.057C651.342 580.061 651.279 580.063 651.22 580.063Z" fill="#BF323F"/>
<path d="M750.51 587.735C750.419 587.735 750.325 587.729 750.231 587.716C725.084 584.316 705.635 568.59 699.477 546.681C699.187 545.648 699.817 544.581 700.885 544.298C701.951 544.01 703.051 544.626 703.344 545.661C709.074 566.047 727.253 580.688 750.784 583.872C751.88 584.02 752.645 585.002 752.49 586.063C752.351 587.033 751.493 587.735 750.51 587.735Z" fill="#BF323F"/>
<path d="M688.083 610.59C687.972 610.59 687.856 610.58 687.743 610.561C686.653 610.379 685.92 609.377 686.107 608.321C690.196 585.233 694.975 579.774 713.633 566.452C714.522 565.819 715.779 566.001 716.435 566.864C717.092 567.726 716.9 568.941 716.01 569.578C697.849 582.543 693.95 586.999 690.057 608.975C689.889 609.922 689.042 610.59 688.083 610.59Z" fill="#BF323F"/>
<path d="M667.947 500.782C662.416 500.782 657.354 499.716 654.366 496.974C653.564 496.237 653.531 495.008 654.29 494.231C655.053 493.452 656.321 493.422 657.123 494.157C662.643 499.231 681.218 496.547 688.868 492.116C690.811 490.99 692.773 489.709 694.67 488.473C700.465 484.696 706.455 480.788 713.667 479.924C714.753 479.784 715.764 480.547 715.901 481.613C716.038 482.676 715.258 483.646 714.158 483.777C707.896 484.528 702.558 488.009 696.908 491.694C694.968 492.958 692.961 494.267 690.924 495.448C686.063 498.261 676.452 500.782 667.947 500.782Z" fill="#BF323F"/>
<path d="M644.817 532.72C644.648 532.72 644.478 532.7 644.31 532.656C643.24 532.385 642.598 531.325 642.878 530.289C644.805 523.147 651.239 518.921 657.462 514.835C664.062 510.498 669.762 506.753 669.252 500.368C669.166 499.299 669.991 498.365 671.095 498.283C672.176 498.194 673.162 498.998 673.246 500.067C673.939 508.702 666.705 513.453 659.711 518.047C654.101 521.732 648.301 525.543 646.755 531.272C646.519 532.142 645.707 532.72 644.817 532.72Z" fill="#BF323F"/>
<path d="M658.7 539.5C658.387 539.5 658.071 539.428 657.775 539.279C656.795 538.784 656.416 537.611 656.926 536.659C662.498 526.317 664.528 518.44 663.131 512.582C662.883 511.537 663.554 510.495 664.634 510.254C665.706 510.01 666.786 510.664 667.036 511.708C669.194 520.766 664.328 531.311 660.479 538.456C660.121 539.121 659.42 539.5 658.7 539.5Z" fill="#BF323F"/>
<path d="M733.356 560.321C732.354 560.321 731.485 559.594 731.368 558.606C730.2 548.895 726.022 539.335 719.601 531.689C718.903 530.857 719.034 529.635 719.891 528.958C720.75 528.28 722.013 528.409 722.71 529.239C729.606 537.451 734.095 547.722 735.347 558.155C735.474 559.22 734.688 560.185 733.59 560.306C733.512 560.318 733.434 560.321 733.356 560.321Z" fill="#BF323F"/>
<path d="M707.549 603.439C706.612 603.439 705.774 602.799 705.585 601.874C704.362 595.87 699.698 590.515 693.709 588.235C692.68 587.843 692.173 586.717 692.576 585.718C692.979 584.72 694.143 584.234 695.174 584.621C702.404 587.373 708.034 593.849 709.515 601.121C709.728 602.171 709.024 603.193 707.938 603.401C707.809 603.426 707.678 603.439 707.549 603.439Z" fill="#BF323F"/>
<path d="M859.144 1049.51C861.193 970.116 796.42 904.143 714.47 902.157C632.519 900.172 564.424 962.925 562.375 1042.32C560.325 1121.72 625.098 1187.69 707.048 1189.68C788.999 1191.66 857.094 1128.91 859.144 1049.51Z" fill="#F7F6F1"/>
<path d="M710.731 1194.84C625.963 1194.84 557 1128.02 557 1045.9C557 963.771 625.963 896.959 710.731 896.959C795.498 896.959 864.461 963.771 864.461 1045.9C864.461 1128.02 795.496 1194.84 710.731 1194.84ZM710.731 907.23C631.811 907.23 567.604 969.434 567.604 1045.9C567.604 1122.36 631.811 1184.57 710.731 1184.57C789.651 1184.57 853.858 1122.36 853.858 1045.9C853.858 969.434 789.651 907.23 710.731 907.23Z" fill="#088B8C"/>
<path d="M712.459 1141.89C665.394 1141.89 627.105 1104.79 627.105 1059.19V993.371C627.105 974.016 643.36 958.269 663.337 958.269H685.353V968.542H663.337C649.207 968.542 637.709 979.681 637.709 993.371V1059.19C637.709 1099.13 671.242 1131.61 712.459 1131.61C753.675 1131.61 787.208 1099.13 787.208 1059.19V993.371C787.208 979.681 775.71 968.542 761.58 968.542H739.391V958.269H761.58C781.558 958.269 797.812 974.016 797.812 993.371V1059.19C797.809 1104.79 759.52 1141.89 712.459 1141.89Z" fill="#088B8C"/>
<path d="M799.724 1226.44C748.68 1226.44 707.152 1186.2 707.152 1136.75H717.756C717.756 1180.54 754.525 1216.17 799.724 1216.17C844.922 1216.17 881.694 1180.54 881.694 1136.75H892.297C892.295 1186.2 850.767 1226.44 799.724 1226.44Z" fill="#088B8C"/>
<path d="M675.812 963.406C675.812 958.302 680.082 954.169 685.346 954.169C690.611 954.169 694.88 958.305 694.88 963.406C694.88 968.509 690.611 972.642 685.346 972.642C680.082 972.642 675.812 968.506 675.812 963.406Z" fill="#BCE1E5"/>
<path d="M730.25 963.406C730.25 958.302 734.519 954.169 739.784 954.169C745.051 954.169 749.317 958.305 749.317 963.406C749.317 968.509 745.048 972.642 739.784 972.642C734.519 972.642 730.25 968.506 730.25 963.406Z" fill="#BCE1E5"/>
<path d="M917.819 1141.61C920.579 1125.13 909.03 1109.6 892.023 1106.93C875.016 1104.26 858.992 1115.45 856.232 1131.92C853.472 1148.4 865.021 1163.92 882.028 1166.6C899.035 1169.27 915.059 1158.08 917.819 1141.61Z" fill="#F7F6F1"/>
<path d="M886.991 1172.11C866.867 1172.11 850.496 1156.25 850.496 1136.75C850.496 1117.25 866.87 1101.39 886.991 1101.39C907.115 1101.39 923.489 1117.26 923.489 1136.75C923.489 1156.25 907.118 1172.11 886.991 1172.11ZM886.991 1111.66C872.715 1111.66 861.097 1122.92 861.097 1136.75C861.097 1150.59 872.712 1161.84 886.991 1161.84C901.27 1161.84 912.885 1150.58 912.885 1136.75C912.885 1122.92 901.27 1111.66 886.991 1111.66Z" fill="#088B8C"/>
<path d="M886.997 1149.39C894.201 1149.39 900.042 1143.73 900.042 1136.75C900.042 1129.77 894.201 1124.11 886.997 1124.11C879.793 1124.11 873.953 1129.77 873.953 1136.75C873.953 1143.73 879.793 1149.39 886.997 1149.39Z" fill="#F7F6F1"/>
<path d="M886.996 1154.53C876.882 1154.53 868.652 1146.55 868.652 1136.75C868.652 1126.95 876.882 1118.98 886.996 1118.98C897.112 1118.98 905.342 1126.95 905.342 1136.75C905.342 1146.55 897.112 1154.53 886.996 1154.53ZM886.996 1129.25C882.727 1129.25 879.253 1132.62 879.253 1136.75C879.253 1140.89 882.727 1144.25 886.996 1144.25C891.265 1144.25 894.738 1140.89 894.738 1136.75C894.738 1132.62 891.265 1129.25 886.996 1129.25Z" fill="#BCE1E5"/>
<path d="M859.144 1049.51C861.193 970.116 796.42 904.143 714.47 902.157C632.519 900.172 564.424 962.925 562.375 1042.32C560.325 1121.72 625.098 1187.69 707.048 1189.68C788.999 1191.66 857.094 1128.91 859.144 1049.51Z" fill="#E0F0F2"/>
<path d="M710.731 1194.84C625.963 1194.84 557 1128.02 557 1045.9C557 963.771 625.963 896.959 710.731 896.959C795.498 896.959 864.461 963.771 864.461 1045.9C864.461 1128.02 795.496 1194.84 710.731 1194.84ZM710.731 907.23C631.811 907.23 567.604 969.434 567.604 1045.9C567.604 1122.36 631.811 1184.57 710.731 1184.57C789.651 1184.57 853.858 1122.36 853.858 1045.9C853.858 969.434 789.651 907.23 710.731 907.23Z" fill="#088B8C"/>
<path d="M712.459 1141.89C665.394 1141.89 627.105 1104.79 627.105 1059.19V993.371C627.105 974.016 643.36 958.269 663.337 958.269H685.353V968.542H663.337C649.207 968.542 637.709 979.681 637.709 993.371V1059.19C637.709 1099.13 671.242 1131.61 712.459 1131.61C753.675 1131.61 787.208 1099.13 787.208 1059.19V993.371C787.208 979.681 775.71 968.542 761.58 968.542H739.391V958.269H761.58C781.558 958.269 797.812 974.016 797.812 993.371V1059.19C797.809 1104.79 759.52 1141.89 712.459 1141.89Z" fill="#088B8C"/>
<path d="M799.724 1226.44C748.68 1226.44 707.152 1186.2 707.152 1136.75H717.756C717.756 1180.54 754.525 1216.17 799.724 1216.17C844.922 1216.17 881.694 1180.54 881.694 1136.75H892.297C892.295 1186.2 850.767 1226.44 799.724 1226.44Z" fill="#088B8C"/>
<path d="M675.812 963.406C675.812 958.302 680.082 954.169 685.346 954.169C690.611 954.169 694.88 958.305 694.88 963.406C694.88 968.509 690.611 972.642 685.346 972.642C680.082 972.642 675.812 968.506 675.812 963.406Z" fill="#BCE1E5"/>
<path d="M730.25 963.406C730.25 958.302 734.519 954.169 739.784 954.169C745.051 954.169 749.317 958.305 749.317 963.406C749.317 968.509 745.048 972.642 739.784 972.642C734.519 972.642 730.25 968.506 730.25 963.406Z" fill="#BCE1E5"/>
<path d="M917.819 1141.61C920.579 1125.13 909.03 1109.6 892.023 1106.93C875.016 1104.26 858.992 1115.45 856.232 1131.92C853.472 1148.4 865.021 1163.92 882.028 1166.6C899.035 1169.27 915.059 1158.08 917.819 1141.61Z" fill="#F7F6F1"/>
<path d="M886.991 1172.11C866.867 1172.11 850.496 1156.25 850.496 1136.75C850.496 1117.25 866.87 1101.39 886.991 1101.39C907.115 1101.39 923.489 1117.26 923.489 1136.75C923.489 1156.25 907.118 1172.11 886.991 1172.11ZM886.991 1111.66C872.715 1111.66 861.097 1122.92 861.097 1136.75C861.097 1150.59 872.712 1161.84 886.991 1161.84C901.27 1161.84 912.885 1150.58 912.885 1136.75C912.885 1122.92 901.27 1111.66 886.991 1111.66Z" fill="#088B8C"/>
<path d="M886.997 1149.39C894.201 1149.39 900.042 1143.73 900.042 1136.75C900.042 1129.77 894.201 1124.11 886.997 1124.11C879.793 1124.11 873.953 1129.77 873.953 1136.75C873.953 1143.73 879.793 1149.39 886.997 1149.39Z" fill="#F7F6F1"/>
<path d="M886.996 1154.53C876.882 1154.53 868.652 1146.55 868.652 1136.75C868.652 1126.95 876.882 1118.98 886.996 1118.98C897.112 1118.98 905.342 1126.95 905.342 1136.75C905.342 1146.55 897.112 1154.53 886.996 1154.53ZM886.996 1129.25C882.727 1129.25 879.253 1132.62 879.253 1136.75C879.253 1140.89 882.727 1144.25 886.996 1144.25C891.265 1144.25 894.738 1140.89 894.738 1136.75C894.738 1132.62 891.265 1129.25 886.996 1129.25Z" fill="#BCE1E5"/>
<path d="M1936.72 1217.5C2024.38 1217.5 2095.44 1148.65 2095.44 1063.72C2095.44 978.791 2024.38 909.943 1936.72 909.943C1849.06 909.943 1778 978.791 1778 1063.72C1778 1148.65 1849.06 1217.5 1936.72 1217.5Z" fill="#E0F0F2" stroke="#088B8C" stroke-width="16" stroke-miterlimit="10"/>
<path opacity="0.7" d="M1921.19 1170.11H1952.31V1053.33H1921.19V1170.11Z" fill="white" stroke="white" stroke-width="4" stroke-miterlimit="10"/>
<path d="M1924.11 1115.68H1949.81V1046.37H1924.11V1115.68Z" fill="#FA3247" stroke="#FA3247" stroke-miterlimit="10"/>
<path d="M1921.19 1180.28H1952.31V1170.11H1921.19V1180.28Z" fill="#00001F" stroke="#00001F" stroke-miterlimit="10"/>
<path d="M1914.46 1196.08H1959.04C1960.18 1196.08 1961.1 1195.19 1961.1 1194.08V1182.17C1961.1 1181.06 1960.18 1180.17 1959.04 1180.17H1914.46C1913.32 1180.17 1912.4 1181.06 1912.4 1182.17V1194.08C1912.4 1195.19 1913.32 1196.08 1914.46 1196.08Z" fill="#272262" stroke="black" stroke-width="4" stroke-miterlimit="10"/>
<path d="M1952.31 1053.33H1921.19V1045.1C1921.19 1044.58 1921.4 1044.09 1921.78 1043.73C1922.15 1043.36 1922.66 1043.16 1923.2 1043.16H1950.31C1950.57 1043.16 1950.83 1043.21 1951.07 1043.3C1951.32 1043.4 1951.54 1043.55 1951.73 1043.73C1951.91 1043.91 1952.06 1044.12 1952.16 1044.36C1952.26 1044.59 1952.31 1044.84 1952.31 1045.1V1053.33Z" fill="#272262" stroke="#272262" stroke-width="4" stroke-miterlimit="10"/>
<path d="M1936.02 982.434L1937.73 977.873V1030.56H1936.02V982.434Z" fill="#272262" stroke="#272262" stroke-width="4" stroke-miterlimit="10"/>
<path d="M1945.19 1043.27H1928.22V1034.29C1928.22 1033.98 1928.35 1033.67 1928.58 1033.45C1928.81 1033.23 1929.13 1033.1 1929.45 1033.1H1943.96C1944.28 1033.1 1944.6 1033.23 1944.83 1033.45C1945.06 1033.67 1945.19 1033.98 1945.19 1034.29V1043.27Z" fill="#00001F" stroke="#00001F" stroke-miterlimit="10"/>
<path opacity="0.7" d="M1941.42 1033.1H1932.33V1028.76C1932.33 1028.56 1932.42 1028.37 1932.56 1028.23C1932.7 1028.09 1932.9 1028.02 1933.11 1028.02H1940.65C1940.85 1028.02 1941.05 1028.09 1941.19 1028.23C1941.34 1028.37 1941.42 1028.56 1941.42 1028.76V1033.1Z" fill="white" stroke="white" stroke-width="3" stroke-miterlimit="10"/>
<path d="M1924.1 1115.68C1924.1 1114.25 1929.86 1113.09 1936.96 1113.09C1944.05 1113.09 1949.81 1114.25 1949.81 1115.68C1949.81 1117.12 1944.05 1118.28 1936.96 1118.28C1929.86 1118.28 1924.1 1117.12 1924.1 1115.68Z" fill="#D23247" stroke="#D23247" stroke-miterlimit="10"/>
<path d="M1937.73 961.589L1949.36 942.075C1950.37 940.379 1950.9 938.455 1950.9 936.496C1950.9 934.538 1950.37 932.614 1949.36 930.918C1948.35 929.221 1946.89 927.813 1945.14 926.834C1943.39 925.854 1941.41 925.339 1939.39 925.339H1936.07C1934.05 925.339 1932.07 925.854 1930.32 926.834C1928.57 927.813 1927.11 929.221 1926.1 930.918C1925.09 932.614 1924.56 934.538 1924.56 936.496C1924.56 938.455 1925.09 940.379 1926.1 942.075L1937.73 961.589Z" fill="#FA3247" stroke="#FA3247" stroke-miterlimit="10"/>
<path d="M1294.48 470L1292.04 506.986C1292.04 506.986 1290.82 516.752 1301.5 517.667L1312.18 518.583" stroke="black" stroke-width="2" stroke-miterlimit="10"/>
<path d="M1283.8 521.625C1285.54 514.263 1280.98 506.885 1273.62 505.147C1266.26 503.409 1258.88 507.969 1257.15 515.331C1255.41 522.694 1259.97 530.071 1267.33 531.809C1274.69 533.547 1282.07 528.988 1283.8 521.625Z" fill="#FA90A1" stroke="#FA90A1" stroke-miterlimit="10"/>
<path d="M1360.39 519.623C1362.4 511.136 1357.14 502.632 1348.66 500.628C1340.17 498.625 1331.67 503.881 1329.67 512.367C1327.66 520.854 1332.92 529.359 1341.4 531.362C1349.89 533.365 1358.39 528.11 1360.39 519.623Z" fill="#FA90A1" stroke="#FA90A1" stroke-miterlimit="10"/>
<path d="M649.565 1350.88C654.562 1350.92 1319.5 1641 2045 1293.5L1999.95 2045.23L681.408 2033.32C681.408 2033.32 644.568 1350.83 649.565 1350.88Z" fill="white"/>
</g>
<defs>
<linearGradient id="paint0_linear" x1="1333.82" y1="570.791" x2="1333.82" y2="662.501" gradientUnits="userSpaceOnUse">
<stop stop-color="white"/>
<stop offset="1" stop-color="white" stop-opacity="0"/>
</linearGradient>
<clipPath id="clip0">
<rect width="2585" height="1723" fill="white"/>
</clipPath>
</defs>
</svg>
