<svg width="76" height="41" viewBox="0 0 76 41" fill="none" xmlns="http://www.w3.org/2000/svg">
<path d="M56.5 15.3265H71.7826M56.5 23.2857H66.1522M56.5 27.2653H66.1522M56.5 31.2449H66.1522M67.7609 23.2857H71.7826M67.7609 27.2653H71.7826M67.7609 31.2449H71.7826M9.24164 23.2857C9.24164 23.2857 8.19623 32.3709 8.64193 32.8367C9.08763 33.3026 15.4783 27.9439 15.4783 27.9439M22.4942 23.2857C22.4942 23.2857 24.0221 31.944 23.5216 32.4388C23.021 32.9336 15.4776 27.7387 15.4776 27.7387M39.2065 13.3367C43.1682 15.5653 45.8093 23.0469 39.2065 28.0612M43.2283 11.7449C49.0052 16.5841 50.289 24.8139 43.2283 29.6531M36.3913 15.7245C39.6012 18.6308 39.214 22.9854 35.9891 25.6735M53.2826 6.59221V38.1732C53.2826 39.2621 75 39.8066 75 38.1732V6.59221C75 5.50322 53.2826 5.50333 53.2826 6.59221ZM25.9348 10.949C25.9348 16.4437 21.2532 20.898 15.4783 20.898C9.70328 20.898 5.02174 16.4437 5.02174 10.949C5.02174 5.45431 9.70328 1 15.4783 1C21.2532 1 25.9348 5.45431 25.9348 10.949ZM6.60613 21.3508C7.83174 21.9545 15.7916 27.992 15.7916 27.992C15.7916 27.992 24.3656 21.9546 25.5894 21.3508C26.8133 20.7469 30.4883 21.0678 30.4883 21.3508C30.4884 21.6337 31.1015 38.2559 30.4883 39.4633C29.8751 40.6708 6.60613 39.4633 6.60613 39.4633H1.70722C0.481626 39.4634 1.09564 21.9545 1.70722 21.3508C2.31881 20.7471 5.38052 20.747 6.60613 21.3508Z" stroke="#DCB05A" stroke-width="1.5"/>
</svg>
