<svg width="7329" height="5991" viewBox="0 0 7329 5991" fill="none" xmlns="http://www.w3.org/2000/svg">
<circle cx="3644.5" cy="3337.5" r="1963.5" fill="#E0F0F2"/>
<circle cx="3644.5" cy="3337.5" r="1963.5" fill="url(#paint0_linear)"/>
<mask id="mask0" mask-type="alpha" maskUnits="userSpaceOnUse" x="5059" y="3117" width="589" height="589">
<path d="M5320.54 3158.13C5320.54 3162.61 5320.54 3167.16 5320.54 3171.65C5320.54 3183.9 5320.54 3196.21 5320.54 3208.46C5320.54 3226.63 5320.54 3244.81 5320.54 3262.93C5320.54 3285.07 5320.54 3307.28 5320.54 3329.42C5320.54 3353.81 5320.54 3378.2 5320.54 3402.53C5320.54 3427.03 5320.54 3451.54 5320.54 3476.04C5320.54 3498.87 5320.54 3521.77 5320.54 3544.6C5320.54 3563.93 5320.54 3583.25 5320.54 3602.52C5320.54 3616.39 5320.54 3630.31 5320.54 3644.17C5320.54 3650.73 5320.48 3657.34 5320.54 3663.9C5320.54 3664.18 5320.54 3664.47 5320.54 3664.76C5320.54 3673.62 5324.39 3682.88 5330.66 3689.15C5336.65 3695.13 5346.48 3699.62 5355.05 3699.27C5363.97 3698.87 5373.23 3695.94 5379.44 3689.15C5385.65 3682.42 5389.56 3674.08 5389.56 3664.76C5389.56 3660.27 5389.56 3655.73 5389.56 3651.24C5389.56 3638.99 5389.56 3626.68 5389.56 3614.43C5389.56 3596.25 5389.56 3578.08 5389.56 3559.96C5389.56 3537.81 5389.56 3515.61 5389.56 3493.47C5389.56 3469.08 5389.56 3444.69 5389.56 3420.36C5389.56 3395.86 5389.56 3371.35 5389.56 3346.85C5389.56 3324.01 5389.56 3301.12 5389.56 3278.29C5389.56 3258.96 5389.56 3239.63 5389.56 3220.36C5389.56 3206.5 5389.56 3192.58 5389.56 3178.72C5389.56 3172.16 5389.62 3165.55 5389.56 3158.99C5389.56 3158.7 5389.56 3158.42 5389.56 3158.13C5389.56 3149.27 5385.71 3140.01 5379.44 3133.74C5373.46 3127.76 5363.62 3123.27 5355.05 3123.62C5346.14 3124.02 5336.88 3126.95 5330.66 3133.74C5324.45 3140.47 5320.54 3148.75 5320.54 3158.13Z" fill="black"/>
<path d="M5188.02 3513.03C5194.34 3556.17 5221.2 3595.45 5260.55 3614.84C5287.12 3627.95 5316.69 3634.28 5346.25 3634.1C5354.82 3634.05 5363.57 3633.82 5372.08 3633.3C5386.23 3632.49 5400.49 3630.77 5414.36 3627.72C5426.26 3625.13 5437.42 3620.93 5448.64 3616.1C5455.71 3612.99 5462.56 3609.31 5468.83 3604.83C5476.42 3599.31 5483.9 3593.55 5490.05 3586.42C5501.27 3573.48 5509.38 3559.56 5514.67 3543.22C5516.05 3538.91 5517.14 3534.48 5517.83 3529.94C5518.93 3523.21 5519.9 3516.36 5520.13 3509.52C5520.42 3501.92 5519.39 3494.62 5518.35 3487.08C5518.29 3486.85 5518.29 3486.62 5518.24 3486.45C5518.64 3489.5 5519.04 3492.55 5519.44 3495.65C5518.58 3483.46 5516.34 3472.7 5511.62 3461.55C5509.72 3457 5507.82 3452.57 5505.24 3448.37C5501.96 3443.02 5497.93 3438.02 5493.96 3433.25C5487.69 3425.71 5479.98 3419.79 5472.22 3413.92C5466.47 3409.61 5460.31 3405.87 5453.93 3402.59C5429.54 3390.05 5402.91 3382.05 5375.82 3378.09C5363.91 3376.3 5351.95 3375.38 5340.04 3373.83C5343.09 3374.23 5346.14 3374.63 5349.24 3375.04C5330.38 3372.51 5311.74 3368.19 5294.14 3360.77C5296.9 3361.92 5299.66 3363.07 5302.36 3364.22C5292.18 3359.85 5282.46 3354.5 5273.66 3347.71C5275.96 3349.5 5278.32 3351.34 5280.62 3353.12C5274.01 3348 5268.03 3342.14 5262.91 3335.52C5264.69 3337.82 5266.53 3340.18 5268.31 3342.48C5263.83 3336.67 5260.09 3330.29 5257.21 3323.56C5258.36 3326.32 5259.51 3329.08 5260.66 3331.78C5257.96 3325.34 5256.06 3318.61 5255.08 3311.71C5255.49 3314.76 5255.89 3317.8 5256.29 3320.91C5255.26 3313.09 5255.72 3304.92 5256.69 3297.16C5256.29 3300.2 5255.89 3303.25 5255.49 3306.36C5256.58 3298.48 5258.53 3290.77 5261.64 3283.47C5260.49 3286.23 5259.34 3288.99 5258.19 3291.69C5260.84 3285.48 5264.29 3279.61 5268.43 3274.26C5266.65 3276.56 5264.8 3278.92 5263.02 3281.22C5267.39 3275.64 5272.45 3270.64 5278.09 3266.27C5275.79 3268.05 5273.43 3269.89 5271.13 3271.67C5278.72 3265.81 5287.06 3261.21 5295.86 3257.47C5293.1 3258.62 5290.34 3259.77 5287.64 3260.92C5301.44 3255.11 5316.17 3251.6 5331.01 3249.59C5327.96 3249.99 5324.91 3250.39 5321.81 3250.79C5332.79 3249.3 5343.84 3248.78 5354.94 3248.95C5363.8 3249.13 5372.54 3249.36 5381.34 3250.51C5378.29 3250.1 5375.24 3249.7 5372.14 3249.3C5384.45 3250.97 5396.58 3254.02 5408.09 3258.79C5405.32 3257.64 5402.56 3256.49 5399.86 3255.34C5408.89 3259.19 5417.4 3264.08 5425.17 3270.06C5422.87 3268.28 5420.51 3266.44 5418.21 3264.66C5425.57 3270.35 5432.13 3276.97 5437.82 3284.27C5436.04 3281.97 5434.2 3279.61 5432.42 3277.31C5438.63 3285.36 5443.69 3294.16 5447.66 3303.54C5446.51 3300.78 5445.36 3298.02 5444.21 3295.31C5447.66 3303.42 5450.53 3312.11 5451.69 3320.91C5451.28 3317.86 5450.88 3314.81 5450.48 3311.71C5450.48 3311.76 5450.48 3311.88 5450.48 3311.94C5450.3 3316.71 5451.28 3321.14 5453.47 3325.22C5454.85 3329.48 5457.26 3333.22 5460.6 3336.33C5466.58 3342.31 5476.42 3346.79 5484.99 3346.45C5493.9 3346.05 5503.17 3343.11 5509.38 3336.33C5515.13 3330.06 5520.54 3320.8 5519.5 3311.94C5518.12 3300.2 5515.76 3289.22 5511.28 3278.23C5506.85 3267.42 5502.19 3256.89 5495.46 3247.23C5487.81 3236.18 5479.18 3225.66 5468.65 3217.2C5461.87 3211.74 5454.91 3206.39 5447.31 3202.02C5439.09 3197.3 5430.29 3193.62 5421.43 3190.34C5403.77 3183.78 5384.5 3181.02 5365.75 3180.22C5354.3 3179.7 5342.69 3179.76 5331.24 3180.79C5319.33 3181.89 5307.43 3183.5 5295.81 3186.08C5282.81 3189.02 5270.5 3193.62 5258.36 3199.08C5245.88 3204.66 5234.49 3212.6 5224.31 3221.69C5218.04 3227.33 5212.98 3233.94 5207.92 3240.67C5204.41 3245.39 5201.48 3250.51 5199.06 3255.86C5195.26 3264.31 5191.81 3272.77 5190.03 3281.85C5188.02 3291.75 5186.98 3301.87 5186.81 3312C5186.81 3313.84 5186.81 3315.68 5186.98 3317.52C5188.48 3335.52 5193.31 3352.49 5202.51 3368.19C5215.8 3390.97 5237.02 3409.32 5260.61 3420.76C5277.23 3428.82 5294.71 3434.91 5312.83 3438.6C5327.39 3441.59 5342.17 3443.14 5356.95 3444.64C5359.08 3444.87 5361.21 3445.1 5363.34 3445.38C5360.29 3444.98 5357.24 3444.58 5354.13 3444.17C5369.72 3446.3 5385.14 3449.7 5400.09 3454.53C5405.5 3456.31 5410.85 3458.27 5416.08 3460.45C5413.32 3459.3 5410.56 3458.15 5407.86 3457C5418.55 3461.55 5428.91 3467.07 5438.11 3474.2C5435.81 3472.42 5433.45 3470.58 5431.15 3468.79C5436.96 3473.28 5442.25 3478.34 5446.74 3484.09C5444.96 3481.79 5443.11 3479.43 5441.33 3477.13C5444.9 3481.79 5447.95 3486.85 5450.25 3492.26C5449.1 3489.5 5447.95 3486.74 5446.8 3484.04C5448.92 3489.21 5450.42 3494.62 5451.17 3500.14C5450.77 3497.09 5450.36 3494.04 5449.96 3490.94C5450.59 3495.89 5451.17 3500.83 5451.8 3505.78C5451.4 3502.73 5451 3499.68 5450.59 3496.58C5451.57 3503.88 5451.34 3511.36 5450.36 3518.61C5450.77 3515.56 5451.17 3512.51 5451.57 3509.4C5450.53 3516.99 5448.52 3524.47 5445.59 3531.6C5446.74 3528.84 5447.89 3526.08 5449.04 3523.38C5446.34 3529.71 5442.88 3535.63 5438.74 3541.04C5440.53 3538.74 5442.37 3536.38 5444.15 3534.08C5439.84 3539.6 5434.83 3544.55 5429.31 3548.86C5431.61 3547.08 5433.97 3545.24 5436.27 3543.45C5429.25 3548.86 5421.43 3553.23 5413.26 3556.68C5416.02 3555.53 5418.78 3554.38 5421.49 3553.23C5408.49 3558.7 5394.74 3561.92 5380.76 3563.82C5383.81 3563.41 5386.86 3563.01 5389.97 3562.61C5379.9 3563.93 5369.78 3564.56 5359.65 3564.74C5357.47 3564.74 5355.34 3564.74 5353.15 3564.91C5347.81 3565.25 5342.4 3565.2 5337.05 3564.91C5332.16 3564.68 5327.27 3564.22 5322.38 3563.59C5325.43 3563.99 5328.48 3564.39 5331.58 3564.79C5318.53 3563.01 5305.64 3559.79 5293.45 3554.67C5296.21 3555.82 5298.97 3556.97 5301.67 3558.12C5292.82 3554.38 5284.48 3549.61 5276.88 3543.74C5279.18 3545.52 5281.54 3547.36 5283.84 3549.15C5277.46 3544.14 5271.71 3538.45 5266.7 3532.06C5268.49 3534.37 5270.33 3536.72 5272.11 3539.02C5266.93 3532.24 5262.68 3524.87 5259.28 3517.05C5260.43 3519.81 5261.58 3522.57 5262.73 3525.28C5258.59 3515.44 5255.95 3505.15 5254.39 3494.62C5253.3 3490.13 5251.29 3486.22 5248.24 3482.89C5245.82 3479.15 5242.6 3476.16 5238.58 3473.97C5231.16 3469.66 5220.28 3467.82 5212 3470.52C5203.66 3473.22 5195.61 3478.4 5191.35 3486.39C5190.2 3489.16 5189.05 3491.92 5187.9 3494.62C5186.35 3500.77 5186.35 3506.87 5188.02 3513.03Z" fill="black"/>
</mask>
<g mask="url(#mask0)">
<rect x="5059" y="3038.46" width="696.983" height="751.957" fill="#4F4F4F"/>
</g>
<path d="M1974.49 2304.93C1972.79 2299.96 1967.39 2297.31 1962.43 2299.01L1881.53 2326.68C1876.56 2328.38 1873.91 2333.78 1875.61 2338.75C1877.31 2343.71 1882.71 2346.36 1887.68 2344.66L1959.59 2320.06L1984.18 2391.97C1985.88 2396.94 1991.28 2399.58 1996.25 2397.89C2001.21 2396.19 2003.86 2390.79 2002.16 2385.82L1974.49 2304.93ZM1956.97 2303.82C1856.43 2508.9 1770.72 2682.24 1743.54 2964.59L1762.46 2966.41C1789.28 2687.76 1873.57 2517.1 1974.03 2312.18L1956.97 2303.82Z" fill="#4F4F4F"/>
<path d="M3971.19 1419.4C3975.35 1416.2 3976.12 1410.23 3972.91 1406.08L3920.69 1338.38C3917.48 1334.23 3911.51 1333.46 3907.36 1336.67C3903.21 1339.87 3902.44 1345.84 3905.64 1349.99L3952.06 1410.16L3891.89 1456.59C3887.74 1459.79 3886.97 1465.76 3890.17 1469.91C3893.38 1474.07 3899.34 1474.84 3903.5 1471.63L3971.19 1419.4ZM3966.6 1402.46C3742.48 1373.55 3559.85 1347.23 3272.35 1395.52L3275.5 1414.26C3559.99 1366.48 3740.18 1392.41 3964.17 1421.3L3966.6 1402.46Z" fill="#4F4F4F"/>
<path d="M5564.04 2975.1C5568.51 2977.84 5574.36 2976.44 5577.1 2971.96L5621.77 2899.06C5624.52 2894.59 5623.11 2888.74 5618.64 2886C5614.16 2883.26 5608.32 2884.66 5605.57 2889.14L5565.86 2953.94L5501.06 2914.23C5496.59 2911.48 5490.74 2912.89 5488 2917.36C5485.26 2921.84 5486.66 2927.68 5491.14 2930.43L5564.04 2975.1ZM5578.24 2964.78C5524.89 2742.55 5479.5 2562.09 5334.62 2309.28L5318.13 2318.72C5461.63 2569.13 5506.52 2747.44 5559.76 2969.22L5578.24 2964.78Z" fill="#4F4F4F"/>
<mask id="mask1" mask-type="alpha" maskUnits="userSpaceOnUse" x="4296" y="1740" width="617" height="487">
<path d="M4764.55 1870.52C4770.83 1864.35 4770.88 1854.22 4764.67 1847.89L4663.39 1744.84C4657.17 1738.52 4647.04 1738.4 4640.76 1744.57C4634.48 1750.74 4634.43 1760.87 4640.64 1767.2L4730.67 1858.8L4639.69 1948.21C4633.41 1954.39 4633.35 1964.52 4639.57 1970.84C4645.78 1977.16 4655.91 1977.29 4662.19 1971.11L4764.55 1870.52ZM4753.38 1843.07L4416.39 1839L4416.23 1871L4753.21 1875.07L4753.38 1843.07Z" fill="black"/>
<path d="M4423.18 1855C4423.18 1855 4312 1855 4312 1983.45C4312 2111.89 4417.45 2094.54 4417.45 2094.54" stroke="black" stroke-width="32"/>
<path d="M4444.05 2095.75C4437.76 2101.9 4437.69 2112.03 4443.89 2118.38L4544.98 2221.85C4551.19 2228.2 4561.32 2228.36 4567.61 2222.22C4573.9 2216.07 4573.97 2205.94 4567.77 2199.59L4477.91 2107.62L4569.05 2018.57C4575.34 2012.43 4575.41 2002.3 4569.21 1995.95C4563 1989.6 4552.87 1989.43 4546.58 1995.58L4444.05 2095.75ZM4455.17 2123.25L4792.15 2128.7L4792.37 2096.7L4455.4 2091.25L4455.17 2123.25Z" fill="black"/>
<path d="M4785.39 2112.69C4785.39 2112.69 4896.57 2113.14 4896.8 1984.7C4897.03 1856.25 4791.55 1873.17 4791.55 1873.17" stroke="black" stroke-width="32"/>
</mask>
<g mask="url(#mask1)">
<rect x="4226.34" y="1691.45" width="731.25" height="539.701" fill="#4F4F4F"/>
</g>
<mask id="mask2" mask-type="alpha" maskUnits="userSpaceOnUse" x="2414" y="1588" width="680" height="680">
<path d="M2646.54 2156.14L2713.07 2222.67C2720.21 2218.91 2726.98 2214.42 2733.28 2209.19L2667.49 2143.4C2660.82 2148.21 2653.84 2152.48 2646.54 2156.14Z" fill="black"/>
<path d="M2686.45 2127.45C2685.63 2128.27 2684.73 2128.96 2683.91 2129.76L2748.69 2194.54L2765.54 2177.69L2700.87 2113.03L2686.45 2127.45Z" fill="black"/>
<path d="M2764.62 2049.27L2747.77 2066.12L2812.44 2130.79L2829.29 2113.94L2764.62 2049.27Z" fill="black"/>
<path d="M2732.75 2081.15L2715.9 2098L2780.56 2162.66L2797.41 2145.81L2732.75 2081.15Z" fill="black"/>
<path d="M2541.27 2167.74L2575.2 2201.68C2590.28 2216.76 2608.77 2227.1 2628.88 2232.28L2568.5 2171.9C2559.16 2171.32 2550.07 2169.92 2541.27 2167.74Z" fill="black"/>
<path d="M3058.27 1802.87C3053.08 1782.76 3042.74 1764.27 3027.67 1749.2L2993.74 1715.28C2995.92 1724.09 2997.31 1733.17 2997.89 1742.5L3058.27 1802.87Z" fill="black"/>
<path d="M2671.42 2112.43L2938.43 1845.41C2963.39 1820.46 2977.12 1787.28 2977.12 1752C2977.12 1679.14 2917.86 1619.88 2845 1619.88C2809.71 1619.88 2776.54 1633.61 2751.58 1658.57L2484.57 1925.58C2459.61 1950.54 2445.88 1983.72 2445.88 2019C2445.88 2091.86 2505.14 2151.12 2578 2151.12C2613.29 2151.12 2646.46 2137.39 2671.42 2112.43ZM2786.14 1967.65L2771.12 1952.63L2792.63 1931.11L2807.66 1946.14L2786.14 1967.65ZM2818.28 1935.51L2803.26 1920.49L2824.51 1899.24L2839.53 1914.26L2818.28 1935.51ZM2766.61 1673.59C2787.54 1652.65 2815.39 1641.12 2845 1641.12C2862.43 1641.12 2879.13 1645.08 2894.64 1652.87L2885.11 1671.85C2872.58 1665.57 2859.08 1662.38 2845 1662.38C2821.06 1662.38 2798.56 1671.69 2781.64 1688.62L2747.35 1722.91L2732.32 1707.88L2766.61 1673.59ZM2721.9 1718.31L2736.93 1733.33L2715.37 1754.89L2700.34 1739.86L2721.9 1718.31ZM2583.47 1856.74L2598.49 1871.76L2584.22 1886.03L2569.2 1871.01L2583.47 1856.74ZM2554.18 1886.03L2569.2 1901.05L2554.17 1916.09L2539.14 1901.07L2554.18 1886.03ZM2524.12 1916.09L2539.14 1931.11L2524.12 1946.14L2509.09 1931.11L2524.12 1916.09ZM2522.91 2089.64C2538.79 2102.06 2557.84 2108.62 2578 2108.62C2601.93 2108.62 2624.44 2099.31 2641.36 2082.38L2760.76 1962.99L2775.78 1978.01L2656.39 2097.4C2635.46 2118.35 2607.61 2129.88 2578 2129.88C2553.05 2129.88 2529.47 2121.75 2509.82 2106.38L2522.91 2089.64Z" fill="black"/>
<path d="M2597.63 2170.98L2662.57 2235.92C2672.55 2235.57 2682.31 2234.07 2691.69 2231.32L2625.25 2164.88C2616.3 2167.77 2607.07 2169.78 2597.63 2170.98Z" fill="black"/>
<path d="M2796.5 2017.4L2779.65 2034.25L2844.31 2098.91L2861.17 2082.06L2796.5 2017.4Z" fill="black"/>
<path d="M2969.39 1841.49L3035.18 1907.28C3040.41 1900.98 3044.91 1894.2 3048.66 1887.07L2982.13 1820.54C2978.48 1827.83 2974.21 1834.81 2969.39 1841.49Z" fill="black"/>
<path d="M2953.45 1860.45L2939.02 1874.87L3003.69 1939.54L3020.54 1922.69L2955.76 1857.91C2954.96 1858.74 2954.27 1859.63 2953.45 1860.45Z" fill="black"/>
<path d="M2828.38 1985.52L2811.53 2002.38L2876.19 2067.04L2893.04 2050.19L2828.38 1985.52Z" fill="black"/>
<path d="M2996.98 1771.63C2995.78 1781.07 2993.76 1790.3 2990.88 1799.23L3057.32 1865.67C3060.07 1856.31 3061.57 1846.54 3061.92 1836.57L2996.98 1771.63Z" fill="black"/>
<path d="M2923.99 1889.9L2907.14 1906.75L2971.8 1971.41L2988.65 1954.56L2923.99 1889.9Z" fill="black"/>
<path d="M2860.25 1953.65L2843.4 1970.5L2908.06 2035.16L2924.92 2018.31L2860.25 1953.65Z" fill="black"/>
<path d="M2892.11 1921.77L2875.26 1938.62L2939.92 2003.29L2956.78 1986.44L2892.11 1921.77Z" fill="black"/>
</mask>
<g mask="url(#mask2)">
<rect x="2162.4" y="1384" width="1010.93" height="961.067" fill="#4F4F4F"/>
</g>
<mask id="mask3" mask-type="alpha" maskUnits="userSpaceOnUse" x="2884" y="2883" width="1752" height="1752">
<path d="M3220.56 3673.15H3306.41V3759C3306.41 3763.65 3308.26 3768.1 3311.54 3771.39C3314.83 3774.67 3319.28 3776.52 3323.93 3776.52H3457.96C3462.61 3776.52 3467.06 3774.67 3470.35 3771.39C3473.63 3768.1 3475.48 3763.65 3475.48 3759V3673.15H3561.33C3565.97 3673.15 3570.43 3671.31 3573.72 3668.02C3577 3664.73 3578.85 3660.28 3578.85 3655.63V3521.6C3578.85 3516.96 3577 3512.5 3573.72 3509.21C3570.43 3505.93 3565.97 3504.08 3561.33 3504.08H3475.48V3418.41C3475.48 3413.76 3473.63 3409.31 3470.35 3406.02C3467.06 3402.74 3462.61 3400.89 3457.96 3400.89H3323.93C3319.28 3400.89 3314.83 3402.74 3311.54 3406.02C3308.26 3409.31 3306.41 3413.76 3306.41 3418.41V3504.08H3220.56C3215.92 3504.08 3211.46 3505.93 3208.17 3509.21C3204.89 3512.5 3203.04 3516.96 3203.04 3521.6V3655.63C3203.04 3660.28 3204.89 3664.73 3208.17 3668.02C3211.46 3671.31 3215.92 3673.15 3220.56 3673.15ZM3238.08 3539.12H3323.93C3328.58 3539.12 3333.03 3537.28 3336.32 3533.99C3339.61 3530.71 3341.45 3526.25 3341.45 3521.6V3435.93H3440.44V3521.6C3440.44 3526.25 3442.28 3530.71 3445.57 3533.99C3448.86 3537.28 3453.31 3539.12 3457.96 3539.12H3543.81V3638.11H3457.96C3453.31 3638.11 3448.86 3639.96 3445.57 3643.24C3442.28 3646.53 3440.44 3650.98 3440.44 3655.63V3741.48H3341.45V3655.63C3341.45 3650.98 3339.61 3646.53 3336.32 3643.24C3333.03 3639.96 3328.58 3638.11 3323.93 3638.11H3238.08V3539.12Z" fill="black"/>
<path d="M4526.5 3400.89H3749.14V3322.23H3788.38C3793.03 3322.23 3797.49 3320.38 3800.77 3317.09C3804.06 3313.81 3805.9 3309.35 3805.9 3304.71V3191.18C3805.9 3186.53 3804.06 3182.07 3800.77 3178.79C3797.49 3175.5 3793.03 3173.66 3788.38 3173.66H2993.5C2988.85 3173.66 2984.4 3175.5 2981.11 3178.79C2977.83 3182.07 2975.98 3186.53 2975.98 3191.18V3304.71C2975.98 3309.35 2977.83 3313.81 2981.11 3317.09C2984.4 3320.38 2988.85 3322.23 2993.5 3322.23H3032.75V4326.82C3032.75 4331.47 3034.59 4335.93 3037.88 4339.21C3041.16 4342.5 3045.62 4344.34 3050.27 4344.34H4469.39C4474.03 4344.34 4478.49 4342.5 4481.77 4339.21C4485.06 4335.93 4486.91 4331.47 4486.91 4326.82V3548.76H4526.15C4530.8 3548.76 4535.25 3546.91 4538.54 3543.63C4541.82 3540.34 4543.67 3535.89 4543.67 3531.24V3418.41C4543.67 3413.82 4541.87 3409.42 4538.66 3406.14C4535.45 3402.87 4531.09 3400.98 4526.5 3400.89ZM3714.1 3418.41V4309.3H3067.79V3322.23H3714.1V3418.41ZM3050.27 3287.19H3011.02V3208.7H3770.86V3287.19H3050.27ZM4083.95 4295.46H3862.67V3776.52H4083.07L4083.95 4295.46ZM4339.56 4295.46H4118.11V3776.52H4338.16L4339.56 4295.46ZM4453.09 4309.3H4373.2V3759C4373.2 3754.35 4371.35 3749.9 4368.07 3746.61C4364.78 3743.33 4360.33 3741.48 4355.68 3741.48H3845.15C3840.5 3741.48 3836.04 3743.33 3832.76 3746.61C3829.47 3749.9 3827.63 3754.35 3827.63 3759V4309.3H3749.14V3548.76H4452.22L4453.09 4309.3ZM4508.98 3513.72H3749.14V3435.93H4508.98V3513.72Z" fill="black"/>
<path d="M3125.07 3998.85H3258.05C3262.7 3998.85 3267.15 3997.01 3270.44 3993.72C3273.72 3990.44 3275.57 3985.98 3275.57 3981.33V3848.36C3275.57 3843.71 3273.72 3839.25 3270.44 3835.97C3267.15 3832.68 3262.7 3830.84 3258.05 3830.84H3125.07C3120.43 3830.84 3115.97 3832.68 3112.68 3835.97C3109.4 3839.25 3107.55 3843.71 3107.55 3848.36V3981.33C3107.55 3985.98 3109.4 3990.44 3112.68 3993.72C3115.97 3997.01 3120.43 3998.85 3125.07 3998.85ZM3142.59 3865.88H3240.53V3963.81H3142.59V3865.88Z" fill="black"/>
<path d="M3457.43 3830.84H3324.45C3319.81 3830.84 3315.35 3832.68 3312.06 3835.97C3308.78 3839.25 3306.93 3843.71 3306.93 3848.36V3981.33C3306.93 3985.98 3308.78 3990.44 3312.06 3993.72C3315.35 3997.01 3319.81 3998.85 3324.45 3998.85H3457.43C3462.08 3998.85 3466.53 3997.01 3469.82 3993.72C3473.1 3990.44 3474.95 3985.98 3474.95 3981.33V3848.36C3474.95 3846.06 3474.5 3843.78 3473.61 3841.65C3472.73 3839.53 3471.44 3837.59 3469.82 3835.97C3468.19 3834.34 3466.26 3833.05 3464.13 3832.17C3462.01 3831.29 3459.73 3830.84 3457.43 3830.84ZM3439.91 3963.81H3341.97V3865.88H3439.91V3963.81Z" fill="black"/>
<path d="M3506.31 3848.36V3981.33C3506.31 3985.98 3508.16 3990.44 3511.44 3993.72C3514.73 3997.01 3519.19 3998.85 3523.83 3998.85H3656.81C3661.46 3998.85 3665.91 3997.01 3669.2 3993.72C3672.48 3990.44 3674.33 3985.98 3674.33 3981.33V3848.36C3674.33 3843.71 3672.48 3839.25 3669.2 3835.97C3665.91 3832.68 3661.46 3830.84 3656.81 3830.84H3523.83C3519.19 3830.84 3514.73 3832.68 3511.44 3835.97C3508.16 3839.25 3506.31 3843.71 3506.31 3848.36ZM3541.35 3865.88H3639.29V3963.81H3541.35V3865.88Z" fill="black"/>
<path d="M3125.07 4198.23H3258.05C3262.7 4198.23 3267.15 4196.39 3270.44 4193.1C3273.72 4189.81 3275.57 4185.36 3275.57 4180.71V4047.73C3275.57 4043.09 3273.72 4038.63 3270.44 4035.35C3267.15 4032.06 3262.7 4030.21 3258.05 4030.21H3125.07C3120.43 4030.21 3115.97 4032.06 3112.68 4035.35C3109.4 4038.63 3107.55 4043.09 3107.55 4047.73V4180.71C3107.55 4185.36 3109.4 4189.81 3112.68 4193.1C3115.97 4196.39 3120.43 4198.23 3125.07 4198.23ZM3142.59 4065.25H3240.53V4163.19H3142.59V4065.25Z" fill="black"/>
<path d="M3457.43 4030.21H3324.45C3319.81 4030.21 3315.35 4032.06 3312.06 4035.35C3308.78 4038.63 3306.93 4043.09 3306.93 4047.73V4180.71C3306.93 4185.36 3308.78 4189.81 3312.06 4193.1C3315.35 4196.39 3319.81 4198.23 3324.45 4198.23H3457.43C3462.08 4198.23 3466.53 4196.39 3469.82 4193.1C3473.1 4189.81 3474.95 4185.36 3474.95 4180.71V4047.73C3474.95 4045.43 3474.5 4043.16 3473.61 4041.03C3472.73 4038.9 3471.44 4036.97 3469.82 4035.35C3468.19 4033.72 3466.26 4032.43 3464.13 4031.55C3462.01 4030.67 3459.73 4030.21 3457.43 4030.21ZM3439.91 4163.19H3341.97V4065.25H3439.91V4163.19Z" fill="black"/>
<path d="M3656.81 4030.21H3523.83C3519.19 4030.21 3514.73 4032.06 3511.44 4035.35C3508.16 4038.63 3506.31 4043.09 3506.31 4047.73V4180.71C3506.31 4185.36 3508.16 4189.81 3511.44 4193.1C3514.73 4196.39 3519.19 4198.23 3523.83 4198.23H3656.81C3661.46 4198.23 3665.91 4196.39 3669.2 4193.1C3672.48 4189.81 3674.33 4185.36 3674.33 4180.71V4047.73C3674.33 4043.09 3672.48 4038.63 3669.2 4035.35C3665.91 4032.06 3661.46 4030.21 3656.81 4030.21ZM3639.29 4163.19H3541.35V4065.25H3639.29V4163.19Z" fill="black"/>
<path d="M3978.81 3657.99C3978.53 3664.08 3976.88 3669.46 3973.88 3674.15C3970.88 3678.79 3966.65 3682.4 3961.21 3684.96C3955.8 3687.52 3949.62 3688.8 3942.65 3688.8C3931.16 3688.8 3922.11 3685.06 3915.51 3677.57C3908.9 3670.08 3905.6 3659.51 3905.6 3645.86V3641.54C3905.6 3632.97 3907.08 3625.48 3910.04 3619.07C3913.04 3612.63 3917.35 3607.66 3922.95 3604.18C3928.56 3600.66 3935.04 3598.9 3942.41 3598.9C3953.02 3598.9 3961.55 3601.7 3968 3607.3C3974.44 3612.87 3978.11 3620.56 3978.99 3630.37H3957.97C3957.81 3625.04 3956.47 3621.22 3953.94 3618.89C3951.42 3616.57 3947.58 3615.41 3942.41 3615.41C3937.17 3615.41 3933.32 3617.37 3930.88 3621.3C3928.44 3625.22 3927.16 3631.49 3927.04 3640.1V3646.28C3927.04 3655.61 3928.2 3662.28 3930.52 3666.28C3932.88 3670.28 3936.93 3672.29 3942.65 3672.29C3947.5 3672.29 3951.2 3671.15 3953.76 3668.86C3956.32 3666.58 3957.69 3662.96 3957.85 3657.99H3978.81ZM4009.86 3671.39H4046.55V3687.6H3988.78V3600.16H4009.86V3671.39ZM4077.9 3687.6H4056.88V3600.16H4077.9V3687.6ZM4165.59 3687.6H4144.63L4113.64 3633.19V3687.6H4092.56V3600.16H4113.64L4144.57 3654.57V3600.16H4165.59V3687.6ZM4201.38 3687.6H4180.36V3600.16H4201.38V3687.6ZM4286.79 3657.99C4286.51 3664.08 4284.87 3669.46 4281.86 3674.15C4278.86 3678.79 4274.64 3682.4 4269.19 3684.96C4263.78 3687.52 4257.6 3688.8 4250.63 3688.8C4239.14 3688.8 4230.09 3685.06 4223.49 3677.57C4216.88 3670.08 4213.58 3659.51 4213.58 3645.86V3641.54C4213.58 3632.97 4215.06 3625.48 4218.02 3619.07C4221.02 3612.63 4225.33 3607.66 4230.93 3604.18C4236.54 3600.66 4243.02 3598.9 4250.39 3598.9C4261 3598.9 4269.53 3601.7 4275.98 3607.3C4282.42 3612.87 4286.09 3620.56 4286.97 3630.37H4265.95C4265.79 3625.04 4264.45 3621.22 4261.92 3618.89C4259.4 3616.57 4255.56 3615.41 4250.39 3615.41C4245.15 3615.41 4241.3 3617.37 4238.86 3621.3C4236.42 3625.22 4235.14 3631.49 4235.02 3640.1V3646.28C4235.02 3655.61 4236.18 3662.28 4238.5 3666.28C4240.86 3670.28 4244.91 3672.29 4250.63 3672.29C4255.48 3672.29 4259.18 3671.15 4261.74 3668.86C4264.31 3666.58 4265.67 3662.96 4265.83 3657.99H4286.79Z" fill="black"/>
</mask>
<g mask="url(#mask3)">
<rect x="2808.08" y="2760.36" width="1997.28" height="1938.88" fill="#4F4F4F"/>
</g>
<mask id="mask4" mask-type="alpha" maskUnits="userSpaceOnUse" x="1708" y="3020" width="833" height="833">
<path d="M2470.03 3216.92C2470.03 3210.42 2468.75 3203.99 2466.26 3197.99C2463.77 3191.98 2460.13 3186.53 2455.54 3181.93C2450.94 3177.34 2445.49 3173.69 2439.48 3171.21C2433.48 3168.72 2427.05 3167.44 2420.55 3167.44H1828.45C1815.33 3167.44 1802.74 3172.65 1793.46 3181.93C1784.18 3191.21 1778.97 3203.8 1778.97 3216.92V3621.01H2470.36V3216.92H2470.03ZM2412.3 3563.28H1836.7V3225.17H2412.3V3563.28Z" fill="black"/>
<path d="M2196.72 3637.5C2198.04 3640.08 2198.72 3642.94 2198.72 3645.83C2198.72 3650.76 2196.76 3655.49 2193.28 3658.97C2189.8 3662.45 2185.07 3664.41 2180.14 3664.41H2068.86C2063.93 3664.41 2059.2 3662.45 2055.72 3658.97C2052.24 3655.49 2050.28 3650.76 2050.28 3645.83C2050.28 3642.94 2050.96 3640.08 2052.28 3637.5H1708C1708 3675.07 1741.82 3705.56 1783.55 3705.56H2465.45C2507.1 3705.56 2541 3675.07 2541 3637.5H2196.72Z" fill="black"/>
<path d="M1934.46 3461.89H2009.21V3439.14H1962.69V3421.26H2005.55V3398.51H1962.69V3380.64H2009.41V3357.89H1934.46V3461.89ZM2061.31 3357.89V3461.89H2088.93V3401.36H2089.75L2112.9 3461.07H2129.56L2152.72 3401.76H2153.53V3461.89H2181.15V3357.89H2146.01L2121.84 3416.79H2120.62L2096.45 3357.89H2061.31ZM2232.43 3461.89H2260.66V3427.56H2270.41L2288.69 3461.89H2319.37L2298.24 3423.09C2309.31 3417.76 2315.91 3407.65 2315.91 3393.23C2315.91 3371.09 2300.42 3357.89 2277.32 3357.89H2232.43V3461.89ZM2260.66 3405.62V3380.43H2270.62C2280.52 3380.43 2286.46 3384.29 2286.46 3393.23C2286.46 3402.12 2280.52 3405.62 2270.62 3405.62H2260.66Z" fill="black"/>
</mask>
<g mask="url(#mask4)">
<rect x="1683.01" y="2989.46" width="935.737" height="863.543" fill="#4F4F4F"/>
</g>
<defs>
<linearGradient id="paint0_linear" x1="3644.5" y1="1374" x2="3644.5" y2="5301" gradientUnits="userSpaceOnUse">
<stop offset="0.255208" stop-color="white" stop-opacity="0"/>
<stop offset="0.708333" stop-color="#EFEDE8"/>
</linearGradient>
</defs>
</svg>
