<svg width="22" height="18" viewBox="0 0 22 18" fill="none" xmlns="http://www.w3.org/2000/svg">
<mask id="mask0" mask-type="alpha" maskUnits="userSpaceOnUse" x="0" y="0" width="22" height="18">
<path d="M0 0H22V18H0V0Z" fill="white"/>
</mask>
<g mask="url(#mask0)">
<path fill-rule="evenodd" clip-rule="evenodd" d="M18.2618 11.0769C17.2297 13.1243 15.7832 14.7545 13.9205 15.9655C11.8873 17.3225 9.5535 18 6.91717 18C4.39633 18 2.09 17.3225 0 15.9655C0.315333 15.9951 0.672833 16.0098 1.07433 16.0098C3.16433 16.0098 5.04167 15.36 6.70267 14.0622C5.69983 14.0622 4.81983 13.7668 4.06083 13.176C3.30183 12.5834 2.7775 11.8412 2.4915 10.9477C2.7775 10.9754 3.05067 10.9902 3.30733 10.9902C3.70883 10.9902 4.11033 10.9477 4.51183 10.8609C3.47967 10.6302 2.61983 10.0966 1.93233 9.25846C1.24483 8.42215 0.902 7.47139 0.902 6.40431V6.31754C1.53267 6.69231 2.2055 6.89354 2.9205 6.92308C2.31917 6.48923 1.83333 5.94277 1.46117 5.27815C1.08717 4.61538 0.902 3.88615 0.902 3.09415C0.902 2.30031 1.1165 1.54338 1.5455 0.821538C2.66383 2.23569 4.0315 3.36 5.65033 4.19631C7.26917 5.03262 8.99433 5.49415 10.8277 5.58092C10.7708 5.23569 10.7415 4.88862 10.7415 4.54338C10.7415 3.73477 10.9432 2.97785 11.3428 2.27077C11.7443 1.56369 12.2888 1.00985 12.9763 0.605538C13.6638 0.201231 14.4082 0 15.2112 0C15.8693 0 16.478 0.129231 17.0372 0.389538C17.5945 0.648 18.0895 0.995077 18.5185 1.42708C19.5507 1.22585 20.5095 0.865846 21.3987 0.345231C21.054 1.41231 20.3958 2.25046 19.4223 2.856C20.2803 2.73969 21.1402 2.49415 22 2.11938C21.3693 3.04246 20.6103 3.83631 19.723 4.49908C19.7505 4.61538 19.7652 4.80185 19.7652 5.06215C19.7652 7.13908 19.2647 9.144 18.2618 11.0769Z" fill="#666667"/>
</g>
</svg>
