<svg width="80" height="79" viewBox="0 0 80 79" fill="none" xmlns="http://www.w3.org/2000/svg">
<mask id="mask0" mask-type="alpha" maskUnits="userSpaceOnUse" x="18" y="8" width="45" height="65">
<path d="M58.7506 8H22.0402C19.8117 8 18 9.5336 18 11.42V69.38C18 71.2664 19.8117 72.8 22.0402 72.8H58.7506C60.9791 72.8 62.7908 71.2664 62.7908 69.38V11.42C62.7908 9.5336 60.9791 8 58.7506 8ZM61.515 69.38C61.515 70.6688 60.2732 71.72 58.7506 71.72H22.0402C20.5177 71.72 19.2758 70.6688 19.2758 69.38V11.42C19.2758 10.1312 20.5177 9.08 22.0402 9.08H58.7506C60.2732 9.08 61.515 10.1312 61.515 11.42V69.38ZM58.1297 11.3336H22.6611C22.3124 11.3336 22.0232 11.5784 22.0232 11.8736V64.6568C22.0232 64.952 22.3124 65.1968 22.6611 65.1968H58.1382C58.487 65.1968 58.7762 64.952 58.7762 64.6568V11.8736C58.7676 11.5784 58.487 11.3336 58.1297 11.3336ZM57.4918 12.4136V42.8912C54.838 42.1352 48.3652 41.2928 46.4259 41.0408V37.916C47.9399 36.4544 49.0882 34.5536 49.7006 32.6384C50.4321 32.408 51.5293 31.7096 51.5293 29.9168C51.5293 29.6576 51.4868 29.4056 51.4358 29.1608C51.4358 29.1464 51.4443 29.1392 51.4528 29.132C51.6824 28.3256 53.6302 21.1472 51.4102 18.7424C49.3944 16.5608 41.2885 16.5248 40.4039 16.5176C39.4768 16.5248 31.4049 16.5608 29.3976 18.7424C27.1691 21.1472 29.1254 28.3184 29.3551 29.132C29.3551 29.1464 29.3636 29.1536 29.3721 29.1608C29.3125 29.4056 29.2785 29.6576 29.2785 29.9168C29.2785 31.7168 30.3757 32.4152 31.1072 32.6384C31.7196 34.5536 32.8594 36.4544 34.3819 37.916V41.0408C32.4766 41.2784 26.2165 42.0992 23.316 42.9056V12.4136H57.4918ZM49.6921 54.0872C50.7553 54.0872 51.6144 54.8144 51.6144 55.7072C51.6144 56.6 50.7553 57.3272 49.6921 57.3272C48.6289 57.3272 47.7698 56.6 47.7698 55.7072C47.7698 54.8144 48.6374 54.0872 49.6921 54.0872ZM30.3928 19.4048C31.7622 17.9216 37.9968 17.5976 40.3444 17.5976C40.3614 17.5976 40.3784 17.5976 40.3954 17.5976C42.7345 17.5976 49.0116 17.9072 50.3981 19.4048C51.6994 20.8088 51.1125 24.992 50.5342 27.548C50.4151 27.44 50.279 27.3464 50.1429 27.2672V27.008C50.1514 24.884 50.1514 23.5952 49.1903 22.7816C48.0165 21.788 45.788 21.7448 40.3954 21.7448C34.9433 21.7448 32.6808 21.7808 31.5325 22.76C30.6139 23.5448 30.6224 24.74 30.6394 26.72V27.2672C30.5033 27.3392 30.3757 27.4328 30.2482 27.548C29.6868 24.992 29.0914 20.816 30.3928 19.4048ZM31.3964 28.1384C31.4219 28.1312 31.4475 28.124 31.473 28.1168C31.507 28.1096 31.541 28.0952 31.575 28.0808C31.6176 28.0592 31.6601 28.0376 31.7026 28.0088C31.7196 27.9944 31.7452 27.98 31.7622 27.9584C31.7962 27.9224 31.8302 27.8864 31.8557 27.8432C31.8642 27.8288 31.8727 27.8072 31.8812 27.7928C31.9068 27.7424 31.9153 27.692 31.9153 27.6416C31.9153 27.6272 31.9238 27.62 31.9238 27.6056L31.9153 26.72C31.8983 25.0208 31.8983 23.9984 32.4426 23.5304C33.2251 22.8608 35.5812 22.832 40.3954 22.832C45.1586 22.832 47.4806 22.8608 48.2887 23.552C48.8756 24.056 48.8756 25.172 48.8671 27.0152V27.6128C48.8671 27.8648 49.0712 28.0664 49.3434 28.124C49.3604 28.1312 49.3774 28.1384 49.3944 28.1456C49.6156 28.1888 50.245 28.88 50.245 29.924C50.245 31.508 49.1648 31.6592 49.1733 31.6592C48.8756 31.6592 48.6204 31.832 48.5523 32.0696C47.4891 35.756 44.342 39.4784 40.3869 39.4784C36.4318 39.4784 33.2932 35.7488 32.2215 32.0696C32.1534 31.8248 31.9493 31.6592 31.6516 31.6592C31.6091 31.652 30.5288 31.508 30.5288 29.9168C30.5373 28.8728 31.1753 28.1888 31.3964 28.1384ZM35.0879 42.0488C35.4026 42.0128 35.6322 41.7824 35.6322 41.516V38.9816C37.0187 39.9536 38.6347 40.5656 40.3869 40.5656C42.1391 40.5656 43.7551 39.9536 45.1416 38.9816V41.516C45.1416 41.7824 45.3712 42.0128 45.6859 42.0488C45.7029 42.0488 45.9241 42.0776 46.2983 42.128C46.2133 46.016 41.7308 49.364 40.3954 50.2784C39.0515 49.364 34.5775 46.0232 34.484 42.128C34.8497 42.0776 35.0709 42.0488 35.0879 42.0488ZM23.299 64.1168V44.0504C24.7535 43.5824 27.7645 43.0712 30.3842 42.6896V48.9824C25.0937 51.164 24.6429 54.26 24.6429 58.3784C24.6174 58.5152 24.6429 58.6808 24.7535 58.8464C25.0087 59.192 25.5785 59.3504 26.6247 59.372C26.7949 59.6096 27.05 59.7608 27.3052 59.7968C27.3392 59.804 27.3732 59.804 27.4073 59.804C27.7135 59.804 27.9857 59.6168 28.0367 59.3504C28.0792 59.12 27.9431 58.8968 27.7135 58.7888C27.7135 58.7816 27.7135 58.7744 27.7135 58.7672C27.9601 58.652 28.0962 58.4216 28.0282 58.1768C27.9516 57.8888 27.6114 57.7016 27.2712 57.7664C26.999 57.8168 26.7268 58.004 26.5652 58.2848C26.2505 58.2776 26.0464 58.256 25.9188 58.2272C25.9273 54.3608 26.3526 51.8408 30.9456 49.9472C35.5387 51.8408 35.964 54.368 35.9725 58.2272C35.8534 58.2488 35.6493 58.2704 35.326 58.2848C35.1644 57.9968 34.8922 57.8168 34.6201 57.7664C34.2713 57.7016 33.9396 57.8888 33.8631 58.1768C33.8035 58.4144 33.9396 58.652 34.1778 58.7672C34.1778 58.7744 34.1778 58.7816 34.1778 58.7888C33.9481 58.8968 33.812 59.12 33.8546 59.3504C33.9056 59.6168 34.1778 59.804 34.484 59.804C34.518 59.804 34.552 59.804 34.586 59.7968C34.8412 59.7608 35.0964 59.6096 35.2665 59.372C36.3127 59.3504 36.8826 59.192 37.1377 58.8464C37.2568 58.688 37.2738 58.5224 37.2483 58.3784C37.2483 54.3032 36.7975 51.2288 31.6601 49.0544V42.5312H31.5155C32.1364 42.4448 32.7233 42.3656 33.2251 42.2936C33.4633 47.3192 39.7575 51.236 40.0297 51.4016C40.1402 51.4664 40.2763 51.5024 40.4039 51.5024C40.5315 51.5024 40.6676 51.4664 40.7782 51.4016C41.0503 51.236 47.3445 47.3192 47.5827 42.2936C48.025 42.3512 48.5268 42.4232 49.0712 42.4952V53.0648C47.6167 53.3168 46.511 54.4112 46.511 55.7144C46.511 57.2048 47.9484 58.4144 49.7091 58.4144C51.4698 58.4144 52.9072 57.2048 52.9072 55.7144C52.9072 54.4112 51.81 53.3168 50.347 53.0648V42.6752C53.0348 43.0712 56.1479 43.5824 57.4578 44.0288C57.4748 44.036 57.4918 44.036 57.5088 44.036V64.124H23.299V64.1168ZM47.0553 67.9472C47.0553 68.2424 46.7662 68.4872 46.4174 68.4872H34.3734C34.0247 68.4872 33.7355 68.2424 33.7355 67.9472C33.7355 67.652 34.0247 67.4072 34.3734 67.4072H46.4174C46.7662 67.4072 47.0553 67.652 47.0553 67.9472Z" fill="black"/>
</mask>
<g mask="url(#mask0)">
<rect x="17" y="7" width="46" height="67" fill="#DCB05A"/>
</g>
</svg>
